<?xml version="1.0" encoding="UTF-8" standalone="no"?>
<!DOCTYPE svg PUBLIC "-//W3C//DTD SVG 1.1//EN"
 "http://www.w3.org/Graphics/SVG/1.1/DTD/svg11.dtd">
<!-- Generated by graphviz version 15.0.0 (20260523.1842)
 -->
<!-- Title: ArvoreBuscaAStar Pages: 1 -->
<svg width="2386pt" height="548pt"
 viewBox="0.00 0.00 2386.00 548.00" xmlns="http://www.w3.org/2000/svg" xmlns:xlink="http://www.w3.org/1999/xlink">
<g id="graph0" class="graph" transform="scale(1 1) rotate(0) translate(4 543.76)">
<title>ArvoreBuscaAStar</title>
<polygon fill="white" stroke="none" points="-4,4 -4,-543.76 2382.03,-543.76 2382.03,4 -4,4"/>
<text xml:space="preserve" text-anchor="middle" x="1189.01" y="-524.36" font-family="Arial" font-size="12.00">Arvore focada compactada: mostra o caminho escolhido e algumas alternativas imediatas. Ramos omitidos sao limite visual, nao poda do A*.</text>
<g id="clust1" class="cluster">
<title>cluster_legend</title>
<polygon fill="none" stroke="#cccccc" points="1211.03,-411.51 1211.03,-509.51 2370.03,-509.51 2370.03,-411.51 1211.03,-411.51"/>
<text xml:space="preserve" text-anchor="middle" x="1790.53" y="-495.06" font-family="Arial" font-size="11.00">Legenda</text>
</g>
<!-- S1 -->
<g id="node1" class="node">
<title>S1</title>
<ellipse fill="#dbeafe" stroke="black" cx="1107.03" cy="-449.76" rx="85.03" ry="31.11"/>
<text xml:space="preserve" text-anchor="middle" x="1107.03" y="-458.26" font-family="Arial" font-size="10.00">C10</text>
<text xml:space="preserve" text-anchor="middle" x="1107.03" y="-446.26" font-family="Arial" font-size="10.00">g=2,00 h=29,48 f=31,48</text>
<text xml:space="preserve" text-anchor="middle" x="1107.03" y="-434.26" font-family="Arial" font-size="10.00">b=98% coletas=1</text>
</g>
<!-- S2 -->
<g id="node2" class="node">
<title>S2</title>
<ellipse fill="#dbeafe" stroke="black" cx="705.03" cy="-318.53" rx="88.74" ry="31.11"/>
<text xml:space="preserve" text-anchor="middle" x="705.03" y="-327.03" font-family="Arial" font-size="10.00">C11</text>
<text xml:space="preserve" text-anchor="middle" x="705.03" y="-315.03" font-family="Arial" font-size="10.00">g=24,00 h=40,86 f=64,86</text>
<text xml:space="preserve" text-anchor="middle" x="705.03" y="-303.03" font-family="Arial" font-size="10.00">b=76% coletas=2</text>
</g>
<!-- S1&#45;&gt;S2 -->
<g id="edge1" class="edge">
<title>S1&#45;&gt;S2</title>
<path fill="none" stroke="#2563eb" stroke-width="2" d="M1044.22,-428.57C973.31,-405.77 857.92,-368.68 781.74,-344.19"/>
<polygon fill="#2563eb" stroke="#2563eb" stroke-width="2" points="782.87,-340.88 772.28,-341.15 780.73,-347.54 782.87,-340.88"/>
<text xml:space="preserve" text-anchor="middle" x="952.6" y="-386.1" font-family="Arial" font-size="9.00">escolhido</text>
<text xml:space="preserve" text-anchor="middle" x="952.6" y="-375.6" font-family="Arial" font-size="9.00">20 + coleta</text>
</g>
<!-- S5 -->
<g id="node5" class="node">
<title>S5</title>
<ellipse fill="#e5e7eb" stroke="black" stroke-dasharray="5,2" cx="906.03" cy="-318.53" rx="85.03" ry="31.11"/>
<text xml:space="preserve" text-anchor="middle" x="906.03" y="-327.03" font-family="Arial" font-size="10.00">C4</text>
<text xml:space="preserve" text-anchor="middle" x="906.03" y="-315.03" font-family="Arial" font-size="10.00">g=30,00 h=3,00 f=33,00</text>
<text xml:space="preserve" text-anchor="middle" x="906.03" y="-303.03" font-family="Arial" font-size="10.00">b=70% coletas=2</text>
</g>
<!-- S1&#45;&gt;S5 -->
<g id="edge4" class="edge">
<title>S1&#45;&gt;S5</title>
<path fill="none" stroke="#9ca3af" d="M1065.87,-422.3C1034.4,-402.07 990.85,-374.07 957.15,-352.4"/>
<polygon fill="#9ca3af" stroke="#9ca3af" points="959.06,-349.47 948.75,-347 955.27,-355.35 959.06,-349.47"/>
<text xml:space="preserve" text-anchor="middle" x="1041.06" y="-386.1" font-family="Arial" font-size="9.00">opcao</text>
<text xml:space="preserve" text-anchor="middle" x="1041.06" y="-375.6" font-family="Arial" font-size="9.00">26 + coleta</text>
</g>
<!-- S6 -->
<g id="node6" class="node">
<title>S6</title>
<ellipse fill="#e5e7eb" stroke="black" stroke-dasharray="5,2" cx="1107.03" cy="-318.53" rx="88.74" ry="31.11"/>
<text xml:space="preserve" text-anchor="middle" x="1107.03" y="-327.03" font-family="Arial" font-size="10.00">R6</text>
<text xml:space="preserve" text-anchor="middle" x="1107.03" y="-315.03" font-family="Arial" font-size="10.00">g=16,00 h=30,49 f=46,49</text>
<text xml:space="preserve" text-anchor="middle" x="1107.03" y="-303.03" font-family="Arial" font-size="10.00">b=84% coletas=1</text>
</g>
<!-- S1&#45;&gt;S6 -->
<g id="edge5" class="edge">
<title>S1&#45;&gt;S6</title>
<path fill="none" stroke="#9ca3af" d="M1107.03,-418.46C1107.03,-401.49 1107.03,-380.07 1107.03,-361.51"/>
<polygon fill="#9ca3af" stroke="#9ca3af" points="1110.53,-361.6 1107.03,-351.6 1103.53,-361.6 1110.53,-361.6"/>
<text xml:space="preserve" text-anchor="middle" x="1119.78" y="-386.1" font-family="Arial" font-size="9.00">opcao</text>
<text xml:space="preserve" text-anchor="middle" x="1119.78" y="-375.6" font-family="Arial" font-size="9.00">14</text>
</g>
<!-- S7 -->
<g id="node7" class="node">
<title>S7</title>
<ellipse fill="#e5e7eb" stroke="black" stroke-dasharray="5,2" cx="1311.03" cy="-318.53" rx="88.74" ry="31.11"/>
<text xml:space="preserve" text-anchor="middle" x="1311.03" y="-327.03" font-family="Arial" font-size="10.00">C9</text>
<text xml:space="preserve" text-anchor="middle" x="1311.03" y="-315.03" font-family="Arial" font-size="10.00">g=35,00 h=32,70 f=67,70</text>
<text xml:space="preserve" text-anchor="middle" x="1311.03" y="-303.03" font-family="Arial" font-size="10.00">b=65% coletas=2</text>
</g>
<!-- S1&#45;&gt;S7 -->
<g id="edge6" class="edge">
<title>S1&#45;&gt;S7</title>
<path fill="none" stroke="#9ca3af" d="M1148.8,-422.3C1180.88,-401.98 1225.32,-373.82 1259.59,-352.12"/>
<polygon fill="#9ca3af" stroke="#9ca3af" points="1261.11,-355.3 1267.68,-346.99 1257.36,-349.39 1261.11,-355.3"/>
<text xml:space="preserve" text-anchor="middle" x="1243.74" y="-386.1" font-family="Arial" font-size="9.00">opcao</text>
<text xml:space="preserve" text-anchor="middle" x="1243.74" y="-375.6" font-family="Arial" font-size="9.00">31 + coleta</text>
</g>
<!-- P1 -->
<g id="node8" class="node">
<title>P1</title>
<polygon fill="#fef3c7" stroke="#f59e0b" stroke-dasharray="5,2" points="1539.03,-346.53 1427.03,-346.53 1427.03,-290.53 1539.03,-290.53 1539.03,-346.53"/>
<text xml:space="preserve" text-anchor="middle" x="1483.03" y="-333.03" font-family="Arial" font-size="10.00" fill="#92400e">+1 ramos omitidos</text>
<text xml:space="preserve" text-anchor="middle" x="1483.03" y="-321.03" font-family="Arial" font-size="10.00" fill="#92400e">limite visual</text>
<text xml:space="preserve" text-anchor="middle" x="1483.03" y="-309.03" font-family="Arial" font-size="10.00" fill="#92400e">(estados gerados,</text>
<text xml:space="preserve" text-anchor="middle" x="1483.03" y="-297.03" font-family="Arial" font-size="10.00" fill="#92400e">mas nao desenhados)</text>
</g>
<!-- S1&#45;&gt;P1 -->
<g id="edge7" class="edge">
<title>S1&#45;&gt;P1</title>
<path fill="none" stroke="#d97706" stroke-dasharray="5,2" d="M1163.38,-426.06C1176.91,-420.96 1191.4,-415.8 1205.03,-411.51 1234.32,-402.29 1242.5,-403.07 1272.03,-394.65 1335.29,-376.61 1351.41,-372.67 1413.03,-349.65 1417.49,-347.98 1422.08,-346.19 1426.68,-344.33"/>
</g>
<!-- S3 -->
<g id="node3" class="node">
<title>S3</title>
<ellipse fill="#dbeafe" stroke="black" cx="297.03" cy="-187.31" rx="88.74" ry="31.11"/>
<text xml:space="preserve" text-anchor="middle" x="297.03" y="-195.81" font-family="Arial" font-size="10.00">C10</text>
<text xml:space="preserve" text-anchor="middle" x="297.03" y="-183.81" font-family="Arial" font-size="10.00">g=44,00 h=26,48 f=70,48</text>
<text xml:space="preserve" text-anchor="middle" x="297.03" y="-171.81" font-family="Arial" font-size="10.00">b=56% coletas=2</text>
</g>
<!-- S2&#45;&gt;S3 -->
<g id="edge2" class="edge">
<title>S2&#45;&gt;S3</title>
<path fill="none" stroke="#2563eb" stroke-width="2" d="M639.93,-296.92C567.53,-273.99 450.69,-236.98 373.87,-212.65"/>
<polygon fill="#2563eb" stroke="#2563eb" stroke-width="2" points="375.37,-209.45 364.78,-209.77 373.26,-216.12 375.37,-209.45"/>
<text xml:space="preserve" text-anchor="middle" x="545.33" y="-254.87" font-family="Arial" font-size="9.00">escolhido</text>
<text xml:space="preserve" text-anchor="middle" x="545.33" y="-244.37" font-family="Arial" font-size="9.00">20</text>
</g>
<!-- S8 -->
<g id="node9" class="node">
<title>S8</title>
<ellipse fill="#e5e7eb" stroke="black" stroke-dasharray="5,2" cx="501.03" cy="-187.31" rx="88.74" ry="31.11"/>
<text xml:space="preserve" text-anchor="middle" x="501.03" y="-195.81" font-family="Arial" font-size="10.00">R6</text>
<text xml:space="preserve" text-anchor="middle" x="501.03" y="-183.81" font-family="Arial" font-size="10.00">g=41,00 h=27,49 f=68,49</text>
<text xml:space="preserve" text-anchor="middle" x="501.03" y="-171.81" font-family="Arial" font-size="10.00">b=59% coletas=2</text>
</g>
<!-- S2&#45;&gt;S8 -->
<g id="edge8" class="edge">
<title>S2&#45;&gt;S8</title>
<path fill="none" stroke="#9ca3af" d="M662.76,-290.76C630.76,-270.49 586.64,-242.54 552.57,-220.96"/>
<polygon fill="#9ca3af" stroke="#9ca3af" points="554.84,-218.25 544.52,-215.86 551.1,-224.17 554.84,-218.25"/>
<text xml:space="preserve" text-anchor="middle" x="627.99" y="-254.87" font-family="Arial" font-size="9.00">opcao</text>
<text xml:space="preserve" text-anchor="middle" x="627.99" y="-244.37" font-family="Arial" font-size="9.00">17</text>
</g>
<!-- A1 -->
<g id="node10" class="node">
<title>A1</title>
<ellipse fill="white" stroke="black" cx="705.03" cy="-187.31" rx="88.74" ry="31.11"/>
<text xml:space="preserve" text-anchor="middle" x="705.03" y="-195.81" font-family="Arial" font-size="10.00">C7</text>
<text xml:space="preserve" text-anchor="middle" x="705.03" y="-183.81" font-family="Arial" font-size="10.00">g=51,00 h=42,00 f=93,00</text>
<text xml:space="preserve" text-anchor="middle" x="705.03" y="-171.81" font-family="Arial" font-size="10.00">b=49% coletas=3</text>
</g>
<!-- S2&#45;&gt;A1 -->
<g id="edge9" class="edge">
<title>S2&#45;&gt;A1</title>
<path fill="none" stroke="#9ca3af" d="M705.03,-287.24C705.03,-270.27 705.03,-248.85 705.03,-230.28"/>
<polygon fill="#9ca3af" stroke="#9ca3af" points="708.53,-230.38 705.03,-220.38 701.53,-230.38 708.53,-230.38"/>
<text xml:space="preserve" text-anchor="middle" x="727.53" y="-254.87" font-family="Arial" font-size="9.00">opcao</text>
<text xml:space="preserve" text-anchor="middle" x="727.53" y="-244.37" font-family="Arial" font-size="9.00">25 + coleta</text>
</g>
<!-- A2 -->
<g id="node11" class="node">
<title>A2</title>
<ellipse fill="white" stroke="black" cx="913.03" cy="-187.31" rx="92.45" ry="31.11"/>
<text xml:space="preserve" text-anchor="middle" x="913.03" y="-195.81" font-family="Arial" font-size="10.00">C12</text>
<text xml:space="preserve" text-anchor="middle" x="913.03" y="-183.81" font-family="Arial" font-size="10.00">g=47,00 h=56,54 f=103,54</text>
<text xml:space="preserve" text-anchor="middle" x="913.03" y="-171.81" font-family="Arial" font-size="10.00">b=53% coletas=3</text>
</g>
<!-- S2&#45;&gt;A2 -->
<g id="edge10" class="edge">
<title>S2&#45;&gt;A2</title>
<path fill="none" stroke="#9ca3af" d="M747.88,-290.92C780.49,-270.65 825.54,-242.66 860.35,-221.03"/>
<polygon fill="#9ca3af" stroke="#9ca3af" points="861.95,-224.16 868.6,-215.91 858.26,-218.22 861.95,-224.16"/>
<text xml:space="preserve" text-anchor="middle" x="843.98" y="-254.87" font-family="Arial" font-size="9.00">opcao</text>
<text xml:space="preserve" text-anchor="middle" x="843.98" y="-244.37" font-family="Arial" font-size="9.00">21 + coleta</text>
</g>
<!-- P2 -->
<g id="node12" class="node">
<title>P2</title>
<polygon fill="#fef3c7" stroke="#f59e0b" stroke-dasharray="5,2" points="1144.03,-215.31 1032.03,-215.31 1032.03,-159.31 1144.03,-159.31 1144.03,-215.31"/>
<text xml:space="preserve" text-anchor="middle" x="1088.03" y="-201.81" font-family="Arial" font-size="10.00" fill="#92400e">+1 ramos omitidos</text>
<text xml:space="preserve" text-anchor="middle" x="1088.03" y="-189.81" font-family="Arial" font-size="10.00" fill="#92400e">limite visual</text>
<text xml:space="preserve" text-anchor="middle" x="1088.03" y="-177.81" font-family="Arial" font-size="10.00" fill="#92400e">(estados gerados,</text>
<text xml:space="preserve" text-anchor="middle" x="1088.03" y="-165.81" font-family="Arial" font-size="10.00" fill="#92400e">mas nao desenhados)</text>
</g>
<!-- S2&#45;&gt;P2 -->
<g id="edge11" class="edge">
<title>S2&#45;&gt;P2</title>
<path fill="none" stroke="#d97706" stroke-dasharray="5,2" d="M771.44,-297.48C849.27,-273.81 973.4,-235.53 1019.03,-218.42 1023.19,-216.86 1027.46,-215.19 1031.75,-213.45"/>
</g>
<!-- S4 -->
<g id="node4" class="node">
<title>S4</title>
<ellipse fill="#b6f2b6" stroke="black" cx="89.03" cy="-43.6" rx="85.03" ry="39.6"/>
<ellipse fill="none" stroke="black" cx="89.03" cy="-43.6" rx="89.03" ry="43.6"/>
<text xml:space="preserve" text-anchor="middle" x="89.03" y="-58.1" font-family="Arial" font-size="10.00">OBJETIVO</text>
<text xml:space="preserve" text-anchor="middle" x="89.03" y="-46.1" font-family="Arial" font-size="10.00">C4</text>
<text xml:space="preserve" text-anchor="middle" x="89.03" y="-34.1" font-family="Arial" font-size="10.00">g=72,00 h=0,00 f=72,00</text>
<text xml:space="preserve" text-anchor="middle" x="89.03" y="-22.1" font-family="Arial" font-size="10.00">b=28% coletas=3</text>
</g>
<!-- S3&#45;&gt;S4 -->
<g id="edge3" class="edge">
<title>S3&#45;&gt;S4</title>
<path fill="none" stroke="#2563eb" stroke-width="2" d="M257.42,-159.32C227.29,-138.8 185.29,-110.18 150.77,-86.66"/>
<polygon fill="#2563eb" stroke="#2563eb" stroke-width="2" points="153.05,-83.98 142.82,-81.25 149.11,-89.77 153.05,-83.98"/>
<text xml:space="preserve" text-anchor="middle" x="234.16" y="-123.65" font-family="Arial" font-size="9.00">escolhido</text>
<text xml:space="preserve" text-anchor="middle" x="234.16" y="-113.15" font-family="Arial" font-size="9.00">26 + coleta</text>
</g>
<!-- A3 -->
<g id="node13" class="node">
<title>A3</title>
<ellipse fill="white" stroke="black" cx="297.03" cy="-43.6" rx="92.45" ry="31.11"/>
<text xml:space="preserve" text-anchor="middle" x="297.03" y="-52.1" font-family="Arial" font-size="10.00">C9</text>
<text xml:space="preserve" text-anchor="middle" x="297.03" y="-40.1" font-family="Arial" font-size="10.00">g=77,00 h=29,70 f=106,70</text>
<text xml:space="preserve" text-anchor="middle" x="297.03" y="-28.1" font-family="Arial" font-size="10.00">b=23% coletas=3</text>
</g>
<!-- S3&#45;&gt;A3 -->
<g id="edge12" class="edge">
<title>S3&#45;&gt;A3</title>
<path fill="none" stroke="#9ca3af" d="M297.03,-155.91C297.03,-135.64 297.03,-108.73 297.03,-86.45"/>
<polygon fill="#9ca3af" stroke="#9ca3af" points="300.53,-86.46 297.03,-76.46 293.53,-86.46 300.53,-86.46"/>
<text xml:space="preserve" text-anchor="middle" x="319.53" y="-123.65" font-family="Arial" font-size="9.00">opcao</text>
<text xml:space="preserve" text-anchor="middle" x="319.53" y="-113.15" font-family="Arial" font-size="9.00">31 + coleta</text>
</g>
<!-- A4 -->
<g id="node14" class="node">
<title>A4</title>
<ellipse fill="white" stroke="black" cx="508.03" cy="-43.6" rx="91.92" ry="31.11"/>
<text xml:space="preserve" text-anchor="middle" x="508.03" y="-52.1" font-family="Arial" font-size="10.00">C13</text>
<text xml:space="preserve" text-anchor="middle" x="508.03" y="-40.1" font-family="Arial" font-size="10.00">g=70,00 h=42,00 f=112,00</text>
<text xml:space="preserve" text-anchor="middle" x="508.03" y="-28.1" font-family="Arial" font-size="10.00">b=30% coletas=3</text>
</g>
<!-- S3&#45;&gt;A4 -->
<g id="edge13" class="edge">
<title>S3&#45;&gt;A4</title>
<path fill="none" stroke="#9ca3af" d="M337.21,-159.32C371.6,-136.22 421.26,-102.87 458.18,-78.08"/>
<polygon fill="#9ca3af" stroke="#9ca3af" points="459.67,-81.29 466.02,-72.81 455.77,-75.48 459.67,-81.29"/>
<text xml:space="preserve" text-anchor="middle" x="431.36" y="-123.65" font-family="Arial" font-size="9.00">opcao</text>
<text xml:space="preserve" text-anchor="middle" x="431.36" y="-113.15" font-family="Arial" font-size="9.00">24 + coleta</text>
</g>
<!-- legend_solution -->
<g id="node15" class="node">
<title>legend_solution</title>
<polygon fill="#dbeafe" stroke="black" points="1358.9,-467.76 1219.15,-467.76 1219.15,-431.76 1358.9,-431.76 1358.9,-467.76"/>
<text xml:space="preserve" text-anchor="middle" x="1289.03" y="-451.71" font-family="Arial" font-size="9.00">Estado no caminho escolhido</text>
<text xml:space="preserve" text-anchor="middle" x="1289.03" y="-441.21" font-family="Arial" font-size="9.00">arestas azuis ligam a rota final</text>
</g>
<!-- legend_recharge -->
<g id="node16" class="node">
<title>legend_recharge</title>
<polygon fill="#dcfce7" stroke="#059669" points="1524.53,-467.76 1385.53,-467.76 1385.53,-431.76 1524.53,-431.76 1524.53,-467.76"/>
<text xml:space="preserve" text-anchor="middle" x="1455.03" y="-451.71" font-family="Arial" font-size="9.00">Acao de recarga executada</text>
<text xml:space="preserve" text-anchor="middle" x="1455.03" y="-441.21" font-family="Arial" font-size="9.00">recarga tambem entra em g(s)</text>
</g>
<!-- legend_goal -->
<g id="node17" class="node">
<title>legend_goal</title>
<polygon fill="#b6f2b6" stroke="black" points="1642.28,-467.76 1555.78,-467.76 1555.78,-431.76 1642.28,-431.76 1642.28,-467.76"/>
<polygon fill="none" stroke="black" points="1646.28,-471.76 1551.78,-471.76 1551.78,-427.76 1646.28,-427.76 1646.28,-471.76"/>
<text xml:space="preserve" text-anchor="middle" x="1599.03" y="-446.46" font-family="Arial" font-size="9.00">Destino / objetivo</text>
</g>
<!-- legend_expanded -->
<g id="node18" class="node">
<title>legend_expanded</title>
<polygon fill="#e5e7eb" stroke="black" points="1836.9,-467.76 1673.15,-467.76 1673.15,-431.76 1836.9,-431.76 1836.9,-467.76"/>
<text xml:space="preserve" text-anchor="middle" x="1755.03" y="-451.71" font-family="Arial" font-size="9.00">Expandido / Closed</text>
<text xml:space="preserve" text-anchor="middle" x="1755.03" y="-441.21" font-family="Arial" font-size="9.00">(filhos nao desenhados nesta visao)</text>
</g>
<!-- legend_open -->
<g id="node19" class="node">
<title>legend_open</title>
<polygon fill="white" stroke="black" points="2009.9,-467.76 1864.15,-467.76 1864.15,-431.76 2009.9,-431.76 2009.9,-467.76"/>
<text xml:space="preserve" text-anchor="middle" x="1937.03" y="-451.71" font-family="Arial" font-size="9.00">Gerado / Open</text>
<text xml:space="preserve" text-anchor="middle" x="1937.03" y="-441.21" font-family="Arial" font-size="9.00">candidato ainda nao expandido</text>
</g>
<!-- legend_alternative -->
<g id="node20" class="node">
<title>legend_alternative</title>
<polygon fill="white" stroke="black" points="2145.15,-467.76 2036.9,-467.76 2036.9,-431.76 2145.15,-431.76 2145.15,-467.76"/>
<text xml:space="preserve" text-anchor="middle" x="2091.03" y="-451.71" font-family="Arial" font-size="9.00">Alternativa desenhada</text>
<text xml:space="preserve" text-anchor="middle" x="2091.03" y="-441.21" font-family="Arial" font-size="9.00">aresta cinza</text>
</g>
<!-- legend_pruned -->
<g id="node21" class="node">
<title>legend_pruned</title>
<polygon fill="#fef3c7" stroke="black" points="2362.03,-480.01 2172.03,-480.01 2172.03,-419.51 2362.03,-419.51 2362.03,-480.01"/>
<text xml:space="preserve" text-anchor="middle" x="2267.03" y="-467.46" font-family="Arial" font-size="9.00">Ramos omitidos por limite visual:</text>
<text xml:space="preserve" text-anchor="middle" x="2267.03" y="-456.96" font-family="Arial" font-size="9.00">estados gerados na execucao,</text>
<text xml:space="preserve" text-anchor="middle" x="2267.03" y="-446.46" font-family="Arial" font-size="9.00">mas ocultados para evitar arvore ilegivel.</text>
<text xml:space="preserve" text-anchor="middle" x="2267.03" y="-435.96" font-family="Arial" font-size="9.00">Nao e poda do algoritmo;</text>
<text xml:space="preserve" text-anchor="middle" x="2267.03" y="-425.46" font-family="Arial" font-size="9.00">Open/Closed e metricas reais nao mudam.</text>
</g>
</g>
</svg>
