<?xml version="1.0" encoding="UTF-8" standalone="no"?>
<!DOCTYPE svg PUBLIC "-//W3C//DTD SVG 1.1//EN"
 "http://www.w3.org/Graphics/SVG/1.1/DTD/svg11.dtd">
<!-- Generated by graphviz version 15.0.0 (20260523.1842)
 -->
<!-- Title: ArvoreBuscaCompleta Pages: 1 -->
<svg width="3209pt" height="613pt"
 viewBox="0.00 0.00 3209.00 613.00" xmlns="http://www.w3.org/2000/svg" xmlns:xlink="http://www.w3.org/1999/xlink">
<g id="graph0" class="graph" transform="scale(1 1) rotate(0) translate(4 609.26)">
<title>ArvoreBuscaCompleta</title>
<polygon fill="white" stroke="none" points="-4,4 -4,-609.26 3205.03,-609.26 3205.03,4 -4,4"/>
<text xml:space="preserve" text-anchor="middle" x="1600.51" y="-589.86" font-family="Arial" font-size="12.00">Arvore completa compactada por limite visual: estados omitidos existiram na execucao, mas nao foram desenhados para manter a figura legivel.</text>
<g id="clust1" class="cluster">
<title>cluster_legend</title>
<polygon fill="none" stroke="#cccccc" points="2114.03,-477.01 2114.03,-575.01 3193.03,-575.01 3193.03,-477.01 2114.03,-477.01"/>
<text xml:space="preserve" text-anchor="middle" x="2653.53" y="-560.56" font-family="Arial" font-size="11.00">Legenda</text>
</g>
<!-- N1 -->
<g id="node1" class="node">
<title>N1</title>
<ellipse fill="#dbeafe" stroke="black" cx="2012.03" cy="-515.26" rx="85.03" ry="31.11"/>
<text xml:space="preserve" text-anchor="middle" x="2012.03" y="-523.76" font-family="Arial" font-size="10.00">C10</text>
<text xml:space="preserve" text-anchor="middle" x="2012.03" y="-511.76" font-family="Arial" font-size="10.00">g=2,00 h=29,48 f=31,48</text>
<text xml:space="preserve" text-anchor="middle" x="2012.03" y="-499.76" font-family="Arial" font-size="10.00">b=98% coletas=1</text>
</g>
<!-- N2 -->
<g id="node2" class="node">
<title>N2</title>
<ellipse fill="#dbeafe" stroke="black" cx="960.03" cy="-396.53" rx="88.74" ry="31.11"/>
<text xml:space="preserve" text-anchor="middle" x="960.03" y="-405.03" font-family="Arial" font-size="10.00">C11</text>
<text xml:space="preserve" text-anchor="middle" x="960.03" y="-393.03" font-family="Arial" font-size="10.00">g=24,00 h=40,86 f=64,86</text>
<text xml:space="preserve" text-anchor="middle" x="960.03" y="-381.03" font-family="Arial" font-size="10.00">b=76% coletas=2</text>
</g>
<!-- N1&#45;&gt;N2 -->
<g id="edge1" class="edge">
<title>N1&#45;&gt;N2</title>
<path fill="none" stroke="#2563eb" stroke-width="2" d="M1931.23,-505.29C1740.46,-484.13 1262.72,-431.12 1056.88,-408.28"/>
<polygon fill="#2563eb" stroke="#2563eb" stroke-width="2" points="1057.35,-404.81 1047.03,-407.19 1056.58,-411.77 1057.35,-404.81"/>
<text xml:space="preserve" text-anchor="middle" x="1540.07" y="-452.6" font-family="Arial" font-size="9.00">20 + coleta</text>
</g>
<!-- N11 -->
<g id="node12" class="node">
<title>N11</title>
<ellipse fill="#e5e7eb" stroke="black" cx="1709.03" cy="-396.53" rx="85.03" ry="31.11"/>
<text xml:space="preserve" text-anchor="middle" x="1709.03" y="-405.03" font-family="Arial" font-size="10.00">C4</text>
<text xml:space="preserve" text-anchor="middle" x="1709.03" y="-393.03" font-family="Arial" font-size="10.00">g=30,00 h=3,00 f=33,00</text>
<text xml:space="preserve" text-anchor="middle" x="1709.03" y="-381.03" font-family="Arial" font-size="10.00">b=70% coletas=2</text>
</g>
<!-- N1&#45;&gt;N11 -->
<g id="edge11" class="edge">
<title>N1&#45;&gt;N11</title>
<path fill="none" stroke="#555555" d="M1954.32,-492.03C1903.96,-472.63 1830.81,-444.45 1777.5,-423.91"/>
<polygon fill="#555555" stroke="#555555" points="1778.78,-420.65 1768.19,-420.32 1776.26,-427.19 1778.78,-420.65"/>
<text xml:space="preserve" text-anchor="middle" x="1892.11" y="-452.6" font-family="Arial" font-size="9.00">26 + coleta</text>
</g>
<!-- N15 -->
<g id="node16" class="node">
<title>N15</title>
<ellipse fill="#e5e7eb" stroke="black" cx="2012.03" cy="-396.53" rx="88.74" ry="31.11"/>
<text xml:space="preserve" text-anchor="middle" x="2012.03" y="-405.03" font-family="Arial" font-size="10.00">R6</text>
<text xml:space="preserve" text-anchor="middle" x="2012.03" y="-393.03" font-family="Arial" font-size="10.00">g=16,00 h=30,49 f=46,49</text>
<text xml:space="preserve" text-anchor="middle" x="2012.03" y="-381.03" font-family="Arial" font-size="10.00">b=84% coletas=1</text>
</g>
<!-- N1&#45;&gt;N15 -->
<g id="edge15" class="edge">
<title>N1&#45;&gt;N15</title>
<path fill="none" stroke="#555555" d="M2012.03,-483.9C2012.03,-470.25 2012.03,-453.93 2012.03,-439.17"/>
<polygon fill="#555555" stroke="#555555" points="2015.53,-439.26 2012.03,-429.26 2008.53,-439.26 2015.53,-439.26"/>
<text xml:space="preserve" text-anchor="middle" x="2017.28" y="-452.6" font-family="Arial" font-size="9.00">14</text>
</g>
<!-- N20 -->
<g id="node22" class="node">
<title>N20</title>
<ellipse fill="#e5e7eb" stroke="black" cx="2214.03" cy="-396.53" rx="88.74" ry="31.11"/>
<text xml:space="preserve" text-anchor="middle" x="2214.03" y="-405.03" font-family="Arial" font-size="10.00">C9</text>
<text xml:space="preserve" text-anchor="middle" x="2214.03" y="-393.03" font-family="Arial" font-size="10.00">g=35,00 h=32,70 f=67,70</text>
<text xml:space="preserve" text-anchor="middle" x="2214.03" y="-381.03" font-family="Arial" font-size="10.00">b=65% coletas=2</text>
</g>
<!-- N1&#45;&gt;N20 -->
<g id="edge21" class="edge">
<title>N1&#45;&gt;N20</title>
<path fill="none" stroke="#555555" d="M2056.86,-488.35C2087.09,-470.89 2127.17,-447.73 2159.28,-429.17"/>
<polygon fill="#555555" stroke="#555555" points="2160.76,-432.36 2167.67,-424.33 2157.26,-426.3 2160.76,-432.36"/>
<text xml:space="preserve" text-anchor="middle" x="2141.59" y="-452.6" font-family="Arial" font-size="9.00">31 + coleta</text>
</g>
<!-- X3 -->
<g id="node26" class="node">
<title>X3</title>
<polygon fill="#fef3c7" stroke="#f59e0b" stroke-dasharray="5,2" points="2440.03,-424.53 2328.03,-424.53 2328.03,-368.53 2440.03,-368.53 2440.03,-424.53"/>
<text xml:space="preserve" text-anchor="middle" x="2384.03" y="-411.03" font-family="Arial" font-size="10.00" fill="#92400e">+1 ramos omitidos</text>
<text xml:space="preserve" text-anchor="middle" x="2384.03" y="-399.03" font-family="Arial" font-size="10.00" fill="#92400e">limite visual</text>
<text xml:space="preserve" text-anchor="middle" x="2384.03" y="-387.03" font-family="Arial" font-size="10.00" fill="#92400e">(estados gerados,</text>
<text xml:space="preserve" text-anchor="middle" x="2384.03" y="-375.03" font-family="Arial" font-size="10.00" fill="#92400e">mas nao desenhados)</text>
</g>
<!-- N1&#45;&gt;X3 -->
<g id="edge25" class="edge">
<title>N1&#45;&gt;X3</title>
<path fill="none" stroke="#d97706" stroke-dasharray="5,2" d="M2067.42,-491.29C2080.6,-486.24 2094.72,-481.16 2108.03,-477.01 2153.18,-462.94 2270.18,-442.65 2315.03,-427.65 2319.24,-426.24 2323.56,-424.67 2327.87,-423.01"/>
</g>
<!-- N3 -->
<g id="node3" class="node">
<title>N3</title>
<ellipse fill="#dbeafe" stroke="black" cx="399.03" cy="-277.81" rx="88.74" ry="31.11"/>
<text xml:space="preserve" text-anchor="middle" x="399.03" y="-286.31" font-family="Arial" font-size="10.00">C10</text>
<text xml:space="preserve" text-anchor="middle" x="399.03" y="-274.31" font-family="Arial" font-size="10.00">g=44,00 h=26,48 f=70,48</text>
<text xml:space="preserve" text-anchor="middle" x="399.03" y="-262.31" font-family="Arial" font-size="10.00">b=56% coletas=2</text>
</g>
<!-- N2&#45;&gt;N3 -->
<g id="edge2" class="edge">
<title>N2&#45;&gt;N3</title>
<path fill="none" stroke="#2563eb" stroke-width="2" d="M884.37,-379.79C781.09,-358.3 596.34,-319.86 487.01,-297.11"/>
<polygon fill="#2563eb" stroke="#2563eb" stroke-width="2" points="487.85,-293.71 477.35,-295.1 486.42,-300.57 487.85,-293.71"/>
<text xml:space="preserve" text-anchor="middle" x="701.6" y="-333.87" font-family="Arial" font-size="9.00">20</text>
</g>
<!-- N7 -->
<g id="node7" class="node">
<title>N7</title>
<ellipse fill="#e5e7eb" stroke="black" cx="655.03" cy="-277.81" rx="88.74" ry="31.11"/>
<text xml:space="preserve" text-anchor="middle" x="655.03" y="-286.31" font-family="Arial" font-size="10.00">R6</text>
<text xml:space="preserve" text-anchor="middle" x="655.03" y="-274.31" font-family="Arial" font-size="10.00">g=41,00 h=27,49 f=68,49</text>
<text xml:space="preserve" text-anchor="middle" x="655.03" y="-262.31" font-family="Arial" font-size="10.00">b=59% coletas=2</text>
</g>
<!-- N2&#45;&gt;N7 -->
<g id="edge6" class="edge">
<title>N2&#45;&gt;N7</title>
<path fill="none" stroke="#555555" d="M900.86,-372.89C850.46,-353.6 777.95,-325.85 724.74,-305.49"/>
<polygon fill="#555555" stroke="#555555" points="726.04,-302.24 715.45,-301.93 723.54,-308.77 726.04,-302.24"/>
<text xml:space="preserve" text-anchor="middle" x="821.92" y="-333.87" font-family="Arial" font-size="9.00">17</text>
</g>
<!-- N9 -->
<g id="node9" class="node">
<title>N9</title>
<ellipse fill="white" stroke="black" cx="857.03" cy="-277.81" rx="88.74" ry="31.11"/>
<text xml:space="preserve" text-anchor="middle" x="857.03" y="-286.31" font-family="Arial" font-size="10.00">C7</text>
<text xml:space="preserve" text-anchor="middle" x="857.03" y="-274.31" font-family="Arial" font-size="10.00">g=51,00 h=42,00 f=93,00</text>
<text xml:space="preserve" text-anchor="middle" x="857.03" y="-262.31" font-family="Arial" font-size="10.00">b=49% coletas=3</text>
</g>
<!-- N2&#45;&gt;N9 -->
<g id="edge8" class="edge">
<title>N2&#45;&gt;N9</title>
<path fill="none" stroke="#555555" d="M934.3,-366.38C920.91,-351.2 904.38,-332.47 890.05,-316.23"/>
<polygon fill="#555555" stroke="#555555" points="893.03,-314.31 883.79,-309.13 887.78,-318.94 893.03,-314.31"/>
<text xml:space="preserve" text-anchor="middle" x="934.12" y="-333.87" font-family="Arial" font-size="9.00">25 + coleta</text>
</g>
<!-- N10 -->
<g id="node10" class="node">
<title>N10</title>
<ellipse fill="white" stroke="black" cx="1063.03" cy="-277.81" rx="92.45" ry="31.11"/>
<text xml:space="preserve" text-anchor="middle" x="1063.03" y="-286.31" font-family="Arial" font-size="10.00">C12</text>
<text xml:space="preserve" text-anchor="middle" x="1063.03" y="-274.31" font-family="Arial" font-size="10.00">g=47,00 h=56,54 f=103,54</text>
<text xml:space="preserve" text-anchor="middle" x="1063.03" y="-262.31" font-family="Arial" font-size="10.00">b=53% coletas=3</text>
</g>
<!-- N2&#45;&gt;N10 -->
<g id="edge9" class="edge">
<title>N2&#45;&gt;N10</title>
<path fill="none" stroke="#555555" d="M985.76,-366.38C999.15,-351.2 1015.68,-332.47 1030.01,-316.23"/>
<polygon fill="#555555" stroke="#555555" points="1032.28,-318.94 1036.27,-309.13 1027.03,-314.31 1032.28,-318.94"/>
<text xml:space="preserve" text-anchor="middle" x="1037.12" y="-333.87" font-family="Arial" font-size="9.00">21 + coleta</text>
</g>
<!-- X1 -->
<g id="node11" class="node">
<title>X1</title>
<polygon fill="#fef3c7" stroke="#f59e0b" stroke-dasharray="5,2" points="1292.03,-305.81 1180.03,-305.81 1180.03,-249.81 1292.03,-249.81 1292.03,-305.81"/>
<text xml:space="preserve" text-anchor="middle" x="1236.03" y="-292.31" font-family="Arial" font-size="10.00" fill="#92400e">+1 ramos omitidos</text>
<text xml:space="preserve" text-anchor="middle" x="1236.03" y="-280.31" font-family="Arial" font-size="10.00" fill="#92400e">limite visual</text>
<text xml:space="preserve" text-anchor="middle" x="1236.03" y="-268.31" font-family="Arial" font-size="10.00" fill="#92400e">(estados gerados,</text>
<text xml:space="preserve" text-anchor="middle" x="1236.03" y="-256.31" font-family="Arial" font-size="10.00" fill="#92400e">mas nao desenhados)</text>
</g>
<!-- N2&#45;&gt;X1 -->
<g id="edge10" class="edge">
<title>N2&#45;&gt;X1</title>
<path fill="none" stroke="#d97706" stroke-dasharray="5,2" d="M1016.67,-372.35C1058.58,-355.1 1116.99,-330.84 1168.03,-308.92 1171.83,-307.29 1175.74,-305.6 1179.67,-303.88"/>
</g>
<!-- N4 -->
<g id="node4" class="node">
<title>N4</title>
<ellipse fill="#b6f2b6" stroke="black" cx="89.03" cy="-146.6" rx="85.03" ry="39.6"/>
<ellipse fill="none" stroke="black" cx="89.03" cy="-146.6" rx="89.03" ry="43.6"/>
<text xml:space="preserve" text-anchor="middle" x="89.03" y="-161.1" font-family="Arial" font-size="10.00">OBJETIVO</text>
<text xml:space="preserve" text-anchor="middle" x="89.03" y="-149.1" font-family="Arial" font-size="10.00">C4</text>
<text xml:space="preserve" text-anchor="middle" x="89.03" y="-137.1" font-family="Arial" font-size="10.00">g=72,00 h=0,00 f=72,00</text>
<text xml:space="preserve" text-anchor="middle" x="89.03" y="-125.1" font-family="Arial" font-size="10.00">b=28% coletas=3</text>
</g>
<!-- N3&#45;&gt;N4 -->
<g id="edge3" class="edge">
<title>N3&#45;&gt;N4</title>
<path fill="none" stroke="#2563eb" stroke-width="2" d="M342.66,-253.56C300.58,-236.18 241.67,-211.79 190.03,-190.2 182.77,-187.16 175.22,-184 167.67,-180.82"/>
<polygon fill="#2563eb" stroke="#2563eb" stroke-width="2" points="169.19,-177.67 158.62,-177.01 166.48,-184.12 169.19,-177.67"/>
<text xml:space="preserve" text-anchor="middle" x="292.91" y="-215.15" font-family="Arial" font-size="9.00">26 + coleta</text>
</g>
<!-- N5 -->
<g id="node5" class="node">
<title>N5</title>
<ellipse fill="white" stroke="black" cx="295.03" cy="-146.6" rx="92.45" ry="31.11"/>
<text xml:space="preserve" text-anchor="middle" x="295.03" y="-155.1" font-family="Arial" font-size="10.00">C9</text>
<text xml:space="preserve" text-anchor="middle" x="295.03" y="-143.1" font-family="Arial" font-size="10.00">g=77,00 h=29,70 f=106,70</text>
<text xml:space="preserve" text-anchor="middle" x="295.03" y="-131.1" font-family="Arial" font-size="10.00">b=23% coletas=3</text>
</g>
<!-- N3&#45;&gt;N5 -->
<g id="edge4" class="edge">
<title>N3&#45;&gt;N5</title>
<path fill="none" stroke="#555555" d="M375.43,-247.49C360.67,-229.15 341.51,-205.34 325.59,-185.57"/>
<polygon fill="#555555" stroke="#555555" points="328.48,-183.58 319.48,-177.98 323.03,-187.97 328.48,-183.58"/>
<text xml:space="preserve" text-anchor="middle" x="375.76" y="-215.15" font-family="Arial" font-size="9.00">31 + coleta</text>
</g>
<!-- N6 -->
<g id="node6" class="node">
<title>N6</title>
<ellipse fill="white" stroke="black" cx="504.03" cy="-146.6" rx="91.92" ry="31.11"/>
<text xml:space="preserve" text-anchor="middle" x="504.03" y="-155.1" font-family="Arial" font-size="10.00">C13</text>
<text xml:space="preserve" text-anchor="middle" x="504.03" y="-143.1" font-family="Arial" font-size="10.00">g=70,00 h=42,00 f=112,00</text>
<text xml:space="preserve" text-anchor="middle" x="504.03" y="-131.1" font-family="Arial" font-size="10.00">b=30% coletas=3</text>
</g>
<!-- N3&#45;&gt;N6 -->
<g id="edge5" class="edge">
<title>N3&#45;&gt;N6</title>
<path fill="none" stroke="#555555" d="M422.86,-247.49C437.76,-229.15 457.1,-205.34 473.17,-185.57"/>
<polygon fill="#555555" stroke="#555555" points="475.75,-187.94 479.34,-177.98 470.32,-183.53 475.75,-187.94"/>
<text xml:space="preserve" text-anchor="middle" x="470.88" y="-215.15" font-family="Arial" font-size="9.00">24 + coleta</text>
</g>
<!-- N8 -->
<g id="node8" class="node">
<title>N8</title>
<ellipse fill="white" stroke="black" cx="710.03" cy="-146.6" rx="88.74" ry="31.11"/>
<text xml:space="preserve" text-anchor="middle" x="710.03" y="-155.1" font-family="Arial" font-size="10.00">C6</text>
<text xml:space="preserve" text-anchor="middle" x="710.03" y="-143.1" font-family="Arial" font-size="10.00">g=56,00 h=21,00 f=77,00</text>
<text xml:space="preserve" text-anchor="middle" x="710.03" y="-131.1" font-family="Arial" font-size="10.00">b=44% coletas=3</text>
</g>
<!-- N7&#45;&gt;N8 -->
<g id="edge7" class="edge">
<title>N7&#45;&gt;N8</title>
<path fill="none" stroke="#555555" d="M667.79,-246.84C675.19,-229.43 684.63,-207.27 692.71,-188.3"/>
<polygon fill="#555555" stroke="#555555" points="695.86,-189.82 696.56,-179.24 689.42,-187.07 695.86,-189.82"/>
<text xml:space="preserve" text-anchor="middle" x="703.38" y="-215.15" font-family="Arial" font-size="9.00">13 + coleta</text>
</g>
<!-- N12 -->
<g id="node13" class="node">
<title>N12</title>
<ellipse fill="white" stroke="black" cx="1406.03" cy="-277.81" rx="88.74" ry="31.11"/>
<text xml:space="preserve" text-anchor="middle" x="1406.03" y="-286.31" font-family="Arial" font-size="10.00">R2</text>
<text xml:space="preserve" text-anchor="middle" x="1406.03" y="-274.31" font-family="Arial" font-size="10.00">g=47,00 h=27,49 f=74,49</text>
<text xml:space="preserve" text-anchor="middle" x="1406.03" y="-262.31" font-family="Arial" font-size="10.00">b=53% coletas=2</text>
</g>
<!-- N11&#45;&gt;N12 -->
<g id="edge12" class="edge">
<title>N11&#45;&gt;N12</title>
<path fill="none" stroke="#555555" d="M1651.32,-373.3C1601.29,-354.03 1528.74,-326.08 1475.52,-305.58"/>
<polygon fill="#555555" stroke="#555555" points="1476.81,-302.33 1466.22,-302 1474.3,-308.86 1476.81,-302.33"/>
<text xml:space="preserve" text-anchor="middle" x="1571.86" y="-333.87" font-family="Arial" font-size="9.00">17</text>
</g>
<!-- N13 -->
<g id="node14" class="node">
<title>N13</title>
<ellipse fill="white" stroke="black" cx="1608.03" cy="-277.81" rx="88.74" ry="31.11"/>
<text xml:space="preserve" text-anchor="middle" x="1608.03" y="-286.31" font-family="Arial" font-size="10.00">R1</text>
<text xml:space="preserve" text-anchor="middle" x="1608.03" y="-274.31" font-family="Arial" font-size="10.00">g=52,00 h=26,48 f=78,48</text>
<text xml:space="preserve" text-anchor="middle" x="1608.03" y="-262.31" font-family="Arial" font-size="10.00">b=48% coletas=2</text>
</g>
<!-- N11&#45;&gt;N13 -->
<g id="edge13" class="edge">
<title>N11&#45;&gt;N13</title>
<path fill="none" stroke="#555555" d="M1683.8,-366.38C1670.79,-351.34 1654.76,-332.81 1640.79,-316.68"/>
<polygon fill="#555555" stroke="#555555" points="1643.46,-314.41 1634.27,-309.14 1638.17,-318.99 1643.46,-314.41"/>
<text xml:space="preserve" text-anchor="middle" x="1666.81" y="-333.87" font-family="Arial" font-size="9.00">22</text>
</g>
<!-- N14 -->
<g id="node15" class="node">
<title>N14</title>
<ellipse fill="white" stroke="black" cx="1810.03" cy="-277.81" rx="88.74" ry="31.11"/>
<text xml:space="preserve" text-anchor="middle" x="1810.03" y="-286.31" font-family="Arial" font-size="10.00">C10</text>
<text xml:space="preserve" text-anchor="middle" x="1810.03" y="-274.31" font-family="Arial" font-size="10.00">g=56,00 h=26,48 f=82,48</text>
<text xml:space="preserve" text-anchor="middle" x="1810.03" y="-262.31" font-family="Arial" font-size="10.00">b=44% coletas=2</text>
</g>
<!-- N11&#45;&gt;N14 -->
<g id="edge14" class="edge">
<title>N11&#45;&gt;N14</title>
<path fill="none" stroke="#555555" d="M1734.26,-366.38C1747.27,-351.34 1763.3,-332.81 1777.26,-316.68"/>
<polygon fill="#555555" stroke="#555555" points="1779.89,-318.99 1783.78,-309.14 1774.59,-314.41 1779.89,-318.99"/>
<text xml:space="preserve" text-anchor="middle" x="1767.81" y="-333.87" font-family="Arial" font-size="9.00">26</text>
</g>
<!-- N16 -->
<g id="node17" class="node">
<title>N16</title>
<ellipse fill="#e5e7eb" stroke="black" cx="2012.03" cy="-277.81" rx="88.74" ry="31.11"/>
<text xml:space="preserve" text-anchor="middle" x="2012.03" y="-286.31" font-family="Arial" font-size="10.00">C6</text>
<text xml:space="preserve" text-anchor="middle" x="2012.03" y="-274.31" font-family="Arial" font-size="10.00">g=31,00 h=24,00 f=55,00</text>
<text xml:space="preserve" text-anchor="middle" x="2012.03" y="-262.31" font-family="Arial" font-size="10.00">b=69% coletas=2</text>
</g>
<!-- N15&#45;&gt;N16 -->
<g id="edge16" class="edge">
<title>N15&#45;&gt;N16</title>
<path fill="none" stroke="#555555" d="M2012.03,-365.17C2012.03,-351.53 2012.03,-335.2 2012.03,-320.44"/>
<polygon fill="#555555" stroke="#555555" points="2015.53,-320.53 2012.03,-310.53 2008.53,-320.53 2015.53,-320.53"/>
<text xml:space="preserve" text-anchor="middle" x="2034.53" y="-333.87" font-family="Arial" font-size="9.00">13 + coleta</text>
</g>
<!-- N17 -->
<g id="node18" class="node">
<title>N17</title>
<ellipse fill="#e5e7eb" stroke="black" cx="1810.03" cy="-146.6" rx="88.74" ry="31.11"/>
<text xml:space="preserve" text-anchor="middle" x="1810.03" y="-155.1" font-family="Arial" font-size="10.00">R6</text>
<text xml:space="preserve" text-anchor="middle" x="1810.03" y="-143.1" font-family="Arial" font-size="10.00">g=44,00 h=27,49 f=71,49</text>
<text xml:space="preserve" text-anchor="middle" x="1810.03" y="-131.1" font-family="Arial" font-size="10.00">b=56% coletas=2</text>
</g>
<!-- N16&#45;&gt;N17 -->
<g id="edge17" class="edge">
<title>N16&#45;&gt;N17</title>
<path fill="none" stroke="#555555" d="M1970.18,-250.04C1938.62,-229.85 1895.18,-202.06 1861.5,-180.52"/>
<polygon fill="#555555" stroke="#555555" points="1863.42,-177.59 1853.11,-175.15 1859.64,-183.49 1863.42,-177.59"/>
<text xml:space="preserve" text-anchor="middle" x="1928.37" y="-215.15" font-family="Arial" font-size="9.00">13</text>
</g>
<!-- N18 -->
<g id="node20" class="node">
<title>N18</title>
<ellipse fill="white" stroke="black" cx="2012.03" cy="-146.6" rx="88.74" ry="31.11"/>
<text xml:space="preserve" text-anchor="middle" x="2012.03" y="-155.1" font-family="Arial" font-size="10.00">R2</text>
<text xml:space="preserve" text-anchor="middle" x="2012.03" y="-143.1" font-family="Arial" font-size="10.00">g=49,00 h=27,49 f=76,49</text>
<text xml:space="preserve" text-anchor="middle" x="2012.03" y="-131.1" font-family="Arial" font-size="10.00">b=51% coletas=2</text>
</g>
<!-- N16&#45;&gt;N18 -->
<g id="edge19" class="edge">
<title>N16&#45;&gt;N18</title>
<path fill="none" stroke="#555555" d="M2012.03,-246.51C2012.03,-229.55 2012.03,-208.13 2012.03,-189.57"/>
<polygon fill="#555555" stroke="#555555" points="2015.53,-189.66 2012.03,-179.66 2008.53,-189.66 2015.53,-189.66"/>
<text xml:space="preserve" text-anchor="middle" x="2017.28" y="-215.15" font-family="Arial" font-size="9.00">18</text>
</g>
<!-- N19 -->
<g id="node21" class="node">
<title>N19</title>
<ellipse fill="white" stroke="black" cx="2214.03" cy="-146.6" rx="88.74" ry="31.11"/>
<text xml:space="preserve" text-anchor="middle" x="2214.03" y="-155.1" font-family="Arial" font-size="10.00">C7</text>
<text xml:space="preserve" text-anchor="middle" x="2214.03" y="-143.1" font-family="Arial" font-size="10.00">g=52,00 h=42,00 f=94,00</text>
<text xml:space="preserve" text-anchor="middle" x="2214.03" y="-131.1" font-family="Arial" font-size="10.00">b=48% coletas=3</text>
</g>
<!-- N16&#45;&gt;N19 -->
<g id="edge20" class="edge">
<title>N16&#45;&gt;N19</title>
<path fill="none" stroke="#555555" d="M2053.88,-250.04C2085.44,-229.85 2128.88,-202.06 2162.56,-180.52"/>
<polygon fill="#555555" stroke="#555555" points="2164.42,-183.49 2170.95,-175.15 2160.64,-177.59 2164.42,-183.49"/>
<text xml:space="preserve" text-anchor="middle" x="2129.47" y="-215.15" font-family="Arial" font-size="9.00">19 + coleta</text>
</g>
<!-- X2 -->
<g id="node19" class="node">
<title>X2</title>
<polygon fill="#fef3c7" stroke="#f59e0b" stroke-dasharray="5,2" points="1866.03,-56 1754.03,-56 1754.03,0 1866.03,0 1866.03,-56"/>
<text xml:space="preserve" text-anchor="middle" x="1810.03" y="-42.5" font-family="Arial" font-size="10.00" fill="#92400e">+2 ramos omitidos</text>
<text xml:space="preserve" text-anchor="middle" x="1810.03" y="-30.5" font-family="Arial" font-size="10.00" fill="#92400e">limite visual</text>
<text xml:space="preserve" text-anchor="middle" x="1810.03" y="-18.5" font-family="Arial" font-size="10.00" fill="#92400e">(estados gerados,</text>
<text xml:space="preserve" text-anchor="middle" x="1810.03" y="-6.5" font-family="Arial" font-size="10.00" fill="#92400e">mas nao desenhados)</text>
</g>
<!-- N17&#45;&gt;X2 -->
<g id="edge18" class="edge">
<title>N17&#45;&gt;X2</title>
<path fill="none" stroke="#d97706" stroke-dasharray="5,2" d="M1810.03,-115.27C1810.03,-97.05 1810.03,-74.06 1810.03,-56.39"/>
</g>
<!-- N21 -->
<g id="node23" class="node">
<title>N21</title>
<ellipse fill="white" stroke="black" cx="2214.03" cy="-277.81" rx="88.74" ry="31.11"/>
<text xml:space="preserve" text-anchor="middle" x="2214.03" y="-286.31" font-family="Arial" font-size="10.00">R3</text>
<text xml:space="preserve" text-anchor="middle" x="2214.03" y="-274.31" font-family="Arial" font-size="10.00">g=51,00 h=36,20 f=87,20</text>
<text xml:space="preserve" text-anchor="middle" x="2214.03" y="-262.31" font-family="Arial" font-size="10.00">b=49% coletas=2</text>
</g>
<!-- N20&#45;&gt;N21 -->
<g id="edge22" class="edge">
<title>N20&#45;&gt;N21</title>
<path fill="none" stroke="#555555" d="M2214.03,-365.17C2214.03,-351.53 2214.03,-335.2 2214.03,-320.44"/>
<polygon fill="#555555" stroke="#555555" points="2217.53,-320.53 2214.03,-310.53 2210.53,-320.53 2217.53,-320.53"/>
<text xml:space="preserve" text-anchor="middle" x="2219.28" y="-333.87" font-family="Arial" font-size="9.00">16</text>
</g>
<!-- N22 -->
<g id="node24" class="node">
<title>N22</title>
<ellipse fill="white" stroke="black" cx="2416.03" cy="-277.81" rx="88.74" ry="31.11"/>
<text xml:space="preserve" text-anchor="middle" x="2416.03" y="-286.31" font-family="Arial" font-size="10.00">C10</text>
<text xml:space="preserve" text-anchor="middle" x="2416.03" y="-274.31" font-family="Arial" font-size="10.00">g=66,00 h=26,48 f=92,48</text>
<text xml:space="preserve" text-anchor="middle" x="2416.03" y="-262.31" font-family="Arial" font-size="10.00">b=34% coletas=2</text>
</g>
<!-- N20&#45;&gt;N22 -->
<g id="edge23" class="edge">
<title>N20&#45;&gt;N22</title>
<path fill="none" stroke="#555555" d="M2259.36,-369.34C2289.51,-351.92 2329.28,-328.93 2361.21,-310.49"/>
<polygon fill="#555555" stroke="#555555" points="2362.63,-313.71 2369.54,-305.67 2359.13,-307.65 2362.63,-313.71"/>
<text xml:space="preserve" text-anchor="middle" x="2326.34" y="-333.87" font-family="Arial" font-size="9.00">31</text>
</g>
<!-- N23 -->
<g id="node25" class="node">
<title>N23</title>
<ellipse fill="white" stroke="black" cx="2618.03" cy="-277.81" rx="88.74" ry="31.11"/>
<text xml:space="preserve" text-anchor="middle" x="2618.03" y="-286.31" font-family="Arial" font-size="10.00">C1</text>
<text xml:space="preserve" text-anchor="middle" x="2618.03" y="-274.31" font-family="Arial" font-size="10.00">g=61,00 h=31,50 f=92,50</text>
<text xml:space="preserve" text-anchor="middle" x="2618.03" y="-262.31" font-family="Arial" font-size="10.00">b=39% coletas=3</text>
</g>
<!-- N20&#45;&gt;N23 -->
<g id="edge24" class="edge">
<title>N20&#45;&gt;N23</title>
<path fill="none" stroke="#555555" d="M2280.93,-375.65C2292.62,-372.21 2304.67,-368.69 2316.03,-365.42 2405.2,-339.73 2427.9,-334.73 2517.03,-308.92 2524.7,-306.7 2532.7,-304.36 2540.68,-302.01"/>
<polygon fill="#555555" stroke="#555555" points="2541.47,-305.42 2550.07,-299.23 2539.49,-298.71 2541.47,-305.42"/>
<text xml:space="preserve" text-anchor="middle" x="2455.95" y="-333.87" font-family="Arial" font-size="9.00">24 + coleta</text>
</g>
<!-- legend_solution -->
<g id="node27" class="node">
<title>legend_solution</title>
<polygon fill="#dbeafe" stroke="black" points="2261.9,-533.26 2122.15,-533.26 2122.15,-497.26 2261.9,-497.26 2261.9,-533.26"/>
<text xml:space="preserve" text-anchor="middle" x="2192.03" y="-517.21" font-family="Arial" font-size="9.00">Estado no caminho escolhido</text>
<text xml:space="preserve" text-anchor="middle" x="2192.03" y="-506.71" font-family="Arial" font-size="9.00">arestas azuis ligam a rota final</text>
</g>
<!-- legend_recharge -->
<g id="node28" class="node">
<title>legend_recharge</title>
<polygon fill="#dcfce7" stroke="#059669" points="2425.53,-533.26 2286.53,-533.26 2286.53,-497.26 2425.53,-497.26 2425.53,-533.26"/>
<text xml:space="preserve" text-anchor="middle" x="2356.03" y="-517.21" font-family="Arial" font-size="9.00">Acao de recarga executada</text>
<text xml:space="preserve" text-anchor="middle" x="2356.03" y="-506.71" font-family="Arial" font-size="9.00">recarga tambem entra em g(s)</text>
</g>
<!-- legend_goal -->
<g id="node29" class="node">
<title>legend_goal</title>
<polygon fill="#b6f2b6" stroke="black" points="2541.28,-533.26 2454.78,-533.26 2454.78,-497.26 2541.28,-497.26 2541.28,-533.26"/>
<polygon fill="none" stroke="black" points="2545.28,-537.26 2450.78,-537.26 2450.78,-493.26 2545.28,-493.26 2545.28,-537.26"/>
<text xml:space="preserve" text-anchor="middle" x="2498.03" y="-511.96" font-family="Arial" font-size="9.00">Destino / objetivo</text>
</g>
<!-- legend_expanded -->
<g id="node30" class="node">
<title>legend_expanded</title>
<polygon fill="#e5e7eb" stroke="black" points="2666.15,-533.26 2569.9,-533.26 2569.9,-497.26 2666.15,-497.26 2666.15,-533.26"/>
<text xml:space="preserve" text-anchor="middle" x="2618.03" y="-511.96" font-family="Arial" font-size="9.00">Expandido / Closed</text>
</g>
<!-- legend_open -->
<g id="node31" class="node">
<title>legend_open</title>
<polygon fill="white" stroke="black" points="2836.9,-533.26 2691.15,-533.26 2691.15,-497.26 2836.9,-497.26 2836.9,-533.26"/>
<text xml:space="preserve" text-anchor="middle" x="2764.03" y="-517.21" font-family="Arial" font-size="9.00">Gerado / Open</text>
<text xml:space="preserve" text-anchor="middle" x="2764.03" y="-506.71" font-family="Arial" font-size="9.00">candidato ainda nao expandido</text>
</g>
<!-- legend_alternative -->
<g id="node32" class="node">
<title>legend_alternative</title>
<polygon fill="white" stroke="black" points="2970.15,-533.26 2861.9,-533.26 2861.9,-497.26 2970.15,-497.26 2970.15,-533.26"/>
<text xml:space="preserve" text-anchor="middle" x="2916.03" y="-517.21" font-family="Arial" font-size="9.00">Alternativa desenhada</text>
<text xml:space="preserve" text-anchor="middle" x="2916.03" y="-506.71" font-family="Arial" font-size="9.00">aresta cinza</text>
</g>
<!-- legend_pruned -->
<g id="node33" class="node">
<title>legend_pruned</title>
<polygon fill="#fef3c7" stroke="black" points="3185.03,-545.51 2995.03,-545.51 2995.03,-485.01 3185.03,-485.01 3185.03,-545.51"/>
<text xml:space="preserve" text-anchor="middle" x="3090.03" y="-532.96" font-family="Arial" font-size="9.00">Ramos omitidos por limite visual:</text>
<text xml:space="preserve" text-anchor="middle" x="3090.03" y="-522.46" font-family="Arial" font-size="9.00">estados gerados na execucao,</text>
<text xml:space="preserve" text-anchor="middle" x="3090.03" y="-511.96" font-family="Arial" font-size="9.00">mas ocultados para evitar arvore ilegivel.</text>
<text xml:space="preserve" text-anchor="middle" x="3090.03" y="-501.46" font-family="Arial" font-size="9.00">Nao e poda do algoritmo;</text>
<text xml:space="preserve" text-anchor="middle" x="3090.03" y="-490.96" font-family="Arial" font-size="9.00">Open/Closed e metricas reais nao mudam.</text>
</g>
</g>
</svg>
