<?xml version="1.0" encoding="UTF-8" standalone="no"?>
<!DOCTYPE svg PUBLIC "-//W3C//DTD SVG 1.1//EN"
 "http://www.w3.org/Graphics/SVG/1.1/DTD/svg11.dtd">
<!-- Generated by graphviz version 15.0.0 (20260523.1842)
 -->
<!-- Title: ArvoreBuscaAStar Pages: 1 -->
<svg width="2190pt" height="679pt"
 viewBox="0.00 0.00 2190.00 679.00" xmlns="http://www.w3.org/2000/svg" xmlns:xlink="http://www.w3.org/1999/xlink">
<g id="graph0" class="graph" transform="scale(1 1) rotate(0) translate(4 674.98)">
<title>ArvoreBuscaAStar</title>
<polygon fill="white" stroke="none" points="-4,4 -4,-674.98 2186.03,-674.98 2186.03,4 -4,4"/>
<text xml:space="preserve" text-anchor="middle" x="1091.01" y="-655.58" font-family="Arial" font-size="12.00">Arvore focada compactada: mostra o caminho escolhido e algumas alternativas imediatas. Ramos omitidos sao limite visual, nao poda do A*.</text>
<g id="clust1" class="cluster">
<title>cluster_legend</title>
<polygon fill="none" stroke="#cccccc" points="799.03,-542.73 799.03,-640.73 2174.03,-640.73 2174.03,-542.73 799.03,-542.73"/>
<text xml:space="preserve" text-anchor="middle" x="1486.53" y="-626.28" font-family="Arial" font-size="11.00">Legenda</text>
</g>
<!-- S1 -->
<g id="node1" class="node">
<title>S1</title>
<ellipse fill="#dbeafe" stroke="black" cx="695.03" cy="-580.98" rx="85.03" ry="31.11"/>
<text xml:space="preserve" text-anchor="middle" x="695.03" y="-589.48" font-family="Arial" font-size="10.00">C10</text>
<text xml:space="preserve" text-anchor="middle" x="695.03" y="-577.48" font-family="Arial" font-size="10.00">g=2,00 h=19,65 f=21,65</text>
<text xml:space="preserve" text-anchor="middle" x="695.03" y="-565.48" font-family="Arial" font-size="10.00">b=98% coletas=1</text>
</g>
<!-- S2 -->
<g id="node2" class="node">
<title>S2</title>
<ellipse fill="#dbeafe" stroke="black" cx="293.03" cy="-449.76" rx="88.74" ry="31.11"/>
<text xml:space="preserve" text-anchor="middle" x="293.03" y="-458.26" font-family="Arial" font-size="10.00">R6</text>
<text xml:space="preserve" text-anchor="middle" x="293.03" y="-446.26" font-family="Arial" font-size="10.00">g=16,00 h=20,33 f=36,33</text>
<text xml:space="preserve" text-anchor="middle" x="293.03" y="-434.26" font-family="Arial" font-size="10.00">b=84% coletas=1</text>
</g>
<!-- S1&#45;&gt;S2 -->
<g id="edge1" class="edge">
<title>S1&#45;&gt;S2</title>
<path fill="none" stroke="#2563eb" stroke-width="2" d="M632.22,-559.79C561.31,-537 445.92,-499.91 369.74,-475.42"/>
<polygon fill="#2563eb" stroke="#2563eb" stroke-width="2" points="370.87,-472.1 360.28,-472.38 368.73,-478.77 370.87,-472.1"/>
<text xml:space="preserve" text-anchor="middle" x="537.97" y="-517.32" font-family="Arial" font-size="9.00">escolhido</text>
<text xml:space="preserve" text-anchor="middle" x="537.97" y="-506.82" font-family="Arial" font-size="9.00">14</text>
</g>
<!-- S6 -->
<g id="node6" class="node">
<title>S6</title>
<ellipse fill="#e5e7eb" stroke="black" stroke-dasharray="5,2" cx="494.03" cy="-449.76" rx="85.03" ry="31.11"/>
<text xml:space="preserve" text-anchor="middle" x="494.03" y="-458.26" font-family="Arial" font-size="10.00">C4</text>
<text xml:space="preserve" text-anchor="middle" x="494.03" y="-446.26" font-family="Arial" font-size="10.00">g=30,00 h=2,00 f=32,00</text>
<text xml:space="preserve" text-anchor="middle" x="494.03" y="-434.26" font-family="Arial" font-size="10.00">b=70% coletas=2</text>
</g>
<!-- S1&#45;&gt;S6 -->
<g id="edge5" class="edge">
<title>S1&#45;&gt;S6</title>
<path fill="none" stroke="#9ca3af" d="M653.87,-553.52C622.4,-533.29 578.85,-505.29 545.15,-483.63"/>
<polygon fill="#9ca3af" stroke="#9ca3af" points="547.06,-480.69 536.75,-478.23 543.27,-486.58 547.06,-480.69"/>
<text xml:space="preserve" text-anchor="middle" x="629.06" y="-517.32" font-family="Arial" font-size="9.00">opcao</text>
<text xml:space="preserve" text-anchor="middle" x="629.06" y="-506.82" font-family="Arial" font-size="9.00">26 + coleta</text>
</g>
<!-- S7 -->
<g id="node7" class="node">
<title>S7</title>
<ellipse fill="#e5e7eb" stroke="black" stroke-dasharray="5,2" cx="695.03" cy="-449.76" rx="88.74" ry="31.11"/>
<text xml:space="preserve" text-anchor="middle" x="695.03" y="-458.26" font-family="Arial" font-size="10.00">C11</text>
<text xml:space="preserve" text-anchor="middle" x="695.03" y="-446.26" font-family="Arial" font-size="10.00">g=24,00 h=27,24 f=51,24</text>
<text xml:space="preserve" text-anchor="middle" x="695.03" y="-434.26" font-family="Arial" font-size="10.00">b=76% coletas=2</text>
</g>
<!-- S1&#45;&gt;S7 -->
<g id="edge6" class="edge">
<title>S1&#45;&gt;S7</title>
<path fill="none" stroke="#9ca3af" d="M695.03,-549.69C695.03,-532.72 695.03,-511.3 695.03,-492.73"/>
<polygon fill="#9ca3af" stroke="#9ca3af" points="698.53,-492.83 695.03,-482.83 691.53,-492.83 698.53,-492.83"/>
<text xml:space="preserve" text-anchor="middle" x="717.53" y="-517.32" font-family="Arial" font-size="9.00">opcao</text>
<text xml:space="preserve" text-anchor="middle" x="717.53" y="-506.82" font-family="Arial" font-size="9.00">20 + coleta</text>
</g>
<!-- S8 -->
<g id="node8" class="node">
<title>S8</title>
<ellipse fill="#e5e7eb" stroke="black" stroke-dasharray="5,2" cx="899.03" cy="-449.76" rx="88.74" ry="31.11"/>
<text xml:space="preserve" text-anchor="middle" x="899.03" y="-458.26" font-family="Arial" font-size="10.00">C9</text>
<text xml:space="preserve" text-anchor="middle" x="899.03" y="-446.26" font-family="Arial" font-size="10.00">g=35,00 h=21,80 f=56,80</text>
<text xml:space="preserve" text-anchor="middle" x="899.03" y="-434.26" font-family="Arial" font-size="10.00">b=65% coletas=2</text>
</g>
<!-- S1&#45;&gt;S8 -->
<g id="edge7" class="edge">
<title>S1&#45;&gt;S8</title>
<path fill="none" stroke="#9ca3af" d="M736.8,-553.52C768.88,-533.21 813.32,-505.05 847.59,-483.35"/>
<polygon fill="#9ca3af" stroke="#9ca3af" points="849.11,-486.53 855.68,-478.22 845.36,-480.61 849.11,-486.53"/>
<text xml:space="preserve" text-anchor="middle" x="831.74" y="-517.32" font-family="Arial" font-size="9.00">opcao</text>
<text xml:space="preserve" text-anchor="middle" x="831.74" y="-506.82" font-family="Arial" font-size="9.00">31 + coleta</text>
</g>
<!-- P1 -->
<g id="node9" class="node">
<title>P1</title>
<polygon fill="#fef3c7" stroke="#f59e0b" stroke-dasharray="5,2" points="1127.03,-477.76 1015.03,-477.76 1015.03,-421.76 1127.03,-421.76 1127.03,-477.76"/>
<text xml:space="preserve" text-anchor="middle" x="1071.03" y="-464.26" font-family="Arial" font-size="10.00" fill="#92400e">+1 ramos omitidos</text>
<text xml:space="preserve" text-anchor="middle" x="1071.03" y="-452.26" font-family="Arial" font-size="10.00" fill="#92400e">limite visual</text>
<text xml:space="preserve" text-anchor="middle" x="1071.03" y="-440.26" font-family="Arial" font-size="10.00" fill="#92400e">(estados gerados,</text>
<text xml:space="preserve" text-anchor="middle" x="1071.03" y="-428.26" font-family="Arial" font-size="10.00" fill="#92400e">mas nao desenhados)</text>
</g>
<!-- S1&#45;&gt;P1 -->
<g id="edge8" class="edge">
<title>S1&#45;&gt;P1</title>
<path fill="none" stroke="#d97706" stroke-dasharray="5,2" d="M751.38,-557.28C764.91,-552.19 779.4,-547.02 793.03,-542.73 822.32,-533.52 830.5,-534.29 860.03,-525.87 923.29,-507.84 939.41,-503.9 1001.03,-480.87 1005.49,-479.21 1010.08,-477.41 1014.68,-475.56"/>
</g>
<!-- S3 -->
<g id="node3" class="node">
<title>S3</title>
<ellipse fill="#dbeafe" stroke="black" cx="293.03" cy="-318.53" rx="88.74" ry="31.11"/>
<text xml:space="preserve" text-anchor="middle" x="293.03" y="-327.03" font-family="Arial" font-size="10.00">C6</text>
<text xml:space="preserve" text-anchor="middle" x="293.03" y="-315.03" font-family="Arial" font-size="10.00">g=31,00 h=16,00 f=47,00</text>
<text xml:space="preserve" text-anchor="middle" x="293.03" y="-303.03" font-family="Arial" font-size="10.00">b=69% coletas=2</text>
</g>
<!-- S2&#45;&gt;S3 -->
<g id="edge2" class="edge">
<title>S2&#45;&gt;S3</title>
<path fill="none" stroke="#2563eb" stroke-width="2" d="M293.03,-418.46C293.03,-401.97 293.03,-381.29 293.03,-363.1"/>
<polygon fill="#2563eb" stroke="#2563eb" stroke-width="2" points="296.53,-363.12 293.03,-353.12 289.53,-363.12 296.53,-363.12"/>
<text xml:space="preserve" text-anchor="middle" x="315.53" y="-386.1" font-family="Arial" font-size="9.00">escolhido</text>
<text xml:space="preserve" text-anchor="middle" x="315.53" y="-375.6" font-family="Arial" font-size="9.00">13 + coleta</text>
</g>
<!-- S4 -->
<g id="node4" class="node">
<title>S4</title>
<ellipse fill="#dbeafe" stroke="black" cx="89.03" cy="-187.31" rx="88.74" ry="31.11"/>
<text xml:space="preserve" text-anchor="middle" x="89.03" y="-195.81" font-family="Arial" font-size="10.00">R2</text>
<text xml:space="preserve" text-anchor="middle" x="89.03" y="-183.81" font-family="Arial" font-size="10.00">g=49,00 h=18,33 f=67,33</text>
<text xml:space="preserve" text-anchor="middle" x="89.03" y="-171.81" font-family="Arial" font-size="10.00">b=51% coletas=2</text>
</g>
<!-- S3&#45;&gt;S4 -->
<g id="edge3" class="edge">
<title>S3&#45;&gt;S4</title>
<path fill="none" stroke="#2563eb" stroke-width="2" d="M250.76,-290.76C219.17,-270.75 175.77,-243.26 141.89,-221.79"/>
<polygon fill="#2563eb" stroke="#2563eb" stroke-width="2" points="144.12,-219.06 133.8,-216.67 140.38,-224.98 144.12,-219.06"/>
<text xml:space="preserve" text-anchor="middle" x="223.12" y="-254.87" font-family="Arial" font-size="9.00">escolhido</text>
<text xml:space="preserve" text-anchor="middle" x="223.12" y="-244.37" font-family="Arial" font-size="9.00">18</text>
</g>
<!-- S9 -->
<g id="node10" class="node">
<title>S9</title>
<ellipse fill="#e5e7eb" stroke="black" stroke-dasharray="5,2" cx="293.03" cy="-187.31" rx="88.74" ry="31.11"/>
<text xml:space="preserve" text-anchor="middle" x="293.03" y="-195.81" font-family="Arial" font-size="10.00">R6</text>
<text xml:space="preserve" text-anchor="middle" x="293.03" y="-183.81" font-family="Arial" font-size="10.00">g=44,00 h=18,33 f=62,33</text>
<text xml:space="preserve" text-anchor="middle" x="293.03" y="-171.81" font-family="Arial" font-size="10.00">b=56% coletas=2</text>
</g>
<!-- S3&#45;&gt;S9 -->
<g id="edge9" class="edge">
<title>S3&#45;&gt;S9</title>
<path fill="none" stroke="#9ca3af" d="M293.03,-287.24C293.03,-270.27 293.03,-248.85 293.03,-230.28"/>
<polygon fill="#9ca3af" stroke="#9ca3af" points="296.53,-230.38 293.03,-220.38 289.53,-230.38 296.53,-230.38"/>
<text xml:space="preserve" text-anchor="middle" x="305.78" y="-254.87" font-family="Arial" font-size="9.00">opcao</text>
<text xml:space="preserve" text-anchor="middle" x="305.78" y="-244.37" font-family="Arial" font-size="9.00">13</text>
</g>
<!-- A1 -->
<g id="node11" class="node">
<title>A1</title>
<ellipse fill="white" stroke="black" cx="497.03" cy="-187.31" rx="88.74" ry="31.11"/>
<text xml:space="preserve" text-anchor="middle" x="497.03" y="-195.81" font-family="Arial" font-size="10.00">C7</text>
<text xml:space="preserve" text-anchor="middle" x="497.03" y="-183.81" font-family="Arial" font-size="10.00">g=52,00 h=28,00 f=80,00</text>
<text xml:space="preserve" text-anchor="middle" x="497.03" y="-171.81" font-family="Arial" font-size="10.00">b=48% coletas=3</text>
</g>
<!-- S3&#45;&gt;A1 -->
<g id="edge10" class="edge">
<title>S3&#45;&gt;A1</title>
<path fill="none" stroke="#9ca3af" d="M335.3,-290.76C367.3,-270.49 411.42,-242.54 445.49,-220.96"/>
<polygon fill="#9ca3af" stroke="#9ca3af" points="446.96,-224.17 453.54,-215.86 443.22,-218.25 446.96,-224.17"/>
<text xml:space="preserve" text-anchor="middle" x="429.74" y="-254.87" font-family="Arial" font-size="9.00">opcao</text>
<text xml:space="preserve" text-anchor="middle" x="429.74" y="-244.37" font-family="Arial" font-size="9.00">19 + coleta</text>
</g>
<!-- S5 -->
<g id="node5" class="node">
<title>S5</title>
<ellipse fill="#b6f2b6" stroke="black" cx="89.03" cy="-43.6" rx="85.03" ry="39.6"/>
<ellipse fill="none" stroke="black" cx="89.03" cy="-43.6" rx="89.03" ry="43.6"/>
<text xml:space="preserve" text-anchor="middle" x="89.03" y="-58.1" font-family="Arial" font-size="10.00">OBJETIVO</text>
<text xml:space="preserve" text-anchor="middle" x="89.03" y="-46.1" font-family="Arial" font-size="10.00">C4</text>
<text xml:space="preserve" text-anchor="middle" x="89.03" y="-34.1" font-family="Arial" font-size="10.00">g=68,00 h=0,00 f=68,00</text>
<text xml:space="preserve" text-anchor="middle" x="89.03" y="-22.1" font-family="Arial" font-size="10.00">b=32% coletas=3</text>
</g>
<!-- S4&#45;&gt;S5 -->
<g id="edge4" class="edge">
<title>S4&#45;&gt;S5</title>
<path fill="none" stroke="#2563eb" stroke-width="2" d="M89.03,-155.91C89.03,-139.72 89.03,-119.29 89.03,-100.37"/>
<polygon fill="#2563eb" stroke="#2563eb" stroke-width="2" points="92.53,-100.61 89.03,-90.61 85.53,-100.61 92.53,-100.61"/>
<text xml:space="preserve" text-anchor="middle" x="111.53" y="-123.65" font-family="Arial" font-size="9.00">escolhido</text>
<text xml:space="preserve" text-anchor="middle" x="111.53" y="-113.15" font-family="Arial" font-size="9.00">17 + coleta</text>
</g>
<!-- legend_origin -->
<g id="node12" class="node">
<title>legend_origin</title>
<polygon fill="#dbeafe" stroke="black" points="937.03,-598.98 807.03,-598.98 807.03,-562.98 937.03,-562.98 937.03,-598.98"/>
<text xml:space="preserve" text-anchor="middle" x="872.03" y="-582.93" font-family="Arial" font-size="9.00">Origem</text>
<text xml:space="preserve" text-anchor="middle" x="872.03" y="-572.43" font-family="Arial" font-size="9.00">primeiro estado do caminho</text>
</g>
<!-- legend_solution -->
<g id="node13" class="node">
<title>legend_solution</title>
<polygon fill="#dbeafe" stroke="black" points="1059.78,-598.98 964.28,-598.98 964.28,-562.98 1059.78,-562.98 1059.78,-598.98"/>
<text xml:space="preserve" text-anchor="middle" x="1012.03" y="-582.93" font-family="Arial" font-size="9.00">Caminho escolhido</text>
<text xml:space="preserve" text-anchor="middle" x="1012.03" y="-572.43" font-family="Arial" font-size="9.00">arestas azuis</text>
</g>
<!-- legend_goal -->
<g id="node14" class="node">
<title>legend_goal</title>
<polygon fill="#b6f2b6" stroke="black" points="1177.28,-598.98 1090.78,-598.98 1090.78,-562.98 1177.28,-562.98 1177.28,-598.98"/>
<polygon fill="none" stroke="black" points="1181.28,-602.98 1086.78,-602.98 1086.78,-558.98 1181.28,-558.98 1181.28,-602.98"/>
<text xml:space="preserve" text-anchor="middle" x="1134.03" y="-577.68" font-family="Arial" font-size="9.00">Destino / objetivo</text>
</g>
<!-- legend_collection -->
<g id="node15" class="node">
<title>legend_collection</title>
<polygon fill="#ffedd5" stroke="black" points="1349.28,-598.98 1208.78,-598.98 1208.78,-562.98 1349.28,-562.98 1349.28,-598.98"/>
<text xml:space="preserve" text-anchor="middle" x="1279.03" y="-582.93" font-family="Arial" font-size="9.00">Ponto de coleta</text>
<text xml:space="preserve" text-anchor="middle" x="1279.03" y="-572.43" font-family="Arial" font-size="9.00">nos C; coletas aparecem em K</text>
</g>
<!-- legend_recharge -->
<g id="node16" class="node">
<title>legend_recharge</title>
<polygon fill="#dcfce7" stroke="black" points="1509.9,-598.98 1376.15,-598.98 1376.15,-562.98 1509.9,-562.98 1509.9,-598.98"/>
<text xml:space="preserve" text-anchor="middle" x="1443.03" y="-582.93" font-family="Arial" font-size="9.00">Estacao / acao de recarga</text>
<text xml:space="preserve" text-anchor="middle" x="1443.03" y="-572.43" font-family="Arial" font-size="9.00">nos R; recarga soma em g(s)</text>
</g>
<!-- legend_expanded -->
<g id="node17" class="node">
<title>legend_expanded</title>
<polygon fill="#e5e7eb" stroke="black" points="1700.9,-598.98 1537.15,-598.98 1537.15,-562.98 1700.9,-562.98 1700.9,-598.98"/>
<text xml:space="preserve" text-anchor="middle" x="1619.03" y="-582.93" font-family="Arial" font-size="9.00">Expandido / Closed</text>
<text xml:space="preserve" text-anchor="middle" x="1619.03" y="-572.43" font-family="Arial" font-size="9.00">(filhos nao desenhados nesta visao)</text>
</g>
<!-- legend_open -->
<g id="node18" class="node">
<title>legend_open</title>
<polygon fill="white" stroke="black" points="1804.03,-598.98 1728.03,-598.98 1728.03,-562.98 1804.03,-562.98 1804.03,-598.98"/>
<text xml:space="preserve" text-anchor="middle" x="1766.03" y="-577.68" font-family="Arial" font-size="9.00">Gerado / Open</text>
</g>
<!-- legend_alternative -->
<g id="node19" class="node">
<title>legend_alternative</title>
<polygon fill="white" stroke="black" points="1948.65,-598.98 1831.4,-598.98 1831.4,-562.98 1948.65,-562.98 1948.65,-598.98"/>
<text xml:space="preserve" text-anchor="middle" x="1890.03" y="-582.93" font-family="Arial" font-size="9.00">Alternativas desenhadas</text>
<text xml:space="preserve" text-anchor="middle" x="1890.03" y="-572.43" font-family="Arial" font-size="9.00">arestas cinza</text>
</g>
<!-- legend_pruned -->
<g id="node20" class="node">
<title>legend_pruned</title>
<polygon fill="#fef3c7" stroke="black" points="2166.03,-611.23 1976.03,-611.23 1976.03,-550.73 2166.03,-550.73 2166.03,-611.23"/>
<text xml:space="preserve" text-anchor="middle" x="2071.03" y="-598.68" font-family="Arial" font-size="9.00">Ramos omitidos por limite visual:</text>
<text xml:space="preserve" text-anchor="middle" x="2071.03" y="-588.18" font-family="Arial" font-size="9.00">estados gerados na execucao,</text>
<text xml:space="preserve" text-anchor="middle" x="2071.03" y="-577.68" font-family="Arial" font-size="9.00">mas ocultados para evitar arvore ilegivel.</text>
<text xml:space="preserve" text-anchor="middle" x="2071.03" y="-567.18" font-family="Arial" font-size="9.00">Nao e poda do algoritmo;</text>
<text xml:space="preserve" text-anchor="middle" x="2071.03" y="-556.68" font-family="Arial" font-size="9.00">Open/Closed e metricas reais nao mudam.</text>
</g>
</g>
</svg>
