<?xml version="1.0" encoding="UTF-8" standalone="no"?>
<!DOCTYPE svg PUBLIC "-//W3C//DTD SVG 1.1//EN"
 "http://www.w3.org/Graphics/SVG/1.1/DTD/svg11.dtd">
<!-- Generated by graphviz version 15.0.0 (20260523.1842)
 -->
<!-- Title: ArvoreBuscaCompleta Pages: 1 -->
<svg width="3502pt" height="646pt"
 viewBox="0.00 0.00 3502.00 646.00" xmlns="http://www.w3.org/2000/svg" xmlns:xlink="http://www.w3.org/1999/xlink">
<g id="graph0" class="graph" transform="scale(1 1) rotate(0) translate(4 641.96)">
<title>ArvoreBuscaCompleta</title>
<polygon fill="white" stroke="none" points="-4,4 -4,-641.96 3498.03,-641.96 3498.03,4 -4,4"/>
<text xml:space="preserve" text-anchor="middle" x="1747.01" y="-622.56" font-family="Arial" font-size="12.00">Arvore completa compactada por limite visual: estados omitidos existiram na execucao, mas nao foram desenhados para manter a figura legivel.</text>
<g id="clust1" class="cluster">
<title>cluster_legend</title>
<polygon fill="none" stroke="#cccccc" points="2195.03,-509.71 2195.03,-607.71 3486.03,-607.71 3486.03,-509.71 2195.03,-509.71"/>
<text xml:space="preserve" text-anchor="middle" x="2840.53" y="-593.26" font-family="Arial" font-size="11.00">Legenda</text>
</g>
<!-- N1 -->
<g id="node1" class="node">
<title>N1</title>
<ellipse fill="#dbeafe" stroke="black" cx="2093.03" cy="-547.96" rx="85.03" ry="31.11"/>
<text xml:space="preserve" text-anchor="middle" x="2093.03" y="-556.46" font-family="Arial" font-size="10.00">C10</text>
<text xml:space="preserve" text-anchor="middle" x="2093.03" y="-544.46" font-family="Arial" font-size="10.00">g=2,00 h=19,65 f=21,65</text>
<text xml:space="preserve" text-anchor="middle" x="2093.03" y="-532.46" font-family="Arial" font-size="10.00">b=98% coletas=1</text>
</g>
<!-- N2 -->
<g id="node2" class="node">
<title>N2</title>
<ellipse fill="#dbeafe" stroke="black" cx="1139.03" cy="-429.23" rx="88.74" ry="31.11"/>
<text xml:space="preserve" text-anchor="middle" x="1139.03" y="-437.73" font-family="Arial" font-size="10.00">R6</text>
<text xml:space="preserve" text-anchor="middle" x="1139.03" y="-425.73" font-family="Arial" font-size="10.00">g=16,00 h=20,33 f=36,33</text>
<text xml:space="preserve" text-anchor="middle" x="1139.03" y="-413.73" font-family="Arial" font-size="10.00">b=84% coletas=1</text>
</g>
<!-- N1&#45;&gt;N2 -->
<g id="edge1" class="edge">
<title>N1&#45;&gt;N2</title>
<path fill="none" stroke="#2563eb" stroke-width="2" d="M2010.06,-540.47C1864,-528.5 1551.63,-500.45 1290.03,-460.34 1269.35,-457.17 1247.21,-453.13 1226.42,-449.04"/>
<polygon fill="#2563eb" stroke="#2563eb" stroke-width="2" points="1227.14,-445.61 1216.65,-447.08 1225.77,-452.48 1227.14,-445.61"/>
<text xml:space="preserve" text-anchor="middle" x="1537.25" y="-485.29" font-family="Arial" font-size="9.00">14</text>
</g>
<!-- N8 -->
<g id="node9" class="node">
<title>N8</title>
<ellipse fill="#e5e7eb" stroke="black" cx="1388.03" cy="-429.23" rx="85.03" ry="31.11"/>
<text xml:space="preserve" text-anchor="middle" x="1388.03" y="-437.73" font-family="Arial" font-size="10.00">C4</text>
<text xml:space="preserve" text-anchor="middle" x="1388.03" y="-425.73" font-family="Arial" font-size="10.00">g=30,00 h=2,00 f=32,00</text>
<text xml:space="preserve" text-anchor="middle" x="1388.03" y="-413.73" font-family="Arial" font-size="10.00">b=70% coletas=2</text>
</g>
<!-- N1&#45;&gt;N8 -->
<g id="edge8" class="edge">
<title>N1&#45;&gt;N8</title>
<path fill="none" stroke="#555555" d="M2016.24,-534.24C1884.29,-512.39 1615.31,-467.86 1476.02,-444.8"/>
<polygon fill="#555555" stroke="#555555" points="1476.92,-441.4 1466.49,-443.22 1475.78,-448.31 1476.92,-441.4"/>
<text xml:space="preserve" text-anchor="middle" x="1784.17" y="-485.29" font-family="Arial" font-size="9.00">26 + coleta</text>
</g>
<!-- N16 -->
<g id="node20" class="node">
<title>N16</title>
<ellipse fill="#e5e7eb" stroke="black" cx="2093.03" cy="-429.23" rx="88.74" ry="31.11"/>
<text xml:space="preserve" text-anchor="middle" x="2093.03" y="-437.73" font-family="Arial" font-size="10.00">C11</text>
<text xml:space="preserve" text-anchor="middle" x="2093.03" y="-425.73" font-family="Arial" font-size="10.00">g=24,00 h=27,24 f=51,24</text>
<text xml:space="preserve" text-anchor="middle" x="2093.03" y="-413.73" font-family="Arial" font-size="10.00">b=76% coletas=2</text>
</g>
<!-- N1&#45;&gt;N16 -->
<g id="edge19" class="edge">
<title>N1&#45;&gt;N16</title>
<path fill="none" stroke="#555555" d="M2093.03,-516.59C2093.03,-502.95 2093.03,-486.63 2093.03,-471.86"/>
<polygon fill="#555555" stroke="#555555" points="2096.53,-471.96 2093.03,-461.96 2089.53,-471.96 2096.53,-471.96"/>
<text xml:space="preserve" text-anchor="middle" x="2115.53" y="-485.29" font-family="Arial" font-size="9.00">20 + coleta</text>
</g>
<!-- N25 -->
<g id="node30" class="node">
<title>N25</title>
<ellipse fill="#e5e7eb" stroke="black" cx="2635.03" cy="-429.23" rx="88.74" ry="31.11"/>
<text xml:space="preserve" text-anchor="middle" x="2635.03" y="-437.73" font-family="Arial" font-size="10.00">C9</text>
<text xml:space="preserve" text-anchor="middle" x="2635.03" y="-425.73" font-family="Arial" font-size="10.00">g=35,00 h=21,80 f=56,80</text>
<text xml:space="preserve" text-anchor="middle" x="2635.03" y="-413.73" font-family="Arial" font-size="10.00">b=65% coletas=2</text>
</g>
<!-- N1&#45;&gt;N25 -->
<g id="edge29" class="edge">
<title>N1&#45;&gt;N25</title>
<path fill="none" stroke="#555555" d="M2147.49,-523.72C2160.9,-518.59 2175.34,-513.54 2189.03,-509.71 2308.14,-476.33 2449.23,-453.96 2540.34,-441.68"/>
<polygon fill="#555555" stroke="#555555" points="2540.8,-445.15 2550.25,-440.36 2539.87,-438.21 2540.8,-445.15"/>
<text xml:space="preserve" text-anchor="middle" x="2307.79" y="-485.29" font-family="Arial" font-size="9.00">31 + coleta</text>
</g>
<!-- X6 -->
<g id="node34" class="node">
<title>X6</title>
<polygon fill="#fef3c7" stroke="#f59e0b" stroke-dasharray="5,2" points="2861.03,-457.23 2749.03,-457.23 2749.03,-401.23 2861.03,-401.23 2861.03,-457.23"/>
<text xml:space="preserve" text-anchor="middle" x="2805.03" y="-443.73" font-family="Arial" font-size="10.00" fill="#92400e">+1 ramos omitidos</text>
<text xml:space="preserve" text-anchor="middle" x="2805.03" y="-431.73" font-family="Arial" font-size="10.00" fill="#92400e">limite visual</text>
<text xml:space="preserve" text-anchor="middle" x="2805.03" y="-419.73" font-family="Arial" font-size="10.00" fill="#92400e">(estados gerados,</text>
<text xml:space="preserve" text-anchor="middle" x="2805.03" y="-407.73" font-family="Arial" font-size="10.00" fill="#92400e">mas nao desenhados)</text>
</g>
<!-- N1&#45;&gt;X6 -->
<g id="edge33" class="edge">
<title>N1&#45;&gt;X6</title>
<path fill="none" stroke="#d97706" stroke-dasharray="5,2" d="M2146.26,-523.26C2159.96,-518.01 2174.84,-513.03 2189.03,-509.71 2248.45,-495.79 2676.91,-475.48 2736.03,-460.34 2740.21,-459.27 2744.46,-457.98 2748.69,-456.53"/>
</g>
<!-- N3 -->
<g id="node3" class="node">
<title>N3</title>
<ellipse fill="#dbeafe" stroke="black" cx="433.03" cy="-310.5" rx="88.74" ry="31.11"/>
<text xml:space="preserve" text-anchor="middle" x="433.03" y="-319" font-family="Arial" font-size="10.00">C6</text>
<text xml:space="preserve" text-anchor="middle" x="433.03" y="-307" font-family="Arial" font-size="10.00">g=31,00 h=16,00 f=47,00</text>
<text xml:space="preserve" text-anchor="middle" x="433.03" y="-295" font-family="Arial" font-size="10.00">b=69% coletas=2</text>
</g>
<!-- N2&#45;&gt;N3 -->
<g id="edge2" class="edge">
<title>N2&#45;&gt;N3</title>
<path fill="none" stroke="#2563eb" stroke-width="2" d="M1059.41,-415.07C927.66,-393.28 665,-349.86 525.34,-326.77"/>
<polygon fill="#2563eb" stroke="#2563eb" stroke-width="2" points="526.05,-323.34 515.61,-325.16 524.91,-330.24 526.05,-323.34"/>
<text xml:space="preserve" text-anchor="middle" x="829.7" y="-366.57" font-family="Arial" font-size="9.00">13 + coleta</text>
</g>
<!-- N4 -->
<g id="node4" class="node">
<title>N4</title>
<ellipse fill="#dbeafe" stroke="black" cx="89.03" cy="-183.29" rx="88.74" ry="31.11"/>
<text xml:space="preserve" text-anchor="middle" x="89.03" y="-191.79" font-family="Arial" font-size="10.00">R2</text>
<text xml:space="preserve" text-anchor="middle" x="89.03" y="-179.79" font-family="Arial" font-size="10.00">g=49,00 h=18,33 f=67,33</text>
<text xml:space="preserve" text-anchor="middle" x="89.03" y="-167.79" font-family="Arial" font-size="10.00">b=51% coletas=2</text>
</g>
<!-- N3&#45;&gt;N4 -->
<g id="edge3" class="edge">
<title>N3&#45;&gt;N4</title>
<path fill="none" stroke="#2563eb" stroke-width="2" d="M370.97,-287.82C321.78,-270.53 251.37,-245.54 190.03,-222.89 180.16,-219.25 169.77,-215.35 159.55,-211.48"/>
<polygon fill="#2563eb" stroke="#2563eb" stroke-width="2" points="161.11,-208.33 150.52,-208.05 158.63,-214.87 161.11,-208.33"/>
<text xml:space="preserve" text-anchor="middle" x="281.96" y="-247.84" font-family="Arial" font-size="9.00">18</text>
</g>
<!-- N6 -->
<g id="node6" class="node">
<title>N6</title>
<ellipse fill="#e5e7eb" stroke="black" cx="291.03" cy="-183.29" rx="88.74" ry="31.11"/>
<text xml:space="preserve" text-anchor="middle" x="291.03" y="-191.79" font-family="Arial" font-size="10.00">R6</text>
<text xml:space="preserve" text-anchor="middle" x="291.03" y="-179.79" font-family="Arial" font-size="10.00">g=44,00 h=18,33 f=62,33</text>
<text xml:space="preserve" text-anchor="middle" x="291.03" y="-167.79" font-family="Arial" font-size="10.00">b=56% coletas=2</text>
</g>
<!-- N3&#45;&gt;N6 -->
<g id="edge5" class="edge">
<title>N3&#45;&gt;N6</title>
<path fill="none" stroke="#555555" d="M400.81,-281.09C380.29,-263 353.54,-239.42 331.59,-220.06"/>
<polygon fill="#555555" stroke="#555555" points="334.07,-217.58 324.26,-213.59 329.45,-222.83 334.07,-217.58"/>
<text xml:space="preserve" text-anchor="middle" x="375.78" y="-247.84" font-family="Arial" font-size="9.00">13</text>
</g>
<!-- N7 -->
<g id="node8" class="node">
<title>N7</title>
<ellipse fill="white" stroke="black" cx="493.03" cy="-183.29" rx="88.74" ry="31.11"/>
<text xml:space="preserve" text-anchor="middle" x="493.03" y="-191.79" font-family="Arial" font-size="10.00">C7</text>
<text xml:space="preserve" text-anchor="middle" x="493.03" y="-179.79" font-family="Arial" font-size="10.00">g=52,00 h=28,00 f=80,00</text>
<text xml:space="preserve" text-anchor="middle" x="493.03" y="-167.79" font-family="Arial" font-size="10.00">b=48% coletas=3</text>
</g>
<!-- N3&#45;&gt;N7 -->
<g id="edge7" class="edge">
<title>N3&#45;&gt;N7</title>
<path fill="none" stroke="#555555" d="M447.4,-279.51C455.25,-263.14 465.07,-242.64 473.59,-224.86"/>
<polygon fill="#555555" stroke="#555555" points="476.75,-226.37 477.91,-215.84 470.44,-223.34 476.75,-226.37"/>
<text xml:space="preserve" text-anchor="middle" x="485.53" y="-247.84" font-family="Arial" font-size="9.00">19 + coleta</text>
</g>
<!-- N5 -->
<g id="node5" class="node">
<title>N5</title>
<ellipse fill="#b6f2b6" stroke="black" cx="89.03" cy="-43.6" rx="85.03" ry="39.6"/>
<ellipse fill="none" stroke="black" cx="89.03" cy="-43.6" rx="89.03" ry="43.6"/>
<text xml:space="preserve" text-anchor="middle" x="89.03" y="-58.1" font-family="Arial" font-size="10.00">OBJETIVO</text>
<text xml:space="preserve" text-anchor="middle" x="89.03" y="-46.1" font-family="Arial" font-size="10.00">C4</text>
<text xml:space="preserve" text-anchor="middle" x="89.03" y="-34.1" font-family="Arial" font-size="10.00">g=68,00 h=0,00 f=68,00</text>
<text xml:space="preserve" text-anchor="middle" x="89.03" y="-22.1" font-family="Arial" font-size="10.00">b=32% coletas=3</text>
</g>
<!-- N4&#45;&gt;N5 -->
<g id="edge4" class="edge">
<title>N4&#45;&gt;N5</title>
<path fill="none" stroke="#2563eb" stroke-width="2" d="M89.03,-151.73C89.03,-136.63 89.03,-117.93 89.03,-100.4"/>
<polygon fill="#2563eb" stroke="#2563eb" stroke-width="2" points="92.53,-100.63 89.03,-90.63 85.53,-100.63 92.53,-100.63"/>
<text xml:space="preserve" text-anchor="middle" x="111.53" y="-112.15" font-family="Arial" font-size="9.00">17 + coleta</text>
</g>
<!-- X1 -->
<g id="node7" class="node">
<title>X1</title>
<polygon fill="#fef3c7" stroke="#f59e0b" stroke-dasharray="5,2" points="347.03,-71.6 235.03,-71.6 235.03,-15.6 347.03,-15.6 347.03,-71.6"/>
<text xml:space="preserve" text-anchor="middle" x="291.03" y="-58.1" font-family="Arial" font-size="10.00" fill="#92400e">+2 ramos omitidos</text>
<text xml:space="preserve" text-anchor="middle" x="291.03" y="-46.1" font-family="Arial" font-size="10.00" fill="#92400e">limite visual</text>
<text xml:space="preserve" text-anchor="middle" x="291.03" y="-34.1" font-family="Arial" font-size="10.00" fill="#92400e">(estados gerados,</text>
<text xml:space="preserve" text-anchor="middle" x="291.03" y="-22.1" font-family="Arial" font-size="10.00" fill="#92400e">mas nao desenhados)</text>
</g>
<!-- N6&#45;&gt;X1 -->
<g id="edge6" class="edge">
<title>N6&#45;&gt;X1</title>
<path fill="none" stroke="#d97706" stroke-dasharray="5,2" d="M291.03,-151.73C291.03,-127.81 291.03,-94.83 291.03,-71.81"/>
</g>
<!-- N9 -->
<g id="node10" class="node">
<title>N9</title>
<ellipse fill="#e5e7eb" stroke="black" cx="1083.03" cy="-310.5" rx="88.74" ry="31.11"/>
<text xml:space="preserve" text-anchor="middle" x="1083.03" y="-319" font-family="Arial" font-size="10.00">R2</text>
<text xml:space="preserve" text-anchor="middle" x="1083.03" y="-307" font-family="Arial" font-size="10.00">g=47,00 h=18,33 f=65,33</text>
<text xml:space="preserve" text-anchor="middle" x="1083.03" y="-295" font-family="Arial" font-size="10.00">b=53% coletas=2</text>
</g>
<!-- N8&#45;&gt;N9 -->
<g id="edge9" class="edge">
<title>N8&#45;&gt;N9</title>
<path fill="none" stroke="#555555" d="M1330.3,-406.14C1279.79,-386.81 1206.29,-358.68 1152.55,-338.11"/>
<polygon fill="#555555" stroke="#555555" points="1154.08,-334.95 1143.49,-334.64 1151.58,-341.49 1154.08,-334.95"/>
<text xml:space="preserve" text-anchor="middle" x="1249.92" y="-366.57" font-family="Arial" font-size="9.00">17</text>
</g>
<!-- N14 -->
<g id="node18" class="node">
<title>N14</title>
<ellipse fill="white" stroke="black" cx="1285.03" cy="-310.5" rx="88.74" ry="31.11"/>
<text xml:space="preserve" text-anchor="middle" x="1285.03" y="-319" font-family="Arial" font-size="10.00">R1</text>
<text xml:space="preserve" text-anchor="middle" x="1285.03" y="-307" font-family="Arial" font-size="10.00">g=52,00 h=17,65 f=69,65</text>
<text xml:space="preserve" text-anchor="middle" x="1285.03" y="-295" font-family="Arial" font-size="10.00">b=48% coletas=2</text>
</g>
<!-- N8&#45;&gt;N14 -->
<g id="edge17" class="edge">
<title>N8&#45;&gt;N14</title>
<path fill="none" stroke="#555555" d="M1362.57,-399.38C1349.07,-384.08 1332.34,-365.12 1317.88,-348.73"/>
<polygon fill="#555555" stroke="#555555" points="1320.8,-346.75 1311.56,-341.57 1315.55,-351.38 1320.8,-346.75"/>
<text xml:space="preserve" text-anchor="middle" x="1344.87" y="-366.57" font-family="Arial" font-size="9.00">22</text>
</g>
<!-- N15 -->
<g id="node19" class="node">
<title>N15</title>
<ellipse fill="white" stroke="black" cx="1487.03" cy="-310.5" rx="88.74" ry="31.11"/>
<text xml:space="preserve" text-anchor="middle" x="1487.03" y="-319" font-family="Arial" font-size="10.00">C10</text>
<text xml:space="preserve" text-anchor="middle" x="1487.03" y="-307" font-family="Arial" font-size="10.00">g=56,00 h=17,65 f=73,65</text>
<text xml:space="preserve" text-anchor="middle" x="1487.03" y="-295" font-family="Arial" font-size="10.00">b=44% coletas=2</text>
</g>
<!-- N8&#45;&gt;N15 -->
<g id="edge18" class="edge">
<title>N8&#45;&gt;N15</title>
<path fill="none" stroke="#555555" d="M1412.76,-399.08C1425.51,-384.03 1441.23,-365.51 1454.91,-349.37"/>
<polygon fill="#555555" stroke="#555555" points="1457.5,-351.74 1461.3,-341.85 1452.16,-347.21 1457.5,-351.74"/>
<text xml:space="preserve" text-anchor="middle" x="1445.75" y="-366.57" font-family="Arial" font-size="9.00">26</text>
</g>
<!-- N10 -->
<g id="node11" class="node">
<title>N10</title>
<ellipse fill="#e5e7eb" stroke="black" cx="695.03" cy="-183.29" rx="88.74" ry="39.6"/>
<text xml:space="preserve" text-anchor="middle" x="695.03" y="-197.79" font-family="Arial" font-size="10.00">R2</text>
<text xml:space="preserve" text-anchor="middle" x="695.03" y="-185.79" font-family="Arial" font-size="10.00">g=48,00 h=18,33 f=66,33</text>
<text xml:space="preserve" text-anchor="middle" x="695.03" y="-173.79" font-family="Arial" font-size="10.00">b=58% coletas=2</text>
<text xml:space="preserve" text-anchor="middle" x="695.03" y="-161.79" font-family="Arial" font-size="10.00">recarga</text>
</g>
<!-- N9&#45;&gt;N10 -->
<g id="edge10" class="edge">
<title>N9&#45;&gt;N10</title>
<path fill="none" stroke="#555555" d="M1014.45,-290.31C956.03,-273.61 870.03,-248.16 796.03,-222.89 788.06,-220.17 779.79,-217.22 771.56,-214.2"/>
<polygon fill="#555555" stroke="#555555" points="772.8,-210.93 762.21,-210.73 770.37,-217.49 772.8,-210.93"/>
<text xml:space="preserve" text-anchor="middle" x="917.5" y="-247.84" font-family="Arial" font-size="9.00">recarga 1</text>
</g>
<!-- N11 -->
<g id="node13" class="node">
<title>N11</title>
<ellipse fill="#e5e7eb" stroke="black" cx="897.03" cy="-183.29" rx="88.74" ry="39.6"/>
<text xml:space="preserve" text-anchor="middle" x="897.03" y="-197.79" font-family="Arial" font-size="10.00">R2</text>
<text xml:space="preserve" text-anchor="middle" x="897.03" y="-185.79" font-family="Arial" font-size="10.00">g=48,40 h=18,33 f=66,73</text>
<text xml:space="preserve" text-anchor="middle" x="897.03" y="-173.79" font-family="Arial" font-size="10.00">b=60% coletas=2</text>
<text xml:space="preserve" text-anchor="middle" x="897.03" y="-161.79" font-family="Arial" font-size="10.00">recarga</text>
</g>
<!-- N9&#45;&gt;N11 -->
<g id="edge12" class="edge">
<title>N9&#45;&gt;N11</title>
<path fill="none" stroke="#555555" d="M1042.67,-282.34C1016.94,-265.02 983.21,-242.31 954.68,-223.1"/>
<polygon fill="#555555" stroke="#555555" points="956.73,-220.26 946.48,-217.58 952.82,-226.07 956.73,-220.26"/>
<text xml:space="preserve" text-anchor="middle" x="1024.42" y="-247.84" font-family="Arial" font-size="9.00">recarga 1,4</text>
</g>
<!-- N12 -->
<g id="node15" class="node">
<title>N12</title>
<ellipse fill="white" stroke="black" cx="1099.03" cy="-183.29" rx="88.74" ry="39.6"/>
<text xml:space="preserve" text-anchor="middle" x="1099.03" y="-197.79" font-family="Arial" font-size="10.00">R2</text>
<text xml:space="preserve" text-anchor="middle" x="1099.03" y="-185.79" font-family="Arial" font-size="10.00">g=50,00 h=18,33 f=68,33</text>
<text xml:space="preserve" text-anchor="middle" x="1099.03" y="-173.79" font-family="Arial" font-size="10.00">b=68% coletas=2</text>
<text xml:space="preserve" text-anchor="middle" x="1099.03" y="-161.79" font-family="Arial" font-size="10.00">recarga</text>
</g>
<!-- N9&#45;&gt;N12 -->
<g id="edge14" class="edge">
<title>N9&#45;&gt;N12</title>
<path fill="none" stroke="#555555" d="M1086.9,-279.19C1088.63,-265.7 1090.7,-249.45 1092.65,-234.23"/>
<polygon fill="#555555" stroke="#555555" points="1096.11,-234.73 1093.91,-224.37 1089.17,-233.84 1096.11,-234.73"/>
<text xml:space="preserve" text-anchor="middle" x="1110.53" y="-247.84" font-family="Arial" font-size="9.00">recarga 3</text>
</g>
<!-- N13 -->
<g id="node16" class="node">
<title>N13</title>
<ellipse fill="white" stroke="black" cx="1301.03" cy="-183.29" rx="88.74" ry="39.6"/>
<text xml:space="preserve" text-anchor="middle" x="1301.03" y="-197.79" font-family="Arial" font-size="10.00">R2</text>
<text xml:space="preserve" text-anchor="middle" x="1301.03" y="-185.79" font-family="Arial" font-size="10.00">g=50,40 h=18,33 f=68,73</text>
<text xml:space="preserve" text-anchor="middle" x="1301.03" y="-173.79" font-family="Arial" font-size="10.00">b=70% coletas=2</text>
<text xml:space="preserve" text-anchor="middle" x="1301.03" y="-161.79" font-family="Arial" font-size="10.00">recarga</text>
</g>
<!-- N9&#45;&gt;N13 -->
<g id="edge15" class="edge">
<title>N9&#45;&gt;N13</title>
<path fill="none" stroke="#555555" d="M1128.46,-283.41C1160.06,-265.26 1202.61,-240.82 1237.55,-220.76"/>
<polygon fill="#555555" stroke="#555555" points="1238.94,-223.99 1245.87,-215.97 1235.46,-217.92 1238.94,-223.99"/>
<text xml:space="preserve" text-anchor="middle" x="1215.28" y="-247.84" font-family="Arial" font-size="9.00">recarga 3,4</text>
</g>
<!-- X4 -->
<g id="node17" class="node">
<title>X4</title>
<polygon fill="#fef3c7" stroke="#f59e0b" stroke-dasharray="5,2" points="1527.03,-211.29 1415.03,-211.29 1415.03,-155.29 1527.03,-155.29 1527.03,-211.29"/>
<text xml:space="preserve" text-anchor="middle" x="1471.03" y="-197.79" font-family="Arial" font-size="10.00" fill="#92400e">+10 ramos omitidos</text>
<text xml:space="preserve" text-anchor="middle" x="1471.03" y="-185.79" font-family="Arial" font-size="10.00" fill="#92400e">limite visual</text>
<text xml:space="preserve" text-anchor="middle" x="1471.03" y="-173.79" font-family="Arial" font-size="10.00" fill="#92400e">(estados gerados,</text>
<text xml:space="preserve" text-anchor="middle" x="1471.03" y="-161.79" font-family="Arial" font-size="10.00" fill="#92400e">mas nao desenhados)</text>
</g>
<!-- N9&#45;&gt;X4 -->
<g id="edge16" class="edge">
<title>N9&#45;&gt;X4</title>
<path fill="none" stroke="#d97706" stroke-dasharray="5,2" d="M1149.21,-289.4C1160.8,-285.99 1172.75,-282.53 1184.03,-279.39 1280.45,-252.53 1309.15,-260.19 1402.03,-222.89 1409.93,-219.72 1418.05,-215.82 1425.82,-211.73"/>
</g>
<!-- X2 -->
<g id="node12" class="node">
<title>X2</title>
<polygon fill="#fef3c7" stroke="#f59e0b" stroke-dasharray="5,2" points="751.03,-71.6 639.03,-71.6 639.03,-15.6 751.03,-15.6 751.03,-71.6"/>
<text xml:space="preserve" text-anchor="middle" x="695.03" y="-58.1" font-family="Arial" font-size="10.00" fill="#92400e">+2 ramos omitidos</text>
<text xml:space="preserve" text-anchor="middle" x="695.03" y="-46.1" font-family="Arial" font-size="10.00" fill="#92400e">limite visual</text>
<text xml:space="preserve" text-anchor="middle" x="695.03" y="-34.1" font-family="Arial" font-size="10.00" fill="#92400e">(estados gerados,</text>
<text xml:space="preserve" text-anchor="middle" x="695.03" y="-22.1" font-family="Arial" font-size="10.00" fill="#92400e">mas nao desenhados)</text>
</g>
<!-- N10&#45;&gt;X2 -->
<g id="edge11" class="edge">
<title>N10&#45;&gt;X2</title>
<path fill="none" stroke="#d97706" stroke-dasharray="5,2" d="M695.03,-143.2C695.03,-120.46 695.03,-92.36 695.03,-71.98"/>
</g>
<!-- X3 -->
<g id="node14" class="node">
<title>X3</title>
<polygon fill="#fef3c7" stroke="#f59e0b" stroke-dasharray="5,2" points="953.03,-71.6 841.03,-71.6 841.03,-15.6 953.03,-15.6 953.03,-71.6"/>
<text xml:space="preserve" text-anchor="middle" x="897.03" y="-58.1" font-family="Arial" font-size="10.00" fill="#92400e">+2 ramos omitidos</text>
<text xml:space="preserve" text-anchor="middle" x="897.03" y="-46.1" font-family="Arial" font-size="10.00" fill="#92400e">limite visual</text>
<text xml:space="preserve" text-anchor="middle" x="897.03" y="-34.1" font-family="Arial" font-size="10.00" fill="#92400e">(estados gerados,</text>
<text xml:space="preserve" text-anchor="middle" x="897.03" y="-22.1" font-family="Arial" font-size="10.00" fill="#92400e">mas nao desenhados)</text>
</g>
<!-- N11&#45;&gt;X3 -->
<g id="edge13" class="edge">
<title>N11&#45;&gt;X3</title>
<path fill="none" stroke="#d97706" stroke-dasharray="5,2" d="M897.03,-143.2C897.03,-120.46 897.03,-92.36 897.03,-71.98"/>
</g>
<!-- N17 -->
<g id="node21" class="node">
<title>N17</title>
<ellipse fill="#e5e7eb" stroke="black" cx="1689.03" cy="-310.5" rx="88.74" ry="31.11"/>
<text xml:space="preserve" text-anchor="middle" x="1689.03" y="-319" font-family="Arial" font-size="10.00">R6</text>
<text xml:space="preserve" text-anchor="middle" x="1689.03" y="-307" font-family="Arial" font-size="10.00">g=41,00 h=18,33 f=59,33</text>
<text xml:space="preserve" text-anchor="middle" x="1689.03" y="-295" font-family="Arial" font-size="10.00">b=59% coletas=2</text>
</g>
<!-- N16&#45;&gt;N17 -->
<g id="edge20" class="edge">
<title>N16&#45;&gt;N17</title>
<path fill="none" stroke="#555555" d="M2024.67,-408.93C1963.22,-391.52 1870.51,-365.12 1790.03,-341.62 1782.36,-339.38 1774.37,-337.03 1766.39,-334.67"/>
<polygon fill="#555555" stroke="#555555" points="1767.58,-331.37 1757,-331.88 1765.59,-338.08 1767.58,-331.37"/>
<text xml:space="preserve" text-anchor="middle" x="1903.5" y="-366.57" font-family="Arial" font-size="9.00">17</text>
</g>
<!-- N19 -->
<g id="node23" class="node">
<title>N19</title>
<ellipse fill="#e5e7eb" stroke="black" cx="1891.03" cy="-310.5" rx="88.74" ry="31.11"/>
<text xml:space="preserve" text-anchor="middle" x="1891.03" y="-319" font-family="Arial" font-size="10.00">C10</text>
<text xml:space="preserve" text-anchor="middle" x="1891.03" y="-307" font-family="Arial" font-size="10.00">g=44,00 h=17,65 f=61,65</text>
<text xml:space="preserve" text-anchor="middle" x="1891.03" y="-295" font-family="Arial" font-size="10.00">b=56% coletas=2</text>
</g>
<!-- N16&#45;&gt;N19 -->
<g id="edge22" class="edge">
<title>N16&#45;&gt;N19</title>
<path fill="none" stroke="#555555" d="M2047.7,-402.03C2017.55,-384.61 1977.78,-361.63 1945.85,-343.18"/>
<polygon fill="#555555" stroke="#555555" points="1947.93,-340.34 1937.52,-338.37 1944.43,-346.4 1947.93,-340.34"/>
<text xml:space="preserve" text-anchor="middle" x="2003.34" y="-366.57" font-family="Arial" font-size="9.00">20</text>
</g>
<!-- N23 -->
<g id="node27" class="node">
<title>N23</title>
<ellipse fill="white" stroke="black" cx="2093.03" cy="-310.5" rx="88.74" ry="31.11"/>
<text xml:space="preserve" text-anchor="middle" x="2093.03" y="-319" font-family="Arial" font-size="10.00">C7</text>
<text xml:space="preserve" text-anchor="middle" x="2093.03" y="-307" font-family="Arial" font-size="10.00">g=51,00 h=28,00 f=79,00</text>
<text xml:space="preserve" text-anchor="middle" x="2093.03" y="-295" font-family="Arial" font-size="10.00">b=49% coletas=3</text>
</g>
<!-- N16&#45;&gt;N23 -->
<g id="edge26" class="edge">
<title>N16&#45;&gt;N23</title>
<path fill="none" stroke="#555555" d="M2093.03,-397.87C2093.03,-384.22 2093.03,-367.9 2093.03,-353.14"/>
<polygon fill="#555555" stroke="#555555" points="2096.53,-353.23 2093.03,-343.23 2089.53,-353.23 2096.53,-353.23"/>
<text xml:space="preserve" text-anchor="middle" x="2115.53" y="-366.57" font-family="Arial" font-size="9.00">25 + coleta</text>
</g>
<!-- N24 -->
<g id="node28" class="node">
<title>N24</title>
<ellipse fill="white" stroke="black" cx="2295.03" cy="-310.5" rx="88.74" ry="31.11"/>
<text xml:space="preserve" text-anchor="middle" x="2295.03" y="-319" font-family="Arial" font-size="10.00">C12</text>
<text xml:space="preserve" text-anchor="middle" x="2295.03" y="-307" font-family="Arial" font-size="10.00">g=47,00 h=37,70 f=84,70</text>
<text xml:space="preserve" text-anchor="middle" x="2295.03" y="-295" font-family="Arial" font-size="10.00">b=53% coletas=3</text>
</g>
<!-- N16&#45;&gt;N24 -->
<g id="edge27" class="edge">
<title>N16&#45;&gt;N24</title>
<path fill="none" stroke="#555555" d="M2138.36,-402.03C2168.51,-384.61 2208.28,-361.63 2240.21,-343.18"/>
<polygon fill="#555555" stroke="#555555" points="2241.63,-346.4 2248.54,-338.37 2238.13,-340.34 2241.63,-346.4"/>
<text xml:space="preserve" text-anchor="middle" x="2222.59" y="-366.57" font-family="Arial" font-size="9.00">21 + coleta</text>
</g>
<!-- X5 -->
<g id="node29" class="node">
<title>X5</title>
<polygon fill="#fef3c7" stroke="#f59e0b" stroke-dasharray="5,2" points="2521.03,-338.5 2409.03,-338.5 2409.03,-282.5 2521.03,-282.5 2521.03,-338.5"/>
<text xml:space="preserve" text-anchor="middle" x="2465.03" y="-325" font-family="Arial" font-size="10.00" fill="#92400e">+1 ramos omitidos</text>
<text xml:space="preserve" text-anchor="middle" x="2465.03" y="-313" font-family="Arial" font-size="10.00" fill="#92400e">limite visual</text>
<text xml:space="preserve" text-anchor="middle" x="2465.03" y="-301" font-family="Arial" font-size="10.00" fill="#92400e">(estados gerados,</text>
<text xml:space="preserve" text-anchor="middle" x="2465.03" y="-289" font-family="Arial" font-size="10.00" fill="#92400e">mas nao desenhados)</text>
</g>
<!-- N16&#45;&gt;X5 -->
<g id="edge28" class="edge">
<title>N16&#45;&gt;X5</title>
<path fill="none" stroke="#d97706" stroke-dasharray="5,2" d="M2164.9,-410.57C2226.83,-394.67 2318.28,-369.55 2396.03,-341.62 2400.21,-340.11 2404.5,-338.48 2408.79,-336.77"/>
</g>
<!-- N18 -->
<g id="node22" class="node">
<title>N18</title>
<ellipse fill="white" stroke="black" cx="1673.03" cy="-183.29" rx="88.74" ry="31.11"/>
<text xml:space="preserve" text-anchor="middle" x="1673.03" y="-191.79" font-family="Arial" font-size="10.00">C6</text>
<text xml:space="preserve" text-anchor="middle" x="1673.03" y="-179.79" font-family="Arial" font-size="10.00">g=56,00 h=14,00 f=70,00</text>
<text xml:space="preserve" text-anchor="middle" x="1673.03" y="-167.79" font-family="Arial" font-size="10.00">b=44% coletas=3</text>
</g>
<!-- N17&#45;&gt;N18 -->
<g id="edge21" class="edge">
<title>N17&#45;&gt;N18</title>
<path fill="none" stroke="#555555" d="M1685.16,-279.19C1683.11,-263.16 1680.56,-243.24 1678.33,-225.8"/>
<polygon fill="#555555" stroke="#555555" points="1681.85,-225.74 1677.11,-216.26 1674.91,-226.62 1681.85,-225.74"/>
<text xml:space="preserve" text-anchor="middle" x="1704.49" y="-247.84" font-family="Arial" font-size="9.00">13 + coleta</text>
</g>
<!-- N20 -->
<g id="node24" class="node">
<title>N20</title>
<ellipse fill="white" stroke="black" cx="1872.03" cy="-183.29" rx="85.03" ry="31.11"/>
<text xml:space="preserve" text-anchor="middle" x="1872.03" y="-191.79" font-family="Arial" font-size="10.00">C4</text>
<text xml:space="preserve" text-anchor="middle" x="1872.03" y="-179.79" font-family="Arial" font-size="10.00">g=72,00 h=0,00 f=72,00</text>
<text xml:space="preserve" text-anchor="middle" x="1872.03" y="-167.79" font-family="Arial" font-size="10.00">b=28% coletas=3</text>
</g>
<!-- N19&#45;&gt;N20 -->
<g id="edge23" class="edge">
<title>N19&#45;&gt;N20</title>
<path fill="none" stroke="#555555" d="M1886.43,-279.19C1884,-263.16 1880.97,-243.24 1878.33,-225.8"/>
<polygon fill="#555555" stroke="#555555" points="1881.84,-225.62 1876.88,-216.26 1874.92,-226.67 1881.84,-225.62"/>
<text xml:space="preserve" text-anchor="middle" x="1905.17" y="-247.84" font-family="Arial" font-size="9.00">26 + coleta</text>
</g>
<!-- N21 -->
<g id="node25" class="node">
<title>N21</title>
<ellipse fill="white" stroke="black" cx="2071.03" cy="-183.29" rx="88.74" ry="31.11"/>
<text xml:space="preserve" text-anchor="middle" x="2071.03" y="-191.79" font-family="Arial" font-size="10.00">C9</text>
<text xml:space="preserve" text-anchor="middle" x="2071.03" y="-179.79" font-family="Arial" font-size="10.00">g=77,00 h=19,80 f=96,80</text>
<text xml:space="preserve" text-anchor="middle" x="2071.03" y="-167.79" font-family="Arial" font-size="10.00">b=23% coletas=3</text>
</g>
<!-- N19&#45;&gt;N21 -->
<g id="edge24" class="edge">
<title>N19&#45;&gt;N21</title>
<path fill="none" stroke="#555555" d="M1930.09,-282.34C1957.24,-263.45 1993.61,-238.15 2022.6,-217.98"/>
<polygon fill="#555555" stroke="#555555" points="2024.29,-221.07 2030.5,-212.49 2020.29,-215.33 2024.29,-221.07"/>
<text xml:space="preserve" text-anchor="middle" x="2003.53" y="-247.84" font-family="Arial" font-size="9.00">31 + coleta</text>
</g>
<!-- N22 -->
<g id="node26" class="node">
<title>N22</title>
<ellipse fill="white" stroke="black" cx="2273.03" cy="-183.29" rx="88.74" ry="31.11"/>
<text xml:space="preserve" text-anchor="middle" x="2273.03" y="-191.79" font-family="Arial" font-size="10.00">C13</text>
<text xml:space="preserve" text-anchor="middle" x="2273.03" y="-179.79" font-family="Arial" font-size="10.00">g=70,00 h=28,00 f=98,00</text>
<text xml:space="preserve" text-anchor="middle" x="2273.03" y="-167.79" font-family="Arial" font-size="10.00">b=30% coletas=3</text>
</g>
<!-- N19&#45;&gt;N22 -->
<g id="edge25" class="edge">
<title>N19&#45;&gt;N22</title>
<path fill="none" stroke="#555555" d="M1957.53,-289.56C2027.31,-268.54 2132.27,-236.6 2172.03,-222.89 2182.54,-219.27 2193.6,-215.25 2204.39,-211.22"/>
<polygon fill="#555555" stroke="#555555" points="2205.52,-214.54 2213.64,-207.74 2203.05,-207.99 2205.52,-214.54"/>
<text xml:space="preserve" text-anchor="middle" x="2121.03" y="-247.84" font-family="Arial" font-size="9.00">24 + coleta</text>
</g>
<!-- N26 -->
<g id="node31" class="node">
<title>N26</title>
<ellipse fill="white" stroke="black" cx="2635.03" cy="-310.5" rx="88.74" ry="31.11"/>
<text xml:space="preserve" text-anchor="middle" x="2635.03" y="-319" font-family="Arial" font-size="10.00">R3</text>
<text xml:space="preserve" text-anchor="middle" x="2635.03" y="-307" font-family="Arial" font-size="10.00">g=51,00 h=24,14 f=75,14</text>
<text xml:space="preserve" text-anchor="middle" x="2635.03" y="-295" font-family="Arial" font-size="10.00">b=49% coletas=2</text>
</g>
<!-- N25&#45;&gt;N26 -->
<g id="edge30" class="edge">
<title>N25&#45;&gt;N26</title>
<path fill="none" stroke="#555555" d="M2635.03,-397.87C2635.03,-384.22 2635.03,-367.9 2635.03,-353.14"/>
<polygon fill="#555555" stroke="#555555" points="2638.53,-353.23 2635.03,-343.23 2631.53,-353.23 2638.53,-353.23"/>
<text xml:space="preserve" text-anchor="middle" x="2640.28" y="-366.57" font-family="Arial" font-size="9.00">16</text>
</g>
<!-- N27 -->
<g id="node32" class="node">
<title>N27</title>
<ellipse fill="white" stroke="black" cx="2837.03" cy="-310.5" rx="88.74" ry="31.11"/>
<text xml:space="preserve" text-anchor="middle" x="2837.03" y="-319" font-family="Arial" font-size="10.00">C1</text>
<text xml:space="preserve" text-anchor="middle" x="2837.03" y="-307" font-family="Arial" font-size="10.00">g=61,00 h=21,00 f=82,00</text>
<text xml:space="preserve" text-anchor="middle" x="2837.03" y="-295" font-family="Arial" font-size="10.00">b=39% coletas=3</text>
</g>
<!-- N25&#45;&gt;N27 -->
<g id="edge31" class="edge">
<title>N25&#45;&gt;N27</title>
<path fill="none" stroke="#555555" d="M2680.36,-402.03C2710.51,-384.61 2750.28,-361.63 2782.21,-343.18"/>
<polygon fill="#555555" stroke="#555555" points="2783.63,-346.4 2790.54,-338.37 2780.13,-340.34 2783.63,-346.4"/>
<text xml:space="preserve" text-anchor="middle" x="2764.59" y="-366.57" font-family="Arial" font-size="9.00">24 + coleta</text>
</g>
<!-- N28 -->
<g id="node33" class="node">
<title>N28</title>
<ellipse fill="white" stroke="black" cx="3039.03" cy="-310.5" rx="88.74" ry="31.11"/>
<text xml:space="preserve" text-anchor="middle" x="3039.03" y="-319" font-family="Arial" font-size="10.00">C10</text>
<text xml:space="preserve" text-anchor="middle" x="3039.03" y="-307" font-family="Arial" font-size="10.00">g=66,00 h=17,65 f=83,65</text>
<text xml:space="preserve" text-anchor="middle" x="3039.03" y="-295" font-family="Arial" font-size="10.00">b=34% coletas=2</text>
</g>
<!-- N25&#45;&gt;N28 -->
<g id="edge32" class="edge">
<title>N25&#45;&gt;N28</title>
<path fill="none" stroke="#555555" d="M2701.93,-408.34C2713.62,-404.91 2725.67,-401.39 2737.03,-398.12 2826.2,-372.42 2848.9,-367.43 2938.03,-341.62 2945.7,-339.4 2953.7,-337.06 2961.68,-334.7"/>
<polygon fill="#555555" stroke="#555555" points="2962.47,-338.12 2971.07,-331.92 2960.49,-331.4 2962.47,-338.12"/>
<text xml:space="preserve" text-anchor="middle" x="2859.7" y="-366.57" font-family="Arial" font-size="9.00">31</text>
</g>
<!-- legend_origin -->
<g id="node35" class="node">
<title>legend_origin</title>
<polygon fill="#dbeafe" stroke="black" points="2333.03,-565.96 2203.03,-565.96 2203.03,-529.96 2333.03,-529.96 2333.03,-565.96"/>
<text xml:space="preserve" text-anchor="middle" x="2268.03" y="-549.91" font-family="Arial" font-size="9.00">Origem</text>
<text xml:space="preserve" text-anchor="middle" x="2268.03" y="-539.41" font-family="Arial" font-size="9.00">primeiro estado do caminho</text>
</g>
<!-- legend_solution -->
<g id="node36" class="node">
<title>legend_solution</title>
<polygon fill="#dbeafe" stroke="black" points="2453.78,-565.96 2358.28,-565.96 2358.28,-529.96 2453.78,-529.96 2453.78,-565.96"/>
<text xml:space="preserve" text-anchor="middle" x="2406.03" y="-549.91" font-family="Arial" font-size="9.00">Caminho escolhido</text>
<text xml:space="preserve" text-anchor="middle" x="2406.03" y="-539.41" font-family="Arial" font-size="9.00">arestas azuis</text>
</g>
<!-- legend_goal -->
<g id="node37" class="node">
<title>legend_goal</title>
<polygon fill="#b6f2b6" stroke="black" points="2569.28,-565.96 2482.78,-565.96 2482.78,-529.96 2569.28,-529.96 2569.28,-565.96"/>
<polygon fill="none" stroke="black" points="2573.28,-569.96 2478.78,-569.96 2478.78,-525.96 2573.28,-525.96 2573.28,-569.96"/>
<text xml:space="preserve" text-anchor="middle" x="2526.03" y="-544.66" font-family="Arial" font-size="9.00">Destino / objetivo</text>
</g>
<!-- legend_collection -->
<g id="node38" class="node">
<title>legend_collection</title>
<polygon fill="#ffedd5" stroke="black" points="2739.28,-565.96 2598.78,-565.96 2598.78,-529.96 2739.28,-529.96 2739.28,-565.96"/>
<text xml:space="preserve" text-anchor="middle" x="2669.03" y="-549.91" font-family="Arial" font-size="9.00">Ponto de coleta</text>
<text xml:space="preserve" text-anchor="middle" x="2669.03" y="-539.41" font-family="Arial" font-size="9.00">nos C; coletas aparecem em K</text>
</g>
<!-- legend_recharge -->
<g id="node39" class="node">
<title>legend_recharge</title>
<polygon fill="#dcfce7" stroke="black" points="2897.9,-565.96 2764.15,-565.96 2764.15,-529.96 2897.9,-529.96 2897.9,-565.96"/>
<text xml:space="preserve" text-anchor="middle" x="2831.03" y="-549.91" font-family="Arial" font-size="9.00">Estacao / acao de recarga</text>
<text xml:space="preserve" text-anchor="middle" x="2831.03" y="-539.41" font-family="Arial" font-size="9.00">nos R; recarga soma em g(s)</text>
</g>
<!-- legend_expanded -->
<g id="node40" class="node">
<title>legend_expanded</title>
<polygon fill="#e5e7eb" stroke="black" points="3019.15,-565.96 2922.9,-565.96 2922.9,-529.96 3019.15,-529.96 3019.15,-565.96"/>
<text xml:space="preserve" text-anchor="middle" x="2971.03" y="-544.66" font-family="Arial" font-size="9.00">Expandido / Closed</text>
</g>
<!-- legend_open -->
<g id="node41" class="node">
<title>legend_open</title>
<polygon fill="white" stroke="black" points="3120.03,-565.96 3044.03,-565.96 3044.03,-529.96 3120.03,-529.96 3120.03,-565.96"/>
<text xml:space="preserve" text-anchor="middle" x="3082.03" y="-544.66" font-family="Arial" font-size="9.00">Gerado / Open</text>
</g>
<!-- legend_alternative -->
<g id="node42" class="node">
<title>legend_alternative</title>
<polygon fill="white" stroke="black" points="3262.65,-565.96 3145.4,-565.96 3145.4,-529.96 3262.65,-529.96 3262.65,-565.96"/>
<text xml:space="preserve" text-anchor="middle" x="3204.03" y="-549.91" font-family="Arial" font-size="9.00">Alternativas desenhadas</text>
<text xml:space="preserve" text-anchor="middle" x="3204.03" y="-539.41" font-family="Arial" font-size="9.00">arestas cinza</text>
</g>
<!-- legend_pruned -->
<g id="node43" class="node">
<title>legend_pruned</title>
<polygon fill="#fef3c7" stroke="black" points="3478.03,-578.21 3288.03,-578.21 3288.03,-517.71 3478.03,-517.71 3478.03,-578.21"/>
<text xml:space="preserve" text-anchor="middle" x="3383.03" y="-565.66" font-family="Arial" font-size="9.00">Ramos omitidos por limite visual:</text>
<text xml:space="preserve" text-anchor="middle" x="3383.03" y="-555.16" font-family="Arial" font-size="9.00">estados gerados na execucao,</text>
<text xml:space="preserve" text-anchor="middle" x="3383.03" y="-544.66" font-family="Arial" font-size="9.00">mas ocultados para evitar arvore ilegivel.</text>
<text xml:space="preserve" text-anchor="middle" x="3383.03" y="-534.16" font-family="Arial" font-size="9.00">Nao e poda do algoritmo;</text>
<text xml:space="preserve" text-anchor="middle" x="3383.03" y="-523.66" font-family="Arial" font-size="9.00">Open/Closed e metricas reais nao mudam.</text>
</g>
</g>
</svg>
