<?xml version="1.0" encoding="UTF-8" standalone="no"?>
<!DOCTYPE svg PUBLIC "-//W3C//DTD SVG 1.1//EN"
 "http://www.w3.org/Graphics/SVG/1.1/DTD/svg11.dtd">
<!-- Generated by graphviz version 15.0.0 (20260523.1842)
 -->
<!-- Title: ArvoreBuscaAStar Pages: 1 -->
<svg width="3721pt" height="492pt"
 viewBox="0.00 0.00 3721.00 492.00" xmlns="http://www.w3.org/2000/svg" xmlns:xlink="http://www.w3.org/1999/xlink">
<g id="graph0" class="graph" transform="scale(1 1) rotate(0) translate(4 488.34)">
<title>ArvoreBuscaAStar</title>
<polygon fill="white" stroke="none" points="-4,4 -4,-488.34 3716.82,-488.34 3716.82,4 -4,4"/>
<!-- S1 -->
<g id="node1" class="node">
<title>S1</title>
<ellipse fill="#d9d9d9" stroke="black" cx="2683.62" cy="-453.23" rx="75.48" ry="31.11"/>
<text xml:space="preserve" text-anchor="middle" x="2683.62" y="-461.73" font-family="Arial" font-size="10.00">C10</text>
<text xml:space="preserve" text-anchor="middle" x="2683.62" y="-449.73" font-family="Arial" font-size="10.00">31,48 = 2,00 + 29,48</text>
<text xml:space="preserve" text-anchor="middle" x="2683.62" y="-437.73" font-family="Arial" font-size="10.00">b=98% K={C10}</text>
</g>
<!-- S2 -->
<g id="node2" class="node">
<title>S2</title>
<ellipse fill="#d9d9d9" stroke="black" cx="1436.62" cy="-326.5" rx="79.2" ry="31.11"/>
<text xml:space="preserve" text-anchor="middle" x="1436.62" y="-335" font-family="Arial" font-size="10.00">C11</text>
<text xml:space="preserve" text-anchor="middle" x="1436.62" y="-323" font-family="Arial" font-size="10.00">64,86 = 24,00 + 40,86</text>
<text xml:space="preserve" text-anchor="middle" x="1436.62" y="-311" font-family="Arial" font-size="10.00">b=76% K={C10,C11}</text>
</g>
<!-- S1&#45;&gt;S2 -->
<g id="edge1" class="edge">
<title>S1&#45;&gt;S2</title>
<path fill="none" stroke="#555555" d="M2610.73,-444.94C2394.69,-423.33 1758.34,-359.68 1524.29,-336.27"/>
<polygon fill="#555555" stroke="#555555" points="1524.93,-332.82 1514.63,-335.31 1524.23,-339.78 1524.93,-332.82"/>
<text xml:space="preserve" text-anchor="middle" x="2120.01" y="-386.57" font-family="Arial" font-size="9.00">20 + coleta</text>
</g>
<!-- S5 -->
<g id="node5" class="node">
<title>S5</title>
<ellipse fill="#d9d9d9" stroke="black" cx="2198.62" cy="-326.5" rx="75.48" ry="31.11"/>
<text xml:space="preserve" text-anchor="middle" x="2198.62" y="-335" font-family="Arial" font-size="10.00">C4</text>
<text xml:space="preserve" text-anchor="middle" x="2198.62" y="-323" font-family="Arial" font-size="10.00">33,00 = 30,00 + 3,00</text>
<text xml:space="preserve" text-anchor="middle" x="2198.62" y="-311" font-family="Arial" font-size="10.00">b=70% K={C10,C4}</text>
</g>
<!-- S1&#45;&gt;S5 -->
<g id="edge4" class="edge">
<title>S1&#45;&gt;S5</title>
<path fill="none" stroke="#555555" d="M2620.22,-435.92C2530.81,-412.93 2368.01,-371.06 2273,-346.63"/>
<polygon fill="#555555" stroke="#555555" points="2274.06,-343.29 2263.51,-344.19 2272.32,-350.07 2274.06,-343.29"/>
<text xml:space="preserve" text-anchor="middle" x="2478.16" y="-386.57" font-family="Arial" font-size="9.00">26 + coleta</text>
</g>
<!-- S6 -->
<g id="node9" class="node">
<title>S6</title>
<ellipse fill="#d9d9d9" stroke="black" cx="2683.62" cy="-326.5" rx="79.2" ry="31.11"/>
<text xml:space="preserve" text-anchor="middle" x="2683.62" y="-335" font-family="Arial" font-size="10.00">C9</text>
<text xml:space="preserve" text-anchor="middle" x="2683.62" y="-323" font-family="Arial" font-size="10.00">67,70 = 35,00 + 32,70</text>
<text xml:space="preserve" text-anchor="middle" x="2683.62" y="-311" font-family="Arial" font-size="10.00">b=65% K={C10,C9}</text>
</g>
<!-- S1&#45;&gt;S6 -->
<g id="edge8" class="edge">
<title>S1&#45;&gt;S6</title>
<path fill="none" stroke="#555555" d="M2683.62,-421.72C2683.62,-405.9 2683.62,-386.34 2683.62,-369.15"/>
<polygon fill="#555555" stroke="#555555" points="2687.12,-369.21 2683.62,-359.21 2680.12,-369.21 2687.12,-369.21"/>
<text xml:space="preserve" text-anchor="middle" x="2706.12" y="-386.57" font-family="Arial" font-size="9.00">31 + coleta</text>
</g>
<!-- S7 -->
<g id="node13" class="node">
<title>S7</title>
<ellipse fill="#d9d9d9" stroke="black" cx="3158.62" cy="-326.5" rx="79.2" ry="31.11"/>
<text xml:space="preserve" text-anchor="middle" x="3158.62" y="-335" font-family="Arial" font-size="10.00">R6</text>
<text xml:space="preserve" text-anchor="middle" x="3158.62" y="-323" font-family="Arial" font-size="10.00">46,49 = 16,00 + 30,49</text>
<text xml:space="preserve" text-anchor="middle" x="3158.62" y="-311" font-family="Arial" font-size="10.00">b=84% K={C10}</text>
</g>
<!-- S1&#45;&gt;S7 -->
<g id="edge12" class="edge">
<title>S1&#45;&gt;S7</title>
<path fill="none" stroke="#555555" d="M2746.7,-435.67C2833.39,-412.9 2989.19,-371.99 3082.34,-347.54"/>
<polygon fill="#555555" stroke="#555555" points="3083.13,-350.95 3091.91,-345.02 3081.35,-344.18 3083.13,-350.95"/>
<text xml:space="preserve" text-anchor="middle" x="2940.61" y="-386.57" font-family="Arial" font-size="9.00">14</text>
</g>
<!-- A11 -->
<g id="node18" class="node">
<title>A11</title>
<ellipse fill="white" stroke="black" cx="3348.62" cy="-326.5" rx="79.2" ry="31.11"/>
<text xml:space="preserve" text-anchor="middle" x="3348.62" y="-335" font-family="Arial" font-size="10.00">C13</text>
<text xml:space="preserve" text-anchor="middle" x="3348.62" y="-323" font-family="Arial" font-size="10.00">73,00 = 28,00 + 45,00</text>
<text xml:space="preserve" text-anchor="middle" x="3348.62" y="-311" font-family="Arial" font-size="10.00">b=72% K={C10,C13}</text>
</g>
<!-- S1&#45;&gt;A11 -->
<g id="edge17" class="edge">
<title>S1&#45;&gt;A11</title>
<path fill="none" stroke="#555555" d="M2755.82,-443.6C2864.65,-429.84 3076.83,-400.08 3253.62,-357.62 3261.81,-355.65 3270.32,-353.34 3278.73,-350.9"/>
<polygon fill="#555555" stroke="#555555" points="3279.67,-354.27 3288.24,-348.05 3277.66,-347.56 3279.67,-354.27"/>
<text xml:space="preserve" text-anchor="middle" x="3136.7" y="-386.57" font-family="Arial" font-size="9.00">24 + coleta</text>
</g>
<!-- S3 -->
<g id="node3" class="node">
<title>S3</title>
<ellipse fill="#d9d9d9" stroke="black" cx="594.62" cy="-191.29" rx="79.2" ry="31.11"/>
<text xml:space="preserve" text-anchor="middle" x="594.62" y="-199.79" font-family="Arial" font-size="10.00">C10</text>
<text xml:space="preserve" text-anchor="middle" x="594.62" y="-187.79" font-family="Arial" font-size="10.00">70,48 = 44,00 + 26,48</text>
<text xml:space="preserve" text-anchor="middle" x="594.62" y="-175.79" font-family="Arial" font-size="10.00">b=56% K={C10,C11}</text>
</g>
<!-- S2&#45;&gt;S3 -->
<g id="edge2" class="edge">
<title>S2&#45;&gt;S3</title>
<path fill="none" stroke="#555555" d="M1363.74,-313.97C1208.01,-289.34 843.62,-231.69 678.54,-205.57"/>
<polygon fill="#555555" stroke="#555555" points="679.4,-202.16 668.98,-204.06 678.31,-209.08 679.4,-202.16"/>
<text xml:space="preserve" text-anchor="middle" x="1071.28" y="-259.84" font-family="Arial" font-size="9.00">20</text>
</g>
<!-- A12 -->
<g id="node19" class="node">
<title>A12</title>
<ellipse fill="white" stroke="black" cx="1098.62" cy="-191.29" rx="86.62" ry="31.11"/>
<text xml:space="preserve" text-anchor="middle" x="1098.62" y="-199.79" font-family="Arial" font-size="10.00">C7</text>
<text xml:space="preserve" text-anchor="middle" x="1098.62" y="-187.79" font-family="Arial" font-size="10.00">93,00 = 51,00 + 42,00</text>
<text xml:space="preserve" text-anchor="middle" x="1098.62" y="-175.79" font-family="Arial" font-size="10.00">b=49% K={C10,C11,C7}</text>
</g>
<!-- S2&#45;&gt;A12 -->
<g id="edge18" class="edge">
<title>S2&#45;&gt;A12</title>
<path fill="none" stroke="#555555" d="M1381.56,-303.81C1322.94,-280.7 1230.09,-244.11 1166.86,-219.19"/>
<polygon fill="#555555" stroke="#555555" points="1168.2,-215.95 1157.61,-215.54 1165.63,-222.47 1168.2,-215.95"/>
<text xml:space="preserve" text-anchor="middle" x="1310.36" y="-259.84" font-family="Arial" font-size="9.00">25 + coleta</text>
</g>
<!-- S8 -->
<g id="node20" class="node">
<title>S8</title>
<ellipse fill="#d9d9d9" stroke="black" cx="1296.62" cy="-191.29" rx="79.2" ry="31.11"/>
<text xml:space="preserve" text-anchor="middle" x="1296.62" y="-199.79" font-family="Arial" font-size="10.00">R6</text>
<text xml:space="preserve" text-anchor="middle" x="1296.62" y="-187.79" font-family="Arial" font-size="10.00">68,49 = 41,00 + 27,49</text>
<text xml:space="preserve" text-anchor="middle" x="1296.62" y="-175.79" font-family="Arial" font-size="10.00">b=59% K={C10,C11}</text>
</g>
<!-- S2&#45;&gt;S8 -->
<g id="edge19" class="edge">
<title>S2&#45;&gt;S8</title>
<path fill="none" stroke="#555555" d="M1406.93,-297.25C1385.77,-277.12 1357.16,-249.89 1334.37,-228.22"/>
<polygon fill="#555555" stroke="#555555" points="1337.02,-225.9 1327.36,-221.55 1332.2,-230.98 1337.02,-225.9"/>
<text xml:space="preserve" text-anchor="middle" x="1380.25" y="-259.84" font-family="Arial" font-size="9.00">17</text>
</g>
<!-- A17 -->
<g id="node25" class="node">
<title>A17</title>
<ellipse fill="white" stroke="black" cx="1498.62" cy="-191.29" rx="90.33" ry="31.11"/>
<text xml:space="preserve" text-anchor="middle" x="1498.62" y="-199.79" font-family="Arial" font-size="10.00">C12</text>
<text xml:space="preserve" text-anchor="middle" x="1498.62" y="-187.79" font-family="Arial" font-size="10.00">103,54 = 47,00 + 56,54</text>
<text xml:space="preserve" text-anchor="middle" x="1498.62" y="-175.79" font-family="Arial" font-size="10.00">b=53% K={C10,C11,C12}</text>
</g>
<!-- S2&#45;&gt;A17 -->
<g id="edge24" class="edge">
<title>S2&#45;&gt;A17</title>
<path fill="none" stroke="#555555" d="M1450.53,-295.61C1459.23,-276.93 1470.53,-252.64 1480,-232.31"/>
<polygon fill="#555555" stroke="#555555" points="1483.07,-234 1484.11,-223.46 1476.72,-231.05 1483.07,-234"/>
<text xml:space="preserve" text-anchor="middle" x="1490.12" y="-259.84" font-family="Arial" font-size="9.00">21 + coleta</text>
</g>
<!-- A18 -->
<g id="node26" class="node">
<title>A18</title>
<ellipse fill="white" stroke="black" cx="1711.62" cy="-191.29" rx="90.33" ry="31.11"/>
<text xml:space="preserve" text-anchor="middle" x="1711.62" y="-199.79" font-family="Arial" font-size="10.00">C14</text>
<text xml:space="preserve" text-anchor="middle" x="1711.62" y="-187.79" font-family="Arial" font-size="10.00">106,50 = 54,00 + 52,50</text>
<text xml:space="preserve" text-anchor="middle" x="1711.62" y="-175.79" font-family="Arial" font-size="10.00">b=46% K={C10,C11,C14}</text>
</g>
<!-- S2&#45;&gt;A18 -->
<g id="edge25" class="edge">
<title>S2&#45;&gt;A18</title>
<path fill="none" stroke="#555555" d="M1485.79,-301.69C1531.65,-279.47 1600.26,-246.24 1649.81,-222.23"/>
<polygon fill="#555555" stroke="#555555" points="1651.25,-225.43 1658.72,-217.92 1648.19,-219.13 1651.25,-225.43"/>
<text xml:space="preserve" text-anchor="middle" x="1596.62" y="-259.84" font-family="Arial" font-size="9.00">28 + coleta</text>
</g>
<!-- S4 -->
<g id="node4" class="node">
<title>S4</title>
<ellipse fill="#b6f2b6" stroke="black" cx="90.62" cy="-43.6" rx="86.62" ry="39.6"/>
<ellipse fill="none" stroke="black" cx="90.62" cy="-43.6" rx="90.62" ry="43.6"/>
<text xml:space="preserve" text-anchor="middle" x="90.62" y="-58.1" font-family="Arial" font-size="10.00">C4</text>
<text xml:space="preserve" text-anchor="middle" x="90.62" y="-46.1" font-family="Arial" font-size="10.00">OBJETIVO</text>
<text xml:space="preserve" text-anchor="middle" x="90.62" y="-34.1" font-family="Arial" font-size="10.00">72,00 = 72,00 + 0,00</text>
<text xml:space="preserve" text-anchor="middle" x="90.62" y="-22.1" font-family="Arial" font-size="10.00">b=28% K={C10,C11,C4}</text>
</g>
<!-- S3&#45;&gt;S4 -->
<g id="edge3" class="edge">
<title>S3&#45;&gt;S4</title>
<path fill="none" stroke="#555555" d="M525.89,-175.32C445.93,-157.26 310.36,-124.61 196.62,-87.2 187.45,-84.18 177.93,-80.77 168.53,-77.23"/>
<polygon fill="#555555" stroke="#555555" points="170,-74.04 159.41,-73.72 167.49,-80.57 170,-74.04"/>
<text xml:space="preserve" text-anchor="middle" x="338.13" y="-116.15" font-family="Arial" font-size="9.00">26 + coleta</text>
</g>
<!-- A19 -->
<g id="node27" class="node">
<title>A19</title>
<ellipse fill="white" stroke="black" cx="299.62" cy="-43.6" rx="86.62" ry="31.11"/>
<text xml:space="preserve" text-anchor="middle" x="299.62" y="-52.1" font-family="Arial" font-size="10.00">C9</text>
<text xml:space="preserve" text-anchor="middle" x="299.62" y="-40.1" font-family="Arial" font-size="10.00">106,70 = 77,00 + 29,70</text>
<text xml:space="preserve" text-anchor="middle" x="299.62" y="-28.1" font-family="Arial" font-size="10.00">b=23% K={C10,C11,C9}</text>
</g>
<!-- S3&#45;&gt;A19 -->
<g id="edge26" class="edge">
<title>S3&#45;&gt;A19</title>
<path fill="none" stroke="#555555" d="M546.24,-166.4C495.26,-141.22 414.87,-101.52 359.82,-74.33"/>
<polygon fill="#555555" stroke="#555555" points="361.38,-71.2 350.87,-69.91 358.28,-77.47 361.38,-71.2"/>
<text xml:space="preserve" text-anchor="middle" x="478.47" y="-116.15" font-family="Arial" font-size="9.00">31 + coleta</text>
</g>
<!-- A20 -->
<g id="node28" class="node">
<title>A20</title>
<ellipse fill="white" stroke="black" cx="497.62" cy="-43.6" rx="79.2" ry="31.11"/>
<text xml:space="preserve" text-anchor="middle" x="497.62" y="-52.1" font-family="Arial" font-size="10.00">R6</text>
<text xml:space="preserve" text-anchor="middle" x="497.62" y="-40.1" font-family="Arial" font-size="10.00">85,49 = 58,00 + 27,49</text>
<text xml:space="preserve" text-anchor="middle" x="497.62" y="-28.1" font-family="Arial" font-size="10.00">b=42% K={C10,C11}</text>
</g>
<!-- S3&#45;&gt;A20 -->
<g id="edge27" class="edge">
<title>S3&#45;&gt;A20</title>
<path fill="none" stroke="#555555" d="M574.99,-160.81C560.13,-138.49 539.59,-107.64 523.41,-83.34"/>
<polygon fill="#555555" stroke="#555555" points="526.51,-81.68 518.06,-75.3 520.69,-85.56 526.51,-81.68"/>
<text xml:space="preserve" text-anchor="middle" x="554.28" y="-116.15" font-family="Arial" font-size="9.00">14</text>
</g>
<!-- A21 -->
<g id="node29" class="node">
<title>A21</title>
<ellipse fill="white" stroke="black" cx="691.62" cy="-43.6" rx="82.91" ry="31.11"/>
<text xml:space="preserve" text-anchor="middle" x="691.62" y="-52.1" font-family="Arial" font-size="10.00">C11</text>
<text xml:space="preserve" text-anchor="middle" x="691.62" y="-40.1" font-family="Arial" font-size="10.00">104,86 = 64,00 + 40,86</text>
<text xml:space="preserve" text-anchor="middle" x="691.62" y="-28.1" font-family="Arial" font-size="10.00">b=36% K={C10,C11}</text>
</g>
<!-- S3&#45;&gt;A21 -->
<g id="edge28" class="edge">
<title>S3&#45;&gt;A21</title>
<path fill="none" stroke="#555555" d="M614.25,-160.81C629.06,-138.57 649.51,-107.85 665.67,-83.58"/>
<polygon fill="#555555" stroke="#555555" points="668.39,-85.81 671.02,-75.55 662.56,-81.93 668.39,-85.81"/>
<text xml:space="preserve" text-anchor="middle" x="648.37" y="-116.15" font-family="Arial" font-size="9.00">20</text>
</g>
<!-- A22 -->
<g id="node30" class="node">
<title>A22</title>
<ellipse fill="white" stroke="black" cx="896.62" cy="-43.6" rx="90.33" ry="31.11"/>
<text xml:space="preserve" text-anchor="middle" x="896.62" y="-52.1" font-family="Arial" font-size="10.00">C13</text>
<text xml:space="preserve" text-anchor="middle" x="896.62" y="-40.1" font-family="Arial" font-size="10.00">112,00 = 70,00 + 42,00</text>
<text xml:space="preserve" text-anchor="middle" x="896.62" y="-28.1" font-family="Arial" font-size="10.00">b=30% K={C10,C11,C13}</text>
</g>
<!-- S3&#45;&gt;A22 -->
<g id="edge29" class="edge">
<title>S3&#45;&gt;A22</title>
<path fill="none" stroke="#555555" d="M643.81,-166.56C695.9,-141.44 778.22,-101.72 834.69,-74.48"/>
<polygon fill="#555555" stroke="#555555" points="836.07,-77.7 843.55,-70.2 833.03,-71.39 836.07,-77.7"/>
<text xml:space="preserve" text-anchor="middle" x="768.12" y="-116.15" font-family="Arial" font-size="9.00">24 + coleta</text>
</g>
<!-- A1 -->
<g id="node6" class="node">
<title>A1</title>
<ellipse fill="white" stroke="black" cx="1913.62" cy="-191.29" rx="79.2" ry="31.11"/>
<text xml:space="preserve" text-anchor="middle" x="1913.62" y="-199.79" font-family="Arial" font-size="10.00">R1</text>
<text xml:space="preserve" text-anchor="middle" x="1913.62" y="-187.79" font-family="Arial" font-size="10.00">78,48 = 52,00 + 26,48</text>
<text xml:space="preserve" text-anchor="middle" x="1913.62" y="-175.79" font-family="Arial" font-size="10.00">b=48% K={C10,C4}</text>
</g>
<!-- S5&#45;&gt;A1 -->
<g id="edge5" class="edge">
<title>S5&#45;&gt;A1</title>
<path fill="none" stroke="#555555" d="M2149.63,-302.6C2100.99,-279.87 2026.32,-244.97 1974.03,-220.53"/>
<polygon fill="#555555" stroke="#555555" points="1975.8,-217.49 1965.26,-216.43 1972.84,-223.84 1975.8,-217.49"/>
<text xml:space="preserve" text-anchor="middle" x="2078.43" y="-259.84" font-family="Arial" font-size="9.00">22</text>
</g>
<!-- A2 -->
<g id="node7" class="node">
<title>A2</title>
<ellipse fill="white" stroke="black" cx="2103.62" cy="-191.29" rx="79.2" ry="31.11"/>
<text xml:space="preserve" text-anchor="middle" x="2103.62" y="-199.79" font-family="Arial" font-size="10.00">R2</text>
<text xml:space="preserve" text-anchor="middle" x="2103.62" y="-187.79" font-family="Arial" font-size="10.00">74,49 = 47,00 + 27,49</text>
<text xml:space="preserve" text-anchor="middle" x="2103.62" y="-175.79" font-family="Arial" font-size="10.00">b=53% K={C10,C4}</text>
</g>
<!-- S5&#45;&gt;A2 -->
<g id="edge6" class="edge">
<title>S5&#45;&gt;A2</title>
<path fill="none" stroke="#555555" d="M2177.77,-296.27C2164.04,-277.01 2145.9,-251.59 2131.01,-230.7"/>
<polygon fill="#555555" stroke="#555555" points="2133.95,-228.8 2125.3,-222.69 2128.26,-232.87 2133.95,-228.8"/>
<text xml:space="preserve" text-anchor="middle" x="2162.06" y="-259.84" font-family="Arial" font-size="9.00">17</text>
</g>
<!-- A3 -->
<g id="node8" class="node">
<title>A3</title>
<ellipse fill="white" stroke="black" cx="2293.62" cy="-191.29" rx="79.2" ry="31.11"/>
<text xml:space="preserve" text-anchor="middle" x="2293.62" y="-199.79" font-family="Arial" font-size="10.00">C10</text>
<text xml:space="preserve" text-anchor="middle" x="2293.62" y="-187.79" font-family="Arial" font-size="10.00">82,48 = 56,00 + 26,48</text>
<text xml:space="preserve" text-anchor="middle" x="2293.62" y="-175.79" font-family="Arial" font-size="10.00">b=44% K={C10,C4}</text>
</g>
<!-- S5&#45;&gt;A3 -->
<g id="edge7" class="edge">
<title>S5&#45;&gt;A3</title>
<path fill="none" stroke="#555555" d="M2219.47,-296.27C2233.2,-277.01 2251.34,-251.59 2266.23,-230.7"/>
<polygon fill="#555555" stroke="#555555" points="2268.99,-232.87 2271.94,-222.69 2263.29,-228.8 2268.99,-232.87"/>
<text xml:space="preserve" text-anchor="middle" x="2251.37" y="-259.84" font-family="Arial" font-size="9.00">26</text>
</g>
<!-- A4 -->
<g id="node10" class="node">
<title>A4</title>
<ellipse fill="white" stroke="black" cx="2488.62" cy="-191.29" rx="83.44" ry="31.11"/>
<text xml:space="preserve" text-anchor="middle" x="2488.62" y="-199.79" font-family="Arial" font-size="10.00">C1</text>
<text xml:space="preserve" text-anchor="middle" x="2488.62" y="-187.79" font-family="Arial" font-size="10.00">92,50 = 61,00 + 31,50</text>
<text xml:space="preserve" text-anchor="middle" x="2488.62" y="-175.79" font-family="Arial" font-size="10.00">b=39% K={C1,C10,C9}</text>
</g>
<!-- S6&#45;&gt;A4 -->
<g id="edge9" class="edge">
<title>S6&#45;&gt;A4</title>
<path fill="none" stroke="#555555" d="M2645.09,-299.19C2614.05,-277.98 2570.23,-248.04 2536.85,-225.24"/>
<polygon fill="#555555" stroke="#555555" points="2539.22,-222.62 2528.98,-219.87 2535.27,-228.4 2539.22,-222.62"/>
<text xml:space="preserve" text-anchor="middle" x="2620.3" y="-259.84" font-family="Arial" font-size="9.00">24 + coleta</text>
</g>
<!-- A5 -->
<g id="node11" class="node">
<title>A5</title>
<ellipse fill="white" stroke="black" cx="2683.62" cy="-191.29" rx="79.2" ry="31.11"/>
<text xml:space="preserve" text-anchor="middle" x="2683.62" y="-199.79" font-family="Arial" font-size="10.00">R3</text>
<text xml:space="preserve" text-anchor="middle" x="2683.62" y="-187.79" font-family="Arial" font-size="10.00">87,20 = 51,00 + 36,20</text>
<text xml:space="preserve" text-anchor="middle" x="2683.62" y="-175.79" font-family="Arial" font-size="10.00">b=49% K={C10,C9}</text>
</g>
<!-- S6&#45;&gt;A5 -->
<g id="edge10" class="edge">
<title>S6&#45;&gt;A5</title>
<path fill="none" stroke="#555555" d="M2683.62,-294.94C2683.62,-276.92 2683.62,-253.86 2683.62,-234.16"/>
<polygon fill="#555555" stroke="#555555" points="2687.12,-234.23 2683.62,-224.23 2680.12,-234.23 2687.12,-234.23"/>
<text xml:space="preserve" text-anchor="middle" x="2688.87" y="-259.84" font-family="Arial" font-size="9.00">16</text>
</g>
<!-- A6 -->
<g id="node12" class="node">
<title>A6</title>
<ellipse fill="white" stroke="black" cx="2873.62" cy="-191.29" rx="79.2" ry="31.11"/>
<text xml:space="preserve" text-anchor="middle" x="2873.62" y="-199.79" font-family="Arial" font-size="10.00">C10</text>
<text xml:space="preserve" text-anchor="middle" x="2873.62" y="-187.79" font-family="Arial" font-size="10.00">92,48 = 66,00 + 26,48</text>
<text xml:space="preserve" text-anchor="middle" x="2873.62" y="-175.79" font-family="Arial" font-size="10.00">b=34% K={C10,C9}</text>
</g>
<!-- S6&#45;&gt;A6 -->
<g id="edge11" class="edge">
<title>S6&#45;&gt;A6</title>
<path fill="none" stroke="#555555" d="M2721.61,-298.87C2751.77,-277.72 2794.1,-248.05 2826.43,-225.38"/>
<polygon fill="#555555" stroke="#555555" points="2828.28,-228.36 2834.45,-219.75 2824.26,-222.63 2828.28,-228.36"/>
<text xml:space="preserve" text-anchor="middle" x="2783.87" y="-259.84" font-family="Arial" font-size="9.00">31</text>
</g>
<!-- A7 -->
<g id="node14" class="node">
<title>A7</title>
<ellipse fill="white" stroke="black" cx="3063.62" cy="-191.29" rx="79.2" ry="39.6"/>
<text xml:space="preserve" text-anchor="middle" x="3063.62" y="-205.79" font-family="Arial" font-size="10.00">R6</text>
<text xml:space="preserve" text-anchor="middle" x="3063.62" y="-193.79" font-family="Arial" font-size="10.00">46,49 = 16,00 + 30,49</text>
<text xml:space="preserve" text-anchor="middle" x="3063.62" y="-181.79" font-family="Arial" font-size="10.00">b=100% K={C10}</text>
<text xml:space="preserve" text-anchor="middle" x="3063.62" y="-169.79" font-family="Arial" font-size="10.00">recarga</text>
</g>
<!-- S7&#45;&gt;A7 -->
<g id="edge13" class="edge">
<title>S7&#45;&gt;A7</title>
<path fill="none" stroke="#555555" d="M3137.77,-296.27C3125.66,-279.29 3110.14,-257.52 3096.42,-238.29"/>
<polygon fill="#555555" stroke="#555555" points="3099.39,-236.43 3090.74,-230.32 3093.69,-240.49 3099.39,-236.43"/>
<text xml:space="preserve" text-anchor="middle" x="3140.06" y="-259.84" font-family="Arial" font-size="9.00">recarga 3,2</text>
</g>
<!-- A8 -->
<g id="node15" class="node">
<title>A8</title>
<ellipse fill="white" stroke="black" cx="3253.62" cy="-191.29" rx="79.2" ry="31.11"/>
<text xml:space="preserve" text-anchor="middle" x="3253.62" y="-199.79" font-family="Arial" font-size="10.00">C6</text>
<text xml:space="preserve" text-anchor="middle" x="3253.62" y="-187.79" font-family="Arial" font-size="10.00">55,00 = 31,00 + 24,00</text>
<text xml:space="preserve" text-anchor="middle" x="3253.62" y="-175.79" font-family="Arial" font-size="10.00">b=69% K={C10,C6}</text>
</g>
<!-- S7&#45;&gt;A8 -->
<g id="edge14" class="edge">
<title>S7&#45;&gt;A8</title>
<path fill="none" stroke="#555555" d="M3179.47,-296.27C3193.2,-277.01 3211.34,-251.59 3226.23,-230.7"/>
<polygon fill="#555555" stroke="#555555" points="3228.99,-232.87 3231.94,-222.69 3223.29,-228.8 3228.99,-232.87"/>
<text xml:space="preserve" text-anchor="middle" x="3228.62" y="-259.84" font-family="Arial" font-size="9.00">13 + coleta</text>
</g>
<!-- A9 -->
<g id="node16" class="node">
<title>A9</title>
<ellipse fill="white" stroke="black" cx="3443.62" cy="-191.29" rx="79.2" ry="31.11"/>
<text xml:space="preserve" text-anchor="middle" x="3443.62" y="-199.79" font-family="Arial" font-size="10.00">C10</text>
<text xml:space="preserve" text-anchor="middle" x="3443.62" y="-187.79" font-family="Arial" font-size="10.00">59,48 = 30,00 + 29,48</text>
<text xml:space="preserve" text-anchor="middle" x="3443.62" y="-175.79" font-family="Arial" font-size="10.00">b=70% K={C10}</text>
</g>
<!-- S7&#45;&gt;A9 -->
<g id="edge15" class="edge">
<title>S7&#45;&gt;A9</title>
<path fill="none" stroke="#555555" d="M3208.92,-302C3257.5,-279.29 3331.16,-244.86 3382.97,-220.64"/>
<polygon fill="#555555" stroke="#555555" points="3384.4,-223.84 3391.98,-216.43 3381.44,-217.5 3384.4,-223.84"/>
<text xml:space="preserve" text-anchor="middle" x="3306.37" y="-259.84" font-family="Arial" font-size="9.00">14</text>
</g>
<!-- A10 -->
<g id="node17" class="node">
<title>A10</title>
<ellipse fill="white" stroke="black" cx="3633.62" cy="-191.29" rx="79.2" ry="31.11"/>
<text xml:space="preserve" text-anchor="middle" x="3633.62" y="-199.79" font-family="Arial" font-size="10.00">C11</text>
<text xml:space="preserve" text-anchor="middle" x="3633.62" y="-187.79" font-family="Arial" font-size="10.00">75,86 = 35,00 + 40,86</text>
<text xml:space="preserve" text-anchor="middle" x="3633.62" y="-175.79" font-family="Arial" font-size="10.00">b=65% K={C10,C11}</text>
</g>
<!-- S7&#45;&gt;A10 -->
<g id="edge16" class="edge">
<title>S7&#45;&gt;A10</title>
<path fill="none" stroke="#555555" d="M3218.45,-305.7C3230.06,-302.09 3242.18,-298.49 3253.62,-295.39 3378.97,-261.41 3414.71,-269.8 3538.62,-230.89 3549.32,-227.53 3560.51,-223.49 3571.29,-219.3"/>
<polygon fill="#555555" stroke="#555555" points="3572.5,-222.59 3580.51,-215.64 3569.92,-216.08 3572.5,-222.59"/>
<text xml:space="preserve" text-anchor="middle" x="3453.28" y="-259.84" font-family="Arial" font-size="9.00">17 + coleta</text>
</g>
<!-- A13 -->
<g id="node21" class="node">
<title>A13</title>
<ellipse fill="white" stroke="black" cx="1098.62" cy="-43.6" rx="79.2" ry="39.6"/>
<text xml:space="preserve" text-anchor="middle" x="1098.62" y="-58.1" font-family="Arial" font-size="10.00">R6</text>
<text xml:space="preserve" text-anchor="middle" x="1098.62" y="-46.1" font-family="Arial" font-size="10.00">68,49 = 41,00 + 27,49</text>
<text xml:space="preserve" text-anchor="middle" x="1098.62" y="-34.1" font-family="Arial" font-size="10.00">b=100% K={C10,C11}</text>
<text xml:space="preserve" text-anchor="middle" x="1098.62" y="-22.1" font-family="Arial" font-size="10.00">recarga</text>
</g>
<!-- S8&#45;&gt;A13 -->
<g id="edge20" class="edge">
<title>S8&#45;&gt;A13</title>
<path fill="none" stroke="#555555" d="M1260.3,-163.57C1229.87,-141.17 1186,-108.89 1151.64,-83.61"/>
<polygon fill="#555555" stroke="#555555" points="1154.01,-81.01 1143.89,-77.91 1149.87,-86.65 1154.01,-81.01"/>
<text xml:space="preserve" text-anchor="middle" x="1226.81" y="-116.15" font-family="Arial" font-size="9.00">recarga 8,2</text>
</g>
<!-- A14 -->
<g id="node22" class="node">
<title>A14</title>
<ellipse fill="white" stroke="black" cx="1296.62" cy="-43.6" rx="86.62" ry="31.11"/>
<text xml:space="preserve" text-anchor="middle" x="1296.62" y="-52.1" font-family="Arial" font-size="10.00">C6</text>
<text xml:space="preserve" text-anchor="middle" x="1296.62" y="-40.1" font-family="Arial" font-size="10.00">77,00 = 56,00 + 21,00</text>
<text xml:space="preserve" text-anchor="middle" x="1296.62" y="-28.1" font-family="Arial" font-size="10.00">b=44% K={C10,C11,C6}</text>
</g>
<!-- S8&#45;&gt;A14 -->
<g id="edge21" class="edge">
<title>S8&#45;&gt;A14</title>
<path fill="none" stroke="#555555" d="M1296.62,-159.75C1296.62,-138.48 1296.62,-109.84 1296.62,-86.45"/>
<polygon fill="#555555" stroke="#555555" points="1300.12,-86.61 1296.62,-76.61 1293.12,-86.61 1300.12,-86.61"/>
<text xml:space="preserve" text-anchor="middle" x="1319.12" y="-116.15" font-family="Arial" font-size="9.00">13 + coleta</text>
</g>
<!-- A15 -->
<g id="node23" class="node">
<title>A15</title>
<ellipse fill="white" stroke="black" cx="1494.62" cy="-43.6" rx="79.2" ry="31.11"/>
<text xml:space="preserve" text-anchor="middle" x="1494.62" y="-52.1" font-family="Arial" font-size="10.00">C10</text>
<text xml:space="preserve" text-anchor="middle" x="1494.62" y="-40.1" font-family="Arial" font-size="10.00">81,48 = 55,00 + 26,48</text>
<text xml:space="preserve" text-anchor="middle" x="1494.62" y="-28.1" font-family="Arial" font-size="10.00">b=45% K={C10,C11}</text>
</g>
<!-- S8&#45;&gt;A15 -->
<g id="edge22" class="edge">
<title>S8&#45;&gt;A15</title>
<path fill="none" stroke="#555555" d="M1332.94,-163.57C1365.53,-139.59 1413.51,-104.28 1448.74,-78.36"/>
<polygon fill="#555555" stroke="#555555" points="1450.66,-81.29 1456.64,-72.54 1446.52,-75.65 1450.66,-81.29"/>
<text xml:space="preserve" text-anchor="middle" x="1400.87" y="-116.15" font-family="Arial" font-size="9.00">14</text>
</g>
<!-- A16 -->
<g id="node24" class="node">
<title>A16</title>
<ellipse fill="white" stroke="black" cx="1684.62" cy="-43.6" rx="79.2" ry="31.11"/>
<text xml:space="preserve" text-anchor="middle" x="1684.62" y="-52.1" font-family="Arial" font-size="10.00">C11</text>
<text xml:space="preserve" text-anchor="middle" x="1684.62" y="-40.1" font-family="Arial" font-size="10.00">98,86 = 58,00 + 40,86</text>
<text xml:space="preserve" text-anchor="middle" x="1684.62" y="-28.1" font-family="Arial" font-size="10.00">b=42% K={C10,C11}</text>
</g>
<!-- S8&#45;&gt;A16 -->
<g id="edge23" class="edge">
<title>S8&#45;&gt;A16</title>
<path fill="none" stroke="#555555" d="M1350.2,-168.03C1363.96,-162.51 1378.78,-156.74 1392.62,-151.7 1479.18,-120.16 1503.69,-120.42 1589.62,-87.2 1600.98,-82.8 1612.94,-77.77 1624.4,-72.74"/>
<polygon fill="#555555" stroke="#555555" points="1625.65,-76.02 1633.36,-68.76 1622.8,-69.62 1625.65,-76.02"/>
<text xml:space="preserve" text-anchor="middle" x="1513.34" y="-116.15" font-family="Arial" font-size="9.00">17</text>
</g>
</g>
</svg>
