<?xml version="1.0" encoding="UTF-8" standalone="no"?>
<!DOCTYPE svg PUBLIC "-//W3C//DTD SVG 1.1//EN"
 "http://www.w3.org/Graphics/SVG/1.1/DTD/svg11.dtd">
<!-- Generated by graphviz version 15.0.0 (20260523.1842)
 -->
<!-- Title: ArvoreBuscaAStar Pages: 1 -->
<svg width="2010pt" height="679pt"
 viewBox="0.00 0.00 2010.00 679.00" xmlns="http://www.w3.org/2000/svg" xmlns:xlink="http://www.w3.org/1999/xlink">
<g id="graph0" class="graph" transform="scale(1 1) rotate(0) translate(4 674.98)">
<title>ArvoreBuscaAStar</title>
<polygon fill="white" stroke="none" points="-4,4 -4,-674.98 2006.45,-674.98 2006.45,4 -4,4"/>
<text xml:space="preserve" text-anchor="middle" x="1001.23" y="-655.58" font-family="Arial" font-size="12.00">Arvore focada compactada: mostra o caminho escolhido e algumas alternativas imediatas. Ramos omitidos sao limite visual, nao poda do A*.</text>
<g id="clust1" class="cluster">
<title>cluster_legend</title>
<polygon fill="none" stroke="#cccccc" points="835.45,-542.73 835.45,-640.73 1994.45,-640.73 1994.45,-542.73 835.45,-542.73"/>
<text xml:space="preserve" text-anchor="middle" x="1414.95" y="-626.28" font-family="Arial" font-size="11.00">Legenda</text>
</g>
<!-- S1 -->
<g id="node1" class="node">
<title>S1</title>
<ellipse fill="#dbeafe" stroke="black" cx="727.45" cy="-580.98" rx="88.74" ry="31.11"/>
<text xml:space="preserve" text-anchor="middle" x="727.45" y="-589.48" font-family="Arial" font-size="10.00">C10</text>
<text xml:space="preserve" text-anchor="middle" x="727.45" y="-577.48" font-family="Arial" font-size="10.00">g=2,00 h=98,26 f=100,26</text>
<text xml:space="preserve" text-anchor="middle" x="727.45" y="-565.48" font-family="Arial" font-size="10.00">b=98% coletas=1</text>
</g>
<!-- S2 -->
<g id="node2" class="node">
<title>S2</title>
<ellipse fill="#dbeafe" stroke="black" cx="304.45" cy="-449.76" rx="95.64" ry="31.11"/>
<text xml:space="preserve" text-anchor="middle" x="304.45" y="-458.26" font-family="Arial" font-size="10.00">R6</text>
<text xml:space="preserve" text-anchor="middle" x="304.45" y="-446.26" font-family="Arial" font-size="10.00">g=16,00 h=101,63 f=117,63</text>
<text xml:space="preserve" text-anchor="middle" x="304.45" y="-434.26" font-family="Arial" font-size="10.00">b=84% coletas=1</text>
</g>
<!-- S1&#45;&gt;S2 -->
<g id="edge1" class="edge">
<title>S1&#45;&gt;S2</title>
<path fill="none" stroke="#2563eb" stroke-width="2" d="M661.36,-559.79C586.77,-537.01 465.41,-499.93 385.25,-475.44"/>
<polygon fill="#2563eb" stroke="#2563eb" stroke-width="2" points="386.72,-472.23 376.13,-472.66 384.68,-478.93 386.72,-472.23"/>
<text xml:space="preserve" text-anchor="middle" x="561.16" y="-517.32" font-family="Arial" font-size="9.00">escolhido</text>
<text xml:space="preserve" text-anchor="middle" x="561.16" y="-506.82" font-family="Arial" font-size="9.00">14</text>
</g>
<!-- S6 -->
<g id="node6" class="node">
<title>S6</title>
<ellipse fill="#e5e7eb" stroke="black" stroke-dasharray="5,2" cx="515.45" cy="-449.76" rx="88.74" ry="31.11"/>
<text xml:space="preserve" text-anchor="middle" x="515.45" y="-458.26" font-family="Arial" font-size="10.00">C4</text>
<text xml:space="preserve" text-anchor="middle" x="515.45" y="-446.26" font-family="Arial" font-size="10.00">g=30,00 h=10,00 f=40,00</text>
<text xml:space="preserve" text-anchor="middle" x="515.45" y="-434.26" font-family="Arial" font-size="10.00">b=70% coletas=2</text>
</g>
<!-- S1&#45;&gt;S6 -->
<g id="edge5" class="edge">
<title>S1&#45;&gt;S6</title>
<path fill="none" stroke="#9ca3af" d="M684.04,-553.52C650.6,-533.14 604.21,-504.86 568.56,-483.13"/>
<polygon fill="#9ca3af" stroke="#9ca3af" points="570.46,-480.19 560.1,-477.97 566.82,-486.17 570.46,-480.19"/>
<text xml:space="preserve" text-anchor="middle" x="656.65" y="-517.32" font-family="Arial" font-size="9.00">opcao</text>
<text xml:space="preserve" text-anchor="middle" x="656.65" y="-506.82" font-family="Arial" font-size="9.00">26 + coleta</text>
</g>
<!-- A1 -->
<g id="node7" class="node">
<title>A1</title>
<ellipse fill="white" stroke="black" cx="727.45" cy="-449.76" rx="96.17" ry="31.11"/>
<text xml:space="preserve" text-anchor="middle" x="727.45" y="-458.26" font-family="Arial" font-size="10.00">C9</text>
<text xml:space="preserve" text-anchor="middle" x="727.45" y="-446.26" font-family="Arial" font-size="10.00">g=35,00 h=108,99 f=143,99</text>
<text xml:space="preserve" text-anchor="middle" x="727.45" y="-434.26" font-family="Arial" font-size="10.00">b=65% coletas=2</text>
</g>
<!-- S1&#45;&gt;A1 -->
<g id="edge6" class="edge">
<title>S1&#45;&gt;A1</title>
<path fill="none" stroke="#9ca3af" d="M727.45,-549.69C727.45,-532.72 727.45,-511.3 727.45,-492.73"/>
<polygon fill="#9ca3af" stroke="#9ca3af" points="730.95,-492.83 727.45,-482.83 723.95,-492.83 730.95,-492.83"/>
<text xml:space="preserve" text-anchor="middle" x="749.95" y="-517.32" font-family="Arial" font-size="9.00">opcao</text>
<text xml:space="preserve" text-anchor="middle" x="749.95" y="-506.82" font-family="Arial" font-size="9.00">31 + coleta</text>
</g>
<!-- A2 -->
<g id="node8" class="node">
<title>A2</title>
<ellipse fill="white" stroke="black" cx="946.45" cy="-449.76" rx="96.17" ry="31.11"/>
<text xml:space="preserve" text-anchor="middle" x="946.45" y="-458.26" font-family="Arial" font-size="10.00">C11</text>
<text xml:space="preserve" text-anchor="middle" x="946.45" y="-446.26" font-family="Arial" font-size="10.00">g=24,00 h=136,19 f=160,19</text>
<text xml:space="preserve" text-anchor="middle" x="946.45" y="-434.26" font-family="Arial" font-size="10.00">b=76% coletas=2</text>
</g>
<!-- S1&#45;&gt;A2 -->
<g id="edge7" class="edge">
<title>S1&#45;&gt;A2</title>
<path fill="none" stroke="#9ca3af" d="M772.04,-553.68C806.59,-533.29 854.65,-504.93 891.57,-483.15"/>
<polygon fill="#9ca3af" stroke="#9ca3af" points="893.05,-486.34 899.88,-478.24 889.49,-480.31 893.05,-486.34"/>
<text xml:space="preserve" text-anchor="middle" x="872.57" y="-517.32" font-family="Arial" font-size="9.00">opcao</text>
<text xml:space="preserve" text-anchor="middle" x="872.57" y="-506.82" font-family="Arial" font-size="9.00">20 + coleta</text>
</g>
<!-- P1 -->
<g id="node9" class="node">
<title>P1</title>
<polygon fill="#fef3c7" stroke="#f59e0b" stroke-dasharray="5,2" points="1181.45,-477.76 1069.45,-477.76 1069.45,-421.76 1181.45,-421.76 1181.45,-477.76"/>
<text xml:space="preserve" text-anchor="middle" x="1125.45" y="-464.26" font-family="Arial" font-size="10.00" fill="#92400e">+1 ramos omitidos</text>
<text xml:space="preserve" text-anchor="middle" x="1125.45" y="-452.26" font-family="Arial" font-size="10.00" fill="#92400e">limite visual</text>
<text xml:space="preserve" text-anchor="middle" x="1125.45" y="-440.26" font-family="Arial" font-size="10.00" fill="#92400e">(estados gerados,</text>
<text xml:space="preserve" text-anchor="middle" x="1125.45" y="-428.26" font-family="Arial" font-size="10.00" fill="#92400e">mas nao desenhados)</text>
</g>
<!-- S1&#45;&gt;P1 -->
<g id="edge8" class="edge">
<title>S1&#45;&gt;P1</title>
<path fill="none" stroke="#d97706" stroke-dasharray="5,2" d="M786.11,-557.2C800.2,-552.11 815.27,-546.97 829.45,-542.73 860.95,-533.33 869.66,-534.2 901.45,-525.87 970.84,-507.69 989,-505.27 1056.45,-480.87 1060.63,-479.36 1064.92,-477.72 1069.21,-476.01"/>
</g>
<!-- S3 -->
<g id="node3" class="node">
<title>S3</title>
<ellipse fill="#dbeafe" stroke="black" cx="304.45" cy="-318.53" rx="91.39" ry="31.11"/>
<text xml:space="preserve" text-anchor="middle" x="304.45" y="-327.03" font-family="Arial" font-size="10.00">C6</text>
<text xml:space="preserve" text-anchor="middle" x="304.45" y="-315.03" font-family="Arial" font-size="10.00">g=31,00 h=80,00 f=111,00</text>
<text xml:space="preserve" text-anchor="middle" x="304.45" y="-303.03" font-family="Arial" font-size="10.00">b=69% coletas=2</text>
</g>
<!-- S2&#45;&gt;S3 -->
<g id="edge2" class="edge">
<title>S2&#45;&gt;S3</title>
<path fill="none" stroke="#2563eb" stroke-width="2" d="M304.45,-418.46C304.45,-401.97 304.45,-381.29 304.45,-363.1"/>
<polygon fill="#2563eb" stroke="#2563eb" stroke-width="2" points="307.95,-363.12 304.45,-353.12 300.95,-363.12 307.95,-363.12"/>
<text xml:space="preserve" text-anchor="middle" x="326.95" y="-386.1" font-family="Arial" font-size="9.00">escolhido</text>
<text xml:space="preserve" text-anchor="middle" x="326.95" y="-375.6" font-family="Arial" font-size="9.00">13 + coleta</text>
</g>
<!-- S4 -->
<g id="node4" class="node">
<title>S4</title>
<ellipse fill="#dbeafe" stroke="black" cx="92.45" cy="-187.31" rx="92.45" ry="31.11"/>
<text xml:space="preserve" text-anchor="middle" x="92.45" y="-195.81" font-family="Arial" font-size="10.00">R2</text>
<text xml:space="preserve" text-anchor="middle" x="92.45" y="-183.81" font-family="Arial" font-size="10.00">g=49,00 h=91,63 f=140,63</text>
<text xml:space="preserve" text-anchor="middle" x="92.45" y="-171.81" font-family="Arial" font-size="10.00">b=51% coletas=2</text>
</g>
<!-- S3&#45;&gt;S4 -->
<g id="edge3" class="edge">
<title>S3&#45;&gt;S4</title>
<path fill="none" stroke="#2563eb" stroke-width="2" d="M260.78,-290.92C227.97,-270.91 182.8,-243.38 147.51,-221.87"/>
<polygon fill="#2563eb" stroke="#2563eb" stroke-width="2" points="149.38,-218.91 139.02,-216.69 145.73,-224.88 149.38,-218.91"/>
<text xml:space="preserve" text-anchor="middle" x="231.02" y="-254.87" font-family="Arial" font-size="9.00">escolhido</text>
<text xml:space="preserve" text-anchor="middle" x="231.02" y="-244.37" font-family="Arial" font-size="9.00">18</text>
</g>
<!-- S7 -->
<g id="node10" class="node">
<title>S7</title>
<ellipse fill="#e5e7eb" stroke="black" stroke-dasharray="5,2" cx="304.45" cy="-187.31" rx="92.45" ry="31.11"/>
<text xml:space="preserve" text-anchor="middle" x="304.45" y="-195.81" font-family="Arial" font-size="10.00">R6</text>
<text xml:space="preserve" text-anchor="middle" x="304.45" y="-183.81" font-family="Arial" font-size="10.00">g=44,00 h=91,63 f=135,63</text>
<text xml:space="preserve" text-anchor="middle" x="304.45" y="-171.81" font-family="Arial" font-size="10.00">b=56% coletas=2</text>
</g>
<!-- S3&#45;&gt;S7 -->
<g id="edge9" class="edge">
<title>S3&#45;&gt;S7</title>
<path fill="none" stroke="#9ca3af" d="M304.45,-287.24C304.45,-270.27 304.45,-248.85 304.45,-230.28"/>
<polygon fill="#9ca3af" stroke="#9ca3af" points="307.95,-230.38 304.45,-220.38 300.95,-230.38 307.95,-230.38"/>
<text xml:space="preserve" text-anchor="middle" x="317.2" y="-254.87" font-family="Arial" font-size="9.00">opcao</text>
<text xml:space="preserve" text-anchor="middle" x="317.2" y="-244.37" font-family="Arial" font-size="9.00">13</text>
</g>
<!-- A3 -->
<g id="node11" class="node">
<title>A3</title>
<ellipse fill="white" stroke="black" cx="520.45" cy="-187.31" rx="96.17" ry="31.11"/>
<text xml:space="preserve" text-anchor="middle" x="520.45" y="-195.81" font-family="Arial" font-size="10.00">C7</text>
<text xml:space="preserve" text-anchor="middle" x="520.45" y="-183.81" font-family="Arial" font-size="10.00">g=52,00 h=140,00 f=192,00</text>
<text xml:space="preserve" text-anchor="middle" x="520.45" y="-171.81" font-family="Arial" font-size="10.00">b=48% coletas=3</text>
</g>
<!-- S3&#45;&gt;A3 -->
<g id="edge10" class="edge">
<title>S3&#45;&gt;A3</title>
<path fill="none" stroke="#9ca3af" d="M348.95,-290.92C382.96,-270.57 430,-242.42 466.22,-220.76"/>
<polygon fill="#9ca3af" stroke="#9ca3af" points="467.56,-224.03 474.35,-215.89 463.97,-218.02 467.56,-224.03"/>
<text xml:space="preserve" text-anchor="middle" x="447.89" y="-254.87" font-family="Arial" font-size="9.00">opcao</text>
<text xml:space="preserve" text-anchor="middle" x="447.89" y="-244.37" font-family="Arial" font-size="9.00">19 + coleta</text>
</g>
<!-- S5 -->
<g id="node5" class="node">
<title>S5</title>
<ellipse fill="#b6f2b6" stroke="black" cx="92.45" cy="-43.6" rx="85.03" ry="39.6"/>
<ellipse fill="none" stroke="black" cx="92.45" cy="-43.6" rx="89.03" ry="43.6"/>
<text xml:space="preserve" text-anchor="middle" x="92.45" y="-58.1" font-family="Arial" font-size="10.00">OBJETIVO</text>
<text xml:space="preserve" text-anchor="middle" x="92.45" y="-46.1" font-family="Arial" font-size="10.00">C4</text>
<text xml:space="preserve" text-anchor="middle" x="92.45" y="-34.1" font-family="Arial" font-size="10.00">g=68,00 h=0,00 f=68,00</text>
<text xml:space="preserve" text-anchor="middle" x="92.45" y="-22.1" font-family="Arial" font-size="10.00">b=32% coletas=3</text>
</g>
<!-- S4&#45;&gt;S5 -->
<g id="edge4" class="edge">
<title>S4&#45;&gt;S5</title>
<path fill="none" stroke="#2563eb" stroke-width="2" d="M92.45,-155.91C92.45,-139.72 92.45,-119.29 92.45,-100.37"/>
<polygon fill="#2563eb" stroke="#2563eb" stroke-width="2" points="95.95,-100.61 92.45,-90.61 88.95,-100.61 95.95,-100.61"/>
<text xml:space="preserve" text-anchor="middle" x="114.95" y="-123.65" font-family="Arial" font-size="9.00">escolhido</text>
<text xml:space="preserve" text-anchor="middle" x="114.95" y="-113.15" font-family="Arial" font-size="9.00">17 + coleta</text>
</g>
<!-- legend_solution -->
<g id="node12" class="node">
<title>legend_solution</title>
<polygon fill="#dbeafe" stroke="black" points="983.33,-598.98 843.58,-598.98 843.58,-562.98 983.33,-562.98 983.33,-598.98"/>
<text xml:space="preserve" text-anchor="middle" x="913.45" y="-582.93" font-family="Arial" font-size="9.00">Estado no caminho escolhido</text>
<text xml:space="preserve" text-anchor="middle" x="913.45" y="-572.43" font-family="Arial" font-size="9.00">arestas azuis ligam a rota final</text>
</g>
<!-- legend_recharge -->
<g id="node13" class="node">
<title>legend_recharge</title>
<polygon fill="#dcfce7" stroke="#059669" points="1148.95,-598.98 1009.95,-598.98 1009.95,-562.98 1148.95,-562.98 1148.95,-598.98"/>
<text xml:space="preserve" text-anchor="middle" x="1079.45" y="-582.93" font-family="Arial" font-size="9.00">Acao de recarga executada</text>
<text xml:space="preserve" text-anchor="middle" x="1079.45" y="-572.43" font-family="Arial" font-size="9.00">recarga tambem entra em g(s)</text>
</g>
<!-- legend_goal -->
<g id="node14" class="node">
<title>legend_goal</title>
<polygon fill="#b6f2b6" stroke="black" points="1266.7,-598.98 1180.2,-598.98 1180.2,-562.98 1266.7,-562.98 1266.7,-598.98"/>
<polygon fill="none" stroke="black" points="1270.7,-602.98 1176.2,-602.98 1176.2,-558.98 1270.7,-558.98 1270.7,-602.98"/>
<text xml:space="preserve" text-anchor="middle" x="1223.45" y="-577.68" font-family="Arial" font-size="9.00">Destino / objetivo</text>
</g>
<!-- legend_expanded -->
<g id="node15" class="node">
<title>legend_expanded</title>
<polygon fill="#e5e7eb" stroke="black" points="1461.33,-598.98 1297.58,-598.98 1297.58,-562.98 1461.33,-562.98 1461.33,-598.98"/>
<text xml:space="preserve" text-anchor="middle" x="1379.45" y="-582.93" font-family="Arial" font-size="9.00">Expandido / Closed</text>
<text xml:space="preserve" text-anchor="middle" x="1379.45" y="-572.43" font-family="Arial" font-size="9.00">(filhos nao desenhados nesta visao)</text>
</g>
<!-- legend_open -->
<g id="node16" class="node">
<title>legend_open</title>
<polygon fill="white" stroke="black" points="1634.33,-598.98 1488.58,-598.98 1488.58,-562.98 1634.33,-562.98 1634.33,-598.98"/>
<text xml:space="preserve" text-anchor="middle" x="1561.45" y="-582.93" font-family="Arial" font-size="9.00">Gerado / Open</text>
<text xml:space="preserve" text-anchor="middle" x="1561.45" y="-572.43" font-family="Arial" font-size="9.00">candidato ainda nao expandido</text>
</g>
<!-- legend_alternative -->
<g id="node17" class="node">
<title>legend_alternative</title>
<polygon fill="white" stroke="black" points="1769.58,-598.98 1661.33,-598.98 1661.33,-562.98 1769.58,-562.98 1769.58,-598.98"/>
<text xml:space="preserve" text-anchor="middle" x="1715.45" y="-582.93" font-family="Arial" font-size="9.00">Alternativa desenhada</text>
<text xml:space="preserve" text-anchor="middle" x="1715.45" y="-572.43" font-family="Arial" font-size="9.00">aresta cinza</text>
</g>
<!-- legend_pruned -->
<g id="node18" class="node">
<title>legend_pruned</title>
<polygon fill="#fef3c7" stroke="black" points="1986.45,-611.23 1796.45,-611.23 1796.45,-550.73 1986.45,-550.73 1986.45,-611.23"/>
<text xml:space="preserve" text-anchor="middle" x="1891.45" y="-598.68" font-family="Arial" font-size="9.00">Ramos omitidos por limite visual:</text>
<text xml:space="preserve" text-anchor="middle" x="1891.45" y="-588.18" font-family="Arial" font-size="9.00">estados gerados na execucao,</text>
<text xml:space="preserve" text-anchor="middle" x="1891.45" y="-577.68" font-family="Arial" font-size="9.00">mas ocultados para evitar arvore ilegivel.</text>
<text xml:space="preserve" text-anchor="middle" x="1891.45" y="-567.18" font-family="Arial" font-size="9.00">Nao e poda do algoritmo;</text>
<text xml:space="preserve" text-anchor="middle" x="1891.45" y="-556.68" font-family="Arial" font-size="9.00">Open/Closed e metricas reais nao mudam.</text>
</g>
</g>
</svg>
