<?xml version="1.0" encoding="UTF-8" standalone="no"?>
<!DOCTYPE svg PUBLIC "-//W3C//DTD SVG 1.1//EN"
 "http://www.w3.org/Graphics/SVG/1.1/DTD/svg11.dtd">
<!-- Generated by graphviz version 15.0.0 (20260523.1842)
 -->
<!-- Title: ArvoreBuscaCompleta Pages: 1 -->
<svg width="3060pt" height="646pt"
 viewBox="0.00 0.00 3060.00 646.00" xmlns="http://www.w3.org/2000/svg" xmlns:xlink="http://www.w3.org/1999/xlink">
<g id="graph0" class="graph" transform="scale(1 1) rotate(0) translate(4 641.96)">
<title>ArvoreBuscaCompleta</title>
<polygon fill="white" stroke="none" points="-4,4 -4,-641.96 3056.45,-641.96 3056.45,4 -4,4"/>
<text xml:space="preserve" text-anchor="middle" x="1526.23" y="-622.56" font-family="Arial" font-size="12.00">Arvore completa compactada por limite visual: estados omitidos existiram na execucao, mas nao foram desenhados para manter a figura legivel.</text>
<g id="clust1" class="cluster">
<title>cluster_legend</title>
<polygon fill="none" stroke="#cccccc" points="1965.45,-509.71 1965.45,-607.71 3044.45,-607.71 3044.45,-509.71 1965.45,-509.71"/>
<text xml:space="preserve" text-anchor="middle" x="2504.95" y="-593.26" font-family="Arial" font-size="11.00">Legenda</text>
</g>
<!-- N1 -->
<g id="node1" class="node">
<title>N1</title>
<ellipse fill="#dbeafe" stroke="black" cx="1859.45" cy="-547.96" rx="88.74" ry="31.11"/>
<text xml:space="preserve" text-anchor="middle" x="1859.45" y="-556.46" font-family="Arial" font-size="10.00">C10</text>
<text xml:space="preserve" text-anchor="middle" x="1859.45" y="-544.46" font-family="Arial" font-size="10.00">g=2,00 h=98,26 f=100,26</text>
<text xml:space="preserve" text-anchor="middle" x="1859.45" y="-532.46" font-family="Arial" font-size="10.00">b=98% coletas=1</text>
</g>
<!-- N2 -->
<g id="node2" class="node">
<title>N2</title>
<ellipse fill="#dbeafe" stroke="black" cx="1346.45" cy="-429.23" rx="95.64" ry="31.11"/>
<text xml:space="preserve" text-anchor="middle" x="1346.45" y="-437.73" font-family="Arial" font-size="10.00">R6</text>
<text xml:space="preserve" text-anchor="middle" x="1346.45" y="-425.73" font-family="Arial" font-size="10.00">g=16,00 h=101,63 f=117,63</text>
<text xml:space="preserve" text-anchor="middle" x="1346.45" y="-413.73" font-family="Arial" font-size="10.00">b=84% coletas=1</text>
</g>
<!-- N1&#45;&gt;N2 -->
<g id="edge1" class="edge">
<title>N1&#45;&gt;N2</title>
<path fill="none" stroke="#2563eb" stroke-width="2" d="M1785.68,-530.17C1693.42,-509.18 1535.55,-473.26 1436.33,-450.68"/>
<polygon fill="#2563eb" stroke="#2563eb" stroke-width="2" points="1437.4,-447.34 1426.88,-448.53 1435.85,-454.16 1437.4,-447.34"/>
<text xml:space="preserve" text-anchor="middle" x="1623.59" y="-485.29" font-family="Arial" font-size="9.00">14</text>
</g>
<!-- N8 -->
<g id="node9" class="node">
<title>N8</title>
<ellipse fill="#e5e7eb" stroke="black" cx="1649.45" cy="-429.23" rx="88.74" ry="31.11"/>
<text xml:space="preserve" text-anchor="middle" x="1649.45" y="-437.73" font-family="Arial" font-size="10.00">C4</text>
<text xml:space="preserve" text-anchor="middle" x="1649.45" y="-425.73" font-family="Arial" font-size="10.00">g=30,00 h=10,00 f=40,00</text>
<text xml:space="preserve" text-anchor="middle" x="1649.45" y="-413.73" font-family="Arial" font-size="10.00">b=70% coletas=2</text>
</g>
<!-- N1&#45;&gt;N8 -->
<g id="edge8" class="edge">
<title>N1&#45;&gt;N8</title>
<path fill="none" stroke="#555555" d="M1812.85,-521.05C1781.17,-503.44 1739.11,-480.06 1705.59,-461.43"/>
<polygon fill="#555555" stroke="#555555" points="1707.69,-458.6 1697.25,-456.8 1704.29,-464.72 1707.69,-458.6"/>
<text xml:space="preserve" text-anchor="middle" x="1783.25" y="-485.29" font-family="Arial" font-size="9.00">26 + coleta</text>
</g>
<!-- N20 -->
<g id="node26" class="node">
<title>N20</title>
<ellipse fill="white" stroke="black" cx="1859.45" cy="-429.23" rx="96.17" ry="31.11"/>
<text xml:space="preserve" text-anchor="middle" x="1859.45" y="-437.73" font-family="Arial" font-size="10.00">C9</text>
<text xml:space="preserve" text-anchor="middle" x="1859.45" y="-425.73" font-family="Arial" font-size="10.00">g=35,00 h=108,99 f=143,99</text>
<text xml:space="preserve" text-anchor="middle" x="1859.45" y="-413.73" font-family="Arial" font-size="10.00">b=65% coletas=2</text>
</g>
<!-- N1&#45;&gt;N20 -->
<g id="edge25" class="edge">
<title>N1&#45;&gt;N20</title>
<path fill="none" stroke="#555555" d="M1859.45,-516.59C1859.45,-502.95 1859.45,-486.63 1859.45,-471.86"/>
<polygon fill="#555555" stroke="#555555" points="1862.95,-471.96 1859.45,-461.96 1855.95,-471.96 1862.95,-471.96"/>
<text xml:space="preserve" text-anchor="middle" x="1881.95" y="-485.29" font-family="Arial" font-size="9.00">31 + coleta</text>
</g>
<!-- N21 -->
<g id="node27" class="node">
<title>N21</title>
<ellipse fill="white" stroke="black" cx="2076.45" cy="-429.23" rx="96.17" ry="31.11"/>
<text xml:space="preserve" text-anchor="middle" x="2076.45" y="-437.73" font-family="Arial" font-size="10.00">C11</text>
<text xml:space="preserve" text-anchor="middle" x="2076.45" y="-425.73" font-family="Arial" font-size="10.00">g=24,00 h=136,19 f=160,19</text>
<text xml:space="preserve" text-anchor="middle" x="2076.45" y="-413.73" font-family="Arial" font-size="10.00">b=76% coletas=2</text>
</g>
<!-- N1&#45;&gt;N21 -->
<g id="edge26" class="edge">
<title>N1&#45;&gt;N21</title>
<path fill="none" stroke="#555555" d="M1907.08,-521.34C1939.67,-503.81 1983.09,-480.45 2017.81,-461.78"/>
<polygon fill="#555555" stroke="#555555" points="2019.34,-464.93 2026.48,-457.11 2016.02,-458.76 2019.34,-464.93"/>
<text xml:space="preserve" text-anchor="middle" x="1996.96" y="-485.29" font-family="Arial" font-size="9.00">20 + coleta</text>
</g>
<!-- X7 -->
<g id="node28" class="node">
<title>X7</title>
<polygon fill="#fef3c7" stroke="#f59e0b" stroke-dasharray="5,2" points="2309.45,-457.23 2197.45,-457.23 2197.45,-401.23 2309.45,-401.23 2309.45,-457.23"/>
<text xml:space="preserve" text-anchor="middle" x="2253.45" y="-443.73" font-family="Arial" font-size="10.00" fill="#92400e">+1 ramos omitidos</text>
<text xml:space="preserve" text-anchor="middle" x="2253.45" y="-431.73" font-family="Arial" font-size="10.00" fill="#92400e">limite visual</text>
<text xml:space="preserve" text-anchor="middle" x="2253.45" y="-419.73" font-family="Arial" font-size="10.00" fill="#92400e">(estados gerados,</text>
<text xml:space="preserve" text-anchor="middle" x="2253.45" y="-407.73" font-family="Arial" font-size="10.00" fill="#92400e">mas nao desenhados)</text>
</g>
<!-- N1&#45;&gt;X7 -->
<g id="edge27" class="edge">
<title>N1&#45;&gt;X7</title>
<path fill="none" stroke="#d97706" stroke-dasharray="5,2" d="M1917.15,-523.88C1930.89,-518.83 1945.59,-513.78 1959.45,-509.71 2008.78,-495.21 2136.59,-476.32 2185.45,-460.34 2189.26,-459.1 2193.14,-457.71 2197.02,-456.24"/>
</g>
<!-- N3 -->
<g id="node3" class="node">
<title>N3</title>
<ellipse fill="#dbeafe" stroke="black" cx="453.45" cy="-310.5" rx="91.39" ry="31.11"/>
<text xml:space="preserve" text-anchor="middle" x="453.45" y="-319" font-family="Arial" font-size="10.00">C6</text>
<text xml:space="preserve" text-anchor="middle" x="453.45" y="-307" font-family="Arial" font-size="10.00">g=31,00 h=80,00 f=111,00</text>
<text xml:space="preserve" text-anchor="middle" x="453.45" y="-295" font-family="Arial" font-size="10.00">b=69% coletas=2</text>
</g>
<!-- N2&#45;&gt;N3 -->
<g id="edge2" class="edge">
<title>N2&#45;&gt;N3</title>
<path fill="none" stroke="#2563eb" stroke-width="2" d="M1258.39,-416.72C1090.54,-394.78 726,-347.13 551.02,-324.26"/>
<polygon fill="#2563eb" stroke="#2563eb" stroke-width="2" points="551.62,-320.81 541.25,-322.98 550.71,-327.75 551.62,-320.81"/>
<text xml:space="preserve" text-anchor="middle" x="949.23" y="-366.57" font-family="Arial" font-size="9.00">13 + coleta</text>
</g>
<!-- N4 -->
<g id="node4" class="node">
<title>N4</title>
<ellipse fill="#dbeafe" stroke="black" cx="92.45" cy="-183.29" rx="92.45" ry="31.11"/>
<text xml:space="preserve" text-anchor="middle" x="92.45" y="-191.79" font-family="Arial" font-size="10.00">R2</text>
<text xml:space="preserve" text-anchor="middle" x="92.45" y="-179.79" font-family="Arial" font-size="10.00">g=49,00 h=91,63 f=140,63</text>
<text xml:space="preserve" text-anchor="middle" x="92.45" y="-167.79" font-family="Arial" font-size="10.00">b=51% coletas=2</text>
</g>
<!-- N3&#45;&gt;N4 -->
<g id="edge3" class="edge">
<title>N3&#45;&gt;N4</title>
<path fill="none" stroke="#2563eb" stroke-width="2" d="M388.85,-288.16C337,-270.91 262.38,-245.81 197.45,-222.89 187.07,-219.23 176.15,-215.3 165.42,-211.39"/>
<polygon fill="#2563eb" stroke="#2563eb" stroke-width="2" points="166.87,-208.2 156.28,-208.05 164.47,-214.77 166.87,-208.2"/>
<text xml:space="preserve" text-anchor="middle" x="294" y="-247.84" font-family="Arial" font-size="9.00">18</text>
</g>
<!-- N6 -->
<g id="node6" class="node">
<title>N6</title>
<ellipse fill="#e5e7eb" stroke="black" cx="302.45" cy="-183.29" rx="92.45" ry="31.11"/>
<text xml:space="preserve" text-anchor="middle" x="302.45" y="-191.79" font-family="Arial" font-size="10.00">R6</text>
<text xml:space="preserve" text-anchor="middle" x="302.45" y="-179.79" font-family="Arial" font-size="10.00">g=44,00 h=91,63 f=135,63</text>
<text xml:space="preserve" text-anchor="middle" x="302.45" y="-167.79" font-family="Arial" font-size="10.00">b=56% coletas=2</text>
</g>
<!-- N3&#45;&gt;N6 -->
<g id="edge5" class="edge">
<title>N3&#45;&gt;N6</title>
<path fill="none" stroke="#555555" d="M419.57,-281.4C397.59,-263.18 368.78,-239.29 345.23,-219.77"/>
<polygon fill="#555555" stroke="#555555" points="347.59,-217.17 337.65,-213.48 343.12,-222.56 347.59,-217.17"/>
<text xml:space="preserve" text-anchor="middle" x="392.24" y="-247.84" font-family="Arial" font-size="9.00">13</text>
</g>
<!-- N7 -->
<g id="node8" class="node">
<title>N7</title>
<ellipse fill="white" stroke="black" cx="516.45" cy="-183.29" rx="96.17" ry="31.11"/>
<text xml:space="preserve" text-anchor="middle" x="516.45" y="-191.79" font-family="Arial" font-size="10.00">C7</text>
<text xml:space="preserve" text-anchor="middle" x="516.45" y="-179.79" font-family="Arial" font-size="10.00">g=52,00 h=140,00 f=192,00</text>
<text xml:space="preserve" text-anchor="middle" x="516.45" y="-167.79" font-family="Arial" font-size="10.00">b=48% coletas=3</text>
</g>
<!-- N3&#45;&gt;N7 -->
<g id="edge7" class="edge">
<title>N3&#45;&gt;N7</title>
<path fill="none" stroke="#555555" d="M468.54,-279.51C476.82,-263.06 487.2,-242.44 496.17,-224.6"/>
<polygon fill="#555555" stroke="#555555" points="499.22,-226.33 500.59,-215.83 492.97,-223.19 499.22,-226.33"/>
<text xml:space="preserve" text-anchor="middle" x="507.45" y="-247.84" font-family="Arial" font-size="9.00">19 + coleta</text>
</g>
<!-- N5 -->
<g id="node5" class="node">
<title>N5</title>
<ellipse fill="#b6f2b6" stroke="black" cx="92.45" cy="-43.6" rx="85.03" ry="39.6"/>
<ellipse fill="none" stroke="black" cx="92.45" cy="-43.6" rx="89.03" ry="43.6"/>
<text xml:space="preserve" text-anchor="middle" x="92.45" y="-58.1" font-family="Arial" font-size="10.00">OBJETIVO</text>
<text xml:space="preserve" text-anchor="middle" x="92.45" y="-46.1" font-family="Arial" font-size="10.00">C4</text>
<text xml:space="preserve" text-anchor="middle" x="92.45" y="-34.1" font-family="Arial" font-size="10.00">g=68,00 h=0,00 f=68,00</text>
<text xml:space="preserve" text-anchor="middle" x="92.45" y="-22.1" font-family="Arial" font-size="10.00">b=32% coletas=3</text>
</g>
<!-- N4&#45;&gt;N5 -->
<g id="edge4" class="edge">
<title>N4&#45;&gt;N5</title>
<path fill="none" stroke="#2563eb" stroke-width="2" d="M92.45,-151.73C92.45,-136.63 92.45,-117.93 92.45,-100.4"/>
<polygon fill="#2563eb" stroke="#2563eb" stroke-width="2" points="95.95,-100.63 92.45,-90.63 88.95,-100.63 95.95,-100.63"/>
<text xml:space="preserve" text-anchor="middle" x="114.95" y="-112.15" font-family="Arial" font-size="9.00">17 + coleta</text>
</g>
<!-- X1 -->
<g id="node7" class="node">
<title>X1</title>
<polygon fill="#fef3c7" stroke="#f59e0b" stroke-dasharray="5,2" points="358.45,-71.6 246.45,-71.6 246.45,-15.6 358.45,-15.6 358.45,-71.6"/>
<text xml:space="preserve" text-anchor="middle" x="302.45" y="-58.1" font-family="Arial" font-size="10.00" fill="#92400e">+2 ramos omitidos</text>
<text xml:space="preserve" text-anchor="middle" x="302.45" y="-46.1" font-family="Arial" font-size="10.00" fill="#92400e">limite visual</text>
<text xml:space="preserve" text-anchor="middle" x="302.45" y="-34.1" font-family="Arial" font-size="10.00" fill="#92400e">(estados gerados,</text>
<text xml:space="preserve" text-anchor="middle" x="302.45" y="-22.1" font-family="Arial" font-size="10.00" fill="#92400e">mas nao desenhados)</text>
</g>
<!-- N6&#45;&gt;X1 -->
<g id="edge6" class="edge">
<title>N6&#45;&gt;X1</title>
<path fill="none" stroke="#d97706" stroke-dasharray="5,2" d="M302.45,-151.73C302.45,-127.81 302.45,-94.83 302.45,-71.81"/>
</g>
<!-- N9 -->
<g id="node10" class="node">
<title>N9</title>
<ellipse fill="#e5e7eb" stroke="black" cx="1255.45" cy="-310.5" rx="92.45" ry="31.11"/>
<text xml:space="preserve" text-anchor="middle" x="1255.45" y="-319" font-family="Arial" font-size="10.00">R2</text>
<text xml:space="preserve" text-anchor="middle" x="1255.45" y="-307" font-family="Arial" font-size="10.00">g=47,00 h=91,63 f=138,63</text>
<text xml:space="preserve" text-anchor="middle" x="1255.45" y="-295" font-family="Arial" font-size="10.00">b=53% coletas=2</text>
</g>
<!-- N8&#45;&gt;N9 -->
<g id="edge9" class="edge">
<title>N8&#45;&gt;N9</title>
<path fill="none" stroke="#555555" d="M1582.62,-408.43C1514.12,-388.14 1407.62,-356.59 1334.87,-335.03"/>
<polygon fill="#555555" stroke="#555555" points="1335.98,-331.71 1325.39,-332.22 1333.99,-338.42 1335.98,-331.71"/>
<text xml:space="preserve" text-anchor="middle" x="1469.52" y="-366.57" font-family="Arial" font-size="9.00">17</text>
</g>
<!-- N14 -->
<g id="node19" class="node">
<title>N14</title>
<ellipse fill="#e5e7eb" stroke="black" cx="1916.45" cy="-310.5" rx="92.45" ry="31.11"/>
<text xml:space="preserve" text-anchor="middle" x="1916.45" y="-319" font-family="Arial" font-size="10.00">R1</text>
<text xml:space="preserve" text-anchor="middle" x="1916.45" y="-307" font-family="Arial" font-size="10.00">g=52,00 h=88,26 f=140,26</text>
<text xml:space="preserve" text-anchor="middle" x="1916.45" y="-295" font-family="Arial" font-size="10.00">b=48% coletas=2</text>
</g>
<!-- N8&#45;&gt;N14 -->
<g id="edge18" class="edge">
<title>N8&#45;&gt;N14</title>
<path fill="none" stroke="#555555" d="M1704.13,-404.33C1746.5,-385.8 1805.38,-360.06 1850.39,-340.39"/>
<polygon fill="#555555" stroke="#555555" points="1851.79,-343.6 1859.55,-336.38 1848.98,-337.18 1851.79,-343.6"/>
<text xml:space="preserve" text-anchor="middle" x="1796.21" y="-366.57" font-family="Arial" font-size="9.00">22</text>
</g>
<!-- N19 -->
<g id="node25" class="node">
<title>N19</title>
<ellipse fill="white" stroke="black" cx="2126.45" cy="-310.5" rx="92.45" ry="31.11"/>
<text xml:space="preserve" text-anchor="middle" x="2126.45" y="-319" font-family="Arial" font-size="10.00">C10</text>
<text xml:space="preserve" text-anchor="middle" x="2126.45" y="-307" font-family="Arial" font-size="10.00">g=56,00 h=88,26 f=144,26</text>
<text xml:space="preserve" text-anchor="middle" x="2126.45" y="-295" font-family="Arial" font-size="10.00">b=44% coletas=2</text>
</g>
<!-- N8&#45;&gt;N19 -->
<g id="edge24" class="edge">
<title>N8&#45;&gt;N19</title>
<path fill="none" stroke="#555555" d="M1714.97,-407.82C1726.74,-404.41 1738.92,-401.03 1750.45,-398.12 1869.73,-367.96 1902.02,-371.15 2021.45,-341.62 2029.87,-339.54 2038.62,-337.24 2047.33,-334.87"/>
<polygon fill="#555555" stroke="#555555" points="2048.14,-338.28 2056.85,-332.24 2046.28,-331.53 2048.14,-338.28"/>
<text xml:space="preserve" text-anchor="middle" x="1918.75" y="-366.57" font-family="Arial" font-size="9.00">26</text>
</g>
<!-- N10 -->
<g id="node11" class="node">
<title>N10</title>
<ellipse fill="#e5e7eb" stroke="black" cx="730.45" cy="-183.29" rx="92.45" ry="31.11"/>
<text xml:space="preserve" text-anchor="middle" x="730.45" y="-191.79" font-family="Arial" font-size="10.00">C6</text>
<text xml:space="preserve" text-anchor="middle" x="730.45" y="-179.79" font-family="Arial" font-size="10.00">g=67,00 h=70,00 f=137,00</text>
<text xml:space="preserve" text-anchor="middle" x="730.45" y="-167.79" font-family="Arial" font-size="10.00">b=33% coletas=3</text>
</g>
<!-- N9&#45;&gt;N10 -->
<g id="edge10" class="edge">
<title>N9&#45;&gt;N10</title>
<path fill="none" stroke="#555555" d="M1172.88,-296.22C1087.55,-281.63 950.9,-255.82 835.45,-222.89 823.87,-219.59 811.74,-215.62 800,-211.5"/>
<polygon fill="#555555" stroke="#555555" points="801.38,-208.28 790.79,-208.21 799.02,-214.87 801.38,-208.28"/>
<text xml:space="preserve" text-anchor="middle" x="983.59" y="-247.84" font-family="Arial" font-size="9.00">18 + coleta</text>
</g>
<!-- N11 -->
<g id="node13" class="node">
<title>N11</title>
<ellipse fill="#dcfce7" stroke="#059669" cx="940.45" cy="-183.29" rx="92.45" ry="39.6"/>
<text xml:space="preserve" text-anchor="middle" x="940.45" y="-197.79" font-family="Arial" font-size="10.00">R2</text>
<text xml:space="preserve" text-anchor="middle" x="940.45" y="-185.79" font-family="Arial" font-size="10.00">g=48,00 h=91,63 f=139,63</text>
<text xml:space="preserve" text-anchor="middle" x="940.45" y="-173.79" font-family="Arial" font-size="10.00">b=58% coletas=2</text>
<text xml:space="preserve" text-anchor="middle" x="940.45" y="-161.79" font-family="Arial" font-size="10.00">recarga</text>
</g>
<!-- N9&#45;&gt;N11 -->
<g id="edge12" class="edge">
<title>N9&#45;&gt;N11</title>
<path fill="none" stroke="#555555" d="M1196.57,-286.1C1146.14,-266.05 1073.12,-237.03 1017.94,-215.1"/>
<polygon fill="#555555" stroke="#555555" points="1019.5,-211.95 1008.91,-211.51 1016.91,-218.45 1019.5,-211.95"/>
<text xml:space="preserve" text-anchor="middle" x="1136.31" y="-247.84" font-family="Arial" font-size="9.00">recarga 1</text>
</g>
<!-- N12 -->
<g id="node15" class="node">
<title>N12</title>
<ellipse fill="#dcfce7" stroke="#059669" cx="1150.45" cy="-183.29" rx="92.45" ry="39.6"/>
<text xml:space="preserve" text-anchor="middle" x="1150.45" y="-197.79" font-family="Arial" font-size="10.00">R2</text>
<text xml:space="preserve" text-anchor="middle" x="1150.45" y="-185.79" font-family="Arial" font-size="10.00">g=48,40 h=91,63 f=140,03</text>
<text xml:space="preserve" text-anchor="middle" x="1150.45" y="-173.79" font-family="Arial" font-size="10.00">b=60% coletas=2</text>
<text xml:space="preserve" text-anchor="middle" x="1150.45" y="-161.79" font-family="Arial" font-size="10.00">recarga</text>
</g>
<!-- N9&#45;&gt;N12 -->
<g id="edge14" class="edge">
<title>N9&#45;&gt;N12</title>
<path fill="none" stroke="#555555" d="M1230.84,-280.15C1218.24,-265.13 1202.63,-246.51 1188.53,-229.69"/>
<polygon fill="#555555" stroke="#555555" points="1191.39,-227.66 1182.28,-222.25 1186.03,-232.16 1191.39,-227.66"/>
<text xml:space="preserve" text-anchor="middle" x="1232.49" y="-247.84" font-family="Arial" font-size="9.00">recarga 1,4</text>
</g>
<!-- N13 -->
<g id="node17" class="node">
<title>N13</title>
<ellipse fill="#dcfce7" stroke="#059669" cx="1360.45" cy="-183.29" rx="92.45" ry="39.6"/>
<text xml:space="preserve" text-anchor="middle" x="1360.45" y="-197.79" font-family="Arial" font-size="10.00">R2</text>
<text xml:space="preserve" text-anchor="middle" x="1360.45" y="-185.79" font-family="Arial" font-size="10.00">g=50,00 h=91,63 f=141,63</text>
<text xml:space="preserve" text-anchor="middle" x="1360.45" y="-173.79" font-family="Arial" font-size="10.00">b=68% coletas=2</text>
<text xml:space="preserve" text-anchor="middle" x="1360.45" y="-161.79" font-family="Arial" font-size="10.00">recarga</text>
</g>
<!-- N9&#45;&gt;N13 -->
<g id="edge16" class="edge">
<title>N9&#45;&gt;N13</title>
<path fill="none" stroke="#555555" d="M1280.07,-280.15C1292.67,-265.13 1308.28,-246.51 1322.38,-229.69"/>
<polygon fill="#555555" stroke="#555555" points="1324.88,-232.16 1328.62,-222.25 1319.52,-227.66 1324.88,-232.16"/>
<text xml:space="preserve" text-anchor="middle" x="1327.45" y="-247.84" font-family="Arial" font-size="9.00">recarga 3</text>
</g>
<!-- X5 -->
<g id="node18" class="node">
<title>X5</title>
<polygon fill="#fef3c7" stroke="#f59e0b" stroke-dasharray="5,2" points="1589.45,-211.29 1477.45,-211.29 1477.45,-155.29 1589.45,-155.29 1589.45,-211.29"/>
<text xml:space="preserve" text-anchor="middle" x="1533.45" y="-197.79" font-family="Arial" font-size="10.00" fill="#92400e">+10 ramos omitidos</text>
<text xml:space="preserve" text-anchor="middle" x="1533.45" y="-185.79" font-family="Arial" font-size="10.00" fill="#92400e">limite visual</text>
<text xml:space="preserve" text-anchor="middle" x="1533.45" y="-173.79" font-family="Arial" font-size="10.00" fill="#92400e">(estados gerados,</text>
<text xml:space="preserve" text-anchor="middle" x="1533.45" y="-161.79" font-family="Arial" font-size="10.00" fill="#92400e">mas nao desenhados)</text>
</g>
<!-- N9&#45;&gt;X5 -->
<g id="edge17" class="edge">
<title>N9&#45;&gt;X5</title>
<path fill="none" stroke="#d97706" stroke-dasharray="5,2" d="M1316.08,-286.82C1358.51,-270.39 1416.18,-246.92 1465.45,-222.89 1472.53,-219.44 1479.89,-215.57 1487.04,-211.65"/>
</g>
<!-- X2 -->
<g id="node12" class="node">
<title>X2</title>
<polygon fill="#fef3c7" stroke="#f59e0b" stroke-dasharray="5,2" points="786.45,-71.6 674.45,-71.6 674.45,-15.6 786.45,-15.6 786.45,-71.6"/>
<text xml:space="preserve" text-anchor="middle" x="730.45" y="-58.1" font-family="Arial" font-size="10.00" fill="#92400e">+3 ramos omitidos</text>
<text xml:space="preserve" text-anchor="middle" x="730.45" y="-46.1" font-family="Arial" font-size="10.00" fill="#92400e">limite visual</text>
<text xml:space="preserve" text-anchor="middle" x="730.45" y="-34.1" font-family="Arial" font-size="10.00" fill="#92400e">(estados gerados,</text>
<text xml:space="preserve" text-anchor="middle" x="730.45" y="-22.1" font-family="Arial" font-size="10.00" fill="#92400e">mas nao desenhados)</text>
</g>
<!-- N10&#45;&gt;X2 -->
<g id="edge11" class="edge">
<title>N10&#45;&gt;X2</title>
<path fill="none" stroke="#d97706" stroke-dasharray="5,2" d="M730.45,-151.73C730.45,-127.81 730.45,-94.83 730.45,-71.81"/>
</g>
<!-- X3 -->
<g id="node14" class="node">
<title>X3</title>
<polygon fill="#fef3c7" stroke="#f59e0b" stroke-dasharray="5,2" points="996.45,-71.6 884.45,-71.6 884.45,-15.6 996.45,-15.6 996.45,-71.6"/>
<text xml:space="preserve" text-anchor="middle" x="940.45" y="-58.1" font-family="Arial" font-size="10.00" fill="#92400e">+2 ramos omitidos</text>
<text xml:space="preserve" text-anchor="middle" x="940.45" y="-46.1" font-family="Arial" font-size="10.00" fill="#92400e">limite visual</text>
<text xml:space="preserve" text-anchor="middle" x="940.45" y="-34.1" font-family="Arial" font-size="10.00" fill="#92400e">(estados gerados,</text>
<text xml:space="preserve" text-anchor="middle" x="940.45" y="-22.1" font-family="Arial" font-size="10.00" fill="#92400e">mas nao desenhados)</text>
</g>
<!-- N11&#45;&gt;X3 -->
<g id="edge13" class="edge">
<title>N11&#45;&gt;X3</title>
<path fill="none" stroke="#d97706" stroke-dasharray="5,2" d="M940.45,-143.2C940.45,-120.46 940.45,-92.36 940.45,-71.98"/>
</g>
<!-- X4 -->
<g id="node16" class="node">
<title>X4</title>
<polygon fill="#fef3c7" stroke="#f59e0b" stroke-dasharray="5,2" points="1206.45,-71.6 1094.45,-71.6 1094.45,-15.6 1206.45,-15.6 1206.45,-71.6"/>
<text xml:space="preserve" text-anchor="middle" x="1150.45" y="-58.1" font-family="Arial" font-size="10.00" fill="#92400e">+2 ramos omitidos</text>
<text xml:space="preserve" text-anchor="middle" x="1150.45" y="-46.1" font-family="Arial" font-size="10.00" fill="#92400e">limite visual</text>
<text xml:space="preserve" text-anchor="middle" x="1150.45" y="-34.1" font-family="Arial" font-size="10.00" fill="#92400e">(estados gerados,</text>
<text xml:space="preserve" text-anchor="middle" x="1150.45" y="-22.1" font-family="Arial" font-size="10.00" fill="#92400e">mas nao desenhados)</text>
</g>
<!-- N12&#45;&gt;X4 -->
<g id="edge15" class="edge">
<title>N12&#45;&gt;X4</title>
<path fill="none" stroke="#d97706" stroke-dasharray="5,2" d="M1150.45,-143.2C1150.45,-120.46 1150.45,-92.36 1150.45,-71.98"/>
</g>
<!-- N15 -->
<g id="node20" class="node">
<title>N15</title>
<ellipse fill="#dcfce7" stroke="#059669" cx="1706.45" cy="-183.29" rx="92.45" ry="39.6"/>
<text xml:space="preserve" text-anchor="middle" x="1706.45" y="-197.79" font-family="Arial" font-size="10.00">R1</text>
<text xml:space="preserve" text-anchor="middle" x="1706.45" y="-185.79" font-family="Arial" font-size="10.00">g=54,60 h=88,26 f=142,86</text>
<text xml:space="preserve" text-anchor="middle" x="1706.45" y="-173.79" font-family="Arial" font-size="10.00">b=61% coletas=2</text>
<text xml:space="preserve" text-anchor="middle" x="1706.45" y="-161.79" font-family="Arial" font-size="10.00">recarga</text>
</g>
<!-- N14&#45;&gt;N15 -->
<g id="edge19" class="edge">
<title>N14&#45;&gt;N15</title>
<path fill="none" stroke="#555555" d="M1871.92,-282.95C1842,-265.11 1802.15,-241.35 1769.06,-221.62"/>
<polygon fill="#555555" stroke="#555555" points="1771.15,-218.8 1760.77,-216.68 1767.57,-224.81 1771.15,-218.8"/>
<text xml:space="preserve" text-anchor="middle" x="1847.28" y="-247.84" font-family="Arial" font-size="9.00">recarga 2,6</text>
</g>
<!-- N16 -->
<g id="node21" class="node">
<title>N16</title>
<ellipse fill="#dcfce7" stroke="#059669" cx="1916.45" cy="-183.29" rx="92.45" ry="39.6"/>
<text xml:space="preserve" text-anchor="middle" x="1916.45" y="-197.79" font-family="Arial" font-size="10.00">R1</text>
<text xml:space="preserve" text-anchor="middle" x="1916.45" y="-185.79" font-family="Arial" font-size="10.00">g=55,00 h=88,26 f=143,26</text>
<text xml:space="preserve" text-anchor="middle" x="1916.45" y="-173.79" font-family="Arial" font-size="10.00">b=63% coletas=2</text>
<text xml:space="preserve" text-anchor="middle" x="1916.45" y="-161.79" font-family="Arial" font-size="10.00">recarga</text>
</g>
<!-- N14&#45;&gt;N16 -->
<g id="edge20" class="edge">
<title>N14&#45;&gt;N16</title>
<path fill="none" stroke="#555555" d="M1916.45,-279.19C1916.45,-265.81 1916.45,-249.72 1916.45,-234.62"/>
<polygon fill="#555555" stroke="#555555" points="1919.95,-234.85 1916.45,-224.85 1912.95,-234.85 1919.95,-234.85"/>
<text xml:space="preserve" text-anchor="middle" x="1935.95" y="-247.84" font-family="Arial" font-size="9.00">recarga 3</text>
</g>
<!-- N17 -->
<g id="node22" class="node">
<title>N17</title>
<ellipse fill="#dcfce7" stroke="#059669" cx="2126.45" cy="-183.29" rx="92.45" ry="39.6"/>
<text xml:space="preserve" text-anchor="middle" x="2126.45" y="-197.79" font-family="Arial" font-size="10.00">R1</text>
<text xml:space="preserve" text-anchor="middle" x="2126.45" y="-185.79" font-family="Arial" font-size="10.00">g=60,00 h=88,26 f=148,26</text>
<text xml:space="preserve" text-anchor="middle" x="2126.45" y="-173.79" font-family="Arial" font-size="10.00">b=88% coletas=2</text>
<text xml:space="preserve" text-anchor="middle" x="2126.45" y="-161.79" font-family="Arial" font-size="10.00">recarga</text>
</g>
<!-- N14&#45;&gt;N17 -->
<g id="edge21" class="edge">
<title>N14&#45;&gt;N17</title>
<path fill="none" stroke="#555555" d="M1960.99,-282.95C1990.91,-265.11 2030.75,-241.35 2063.85,-221.62"/>
<polygon fill="#555555" stroke="#555555" points="2065.34,-224.81 2072.14,-216.68 2061.76,-218.8 2065.34,-224.81"/>
<text xml:space="preserve" text-anchor="middle" x="2040.95" y="-247.84" font-family="Arial" font-size="9.00">recarga 8</text>
</g>
<!-- N18 -->
<g id="node23" class="node">
<title>N18</title>
<ellipse fill="#dcfce7" stroke="#059669" cx="2336.45" cy="-183.29" rx="92.45" ry="39.6"/>
<text xml:space="preserve" text-anchor="middle" x="2336.45" y="-197.79" font-family="Arial" font-size="10.00">R1</text>
<text xml:space="preserve" text-anchor="middle" x="2336.45" y="-185.79" font-family="Arial" font-size="10.00">g=60,40 h=88,26 f=148,66</text>
<text xml:space="preserve" text-anchor="middle" x="2336.45" y="-173.79" font-family="Arial" font-size="10.00">b=90% coletas=2</text>
<text xml:space="preserve" text-anchor="middle" x="2336.45" y="-161.79" font-family="Arial" font-size="10.00">recarga</text>
</g>
<!-- N14&#45;&gt;N18 -->
<g id="edge22" class="edge">
<title>N14&#45;&gt;N18</title>
<path fill="none" stroke="#555555" d="M1985.6,-289.5C1997.54,-286.09 2009.85,-282.62 2021.45,-279.39 2114.58,-253.51 2139.34,-252.15 2231.45,-222.89 2239.94,-220.2 2248.76,-217.23 2257.51,-214.17"/>
<polygon fill="#555555" stroke="#555555" points="2258.45,-217.55 2266.71,-210.92 2256.11,-210.95 2258.45,-217.55"/>
<text xml:space="preserve" text-anchor="middle" x="2175.07" y="-247.84" font-family="Arial" font-size="9.00">recarga 8,4</text>
</g>
<!-- X6 -->
<g id="node24" class="node">
<title>X6</title>
<polygon fill="#fef3c7" stroke="#f59e0b" stroke-dasharray="5,2" points="2565.45,-211.29 2453.45,-211.29 2453.45,-155.29 2565.45,-155.29 2565.45,-211.29"/>
<text xml:space="preserve" text-anchor="middle" x="2509.45" y="-197.79" font-family="Arial" font-size="10.00" fill="#92400e">+3 ramos omitidos</text>
<text xml:space="preserve" text-anchor="middle" x="2509.45" y="-185.79" font-family="Arial" font-size="10.00" fill="#92400e">limite visual</text>
<text xml:space="preserve" text-anchor="middle" x="2509.45" y="-173.79" font-family="Arial" font-size="10.00" fill="#92400e">(estados gerados,</text>
<text xml:space="preserve" text-anchor="middle" x="2509.45" y="-161.79" font-family="Arial" font-size="10.00" fill="#92400e">mas nao desenhados)</text>
</g>
<!-- N14&#45;&gt;X6 -->
<g id="edge23" class="edge">
<title>N14&#45;&gt;X6</title>
<path fill="none" stroke="#d97706" stroke-dasharray="5,2" d="M1983.29,-288.67C1995.88,-285.22 2009.01,-281.94 2021.45,-279.39 2205.97,-241.57 2263.17,-283.63 2441.45,-222.89 2449.93,-220 2458.56,-216.04 2466.7,-211.74"/>
</g>
<!-- legend_solution -->
<g id="node29" class="node">
<title>legend_solution</title>
<polygon fill="#dbeafe" stroke="black" points="2113.33,-565.96 1973.58,-565.96 1973.58,-529.96 2113.33,-529.96 2113.33,-565.96"/>
<text xml:space="preserve" text-anchor="middle" x="2043.45" y="-549.91" font-family="Arial" font-size="9.00">Estado no caminho escolhido</text>
<text xml:space="preserve" text-anchor="middle" x="2043.45" y="-539.41" font-family="Arial" font-size="9.00">arestas azuis ligam a rota final</text>
</g>
<!-- legend_recharge -->
<g id="node30" class="node">
<title>legend_recharge</title>
<polygon fill="#dcfce7" stroke="#059669" points="2276.95,-565.96 2137.95,-565.96 2137.95,-529.96 2276.95,-529.96 2276.95,-565.96"/>
<text xml:space="preserve" text-anchor="middle" x="2207.45" y="-549.91" font-family="Arial" font-size="9.00">Acao de recarga executada</text>
<text xml:space="preserve" text-anchor="middle" x="2207.45" y="-539.41" font-family="Arial" font-size="9.00">recarga tambem entra em g(s)</text>
</g>
<!-- legend_goal -->
<g id="node31" class="node">
<title>legend_goal</title>
<polygon fill="#b6f2b6" stroke="black" points="2392.7,-565.96 2306.2,-565.96 2306.2,-529.96 2392.7,-529.96 2392.7,-565.96"/>
<polygon fill="none" stroke="black" points="2396.7,-569.96 2302.2,-569.96 2302.2,-525.96 2396.7,-525.96 2396.7,-569.96"/>
<text xml:space="preserve" text-anchor="middle" x="2349.45" y="-544.66" font-family="Arial" font-size="9.00">Destino / objetivo</text>
</g>
<!-- legend_expanded -->
<g id="node32" class="node">
<title>legend_expanded</title>
<polygon fill="#e5e7eb" stroke="black" points="2517.58,-565.96 2421.33,-565.96 2421.33,-529.96 2517.58,-529.96 2517.58,-565.96"/>
<text xml:space="preserve" text-anchor="middle" x="2469.45" y="-544.66" font-family="Arial" font-size="9.00">Expandido / Closed</text>
</g>
<!-- legend_open -->
<g id="node33" class="node">
<title>legend_open</title>
<polygon fill="white" stroke="black" points="2688.33,-565.96 2542.58,-565.96 2542.58,-529.96 2688.33,-529.96 2688.33,-565.96"/>
<text xml:space="preserve" text-anchor="middle" x="2615.45" y="-549.91" font-family="Arial" font-size="9.00">Gerado / Open</text>
<text xml:space="preserve" text-anchor="middle" x="2615.45" y="-539.41" font-family="Arial" font-size="9.00">candidato ainda nao expandido</text>
</g>
<!-- legend_alternative -->
<g id="node34" class="node">
<title>legend_alternative</title>
<polygon fill="white" stroke="black" points="2821.58,-565.96 2713.33,-565.96 2713.33,-529.96 2821.58,-529.96 2821.58,-565.96"/>
<text xml:space="preserve" text-anchor="middle" x="2767.45" y="-549.91" font-family="Arial" font-size="9.00">Alternativa desenhada</text>
<text xml:space="preserve" text-anchor="middle" x="2767.45" y="-539.41" font-family="Arial" font-size="9.00">aresta cinza</text>
</g>
<!-- legend_pruned -->
<g id="node35" class="node">
<title>legend_pruned</title>
<polygon fill="#fef3c7" stroke="black" points="3036.45,-578.21 2846.45,-578.21 2846.45,-517.71 3036.45,-517.71 3036.45,-578.21"/>
<text xml:space="preserve" text-anchor="middle" x="2941.45" y="-565.66" font-family="Arial" font-size="9.00">Ramos omitidos por limite visual:</text>
<text xml:space="preserve" text-anchor="middle" x="2941.45" y="-555.16" font-family="Arial" font-size="9.00">estados gerados na execucao,</text>
<text xml:space="preserve" text-anchor="middle" x="2941.45" y="-544.66" font-family="Arial" font-size="9.00">mas ocultados para evitar arvore ilegivel.</text>
<text xml:space="preserve" text-anchor="middle" x="2941.45" y="-534.16" font-family="Arial" font-size="9.00">Nao e poda do algoritmo;</text>
<text xml:space="preserve" text-anchor="middle" x="2941.45" y="-523.66" font-family="Arial" font-size="9.00">Open/Closed e metricas reais nao mudam.</text>
</g>
</g>
</svg>
