<?xml version="1.0" encoding="UTF-8" standalone="no"?>
<!DOCTYPE svg PUBLIC "-//W3C//DTD SVG 1.1//EN"
 "http://www.w3.org/Graphics/SVG/1.1/DTD/svg11.dtd">
<!-- Generated by graphviz version 15.0.0 (20260523.1842)
 -->
<!-- Title: ArvoreBuscaCompleta Pages: 1 -->
<svg width="2631pt" height="1138pt"
 viewBox="0.00 0.00 2631.00 1138.00" xmlns="http://www.w3.org/2000/svg" xmlns:xlink="http://www.w3.org/1999/xlink">
<g id="graph0" class="graph" transform="scale(1 1) rotate(0) translate(4 1133.83)">
<title>ArvoreBuscaCompleta</title>
<polygon fill="white" stroke="none" points="-4,4 -4,-1133.83 2627.45,-1133.83 2627.45,4 -4,4"/>
<text xml:space="preserve" text-anchor="middle" x="1311.73" y="-1114.43" font-family="Arial" font-size="12.00">Arvore completa compactada por limite visual: estados omitidos existiram na execucao, mas nao foram desenhados para manter a figura legivel.</text>
<g id="clust1" class="cluster">
<title>cluster_legend</title>
<polygon fill="none" stroke="#cccccc" points="1536.45,-1001.58 1536.45,-1099.58 2615.45,-1099.58 2615.45,-1001.58 1536.45,-1001.58"/>
<text xml:space="preserve" text-anchor="middle" x="2075.95" y="-1085.13" font-family="Arial" font-size="11.00">Legenda</text>
</g>
<!-- N1 -->
<g id="node1" class="node">
<title>N1</title>
<ellipse fill="#dbeafe" stroke="black" cx="1427.45" cy="-1039.83" rx="92.45" ry="31.11"/>
<text xml:space="preserve" text-anchor="middle" x="1427.45" y="-1048.33" font-family="Arial" font-size="10.00">C4</text>
<text xml:space="preserve" text-anchor="middle" x="1427.45" y="-1036.33" font-family="Arial" font-size="10.00">g=2,00 h=344,27 f=346,27</text>
<text xml:space="preserve" text-anchor="middle" x="1427.45" y="-1024.33" font-family="Arial" font-size="10.00">b=98% coletas=1</text>
</g>
<!-- N2 -->
<g id="node2" class="node">
<title>N2</title>
<ellipse fill="#dbeafe" stroke="black" cx="1210.45" cy="-921.1" rx="96.17" ry="31.11"/>
<text xml:space="preserve" text-anchor="middle" x="1210.45" y="-929.6" font-family="Arial" font-size="10.00">R2</text>
<text xml:space="preserve" text-anchor="middle" x="1210.45" y="-917.6" font-family="Arial" font-size="10.00">g=19,00 h=267,49 f=286,49</text>
<text xml:space="preserve" text-anchor="middle" x="1210.45" y="-905.6" font-family="Arial" font-size="10.00">b=81% coletas=1</text>
</g>
<!-- N1&#45;&gt;N2 -->
<g id="edge1" class="edge">
<title>N1&#45;&gt;N2</title>
<path fill="none" stroke="#2563eb" stroke-width="2" d="M1379.29,-1012.92C1347.21,-995.66 1304.81,-972.85 1270.52,-954.41"/>
<polygon fill="#2563eb" stroke="#2563eb" stroke-width="2" points="1272.36,-951.43 1261.9,-949.77 1269.04,-957.59 1272.36,-951.43"/>
<text xml:space="preserve" text-anchor="middle" x="1330.71" y="-977.16" font-family="Arial" font-size="9.00">17</text>
</g>
<!-- N16 -->
<g id="node21" class="node">
<title>N16</title>
<ellipse fill="white" stroke="black" cx="1427.45" cy="-921.1" rx="96.17" ry="31.11"/>
<text xml:space="preserve" text-anchor="middle" x="1427.45" y="-929.6" font-family="Arial" font-size="10.00">C10</text>
<text xml:space="preserve" text-anchor="middle" x="1427.45" y="-917.6" font-family="Arial" font-size="10.00">g=30,00 h=326,24 f=356,24</text>
<text xml:space="preserve" text-anchor="middle" x="1427.45" y="-905.6" font-family="Arial" font-size="10.00">b=70% coletas=2</text>
</g>
<!-- N1&#45;&gt;N16 -->
<g id="edge20" class="edge">
<title>N1&#45;&gt;N16</title>
<path fill="none" stroke="#555555" d="M1427.45,-1008.46C1427.45,-994.82 1427.45,-978.5 1427.45,-963.74"/>
<polygon fill="#555555" stroke="#555555" points="1430.95,-963.83 1427.45,-953.83 1423.95,-963.83 1430.95,-963.83"/>
<text xml:space="preserve" text-anchor="middle" x="1449.95" y="-977.16" font-family="Arial" font-size="9.00">26 + coleta</text>
</g>
<!-- N17 -->
<g id="node22" class="node">
<title>N17</title>
<ellipse fill="white" stroke="black" cx="1644.45" cy="-921.1" rx="96.17" ry="31.11"/>
<text xml:space="preserve" text-anchor="middle" x="1644.45" y="-929.6" font-family="Arial" font-size="10.00">R1</text>
<text xml:space="preserve" text-anchor="middle" x="1644.45" y="-917.6" font-family="Arial" font-size="10.00">g=24,00 h=413,74 f=437,74</text>
<text xml:space="preserve" text-anchor="middle" x="1644.45" y="-905.6" font-family="Arial" font-size="10.00">b=76% coletas=1</text>
</g>
<!-- N1&#45;&gt;N17 -->
<g id="edge21" class="edge">
<title>N1&#45;&gt;N17</title>
<path fill="none" stroke="#555555" d="M1475.61,-1012.92C1508.12,-995.44 1551.21,-972.26 1585.73,-953.69"/>
<polygon fill="#555555" stroke="#555555" points="1587.2,-956.88 1594.35,-949.06 1583.88,-950.71 1587.2,-956.88"/>
<text xml:space="preserve" text-anchor="middle" x="1547.71" y="-977.16" font-family="Arial" font-size="9.00">22</text>
</g>
<!-- N3 -->
<g id="node3" class="node">
<title>N3</title>
<ellipse fill="#dbeafe" stroke="black" cx="776.45" cy="-793.89" rx="96.17" ry="31.11"/>
<text xml:space="preserve" text-anchor="middle" x="776.45" y="-802.39" font-family="Arial" font-size="10.00">C7</text>
<text xml:space="preserve" text-anchor="middle" x="776.45" y="-790.39" font-family="Arial" font-size="10.00">g=46,00 h=201,19 f=247,19</text>
<text xml:space="preserve" text-anchor="middle" x="776.45" y="-778.39" font-family="Arial" font-size="10.00">b=54% coletas=2</text>
</g>
<!-- N2&#45;&gt;N3 -->
<g id="edge2" class="edge">
<title>N2&#45;&gt;N3</title>
<path fill="none" stroke="#2563eb" stroke-width="2" d="M1134.19,-901.76C1067.79,-885.33 969.17,-859.83 884.45,-833.49 873.42,-830.06 861.85,-826.2 850.54,-822.29"/>
<polygon fill="#2563eb" stroke="#2563eb" stroke-width="2" points="851.86,-819.04 841.26,-819.03 849.54,-825.65 851.86,-819.04"/>
<text xml:space="preserve" text-anchor="middle" x="1013.81" y="-858.44" font-family="Arial" font-size="9.00">25 + coleta</text>
</g>
<!-- N13 -->
<g id="node17" class="node">
<title>N13</title>
<ellipse fill="#dcfce7" stroke="#059669" cx="993.45" cy="-793.89" rx="96.17" ry="39.6"/>
<text xml:space="preserve" text-anchor="middle" x="993.45" y="-808.39" font-family="Arial" font-size="10.00">R2</text>
<text xml:space="preserve" text-anchor="middle" x="993.45" y="-796.39" font-family="Arial" font-size="10.00">g=19,20 h=267,49 f=286,69</text>
<text xml:space="preserve" text-anchor="middle" x="993.45" y="-784.39" font-family="Arial" font-size="10.00">b=82% coletas=1</text>
<text xml:space="preserve" text-anchor="middle" x="993.45" y="-772.39" font-family="Arial" font-size="10.00">recarga</text>
</g>
<!-- N2&#45;&gt;N13 -->
<g id="edge16" class="edge">
<title>N2&#45;&gt;N13</title>
<path fill="none" stroke="#555555" d="M1164.17,-893.39C1133.35,-875.61 1092.43,-852 1058.37,-832.35"/>
<polygon fill="#555555" stroke="#555555" points="1060.22,-829.38 1049.81,-827.41 1056.73,-835.44 1060.22,-829.38"/>
<text xml:space="preserve" text-anchor="middle" x="1138.2" y="-858.44" font-family="Arial" font-size="9.00">recarga 0,2</text>
</g>
<!-- N14 -->
<g id="node18" class="node">
<title>N14</title>
<ellipse fill="#dcfce7" stroke="#059669" cx="1210.45" cy="-793.89" rx="96.17" ry="39.6"/>
<text xml:space="preserve" text-anchor="middle" x="1210.45" y="-808.39" font-family="Arial" font-size="10.00">R2</text>
<text xml:space="preserve" text-anchor="middle" x="1210.45" y="-796.39" font-family="Arial" font-size="10.00">g=19,60 h=267,49 f=287,09</text>
<text xml:space="preserve" text-anchor="middle" x="1210.45" y="-784.39" font-family="Arial" font-size="10.00">b=84% coletas=1</text>
<text xml:space="preserve" text-anchor="middle" x="1210.45" y="-772.39" font-family="Arial" font-size="10.00">recarga</text>
</g>
<!-- N2&#45;&gt;N14 -->
<g id="edge17" class="edge">
<title>N2&#45;&gt;N14</title>
<path fill="none" stroke="#555555" d="M1210.45,-889.79C1210.45,-876.41 1210.45,-860.32 1210.45,-845.22"/>
<polygon fill="#555555" stroke="#555555" points="1213.95,-845.44 1210.45,-835.44 1206.95,-845.44 1213.95,-845.44"/>
<text xml:space="preserve" text-anchor="middle" x="1233.7" y="-858.44" font-family="Arial" font-size="9.00">recarga 0,6</text>
</g>
<!-- N15 -->
<g id="node19" class="node">
<title>N15</title>
<ellipse fill="#dcfce7" stroke="#059669" cx="1427.45" cy="-793.89" rx="96.17" ry="39.6"/>
<text xml:space="preserve" text-anchor="middle" x="1427.45" y="-808.39" font-family="Arial" font-size="10.00">R2</text>
<text xml:space="preserve" text-anchor="middle" x="1427.45" y="-796.39" font-family="Arial" font-size="10.00">g=19,80 h=267,49 f=287,29</text>
<text xml:space="preserve" text-anchor="middle" x="1427.45" y="-784.39" font-family="Arial" font-size="10.00">b=85% coletas=1</text>
<text xml:space="preserve" text-anchor="middle" x="1427.45" y="-772.39" font-family="Arial" font-size="10.00">recarga</text>
</g>
<!-- N2&#45;&gt;N15 -->
<g id="edge18" class="edge">
<title>N2&#45;&gt;N15</title>
<path fill="none" stroke="#555555" d="M1256.74,-893.39C1287.56,-875.61 1328.48,-852 1362.54,-832.35"/>
<polygon fill="#555555" stroke="#555555" points="1364.18,-835.44 1371.1,-827.41 1360.68,-829.38 1364.18,-835.44"/>
<text xml:space="preserve" text-anchor="middle" x="1342.2" y="-858.44" font-family="Arial" font-size="9.00">recarga 0,8</text>
</g>
<!-- X5 -->
<g id="node20" class="node">
<title>X5</title>
<polygon fill="#fef3c7" stroke="#f59e0b" stroke-dasharray="5,2" points="1660.45,-821.89 1548.45,-821.89 1548.45,-765.89 1660.45,-765.89 1660.45,-821.89"/>
<text xml:space="preserve" text-anchor="middle" x="1604.45" y="-808.39" font-family="Arial" font-size="10.00" fill="#92400e">+4 ramos omitidos</text>
<text xml:space="preserve" text-anchor="middle" x="1604.45" y="-796.39" font-family="Arial" font-size="10.00" fill="#92400e">limite visual</text>
<text xml:space="preserve" text-anchor="middle" x="1604.45" y="-784.39" font-family="Arial" font-size="10.00" fill="#92400e">(estados gerados,</text>
<text xml:space="preserve" text-anchor="middle" x="1604.45" y="-772.39" font-family="Arial" font-size="10.00" fill="#92400e">mas nao desenhados)</text>
</g>
<!-- N2&#45;&gt;X5 -->
<g id="edge19" class="edge">
<title>N2&#45;&gt;X5</title>
<path fill="none" stroke="#d97706" stroke-dasharray="5,2" d="M1282.15,-899.91C1294.26,-896.56 1306.71,-893.15 1318.45,-889.99 1415.11,-863.99 1443.69,-871.07 1536.45,-833.49 1544.25,-830.33 1552.27,-826.44 1559.93,-822.35"/>
</g>
<!-- N4 -->
<g id="node4" class="node">
<title>N4</title>
<ellipse fill="#dbeafe" stroke="black" cx="451.45" cy="-666.68" rx="96.17" ry="31.11"/>
<text xml:space="preserve" text-anchor="middle" x="451.45" y="-675.18" font-family="Arial" font-size="10.00">C8</text>
<text xml:space="preserve" text-anchor="middle" x="451.45" y="-663.18" font-family="Arial" font-size="10.00">g=70,00 h=130,21 f=200,21</text>
<text xml:space="preserve" text-anchor="middle" x="451.45" y="-651.18" font-family="Arial" font-size="10.00">b=30% coletas=3</text>
</g>
<!-- N3&#45;&gt;N4 -->
<g id="edge3" class="edge">
<title>N3&#45;&gt;N4</title>
<path fill="none" stroke="#2563eb" stroke-width="2" d="M715.71,-769.49C661.5,-748.61 582.03,-717.99 524.4,-695.79"/>
<polygon fill="#2563eb" stroke="#2563eb" stroke-width="2" points="525.87,-692.6 515.28,-692.27 523.35,-699.13 525.87,-692.6"/>
<text xml:space="preserve" text-anchor="middle" x="636.45" y="-722.74" font-family="Arial" font-size="9.00">22 + coleta</text>
</g>
<!-- N10 -->
<g id="node14" class="node">
<title>N10</title>
<ellipse fill="white" stroke="black" cx="668.45" cy="-666.68" rx="96.17" ry="31.11"/>
<text xml:space="preserve" text-anchor="middle" x="668.45" y="-675.18" font-family="Arial" font-size="10.00">C6</text>
<text xml:space="preserve" text-anchor="middle" x="668.45" y="-663.18" font-family="Arial" font-size="10.00">g=67,00 h=276,18 f=343,18</text>
<text xml:space="preserve" text-anchor="middle" x="668.45" y="-651.18" font-family="Arial" font-size="10.00">b=33% coletas=3</text>
</g>
<!-- N3&#45;&gt;N10 -->
<g id="edge13" class="edge">
<title>N3&#45;&gt;N10</title>
<path fill="none" stroke="#555555" d="M751.13,-763.54C736.17,-746.19 717.07,-724.04 701,-705.41"/>
<polygon fill="#555555" stroke="#555555" points="703.79,-703.29 694.61,-698 698.49,-707.86 703.79,-703.29"/>
<text xml:space="preserve" text-anchor="middle" x="744.95" y="-722.74" font-family="Arial" font-size="9.00">19 + coleta</text>
</g>
<!-- N11 -->
<g id="node15" class="node">
<title>N11</title>
<ellipse fill="white" stroke="black" cx="885.45" cy="-666.68" rx="96.17" ry="31.11"/>
<text xml:space="preserve" text-anchor="middle" x="885.45" y="-675.18" font-family="Arial" font-size="10.00">R2</text>
<text xml:space="preserve" text-anchor="middle" x="885.45" y="-663.18" font-family="Arial" font-size="10.00">g=71,00 h=280,98 f=351,98</text>
<text xml:space="preserve" text-anchor="middle" x="885.45" y="-651.18" font-family="Arial" font-size="10.00">b=29% coletas=2</text>
</g>
<!-- N3&#45;&gt;N11 -->
<g id="edge14" class="edge">
<title>N3&#45;&gt;N11</title>
<path fill="none" stroke="#555555" d="M802.01,-763.54C817.11,-746.19 836.39,-724.04 852.61,-705.41"/>
<polygon fill="#555555" stroke="#555555" points="855.14,-707.84 859.06,-697.99 849.86,-703.24 855.14,-707.84"/>
<text xml:space="preserve" text-anchor="middle" x="842.73" y="-722.74" font-family="Arial" font-size="9.00">25</text>
</g>
<!-- N12 -->
<g id="node16" class="node">
<title>N12</title>
<ellipse fill="white" stroke="black" cx="1102.45" cy="-666.68" rx="96.17" ry="31.11"/>
<text xml:space="preserve" text-anchor="middle" x="1102.45" y="-675.18" font-family="Arial" font-size="10.00">C11</text>
<text xml:space="preserve" text-anchor="middle" x="1102.45" y="-663.18" font-family="Arial" font-size="10.00">g=73,00 h=281,61 f=354,61</text>
<text xml:space="preserve" text-anchor="middle" x="1102.45" y="-651.18" font-family="Arial" font-size="10.00">b=27% coletas=3</text>
</g>
<!-- N3&#45;&gt;N12 -->
<g id="edge15" class="edge">
<title>N3&#45;&gt;N12</title>
<path fill="none" stroke="#555555" d="M837.39,-769.49C892.3,-748.4 973.07,-717.38 1031,-695.12"/>
<polygon fill="#555555" stroke="#555555" points="1032.05,-698.47 1040.13,-691.62 1029.54,-691.94 1032.05,-698.47"/>
<text xml:space="preserve" text-anchor="middle" x="981.47" y="-722.74" font-family="Arial" font-size="9.00">25 + coleta</text>
</g>
<!-- N5 -->
<g id="node5" class="node">
<title>N5</title>
<ellipse fill="#dbeafe" stroke="black" cx="363.45" cy="-547.96" rx="96.17" ry="31.11"/>
<text xml:space="preserve" text-anchor="middle" x="363.45" y="-556.46" font-family="Arial" font-size="10.00">R5</text>
<text xml:space="preserve" text-anchor="middle" x="363.45" y="-544.46" font-family="Arial" font-size="10.00">g=88,00 h=159,55 f=247,55</text>
<text xml:space="preserve" text-anchor="middle" x="363.45" y="-532.46" font-family="Arial" font-size="10.00">b=12% coletas=3</text>
</g>
<!-- N4&#45;&gt;N5 -->
<g id="edge4" class="edge">
<title>N4&#45;&gt;N5</title>
<path fill="none" stroke="#2563eb" stroke-width="2" d="M429.25,-636.23C418.41,-621.85 405.21,-604.34 393.49,-588.79"/>
<polygon fill="#2563eb" stroke="#2563eb" stroke-width="2" points="396.29,-586.7 387.48,-580.82 390.7,-590.91 396.29,-586.7"/>
<text xml:space="preserve" text-anchor="middle" x="415.34" y="-604.02" font-family="Arial" font-size="9.00">18</text>
</g>
<!-- X4 -->
<g id="node13" class="node">
<title>X4</title>
<polygon fill="#fef3c7" stroke="#f59e0b" stroke-dasharray="5,2" points="596.45,-575.96 484.45,-575.96 484.45,-519.96 596.45,-519.96 596.45,-575.96"/>
<text xml:space="preserve" text-anchor="middle" x="540.45" y="-562.46" font-family="Arial" font-size="10.00" fill="#92400e">+2 ramos omitidos</text>
<text xml:space="preserve" text-anchor="middle" x="540.45" y="-550.46" font-family="Arial" font-size="10.00" fill="#92400e">limite visual</text>
<text xml:space="preserve" text-anchor="middle" x="540.45" y="-538.46" font-family="Arial" font-size="10.00" fill="#92400e">(estados gerados,</text>
<text xml:space="preserve" text-anchor="middle" x="540.45" y="-526.46" font-family="Arial" font-size="10.00" fill="#92400e">mas nao desenhados)</text>
</g>
<!-- N4&#45;&gt;X4 -->
<g id="edge12" class="edge">
<title>N4&#45;&gt;X4</title>
<path fill="none" stroke="#d97706" stroke-dasharray="5,2" d="M473.91,-636.23C487.92,-617.86 505.82,-594.37 519.53,-576.4"/>
</g>
<!-- N6 -->
<g id="node6" class="node">
<title>N6</title>
<ellipse fill="#dcfce7" stroke="#059669" cx="274.45" cy="-420.74" rx="96.17" ry="39.6"/>
<text xml:space="preserve" text-anchor="middle" x="274.45" y="-435.24" font-family="Arial" font-size="10.00">R5</text>
<text xml:space="preserve" text-anchor="middle" x="274.45" y="-423.24" font-family="Arial" font-size="10.00">g=98,00 h=142,13 f=240,13</text>
<text xml:space="preserve" text-anchor="middle" x="274.45" y="-411.24" font-family="Arial" font-size="10.00">b=62% coletas=3</text>
<text xml:space="preserve" text-anchor="middle" x="274.45" y="-399.24" font-family="Arial" font-size="10.00">recarga</text>
</g>
<!-- N5&#45;&gt;N6 -->
<g id="edge5" class="edge">
<title>N5&#45;&gt;N6</title>
<path fill="none" stroke="#2563eb" stroke-width="2" d="M342.36,-517.28C332.16,-502.93 319.66,-485.34 308.18,-469.19"/>
<polygon fill="#2563eb" stroke="#2563eb" stroke-width="2" points="311.21,-467.42 302.57,-461.29 305.51,-471.47 311.21,-467.42"/>
<text xml:space="preserve" text-anchor="middle" x="346.41" y="-485.29" font-family="Arial" font-size="9.00">recarga 10</text>
</g>
<!-- X3 -->
<g id="node12" class="node">
<title>X3</title>
<polygon fill="#fef3c7" stroke="#f59e0b" stroke-dasharray="5,2" points="507.45,-448.74 395.45,-448.74 395.45,-392.74 507.45,-392.74 507.45,-448.74"/>
<text xml:space="preserve" text-anchor="middle" x="451.45" y="-435.24" font-family="Arial" font-size="10.00" fill="#92400e">+1 ramos omitidos</text>
<text xml:space="preserve" text-anchor="middle" x="451.45" y="-423.24" font-family="Arial" font-size="10.00" fill="#92400e">limite visual</text>
<text xml:space="preserve" text-anchor="middle" x="451.45" y="-411.24" font-family="Arial" font-size="10.00" fill="#92400e">(estados gerados,</text>
<text xml:space="preserve" text-anchor="middle" x="451.45" y="-399.24" font-family="Arial" font-size="10.00" fill="#92400e">mas nao desenhados)</text>
</g>
<!-- N5&#45;&gt;X3 -->
<g id="edge11" class="edge">
<title>N5&#45;&gt;X3</title>
<path fill="none" stroke="#d97706" stroke-dasharray="5,2" d="M384.31,-517.28C398.85,-496.6 418.09,-469.21 432.25,-449.07"/>
</g>
<!-- N7 -->
<g id="node7" class="node">
<title>N7</title>
<ellipse fill="#dbeafe" stroke="black" cx="184.45" cy="-293.53" rx="99.35" ry="31.11"/>
<text xml:space="preserve" text-anchor="middle" x="184.45" y="-302.03" font-family="Arial" font-size="10.00">C8</text>
<text xml:space="preserve" text-anchor="middle" x="184.45" y="-290.03" font-family="Arial" font-size="10.00">g=116,00 h=130,21 f=246,21</text>
<text xml:space="preserve" text-anchor="middle" x="184.45" y="-278.03" font-family="Arial" font-size="10.00">b=44% coletas=3</text>
</g>
<!-- N6&#45;&gt;N7 -->
<g id="edge6" class="edge">
<title>N6&#45;&gt;N7</title>
<path fill="none" stroke="#2563eb" stroke-width="2" d="M247.69,-382.52C236.83,-367.41 224.26,-349.92 213.21,-334.54"/>
<polygon fill="#2563eb" stroke="#2563eb" stroke-width="2" points="216.28,-332.81 207.6,-326.74 210.6,-336.9 216.28,-332.81"/>
<text xml:space="preserve" text-anchor="middle" x="234.7" y="-349.6" font-family="Arial" font-size="9.00">18</text>
</g>
<!-- X2 -->
<g id="node11" class="node">
<title>X2</title>
<polygon fill="#fef3c7" stroke="#f59e0b" stroke-dasharray="5,2" points="420.45,-321.53 308.45,-321.53 308.45,-265.53 420.45,-265.53 420.45,-321.53"/>
<text xml:space="preserve" text-anchor="middle" x="364.45" y="-308.03" font-family="Arial" font-size="10.00" fill="#92400e">+1 ramos omitidos</text>
<text xml:space="preserve" text-anchor="middle" x="364.45" y="-296.03" font-family="Arial" font-size="10.00" fill="#92400e">limite visual</text>
<text xml:space="preserve" text-anchor="middle" x="364.45" y="-284.03" font-family="Arial" font-size="10.00" fill="#92400e">(estados gerados,</text>
<text xml:space="preserve" text-anchor="middle" x="364.45" y="-272.03" font-family="Arial" font-size="10.00" fill="#92400e">mas nao desenhados)</text>
</g>
<!-- N6&#45;&gt;X2 -->
<g id="edge10" class="edge">
<title>N6&#45;&gt;X2</title>
<path fill="none" stroke="#d97706" stroke-dasharray="5,2" d="M301.21,-382.52C315.2,-363.05 332.03,-339.65 344.8,-321.88"/>
</g>
<!-- N8 -->
<g id="node8" class="node">
<title>N8</title>
<ellipse fill="#dbeafe" stroke="black" cx="96.45" cy="-174.81" rx="96.17" ry="31.11"/>
<text xml:space="preserve" text-anchor="middle" x="96.45" y="-183.31" font-family="Arial" font-size="10.00">C5</text>
<text xml:space="preserve" text-anchor="middle" x="96.45" y="-171.31" font-family="Arial" font-size="10.00">g=136,00 h=74,16 f=210,16</text>
<text xml:space="preserve" text-anchor="middle" x="96.45" y="-159.31" font-family="Arial" font-size="10.00">b=24% coletas=3</text>
</g>
<!-- N7&#45;&gt;N8 -->
<g id="edge7" class="edge">
<title>N7&#45;&gt;N8</title>
<path fill="none" stroke="#2563eb" stroke-width="2" d="M162.02,-262.78C151.26,-248.51 138.22,-231.21 126.61,-215.81"/>
<polygon fill="#2563eb" stroke="#2563eb" stroke-width="2" points="129.48,-213.81 120.67,-207.93 123.89,-218.02 129.48,-213.81"/>
<text xml:space="preserve" text-anchor="middle" x="148.34" y="-230.87" font-family="Arial" font-size="9.00">20</text>
</g>
<!-- X1 -->
<g id="node10" class="node">
<title>X1</title>
<polygon fill="#fef3c7" stroke="#f59e0b" stroke-dasharray="5,2" points="329.45,-202.81 217.45,-202.81 217.45,-146.81 329.45,-146.81 329.45,-202.81"/>
<text xml:space="preserve" text-anchor="middle" x="273.45" y="-189.31" font-family="Arial" font-size="10.00" fill="#92400e">+1 ramos omitidos</text>
<text xml:space="preserve" text-anchor="middle" x="273.45" y="-177.31" font-family="Arial" font-size="10.00" fill="#92400e">limite visual</text>
<text xml:space="preserve" text-anchor="middle" x="273.45" y="-165.31" font-family="Arial" font-size="10.00" fill="#92400e">(estados gerados,</text>
<text xml:space="preserve" text-anchor="middle" x="273.45" y="-153.31" font-family="Arial" font-size="10.00" fill="#92400e">mas nao desenhados)</text>
</g>
<!-- N7&#45;&gt;X1 -->
<g id="edge9" class="edge">
<title>N7&#45;&gt;X1</title>
<path fill="none" stroke="#d97706" stroke-dasharray="5,2" d="M207.14,-262.78C221.15,-244.41 238.99,-221.01 252.64,-203.11"/>
</g>
<!-- N9 -->
<g id="node9" class="node">
<title>N9</title>
<ellipse fill="#b6f2b6" stroke="black" cx="96.45" cy="-43.6" rx="92.45" ry="39.6"/>
<ellipse fill="none" stroke="black" cx="96.45" cy="-43.6" rx="96.45" ry="43.6"/>
<text xml:space="preserve" text-anchor="middle" x="96.45" y="-58.1" font-family="Arial" font-size="10.00">OBJETIVO</text>
<text xml:space="preserve" text-anchor="middle" x="96.45" y="-46.1" font-family="Arial" font-size="10.00">C3</text>
<text xml:space="preserve" text-anchor="middle" x="96.45" y="-34.1" font-family="Arial" font-size="10.00">g=159,00 h=0,00 f=159,00</text>
<text xml:space="preserve" text-anchor="middle" x="96.45" y="-22.1" font-family="Arial" font-size="10.00">b=1% coletas=3</text>
</g>
<!-- N8&#45;&gt;N9 -->
<g id="edge8" class="edge">
<title>N8&#45;&gt;N9</title>
<path fill="none" stroke="#2563eb" stroke-width="2" d="M96.45,-143.51C96.45,-130.59 96.45,-115.09 96.45,-100.23"/>
<polygon fill="#2563eb" stroke="#2563eb" stroke-width="2" points="99.95,-100.45 96.45,-90.45 92.95,-100.45 99.95,-100.45"/>
<text xml:space="preserve" text-anchor="middle" x="101.7" y="-112.15" font-family="Arial" font-size="9.00">23</text>
</g>
<!-- legend_solution -->
<g id="node23" class="node">
<title>legend_solution</title>
<polygon fill="#dbeafe" stroke="black" points="1684.33,-1057.83 1544.58,-1057.83 1544.58,-1021.83 1684.33,-1021.83 1684.33,-1057.83"/>
<text xml:space="preserve" text-anchor="middle" x="1614.45" y="-1041.78" font-family="Arial" font-size="9.00">Estado no caminho escolhido</text>
<text xml:space="preserve" text-anchor="middle" x="1614.45" y="-1031.28" font-family="Arial" font-size="9.00">arestas azuis ligam a rota final</text>
</g>
<!-- legend_recharge -->
<g id="node24" class="node">
<title>legend_recharge</title>
<polygon fill="#dcfce7" stroke="#059669" points="1847.95,-1057.83 1708.95,-1057.83 1708.95,-1021.83 1847.95,-1021.83 1847.95,-1057.83"/>
<text xml:space="preserve" text-anchor="middle" x="1778.45" y="-1041.78" font-family="Arial" font-size="9.00">Acao de recarga executada</text>
<text xml:space="preserve" text-anchor="middle" x="1778.45" y="-1031.28" font-family="Arial" font-size="9.00">recarga tambem entra em g(s)</text>
</g>
<!-- legend_goal -->
<g id="node25" class="node">
<title>legend_goal</title>
<polygon fill="#b6f2b6" stroke="black" points="1963.7,-1057.83 1877.2,-1057.83 1877.2,-1021.83 1963.7,-1021.83 1963.7,-1057.83"/>
<polygon fill="none" stroke="black" points="1967.7,-1061.83 1873.2,-1061.83 1873.2,-1017.83 1967.7,-1017.83 1967.7,-1061.83"/>
<text xml:space="preserve" text-anchor="middle" x="1920.45" y="-1036.53" font-family="Arial" font-size="9.00">Destino / objetivo</text>
</g>
<!-- legend_expanded -->
<g id="node26" class="node">
<title>legend_expanded</title>
<polygon fill="#e5e7eb" stroke="black" points="2088.58,-1057.83 1992.33,-1057.83 1992.33,-1021.83 2088.58,-1021.83 2088.58,-1057.83"/>
<text xml:space="preserve" text-anchor="middle" x="2040.45" y="-1036.53" font-family="Arial" font-size="9.00">Expandido / Closed</text>
</g>
<!-- legend_open -->
<g id="node27" class="node">
<title>legend_open</title>
<polygon fill="white" stroke="black" points="2259.33,-1057.83 2113.58,-1057.83 2113.58,-1021.83 2259.33,-1021.83 2259.33,-1057.83"/>
<text xml:space="preserve" text-anchor="middle" x="2186.45" y="-1041.78" font-family="Arial" font-size="9.00">Gerado / Open</text>
<text xml:space="preserve" text-anchor="middle" x="2186.45" y="-1031.28" font-family="Arial" font-size="9.00">candidato ainda nao expandido</text>
</g>
<!-- legend_alternative -->
<g id="node28" class="node">
<title>legend_alternative</title>
<polygon fill="white" stroke="black" points="2392.58,-1057.83 2284.33,-1057.83 2284.33,-1021.83 2392.58,-1021.83 2392.58,-1057.83"/>
<text xml:space="preserve" text-anchor="middle" x="2338.45" y="-1041.78" font-family="Arial" font-size="9.00">Alternativa desenhada</text>
<text xml:space="preserve" text-anchor="middle" x="2338.45" y="-1031.28" font-family="Arial" font-size="9.00">aresta cinza</text>
</g>
<!-- legend_pruned -->
<g id="node29" class="node">
<title>legend_pruned</title>
<polygon fill="#fef3c7" stroke="black" points="2607.45,-1070.08 2417.45,-1070.08 2417.45,-1009.58 2607.45,-1009.58 2607.45,-1070.08"/>
<text xml:space="preserve" text-anchor="middle" x="2512.45" y="-1057.53" font-family="Arial" font-size="9.00">Ramos omitidos por limite visual:</text>
<text xml:space="preserve" text-anchor="middle" x="2512.45" y="-1047.03" font-family="Arial" font-size="9.00">estados gerados na execucao,</text>
<text xml:space="preserve" text-anchor="middle" x="2512.45" y="-1036.53" font-family="Arial" font-size="9.00">mas ocultados para evitar arvore ilegivel.</text>
<text xml:space="preserve" text-anchor="middle" x="2512.45" y="-1026.03" font-family="Arial" font-size="9.00">Nao e poda do algoritmo;</text>
<text xml:space="preserve" text-anchor="middle" x="2512.45" y="-1015.53" font-family="Arial" font-size="9.00">Open/Closed e metricas reais nao mudam.</text>
</g>
</g>
</svg>
