<?xml version="1.0" encoding="UTF-8" standalone="no"?>
<!DOCTYPE svg PUBLIC "-//W3C//DTD SVG 1.1//EN"
 "http://www.w3.org/Graphics/SVG/1.1/DTD/svg11.dtd">
<!-- Generated by graphviz version 15.0.0 (20260523.1842)
 -->
<!-- Title: ArvoreBuscaAStar Pages: 1 -->
<svg width="2613pt" height="958pt"
 viewBox="0.00 0.00 2613.00 958.00" xmlns="http://www.w3.org/2000/svg" xmlns:xlink="http://www.w3.org/1999/xlink">
<g id="graph0" class="graph" transform="scale(1 1) rotate(0) translate(4 954.41)">
<title>ArvoreBuscaAStar</title>
<polygon fill="white" stroke="none" points="-4,4 -4,-954.41 2609.39,-954.41 2609.39,4 -4,4"/>
<text xml:space="preserve" text-anchor="middle" x="1302.7" y="-935.01" font-family="Arial" font-size="12.00">Arvore focada compactada: mostra o caminho escolhido e algumas alternativas imediatas. Ramos omitidos sao limite visual, nao poda do A*.</text>
<g id="clust1" class="cluster">
<title>cluster_legend</title>
<polygon fill="none" stroke="#cccccc" points="1438.39,-822.16 1438.39,-920.16 2597.39,-920.16 2597.39,-822.16 1438.39,-822.16"/>
<text xml:space="preserve" text-anchor="middle" x="2017.89" y="-905.71" font-family="Arial" font-size="11.00">Legenda</text>
</g>
<!-- S1 -->
<g id="node1" class="node">
<title>S1</title>
<ellipse fill="#dbeafe" stroke="black" cx="1334.39" cy="-860.41" rx="85.03" ry="31.11"/>
<text xml:space="preserve" text-anchor="middle" x="1334.39" y="-868.91" font-family="Arial" font-size="10.00">C4</text>
<text xml:space="preserve" text-anchor="middle" x="1334.39" y="-856.91" font-family="Arial" font-size="10.00">g=2,00 h=68,85 f=70,85</text>
<text xml:space="preserve" text-anchor="middle" x="1334.39" y="-844.91" font-family="Arial" font-size="10.00">b=98% coletas=1</text>
</g>
<!-- S2 -->
<g id="node2" class="node">
<title>S2</title>
<ellipse fill="#dbeafe" stroke="black" cx="1130.39" cy="-729.18" rx="88.74" ry="31.11"/>
<text xml:space="preserve" text-anchor="middle" x="1130.39" y="-737.68" font-family="Arial" font-size="10.00">R2</text>
<text xml:space="preserve" text-anchor="middle" x="1130.39" y="-725.68" font-family="Arial" font-size="10.00">g=19,00 h=53,50 f=72,50</text>
<text xml:space="preserve" text-anchor="middle" x="1130.39" y="-713.68" font-family="Arial" font-size="10.00">b=81% coletas=1</text>
</g>
<!-- S1&#45;&gt;S2 -->
<g id="edge1" class="edge">
<title>S1&#45;&gt;S2</title>
<path fill="none" stroke="#2563eb" stroke-width="2" d="M1292.62,-832.94C1260.96,-812.89 1217.24,-785.19 1183.16,-763.61"/>
<polygon fill="#2563eb" stroke="#2563eb" stroke-width="2" points="1185.34,-760.84 1175.02,-758.45 1181.59,-766.76 1185.34,-760.84"/>
<text xml:space="preserve" text-anchor="middle" x="1264.48" y="-796.74" font-family="Arial" font-size="9.00">escolhido</text>
<text xml:space="preserve" text-anchor="middle" x="1264.48" y="-786.24" font-family="Arial" font-size="9.00">17</text>
</g>
<!-- S8 -->
<g id="node8" class="node">
<title>S8</title>
<ellipse fill="#e5e7eb" stroke="black" stroke-dasharray="5,2" cx="1334.39" cy="-729.18" rx="88.74" ry="31.11"/>
<text xml:space="preserve" text-anchor="middle" x="1334.39" y="-737.68" font-family="Arial" font-size="10.00">C10</text>
<text xml:space="preserve" text-anchor="middle" x="1334.39" y="-725.68" font-family="Arial" font-size="10.00">g=30,00 h=65,25 f=95,25</text>
<text xml:space="preserve" text-anchor="middle" x="1334.39" y="-713.68" font-family="Arial" font-size="10.00">b=70% coletas=2</text>
</g>
<!-- S1&#45;&gt;S8 -->
<g id="edge7" class="edge">
<title>S1&#45;&gt;S8</title>
<path fill="none" stroke="#9ca3af" d="M1334.39,-829.11C1334.39,-812.14 1334.39,-790.72 1334.39,-772.15"/>
<polygon fill="#9ca3af" stroke="#9ca3af" points="1337.89,-772.25 1334.39,-762.25 1330.89,-772.25 1337.89,-772.25"/>
<text xml:space="preserve" text-anchor="middle" x="1356.89" y="-796.74" font-family="Arial" font-size="9.00">opcao</text>
<text xml:space="preserve" text-anchor="middle" x="1356.89" y="-786.24" font-family="Arial" font-size="9.00">26 + coleta</text>
</g>
<!-- S9 -->
<g id="node9" class="node">
<title>S9</title>
<ellipse fill="#e5e7eb" stroke="black" stroke-dasharray="5,2" cx="1542.39" cy="-729.18" rx="92.45" ry="31.11"/>
<text xml:space="preserve" text-anchor="middle" x="1542.39" y="-737.68" font-family="Arial" font-size="10.00">R1</text>
<text xml:space="preserve" text-anchor="middle" x="1542.39" y="-725.68" font-family="Arial" font-size="10.00">g=24,00 h=82,75 f=106,75</text>
<text xml:space="preserve" text-anchor="middle" x="1542.39" y="-713.68" font-family="Arial" font-size="10.00">b=76% coletas=1</text>
</g>
<!-- S1&#45;&gt;S9 -->
<g id="edge8" class="edge">
<title>S1&#45;&gt;S9</title>
<path fill="none" stroke="#9ca3af" d="M1376.74,-833.1C1409.31,-812.86 1454.51,-784.78 1489.47,-763.06"/>
<polygon fill="#9ca3af" stroke="#9ca3af" points="1491.1,-766.17 1497.75,-757.92 1487.41,-760.22 1491.1,-766.17"/>
<text xml:space="preserve" text-anchor="middle" x="1463.6" y="-796.74" font-family="Arial" font-size="9.00">opcao</text>
<text xml:space="preserve" text-anchor="middle" x="1463.6" y="-786.24" font-family="Arial" font-size="9.00">22</text>
</g>
<!-- S3 -->
<g id="node3" class="node">
<title>S3</title>
<ellipse fill="#dcfce7" stroke="#059669" cx="722.39" cy="-589.47" rx="88.74" ry="39.6"/>
<text xml:space="preserve" text-anchor="middle" x="722.39" y="-603.97" font-family="Arial" font-size="10.00">R2</text>
<text xml:space="preserve" text-anchor="middle" x="722.39" y="-591.97" font-family="Arial" font-size="10.00">g=21,80 h=53,50 f=75,30</text>
<text xml:space="preserve" text-anchor="middle" x="722.39" y="-579.97" font-family="Arial" font-size="10.00">b=95% coletas=1</text>
<text xml:space="preserve" text-anchor="middle" x="722.39" y="-567.97" font-family="Arial" font-size="10.00">recarga</text>
</g>
<!-- S2&#45;&gt;S3 -->
<g id="edge2" class="edge">
<title>S2&#45;&gt;S3</title>
<path fill="none" stroke="#2563eb" stroke-width="2" d="M1064.72,-707.92C1002.55,-688.51 906.72,-657.96 824.39,-629.07 816.74,-626.38 808.79,-623.52 800.87,-620.6"/>
<polygon fill="#2563eb" stroke="#2563eb" stroke-width="2" points="802.32,-617.41 791.73,-617.22 799.89,-623.97 802.32,-617.41"/>
<text xml:space="preserve" text-anchor="middle" x="981.47" y="-665.52" font-family="Arial" font-size="9.00">escolhido</text>
<text xml:space="preserve" text-anchor="middle" x="981.47" y="-655.02" font-family="Arial" font-size="9.00">recarga 2,8</text>
</g>
<!-- S10 -->
<g id="node10" class="node">
<title>S10</title>
<ellipse fill="#dcfce7" stroke="#059669" stroke-dasharray="5,2" cx="926.39" cy="-589.47" rx="88.74" ry="39.6"/>
<text xml:space="preserve" text-anchor="middle" x="926.39" y="-603.97" font-family="Arial" font-size="10.00">R2</text>
<text xml:space="preserve" text-anchor="middle" x="926.39" y="-591.97" font-family="Arial" font-size="10.00">g=19,20 h=53,50 f=72,70</text>
<text xml:space="preserve" text-anchor="middle" x="926.39" y="-579.97" font-family="Arial" font-size="10.00">b=82% coletas=1</text>
<text xml:space="preserve" text-anchor="middle" x="926.39" y="-567.97" font-family="Arial" font-size="10.00">recarga</text>
</g>
<!-- S2&#45;&gt;S10 -->
<g id="edge9" class="edge">
<title>S2&#45;&gt;S10</title>
<path fill="none" stroke="#9ca3af" d="M1090.58,-701.3C1060.26,-680.84 1018.1,-652.38 984.1,-629.42"/>
<polygon fill="#9ca3af" stroke="#9ca3af" points="986.24,-626.65 975.99,-623.95 982.32,-632.45 986.24,-626.65"/>
<text xml:space="preserve" text-anchor="middle" x="1069.92" y="-665.52" font-family="Arial" font-size="9.00">opcao</text>
<text xml:space="preserve" text-anchor="middle" x="1069.92" y="-655.02" font-family="Arial" font-size="9.00">recarga 0,2</text>
</g>
<!-- S11 -->
<g id="node11" class="node">
<title>S11</title>
<ellipse fill="#dcfce7" stroke="#059669" stroke-dasharray="5,2" cx="1130.39" cy="-589.47" rx="88.74" ry="39.6"/>
<text xml:space="preserve" text-anchor="middle" x="1130.39" y="-603.97" font-family="Arial" font-size="10.00">R2</text>
<text xml:space="preserve" text-anchor="middle" x="1130.39" y="-591.97" font-family="Arial" font-size="10.00">g=19,60 h=53,50 f=73,10</text>
<text xml:space="preserve" text-anchor="middle" x="1130.39" y="-579.97" font-family="Arial" font-size="10.00">b=84% coletas=1</text>
<text xml:space="preserve" text-anchor="middle" x="1130.39" y="-567.97" font-family="Arial" font-size="10.00">recarga</text>
</g>
<!-- S2&#45;&gt;S11 -->
<g id="edge10" class="edge">
<title>S2&#45;&gt;S11</title>
<path fill="none" stroke="#9ca3af" d="M1130.39,-697.62C1130.39,-680.87 1130.39,-659.7 1130.39,-640.6"/>
<polygon fill="#9ca3af" stroke="#9ca3af" points="1133.89,-640.85 1130.39,-630.85 1126.89,-640.85 1133.89,-640.85"/>
<text xml:space="preserve" text-anchor="middle" x="1153.64" y="-665.52" font-family="Arial" font-size="9.00">opcao</text>
<text xml:space="preserve" text-anchor="middle" x="1153.64" y="-655.02" font-family="Arial" font-size="9.00">recarga 0,6</text>
</g>
<!-- S12 -->
<g id="node12" class="node">
<title>S12</title>
<ellipse fill="#dcfce7" stroke="#059669" stroke-dasharray="5,2" cx="1334.39" cy="-589.47" rx="88.74" ry="39.6"/>
<text xml:space="preserve" text-anchor="middle" x="1334.39" y="-603.97" font-family="Arial" font-size="10.00">R2</text>
<text xml:space="preserve" text-anchor="middle" x="1334.39" y="-591.97" font-family="Arial" font-size="10.00">g=19,80 h=53,50 f=73,30</text>
<text xml:space="preserve" text-anchor="middle" x="1334.39" y="-579.97" font-family="Arial" font-size="10.00">b=85% coletas=1</text>
<text xml:space="preserve" text-anchor="middle" x="1334.39" y="-567.97" font-family="Arial" font-size="10.00">recarga</text>
</g>
<!-- S2&#45;&gt;S12 -->
<g id="edge11" class="edge">
<title>S2&#45;&gt;S12</title>
<path fill="none" stroke="#9ca3af" d="M1170.21,-701.3C1200.52,-680.84 1242.68,-652.38 1276.69,-629.42"/>
<polygon fill="#9ca3af" stroke="#9ca3af" points="1278.47,-632.45 1284.8,-623.95 1274.55,-626.65 1278.47,-632.45"/>
<text xml:space="preserve" text-anchor="middle" x="1261.76" y="-665.52" font-family="Arial" font-size="9.00">opcao</text>
<text xml:space="preserve" text-anchor="middle" x="1261.76" y="-655.02" font-family="Arial" font-size="9.00">recarga 0,8</text>
</g>
<!-- P2 -->
<g id="node13" class="node">
<title>P2</title>
<polygon fill="#fef3c7" stroke="#f59e0b" stroke-dasharray="5,2" points="1562.39,-617.47 1450.39,-617.47 1450.39,-561.47 1562.39,-561.47 1562.39,-617.47"/>
<text xml:space="preserve" text-anchor="middle" x="1506.39" y="-603.97" font-family="Arial" font-size="10.00" fill="#92400e">+4 ramos omitidos</text>
<text xml:space="preserve" text-anchor="middle" x="1506.39" y="-591.97" font-family="Arial" font-size="10.00" fill="#92400e">limite visual</text>
<text xml:space="preserve" text-anchor="middle" x="1506.39" y="-579.97" font-family="Arial" font-size="10.00" fill="#92400e">(estados gerados,</text>
<text xml:space="preserve" text-anchor="middle" x="1506.39" y="-567.97" font-family="Arial" font-size="10.00" fill="#92400e">mas nao desenhados)</text>
</g>
<!-- S2&#45;&gt;P2 -->
<g id="edge12" class="edge">
<title>S2&#45;&gt;P2</title>
<path fill="none" stroke="#d97706" stroke-dasharray="5,2" d="M1197.05,-708.22C1273.25,-685.11 1393.03,-647.84 1436.39,-629.07 1444.03,-625.76 1451.94,-621.88 1459.56,-617.88"/>
</g>
<!-- S4 -->
<g id="node4" class="node">
<title>S4</title>
<ellipse fill="#dbeafe" stroke="black" cx="620.39" cy="-449.76" rx="88.74" ry="31.11"/>
<text xml:space="preserve" text-anchor="middle" x="620.39" y="-458.26" font-family="Arial" font-size="10.00">C7</text>
<text xml:space="preserve" text-anchor="middle" x="620.39" y="-446.26" font-family="Arial" font-size="10.00">g=48,80 h=40,24 f=89,04</text>
<text xml:space="preserve" text-anchor="middle" x="620.39" y="-434.26" font-family="Arial" font-size="10.00">b=68% coletas=2</text>
</g>
<!-- S3&#45;&gt;S4 -->
<g id="edge3" class="edge">
<title>S3&#45;&gt;S4</title>
<path fill="none" stroke="#2563eb" stroke-width="2" d="M695.06,-551.57C681.12,-532.74 664.15,-509.83 649.91,-490.61"/>
<polygon fill="#2563eb" stroke="#2563eb" stroke-width="2" points="652.88,-488.74 644.12,-482.79 647.26,-492.91 652.88,-488.74"/>
<text xml:space="preserve" text-anchor="middle" x="700.7" y="-517.32" font-family="Arial" font-size="9.00">escolhido</text>
<text xml:space="preserve" text-anchor="middle" x="700.7" y="-506.82" font-family="Arial" font-size="9.00">25,0 + coleta</text>
</g>
<!-- S13 -->
<g id="node14" class="node">
<title>S13</title>
<ellipse fill="#e5e7eb" stroke="black" stroke-dasharray="5,2" cx="824.39" cy="-449.76" rx="88.74" ry="31.11"/>
<text xml:space="preserve" text-anchor="middle" x="824.39" y="-458.26" font-family="Arial" font-size="10.00">C6</text>
<text xml:space="preserve" text-anchor="middle" x="824.39" y="-446.26" font-family="Arial" font-size="10.00">g=41,80 h=53,36 f=95,16</text>
<text xml:space="preserve" text-anchor="middle" x="824.39" y="-434.26" font-family="Arial" font-size="10.00">b=75% coletas=2</text>
</g>
<!-- S3&#45;&gt;S13 -->
<g id="edge13" class="edge">
<title>S3&#45;&gt;S13</title>
<path fill="none" stroke="#9ca3af" d="M749.73,-551.57C763.93,-532.4 781.27,-508.98 795.67,-489.54"/>
<polygon fill="#9ca3af" stroke="#9ca3af" points="798.43,-491.69 801.57,-481.57 792.81,-487.52 798.43,-491.69"/>
<text xml:space="preserve" text-anchor="middle" x="808.78" y="-517.32" font-family="Arial" font-size="9.00">opcao</text>
<text xml:space="preserve" text-anchor="middle" x="808.78" y="-506.82" font-family="Arial" font-size="9.00">18,0 + coleta</text>
</g>
<!-- S5 -->
<g id="node5" class="node">
<title>S5</title>
<ellipse fill="#dbeafe" stroke="black" cx="306.39" cy="-318.53" rx="88.74" ry="31.11"/>
<text xml:space="preserve" text-anchor="middle" x="306.39" y="-327.03" font-family="Arial" font-size="10.00">C8</text>
<text xml:space="preserve" text-anchor="middle" x="306.39" y="-315.03" font-family="Arial" font-size="10.00">g=72,80 h=26,04 f=98,84</text>
<text xml:space="preserve" text-anchor="middle" x="306.39" y="-303.03" font-family="Arial" font-size="10.00">b=44% coletas=3</text>
</g>
<!-- S4&#45;&gt;S5 -->
<g id="edge4" class="edge">
<title>S4&#45;&gt;S5</title>
<path fill="none" stroke="#2563eb" stroke-width="2" d="M563.89,-425.51C510.81,-403.66 431.3,-370.94 374.68,-347.64"/>
<polygon fill="#2563eb" stroke="#2563eb" stroke-width="2" points="376.35,-344.54 365.77,-343.97 373.68,-351.01 376.35,-344.54"/>
<text xml:space="preserve" text-anchor="middle" x="504.69" y="-386.1" font-family="Arial" font-size="9.00">escolhido</text>
<text xml:space="preserve" text-anchor="middle" x="504.69" y="-375.6" font-family="Arial" font-size="9.00">22 + coleta</text>
</g>
<!-- A1 -->
<g id="node15" class="node">
<title>A1</title>
<ellipse fill="white" stroke="black" cx="514.39" cy="-318.53" rx="92.45" ry="31.11"/>
<text xml:space="preserve" text-anchor="middle" x="514.39" y="-327.03" font-family="Arial" font-size="10.00">C6</text>
<text xml:space="preserve" text-anchor="middle" x="514.39" y="-315.03" font-family="Arial" font-size="10.00">g=69,80 h=52,44 f=122,24</text>
<text xml:space="preserve" text-anchor="middle" x="514.39" y="-303.03" font-family="Arial" font-size="10.00">b=47% coletas=3</text>
</g>
<!-- S4&#45;&gt;A1 -->
<g id="edge14" class="edge">
<title>S4&#45;&gt;A1</title>
<path fill="none" stroke="#9ca3af" d="M596.34,-419.44C581.3,-401.1 561.77,-377.29 545.54,-357.51"/>
<polygon fill="#9ca3af" stroke="#9ca3af" points="548.36,-355.42 539.31,-349.91 542.95,-359.86 548.36,-355.42"/>
<text xml:space="preserve" text-anchor="middle" x="596.24" y="-386.1" font-family="Arial" font-size="9.00">opcao</text>
<text xml:space="preserve" text-anchor="middle" x="596.24" y="-375.6" font-family="Arial" font-size="9.00">19 + coleta</text>
</g>
<!-- A2 -->
<g id="node16" class="node">
<title>A2</title>
<ellipse fill="white" stroke="black" cx="726.39" cy="-318.53" rx="92.45" ry="31.11"/>
<text xml:space="preserve" text-anchor="middle" x="726.39" y="-327.03" font-family="Arial" font-size="10.00">R2</text>
<text xml:space="preserve" text-anchor="middle" x="726.39" y="-315.03" font-family="Arial" font-size="10.00">g=73,80 h=53,40 f=127,20</text>
<text xml:space="preserve" text-anchor="middle" x="726.39" y="-303.03" font-family="Arial" font-size="10.00">b=43% coletas=2</text>
</g>
<!-- S4&#45;&gt;A2 -->
<g id="edge15" class="edge">
<title>S4&#45;&gt;A2</title>
<path fill="none" stroke="#9ca3af" d="M644.45,-419.44C659.49,-401.1 679.02,-377.29 695.24,-357.51"/>
<polygon fill="#9ca3af" stroke="#9ca3af" points="697.84,-359.86 701.48,-349.91 692.43,-355.42 697.84,-359.86"/>
<text xml:space="preserve" text-anchor="middle" x="692.49" y="-386.1" font-family="Arial" font-size="9.00">opcao</text>
<text xml:space="preserve" text-anchor="middle" x="692.49" y="-375.6" font-family="Arial" font-size="9.00">25</text>
</g>
<!-- A3 -->
<g id="node17" class="node">
<title>A3</title>
<ellipse fill="white" stroke="black" cx="938.39" cy="-318.53" rx="92.45" ry="31.11"/>
<text xml:space="preserve" text-anchor="middle" x="938.39" y="-327.03" font-family="Arial" font-size="10.00">C11</text>
<text xml:space="preserve" text-anchor="middle" x="938.39" y="-315.03" font-family="Arial" font-size="10.00">g=75,80 h=53,52 f=129,32</text>
<text xml:space="preserve" text-anchor="middle" x="938.39" y="-303.03" font-family="Arial" font-size="10.00">b=41% coletas=3</text>
</g>
<!-- S4&#45;&gt;A3 -->
<g id="edge16" class="edge">
<title>S4&#45;&gt;A3</title>
<path fill="none" stroke="#9ca3af" d="M677.61,-425.51C731.57,-403.58 812.49,-370.7 869.86,-347.38"/>
<polygon fill="#9ca3af" stroke="#9ca3af" points="870.94,-350.72 878.89,-343.71 868.31,-344.24 870.94,-350.72"/>
<text xml:space="preserve" text-anchor="middle" x="820.93" y="-386.1" font-family="Arial" font-size="9.00">opcao</text>
<text xml:space="preserve" text-anchor="middle" x="820.93" y="-375.6" font-family="Arial" font-size="9.00">25 + coleta</text>
</g>
<!-- S6 -->
<g id="node6" class="node">
<title>S6</title>
<ellipse fill="#dbeafe" stroke="black" cx="95.39" cy="-187.31" rx="92.45" ry="31.11"/>
<text xml:space="preserve" text-anchor="middle" x="95.39" y="-195.81" font-family="Arial" font-size="10.00">C5</text>
<text xml:space="preserve" text-anchor="middle" x="95.39" y="-183.81" font-family="Arial" font-size="10.00">g=92,80 h=14,83 f=107,63</text>
<text xml:space="preserve" text-anchor="middle" x="95.39" y="-171.81" font-family="Arial" font-size="10.00">b=24% coletas=3</text>
</g>
<!-- S5&#45;&gt;S6 -->
<g id="edge5" class="edge">
<title>S5&#45;&gt;S6</title>
<path fill="none" stroke="#2563eb" stroke-width="2" d="M263.19,-291.07C230.44,-271.02 185.22,-243.32 149.97,-221.73"/>
<polygon fill="#2563eb" stroke="#2563eb" stroke-width="2" points="151.84,-218.78 141.49,-216.54 148.19,-224.75 151.84,-218.78"/>
<text xml:space="preserve" text-anchor="middle" x="233.4" y="-254.87" font-family="Arial" font-size="9.00">escolhido</text>
<text xml:space="preserve" text-anchor="middle" x="233.4" y="-244.37" font-family="Arial" font-size="9.00">20</text>
</g>
<!-- A4 -->
<g id="node18" class="node">
<title>A4</title>
<ellipse fill="white" stroke="black" cx="306.39" cy="-187.31" rx="91.39" ry="31.11"/>
<text xml:space="preserve" text-anchor="middle" x="306.39" y="-195.81" font-family="Arial" font-size="10.00">R5</text>
<text xml:space="preserve" text-anchor="middle" x="306.39" y="-183.81" font-family="Arial" font-size="10.00">g=90,80 h=29,11 f=119,91</text>
<text xml:space="preserve" text-anchor="middle" x="306.39" y="-171.81" font-family="Arial" font-size="10.00">b=26% coletas=3</text>
</g>
<!-- S5&#45;&gt;A4 -->
<g id="edge17" class="edge">
<title>S5&#45;&gt;A4</title>
<path fill="none" stroke="#9ca3af" d="M306.39,-287.24C306.39,-270.27 306.39,-248.85 306.39,-230.28"/>
<polygon fill="#9ca3af" stroke="#9ca3af" points="309.89,-230.38 306.39,-220.38 302.89,-230.38 309.89,-230.38"/>
<text xml:space="preserve" text-anchor="middle" x="319.14" y="-254.87" font-family="Arial" font-size="9.00">opcao</text>
<text xml:space="preserve" text-anchor="middle" x="319.14" y="-244.37" font-family="Arial" font-size="9.00">18</text>
</g>
<!-- A5 -->
<g id="node19" class="node">
<title>A5</title>
<ellipse fill="white" stroke="black" cx="517.39" cy="-187.31" rx="92.45" ry="31.11"/>
<text xml:space="preserve" text-anchor="middle" x="517.39" y="-195.81" font-family="Arial" font-size="10.00">C7</text>
<text xml:space="preserve" text-anchor="middle" x="517.39" y="-183.81" font-family="Arial" font-size="10.00">g=94,80 h=41,69 f=136,49</text>
<text xml:space="preserve" text-anchor="middle" x="517.39" y="-171.81" font-family="Arial" font-size="10.00">b=22% coletas=3</text>
</g>
<!-- S5&#45;&gt;A5 -->
<g id="edge18" class="edge">
<title>S5&#45;&gt;A5</title>
<path fill="none" stroke="#9ca3af" d="M349.6,-291.07C382.77,-270.76 428.75,-242.6 464.18,-220.9"/>
<polygon fill="#9ca3af" stroke="#9ca3af" points="465.89,-223.96 472.59,-215.75 462.23,-217.99 465.89,-223.96"/>
<text xml:space="preserve" text-anchor="middle" x="437.28" y="-254.87" font-family="Arial" font-size="9.00">opcao</text>
<text xml:space="preserve" text-anchor="middle" x="437.28" y="-244.37" font-family="Arial" font-size="9.00">22</text>
</g>
<!-- S7 -->
<g id="node7" class="node">
<title>S7</title>
<ellipse fill="#b6f2b6" stroke="black" cx="95.39" cy="-43.6" rx="91.39" ry="39.6"/>
<ellipse fill="none" stroke="black" cx="95.39" cy="-43.6" rx="95.39" ry="43.6"/>
<text xml:space="preserve" text-anchor="middle" x="95.39" y="-58.1" font-family="Arial" font-size="10.00">OBJETIVO</text>
<text xml:space="preserve" text-anchor="middle" x="95.39" y="-46.1" font-family="Arial" font-size="10.00">C3</text>
<text xml:space="preserve" text-anchor="middle" x="95.39" y="-34.1" font-family="Arial" font-size="10.00">g=115,80 h=0,00 f=115,80</text>
<text xml:space="preserve" text-anchor="middle" x="95.39" y="-22.1" font-family="Arial" font-size="10.00">b=1% coletas=3</text>
</g>
<!-- S6&#45;&gt;S7 -->
<g id="edge6" class="edge">
<title>S6&#45;&gt;S7</title>
<path fill="none" stroke="#2563eb" stroke-width="2" d="M95.39,-155.91C95.39,-139.72 95.39,-119.29 95.39,-100.37"/>
<polygon fill="#2563eb" stroke="#2563eb" stroke-width="2" points="98.89,-100.61 95.39,-90.61 91.89,-100.61 98.89,-100.61"/>
<text xml:space="preserve" text-anchor="middle" x="115.27" y="-123.65" font-family="Arial" font-size="9.00">escolhido</text>
<text xml:space="preserve" text-anchor="middle" x="115.27" y="-113.15" font-family="Arial" font-size="9.00">23</text>
</g>
<!-- legend_solution -->
<g id="node20" class="node">
<title>legend_solution</title>
<polygon fill="#dbeafe" stroke="black" points="1586.27,-878.41 1446.52,-878.41 1446.52,-842.41 1586.27,-842.41 1586.27,-878.41"/>
<text xml:space="preserve" text-anchor="middle" x="1516.39" y="-862.36" font-family="Arial" font-size="9.00">Estado no caminho escolhido</text>
<text xml:space="preserve" text-anchor="middle" x="1516.39" y="-851.86" font-family="Arial" font-size="9.00">arestas azuis ligam a rota final</text>
</g>
<!-- legend_recharge -->
<g id="node21" class="node">
<title>legend_recharge</title>
<polygon fill="#dcfce7" stroke="#059669" points="1751.89,-878.41 1612.89,-878.41 1612.89,-842.41 1751.89,-842.41 1751.89,-878.41"/>
<text xml:space="preserve" text-anchor="middle" x="1682.39" y="-862.36" font-family="Arial" font-size="9.00">Acao de recarga executada</text>
<text xml:space="preserve" text-anchor="middle" x="1682.39" y="-851.86" font-family="Arial" font-size="9.00">recarga tambem entra em g(s)</text>
</g>
<!-- legend_goal -->
<g id="node22" class="node">
<title>legend_goal</title>
<polygon fill="#b6f2b6" stroke="black" points="1869.64,-878.41 1783.14,-878.41 1783.14,-842.41 1869.64,-842.41 1869.64,-878.41"/>
<polygon fill="none" stroke="black" points="1873.64,-882.41 1779.14,-882.41 1779.14,-838.41 1873.64,-838.41 1873.64,-882.41"/>
<text xml:space="preserve" text-anchor="middle" x="1826.39" y="-857.11" font-family="Arial" font-size="9.00">Destino / objetivo</text>
</g>
<!-- legend_expanded -->
<g id="node23" class="node">
<title>legend_expanded</title>
<polygon fill="#e5e7eb" stroke="black" points="2064.27,-878.41 1900.52,-878.41 1900.52,-842.41 2064.27,-842.41 2064.27,-878.41"/>
<text xml:space="preserve" text-anchor="middle" x="1982.39" y="-862.36" font-family="Arial" font-size="9.00">Expandido / Closed</text>
<text xml:space="preserve" text-anchor="middle" x="1982.39" y="-851.86" font-family="Arial" font-size="9.00">(filhos nao desenhados nesta visao)</text>
</g>
<!-- legend_open -->
<g id="node24" class="node">
<title>legend_open</title>
<polygon fill="white" stroke="black" points="2237.27,-878.41 2091.52,-878.41 2091.52,-842.41 2237.27,-842.41 2237.27,-878.41"/>
<text xml:space="preserve" text-anchor="middle" x="2164.39" y="-862.36" font-family="Arial" font-size="9.00">Gerado / Open</text>
<text xml:space="preserve" text-anchor="middle" x="2164.39" y="-851.86" font-family="Arial" font-size="9.00">candidato ainda nao expandido</text>
</g>
<!-- legend_alternative -->
<g id="node25" class="node">
<title>legend_alternative</title>
<polygon fill="white" stroke="black" points="2372.52,-878.41 2264.27,-878.41 2264.27,-842.41 2372.52,-842.41 2372.52,-878.41"/>
<text xml:space="preserve" text-anchor="middle" x="2318.39" y="-862.36" font-family="Arial" font-size="9.00">Alternativa desenhada</text>
<text xml:space="preserve" text-anchor="middle" x="2318.39" y="-851.86" font-family="Arial" font-size="9.00">aresta cinza</text>
</g>
<!-- legend_pruned -->
<g id="node26" class="node">
<title>legend_pruned</title>
<polygon fill="#fef3c7" stroke="black" points="2589.39,-890.66 2399.39,-890.66 2399.39,-830.16 2589.39,-830.16 2589.39,-890.66"/>
<text xml:space="preserve" text-anchor="middle" x="2494.39" y="-878.11" font-family="Arial" font-size="9.00">Ramos omitidos por limite visual:</text>
<text xml:space="preserve" text-anchor="middle" x="2494.39" y="-867.61" font-family="Arial" font-size="9.00">estados gerados na execucao,</text>
<text xml:space="preserve" text-anchor="middle" x="2494.39" y="-857.11" font-family="Arial" font-size="9.00">mas ocultados para evitar arvore ilegivel.</text>
<text xml:space="preserve" text-anchor="middle" x="2494.39" y="-846.61" font-family="Arial" font-size="9.00">Nao e poda do algoritmo;</text>
<text xml:space="preserve" text-anchor="middle" x="2494.39" y="-836.11" font-family="Arial" font-size="9.00">Open/Closed e metricas reais nao mudam.</text>
</g>
</g>
</svg>
