<?xml version="1.0" encoding="UTF-8" standalone="no"?>
<!DOCTYPE svg PUBLIC "-//W3C//DTD SVG 1.1//EN"
 "http://www.w3.org/Graphics/SVG/1.1/DTD/svg11.dtd">
<!-- Generated by graphviz version 15.0.0 (20260523.1842)
 -->
<!-- Title: ArvoreBuscaAStar Pages: 1 -->
<svg width="2918pt" height="1238pt"
 viewBox="0.00 0.00 2918.00 1238.00" xmlns="http://www.w3.org/2000/svg" xmlns:xlink="http://www.w3.org/1999/xlink">
<g id="graph0" class="graph" transform="scale(1 1) rotate(0) translate(4 1233.83)">
<title>ArvoreBuscaAStar</title>
<polygon fill="white" stroke="none" points="-4,4 -4,-1233.83 2914.45,-1233.83 2914.45,4 -4,4"/>
<text xml:space="preserve" text-anchor="middle" x="1455.23" y="-1214.43" font-family="Arial" font-size="12.00">Arvore focada compactada: mostra o caminho escolhido e algumas alternativas imediatas. Ramos omitidos sao limite visual, nao poda do A*.</text>
<g id="clust1" class="cluster">
<title>cluster_legend</title>
<polygon fill="none" stroke="#cccccc" points="1743.45,-1101.58 1743.45,-1199.58 2902.45,-1199.58 2902.45,-1101.58 1743.45,-1101.58"/>
<text xml:space="preserve" text-anchor="middle" x="2322.95" y="-1185.13" font-family="Arial" font-size="11.00">Legenda</text>
</g>
<!-- S1 -->
<g id="node1" class="node">
<title>S1</title>
<ellipse fill="#dbeafe" stroke="black" cx="1632.45" cy="-1139.83" rx="92.45" ry="31.11"/>
<text xml:space="preserve" text-anchor="middle" x="1632.45" y="-1148.33" font-family="Arial" font-size="10.00">C4</text>
<text xml:space="preserve" text-anchor="middle" x="1632.45" y="-1136.33" font-family="Arial" font-size="10.00">g=2,00 h=344,27 f=346,27</text>
<text xml:space="preserve" text-anchor="middle" x="1632.45" y="-1124.33" font-family="Arial" font-size="10.00">b=98% coletas=1</text>
</g>
<!-- S2 -->
<g id="node2" class="node">
<title>S2</title>
<ellipse fill="#dbeafe" stroke="black" cx="1413.45" cy="-1008.6" rx="96.17" ry="31.11"/>
<text xml:space="preserve" text-anchor="middle" x="1413.45" y="-1017.1" font-family="Arial" font-size="10.00">R2</text>
<text xml:space="preserve" text-anchor="middle" x="1413.45" y="-1005.1" font-family="Arial" font-size="10.00">g=19,00 h=267,49 f=286,49</text>
<text xml:space="preserve" text-anchor="middle" x="1413.45" y="-993.1" font-family="Arial" font-size="10.00">b=81% coletas=1</text>
</g>
<!-- S1&#45;&gt;S2 -->
<g id="edge1" class="edge">
<title>S1&#45;&gt;S2</title>
<path fill="none" stroke="#2563eb" stroke-width="2" d="M1587.34,-1112.21C1553.3,-1092.12 1506.38,-1064.44 1469.86,-1042.88"/>
<polygon fill="#2563eb" stroke="#2563eb" stroke-width="2" points="1471.88,-1040.01 1461.49,-1037.95 1468.32,-1046.04 1471.88,-1040.01"/>
<text xml:space="preserve" text-anchor="middle" x="1555.94" y="-1076.16" font-family="Arial" font-size="9.00">escolhido</text>
<text xml:space="preserve" text-anchor="middle" x="1555.94" y="-1065.66" font-family="Arial" font-size="9.00">17</text>
</g>
<!-- A1 -->
<g id="node10" class="node">
<title>A1</title>
<ellipse fill="white" stroke="black" cx="1632.45" cy="-1008.6" rx="96.17" ry="31.11"/>
<text xml:space="preserve" text-anchor="middle" x="1632.45" y="-1017.1" font-family="Arial" font-size="10.00">C10</text>
<text xml:space="preserve" text-anchor="middle" x="1632.45" y="-1005.1" font-family="Arial" font-size="10.00">g=30,00 h=326,24 f=356,24</text>
<text xml:space="preserve" text-anchor="middle" x="1632.45" y="-993.1" font-family="Arial" font-size="10.00">b=70% coletas=2</text>
</g>
<!-- S1&#45;&gt;A1 -->
<g id="edge9" class="edge">
<title>S1&#45;&gt;A1</title>
<path fill="none" stroke="#9ca3af" d="M1632.45,-1108.53C1632.45,-1091.56 1632.45,-1070.14 1632.45,-1051.58"/>
<polygon fill="#9ca3af" stroke="#9ca3af" points="1635.95,-1051.67 1632.45,-1041.67 1628.95,-1051.67 1635.95,-1051.67"/>
<text xml:space="preserve" text-anchor="middle" x="1654.95" y="-1076.16" font-family="Arial" font-size="9.00">opcao</text>
<text xml:space="preserve" text-anchor="middle" x="1654.95" y="-1065.66" font-family="Arial" font-size="9.00">26 + coleta</text>
</g>
<!-- A2 -->
<g id="node11" class="node">
<title>A2</title>
<ellipse fill="white" stroke="black" cx="1851.45" cy="-1008.6" rx="96.17" ry="31.11"/>
<text xml:space="preserve" text-anchor="middle" x="1851.45" y="-1017.1" font-family="Arial" font-size="10.00">R1</text>
<text xml:space="preserve" text-anchor="middle" x="1851.45" y="-1005.1" font-family="Arial" font-size="10.00">g=24,00 h=413,74 f=437,74</text>
<text xml:space="preserve" text-anchor="middle" x="1851.45" y="-993.1" font-family="Arial" font-size="10.00">b=76% coletas=1</text>
</g>
<!-- S1&#45;&gt;A2 -->
<g id="edge10" class="edge">
<title>S1&#45;&gt;A2</title>
<path fill="none" stroke="#9ca3af" d="M1677.57,-1112.21C1712.05,-1091.86 1759.74,-1063.72 1796.46,-1042.05"/>
<polygon fill="#9ca3af" stroke="#9ca3af" points="1797.89,-1045.27 1804.72,-1037.18 1794.33,-1039.25 1797.89,-1045.27"/>
<text xml:space="preserve" text-anchor="middle" x="1767.82" y="-1076.16" font-family="Arial" font-size="9.00">opcao</text>
<text xml:space="preserve" text-anchor="middle" x="1767.82" y="-1065.66" font-family="Arial" font-size="9.00">22</text>
</g>
<!-- S3 -->
<g id="node3" class="node">
<title>S3</title>
<ellipse fill="#dbeafe" stroke="black" cx="975.45" cy="-868.89" rx="96.17" ry="31.11"/>
<text xml:space="preserve" text-anchor="middle" x="975.45" y="-877.39" font-family="Arial" font-size="10.00">C7</text>
<text xml:space="preserve" text-anchor="middle" x="975.45" y="-865.39" font-family="Arial" font-size="10.00">g=46,00 h=201,19 f=247,19</text>
<text xml:space="preserve" text-anchor="middle" x="975.45" y="-853.39" font-family="Arial" font-size="10.00">b=54% coletas=2</text>
</g>
<!-- S2&#45;&gt;S3 -->
<g id="edge2" class="edge">
<title>S2&#45;&gt;S3</title>
<path fill="none" stroke="#2563eb" stroke-width="2" d="M1342.55,-987.3C1275.72,-967.92 1172.89,-937.45 1084.45,-908.49 1073.46,-904.89 1061.88,-900.95 1050.55,-897.01"/>
<polygon fill="#2563eb" stroke="#2563eb" stroke-width="2" points="1051.84,-893.76 1041.25,-893.75 1049.53,-900.36 1051.84,-893.76"/>
<text xml:space="preserve" text-anchor="middle" x="1242.02" y="-944.94" font-family="Arial" font-size="9.00">escolhido</text>
<text xml:space="preserve" text-anchor="middle" x="1242.02" y="-934.44" font-family="Arial" font-size="9.00">25 + coleta</text>
</g>
<!-- A3 -->
<g id="node12" class="node">
<title>A3</title>
<ellipse fill="#dcfce7" stroke="#059669" cx="1194.45" cy="-868.89" rx="96.17" ry="39.6"/>
<text xml:space="preserve" text-anchor="middle" x="1194.45" y="-883.39" font-family="Arial" font-size="10.00">R2</text>
<text xml:space="preserve" text-anchor="middle" x="1194.45" y="-871.39" font-family="Arial" font-size="10.00">g=19,20 h=267,49 f=286,69</text>
<text xml:space="preserve" text-anchor="middle" x="1194.45" y="-859.39" font-family="Arial" font-size="10.00">b=82% coletas=1</text>
<text xml:space="preserve" text-anchor="middle" x="1194.45" y="-847.39" font-family="Arial" font-size="10.00">recarga</text>
</g>
<!-- S2&#45;&gt;A3 -->
<g id="edge11" class="edge">
<title>S2&#45;&gt;A3</title>
<path fill="none" stroke="#9ca3af" d="M1370.19,-980.39C1337.57,-959.89 1292.41,-931.49 1256.03,-908.61"/>
<polygon fill="#9ca3af" stroke="#9ca3af" points="1258.11,-905.79 1247.79,-903.43 1254.39,-911.71 1258.11,-905.79"/>
<text xml:space="preserve" text-anchor="middle" x="1346.82" y="-944.94" font-family="Arial" font-size="9.00">opcao</text>
<text xml:space="preserve" text-anchor="middle" x="1346.82" y="-934.44" font-family="Arial" font-size="9.00">recarga 0,2</text>
</g>
<!-- A4 -->
<g id="node13" class="node">
<title>A4</title>
<ellipse fill="#dcfce7" stroke="#059669" cx="1413.45" cy="-868.89" rx="96.17" ry="39.6"/>
<text xml:space="preserve" text-anchor="middle" x="1413.45" y="-883.39" font-family="Arial" font-size="10.00">R2</text>
<text xml:space="preserve" text-anchor="middle" x="1413.45" y="-871.39" font-family="Arial" font-size="10.00">g=19,60 h=267,49 f=287,09</text>
<text xml:space="preserve" text-anchor="middle" x="1413.45" y="-859.39" font-family="Arial" font-size="10.00">b=84% coletas=1</text>
<text xml:space="preserve" text-anchor="middle" x="1413.45" y="-847.39" font-family="Arial" font-size="10.00">recarga</text>
</g>
<!-- S2&#45;&gt;A4 -->
<g id="edge12" class="edge">
<title>S2&#45;&gt;A4</title>
<path fill="none" stroke="#9ca3af" d="M1413.45,-977.04C1413.45,-960.29 1413.45,-939.12 1413.45,-920.02"/>
<polygon fill="#9ca3af" stroke="#9ca3af" points="1416.95,-920.27 1413.45,-910.28 1409.95,-920.28 1416.95,-920.27"/>
<text xml:space="preserve" text-anchor="middle" x="1436.7" y="-944.94" font-family="Arial" font-size="9.00">opcao</text>
<text xml:space="preserve" text-anchor="middle" x="1436.7" y="-934.44" font-family="Arial" font-size="9.00">recarga 0,6</text>
</g>
<!-- A5 -->
<g id="node14" class="node">
<title>A5</title>
<ellipse fill="#dcfce7" stroke="#059669" cx="1632.45" cy="-868.89" rx="96.17" ry="39.6"/>
<text xml:space="preserve" text-anchor="middle" x="1632.45" y="-883.39" font-family="Arial" font-size="10.00">R2</text>
<text xml:space="preserve" text-anchor="middle" x="1632.45" y="-871.39" font-family="Arial" font-size="10.00">g=19,80 h=267,49 f=287,29</text>
<text xml:space="preserve" text-anchor="middle" x="1632.45" y="-859.39" font-family="Arial" font-size="10.00">b=85% coletas=1</text>
<text xml:space="preserve" text-anchor="middle" x="1632.45" y="-847.39" font-family="Arial" font-size="10.00">recarga</text>
</g>
<!-- S2&#45;&gt;A5 -->
<g id="edge13" class="edge">
<title>S2&#45;&gt;A5</title>
<path fill="none" stroke="#9ca3af" d="M1456.72,-980.39C1489.33,-959.89 1534.5,-931.49 1570.88,-908.61"/>
<polygon fill="#9ca3af" stroke="#9ca3af" points="1572.52,-911.71 1579.12,-903.43 1568.79,-905.79 1572.52,-911.71"/>
<text xml:space="preserve" text-anchor="middle" x="1552.77" y="-944.94" font-family="Arial" font-size="9.00">opcao</text>
<text xml:space="preserve" text-anchor="middle" x="1552.77" y="-934.44" font-family="Arial" font-size="9.00">recarga 0,8</text>
</g>
<!-- P2 -->
<g id="node15" class="node">
<title>P2</title>
<polygon fill="#fef3c7" stroke="#f59e0b" stroke-dasharray="5,2" points="1867.45,-896.89 1755.45,-896.89 1755.45,-840.89 1867.45,-840.89 1867.45,-896.89"/>
<text xml:space="preserve" text-anchor="middle" x="1811.45" y="-883.39" font-family="Arial" font-size="10.00" fill="#92400e">+4 ramos omitidos</text>
<text xml:space="preserve" text-anchor="middle" x="1811.45" y="-871.39" font-family="Arial" font-size="10.00" fill="#92400e">limite visual</text>
<text xml:space="preserve" text-anchor="middle" x="1811.45" y="-859.39" font-family="Arial" font-size="10.00" fill="#92400e">(estados gerados,</text>
<text xml:space="preserve" text-anchor="middle" x="1811.45" y="-847.39" font-family="Arial" font-size="10.00" fill="#92400e">mas nao desenhados)</text>
</g>
<!-- S2&#45;&gt;P2 -->
<g id="edge14" class="edge">
<title>S2&#45;&gt;P2</title>
<path fill="none" stroke="#d97706" stroke-dasharray="5,2" d="M1484.21,-987.18C1573.51,-961.26 1718.43,-918.68 1742.45,-908.49 1750.16,-905.22 1758.11,-901.32 1765.76,-897.27"/>
</g>
<!-- S4 -->
<g id="node4" class="node">
<title>S4</title>
<ellipse fill="#dbeafe" stroke="black" cx="647.45" cy="-729.18" rx="96.17" ry="31.11"/>
<text xml:space="preserve" text-anchor="middle" x="647.45" y="-737.68" font-family="Arial" font-size="10.00">C8</text>
<text xml:space="preserve" text-anchor="middle" x="647.45" y="-725.68" font-family="Arial" font-size="10.00">g=70,00 h=130,21 f=200,21</text>
<text xml:space="preserve" text-anchor="middle" x="647.45" y="-713.68" font-family="Arial" font-size="10.00">b=30% coletas=3</text>
</g>
<!-- S3&#45;&gt;S4 -->
<g id="edge3" class="edge">
<title>S3&#45;&gt;S4</title>
<path fill="none" stroke="#2563eb" stroke-width="2" d="M917.57,-843.59C861.65,-820.11 776.89,-784.52 717.26,-759.49"/>
<polygon fill="#2563eb" stroke="#2563eb" stroke-width="2" points="718.68,-756.29 708.1,-755.64 715.97,-762.74 718.68,-756.29"/>
<text xml:space="preserve" text-anchor="middle" x="843.79" y="-796.74" font-family="Arial" font-size="9.00">escolhido</text>
<text xml:space="preserve" text-anchor="middle" x="843.79" y="-786.24" font-family="Arial" font-size="9.00">22 + coleta</text>
</g>
<!-- A6 -->
<g id="node16" class="node">
<title>A6</title>
<ellipse fill="white" stroke="black" cx="866.45" cy="-729.18" rx="96.17" ry="31.11"/>
<text xml:space="preserve" text-anchor="middle" x="866.45" y="-737.68" font-family="Arial" font-size="10.00">C6</text>
<text xml:space="preserve" text-anchor="middle" x="866.45" y="-725.68" font-family="Arial" font-size="10.00">g=67,00 h=276,18 f=343,18</text>
<text xml:space="preserve" text-anchor="middle" x="866.45" y="-713.68" font-family="Arial" font-size="10.00">b=33% coletas=3</text>
</g>
<!-- S3&#45;&gt;A6 -->
<g id="edge15" class="edge">
<title>S3&#45;&gt;A6</title>
<path fill="none" stroke="#9ca3af" d="M952.07,-838.35C935.91,-817.93 914.25,-790.57 896.76,-768.47"/>
<polygon fill="#9ca3af" stroke="#9ca3af" points="899.69,-766.53 890.74,-760.86 894.2,-770.87 899.69,-766.53"/>
<text xml:space="preserve" text-anchor="middle" x="946.72" y="-796.74" font-family="Arial" font-size="9.00">opcao</text>
<text xml:space="preserve" text-anchor="middle" x="946.72" y="-786.24" font-family="Arial" font-size="9.00">19 + coleta</text>
</g>
<!-- A7 -->
<g id="node17" class="node">
<title>A7</title>
<ellipse fill="white" stroke="black" cx="1085.45" cy="-729.18" rx="96.17" ry="31.11"/>
<text xml:space="preserve" text-anchor="middle" x="1085.45" y="-737.68" font-family="Arial" font-size="10.00">R2</text>
<text xml:space="preserve" text-anchor="middle" x="1085.45" y="-725.68" font-family="Arial" font-size="10.00">g=71,00 h=280,98 f=351,98</text>
<text xml:space="preserve" text-anchor="middle" x="1085.45" y="-713.68" font-family="Arial" font-size="10.00">b=29% coletas=2</text>
</g>
<!-- S3&#45;&gt;A7 -->
<g id="edge16" class="edge">
<title>S3&#45;&gt;A7</title>
<path fill="none" stroke="#9ca3af" d="M999.05,-838.35C1015.36,-817.93 1037.22,-790.57 1054.87,-768.47"/>
<polygon fill="#9ca3af" stroke="#9ca3af" points="1057.44,-770.85 1060.95,-760.86 1051.98,-766.49 1057.44,-770.85"/>
<text xml:space="preserve" text-anchor="middle" x="1053.06" y="-796.74" font-family="Arial" font-size="9.00">opcao</text>
<text xml:space="preserve" text-anchor="middle" x="1053.06" y="-786.24" font-family="Arial" font-size="9.00">25</text>
</g>
<!-- A8 -->
<g id="node18" class="node">
<title>A8</title>
<ellipse fill="white" stroke="black" cx="1304.45" cy="-729.18" rx="96.17" ry="31.11"/>
<text xml:space="preserve" text-anchor="middle" x="1304.45" y="-737.68" font-family="Arial" font-size="10.00">C11</text>
<text xml:space="preserve" text-anchor="middle" x="1304.45" y="-725.68" font-family="Arial" font-size="10.00">g=73,00 h=281,61 f=354,61</text>
<text xml:space="preserve" text-anchor="middle" x="1304.45" y="-713.68" font-family="Arial" font-size="10.00">b=27% coletas=3</text>
</g>
<!-- S3&#45;&gt;A8 -->
<g id="edge17" class="edge">
<title>S3&#45;&gt;A8</title>
<path fill="none" stroke="#9ca3af" d="M1033.14,-843.75C1089.73,-820.06 1176.03,-783.94 1236.05,-758.81"/>
<polygon fill="#9ca3af" stroke="#9ca3af" points="1237.29,-762.09 1245.16,-755 1234.59,-755.63 1237.29,-762.09"/>
<text xml:space="preserve" text-anchor="middle" x="1191.92" y="-796.74" font-family="Arial" font-size="9.00">opcao</text>
<text xml:space="preserve" text-anchor="middle" x="1191.92" y="-786.24" font-family="Arial" font-size="9.00">25 + coleta</text>
</g>
<!-- S5 -->
<g id="node5" class="node">
<title>S5</title>
<ellipse fill="#dbeafe" stroke="black" cx="431.45" cy="-597.96" rx="96.17" ry="31.11"/>
<text xml:space="preserve" text-anchor="middle" x="431.45" y="-606.46" font-family="Arial" font-size="10.00">R5</text>
<text xml:space="preserve" text-anchor="middle" x="431.45" y="-594.46" font-family="Arial" font-size="10.00">g=88,00 h=159,55 f=247,55</text>
<text xml:space="preserve" text-anchor="middle" x="431.45" y="-582.46" font-family="Arial" font-size="10.00">b=12% coletas=3</text>
</g>
<!-- S4&#45;&gt;S5 -->
<g id="edge4" class="edge">
<title>S4&#45;&gt;S5</title>
<path fill="none" stroke="#2563eb" stroke-width="2" d="M602.44,-701.25C568.93,-681.2 523,-653.73 487.18,-632.3"/>
<polygon fill="#2563eb" stroke="#2563eb" stroke-width="2" points="489.39,-629.54 479.01,-627.41 485.8,-635.55 489.39,-629.54"/>
<text xml:space="preserve" text-anchor="middle" x="572.26" y="-665.52" font-family="Arial" font-size="9.00">escolhido</text>
<text xml:space="preserve" text-anchor="middle" x="572.26" y="-655.02" font-family="Arial" font-size="9.00">18</text>
</g>
<!-- A9 -->
<g id="node19" class="node">
<title>A9</title>
<ellipse fill="white" stroke="black" cx="647.45" cy="-597.96" rx="92.45" ry="31.11"/>
<text xml:space="preserve" text-anchor="middle" x="647.45" y="-606.46" font-family="Arial" font-size="10.00">C5</text>
<text xml:space="preserve" text-anchor="middle" x="647.45" y="-594.46" font-family="Arial" font-size="10.00">g=90,00 h=80,00 f=170,00</text>
<text xml:space="preserve" text-anchor="middle" x="647.45" y="-582.46" font-family="Arial" font-size="10.00">b=10% coletas=3</text>
</g>
<!-- S4&#45;&gt;A9 -->
<g id="edge18" class="edge">
<title>S4&#45;&gt;A9</title>
<path fill="none" stroke="#9ca3af" d="M647.45,-697.88C647.45,-680.91 647.45,-659.49 647.45,-640.93"/>
<polygon fill="#9ca3af" stroke="#9ca3af" points="650.95,-641.02 647.45,-631.02 643.95,-641.02 650.95,-641.02"/>
<text xml:space="preserve" text-anchor="middle" x="660.2" y="-665.52" font-family="Arial" font-size="9.00">opcao</text>
<text xml:space="preserve" text-anchor="middle" x="660.2" y="-655.02" font-family="Arial" font-size="9.00">20</text>
</g>
<!-- A10 -->
<g id="node20" class="node">
<title>A10</title>
<ellipse fill="white" stroke="black" cx="863.45" cy="-597.96" rx="96.17" ry="31.11"/>
<text xml:space="preserve" text-anchor="middle" x="863.45" y="-606.46" font-family="Arial" font-size="10.00">C7</text>
<text xml:space="preserve" text-anchor="middle" x="863.45" y="-594.46" font-family="Arial" font-size="10.00">g=92,00 h=222,43 f=314,43</text>
<text xml:space="preserve" text-anchor="middle" x="863.45" y="-582.46" font-family="Arial" font-size="10.00">b=8% coletas=3</text>
</g>
<!-- S4&#45;&gt;A10 -->
<g id="edge19" class="edge">
<title>S4&#45;&gt;A10</title>
<path fill="none" stroke="#9ca3af" d="M692.47,-701.25C726.26,-681.03 772.7,-653.25 808.65,-631.74"/>
<polygon fill="#9ca3af" stroke="#9ca3af" points="810.41,-634.77 817.2,-626.63 806.82,-628.76 810.41,-634.77"/>
<text xml:space="preserve" text-anchor="middle" x="781.14" y="-665.52" font-family="Arial" font-size="9.00">opcao</text>
<text xml:space="preserve" text-anchor="middle" x="781.14" y="-655.02" font-family="Arial" font-size="9.00">22</text>
</g>
<!-- S6 -->
<g id="node6" class="node">
<title>S6</title>
<ellipse fill="#dcfce7" stroke="#059669" cx="321.45" cy="-458.24" rx="96.17" ry="39.6"/>
<text xml:space="preserve" text-anchor="middle" x="321.45" y="-472.74" font-family="Arial" font-size="10.00">R5</text>
<text xml:space="preserve" text-anchor="middle" x="321.45" y="-460.74" font-family="Arial" font-size="10.00">g=98,00 h=142,13 f=240,13</text>
<text xml:space="preserve" text-anchor="middle" x="321.45" y="-448.74" font-family="Arial" font-size="10.00">b=62% coletas=3</text>
<text xml:space="preserve" text-anchor="middle" x="321.45" y="-436.74" font-family="Arial" font-size="10.00">recarga</text>
</g>
<!-- S5&#45;&gt;S6 -->
<g id="edge5" class="edge">
<title>S5&#45;&gt;S6</title>
<path fill="none" stroke="#2563eb" stroke-width="2" d="M407.86,-567.41C393.65,-549.63 375.25,-526.59 359.08,-506.35"/>
<polygon fill="#2563eb" stroke="#2563eb" stroke-width="2" points="361.97,-504.36 352.99,-498.73 356.5,-508.73 361.97,-504.36"/>
<text xml:space="preserve" text-anchor="middle" x="408.43" y="-534.29" font-family="Arial" font-size="9.00">escolhido</text>
<text xml:space="preserve" text-anchor="middle" x="408.43" y="-523.79" font-family="Arial" font-size="9.00">recarga 10</text>
</g>
<!-- S10 -->
<g id="node21" class="node">
<title>S10</title>
<ellipse fill="#dcfce7" stroke="#059669" stroke-dasharray="5,2" cx="540.45" cy="-458.24" rx="96.17" ry="39.6"/>
<text xml:space="preserve" text-anchor="middle" x="540.45" y="-472.74" font-family="Arial" font-size="10.00">R5</text>
<text xml:space="preserve" text-anchor="middle" x="540.45" y="-460.74" font-family="Arial" font-size="10.00">g=94,40 h=142,13 f=236,53</text>
<text xml:space="preserve" text-anchor="middle" x="540.45" y="-448.74" font-family="Arial" font-size="10.00">b=44% coletas=3</text>
<text xml:space="preserve" text-anchor="middle" x="540.45" y="-436.74" font-family="Arial" font-size="10.00">recarga</text>
</g>
<!-- S5&#45;&gt;S10 -->
<g id="edge20" class="edge">
<title>S5&#45;&gt;S10</title>
<path fill="none" stroke="#9ca3af" d="M454.84,-567.41C469.17,-549.31 487.82,-525.75 504.05,-505.24"/>
<polygon fill="#9ca3af" stroke="#9ca3af" points="506.67,-507.56 510.14,-497.55 501.18,-503.22 506.67,-507.56"/>
<text xml:space="preserve" text-anchor="middle" x="512.47" y="-534.29" font-family="Arial" font-size="9.00">opcao</text>
<text xml:space="preserve" text-anchor="middle" x="512.47" y="-523.79" font-family="Arial" font-size="9.00">recarga 6,4</text>
</g>
<!-- S7 -->
<g id="node7" class="node">
<title>S7</title>
<ellipse fill="#dbeafe" stroke="black" cx="208.45" cy="-318.53" rx="99.35" ry="31.11"/>
<text xml:space="preserve" text-anchor="middle" x="208.45" y="-327.03" font-family="Arial" font-size="10.00">C8</text>
<text xml:space="preserve" text-anchor="middle" x="208.45" y="-315.03" font-family="Arial" font-size="10.00">g=116,00 h=130,21 f=246,21</text>
<text xml:space="preserve" text-anchor="middle" x="208.45" y="-303.03" font-family="Arial" font-size="10.00">b=44% coletas=3</text>
</g>
<!-- S6&#45;&gt;S7 -->
<g id="edge6" class="edge">
<title>S6&#45;&gt;S7</title>
<path fill="none" stroke="#2563eb" stroke-width="2" d="M291.17,-420.34C275.66,-401.43 256.75,-378.39 240.93,-359.11"/>
<polygon fill="#2563eb" stroke="#2563eb" stroke-width="2" points="243.71,-356.98 234.66,-351.47 238.3,-361.42 243.71,-356.98"/>
<text xml:space="preserve" text-anchor="middle" x="288.22" y="-386.1" font-family="Arial" font-size="9.00">escolhido</text>
<text xml:space="preserve" text-anchor="middle" x="288.22" y="-375.6" font-family="Arial" font-size="9.00">18</text>
</g>
<!-- A11 -->
<g id="node22" class="node">
<title>A11</title>
<ellipse fill="white" stroke="black" cx="434.45" cy="-318.53" rx="99.88" ry="31.11"/>
<text xml:space="preserve" text-anchor="middle" x="434.45" y="-327.03" font-family="Arial" font-size="10.00">C12</text>
<text xml:space="preserve" text-anchor="middle" x="434.45" y="-315.03" font-family="Arial" font-size="10.00">g=122,00 h=206,60 f=328,60</text>
<text xml:space="preserve" text-anchor="middle" x="434.45" y="-303.03" font-family="Arial" font-size="10.00">b=38% coletas=3</text>
</g>
<!-- S6&#45;&gt;A11 -->
<g id="edge21" class="edge">
<title>S6&#45;&gt;A11</title>
<path fill="none" stroke="#9ca3af" d="M351.74,-420.34C367.61,-401 387.03,-377.33 403.07,-357.79"/>
<polygon fill="#9ca3af" stroke="#9ca3af" points="405.57,-360.25 409.21,-350.3 400.16,-355.81 405.57,-360.25"/>
<text xml:space="preserve" text-anchor="middle" x="400.83" y="-386.1" font-family="Arial" font-size="9.00">opcao</text>
<text xml:space="preserve" text-anchor="middle" x="400.83" y="-375.6" font-family="Arial" font-size="9.00">24</text>
</g>
<!-- S8 -->
<g id="node8" class="node">
<title>S8</title>
<ellipse fill="#dbeafe" stroke="black" cx="96.45" cy="-187.31" rx="96.17" ry="31.11"/>
<text xml:space="preserve" text-anchor="middle" x="96.45" y="-195.81" font-family="Arial" font-size="10.00">C5</text>
<text xml:space="preserve" text-anchor="middle" x="96.45" y="-183.81" font-family="Arial" font-size="10.00">g=136,00 h=74,16 f=210,16</text>
<text xml:space="preserve" text-anchor="middle" x="96.45" y="-171.81" font-family="Arial" font-size="10.00">b=24% coletas=3</text>
</g>
<!-- S7&#45;&gt;S8 -->
<g id="edge7" class="edge">
<title>S7&#45;&gt;S8</title>
<path fill="none" stroke="#2563eb" stroke-width="2" d="M183.04,-288.21C167.43,-270.2 147.25,-246.92 130.3,-227.36"/>
<polygon fill="#2563eb" stroke="#2563eb" stroke-width="2" points="132.95,-225.07 123.75,-219.8 127.66,-229.65 132.95,-225.07"/>
<text xml:space="preserve" text-anchor="middle" x="179.03" y="-254.87" font-family="Arial" font-size="9.00">escolhido</text>
<text xml:space="preserve" text-anchor="middle" x="179.03" y="-244.37" font-family="Arial" font-size="9.00">20</text>
</g>
<!-- A12 -->
<g id="node23" class="node">
<title>A12</title>
<ellipse fill="white" stroke="black" cx="319.45" cy="-187.31" rx="99.88" ry="31.11"/>
<text xml:space="preserve" text-anchor="middle" x="319.45" y="-195.81" font-family="Arial" font-size="10.00">C7</text>
<text xml:space="preserve" text-anchor="middle" x="319.45" y="-183.81" font-family="Arial" font-size="10.00">g=138,00 h=208,43 f=346,43</text>
<text xml:space="preserve" text-anchor="middle" x="319.45" y="-171.81" font-family="Arial" font-size="10.00">b=22% coletas=3</text>
</g>
<!-- S7&#45;&gt;A12 -->
<g id="edge22" class="edge">
<title>S7&#45;&gt;A12</title>
<path fill="none" stroke="#9ca3af" d="M233.64,-288.21C249.47,-269.79 270.03,-245.85 287.06,-226.02"/>
<polygon fill="#9ca3af" stroke="#9ca3af" points="289.52,-228.53 293.38,-218.66 284.21,-223.97 289.52,-228.53"/>
<text xml:space="preserve" text-anchor="middle" x="283.35" y="-254.87" font-family="Arial" font-size="9.00">opcao</text>
<text xml:space="preserve" text-anchor="middle" x="283.35" y="-244.37" font-family="Arial" font-size="9.00">22</text>
</g>
<!-- S9 -->
<g id="node9" class="node">
<title>S9</title>
<ellipse fill="#b6f2b6" stroke="black" cx="96.45" cy="-43.6" rx="92.45" ry="39.6"/>
<ellipse fill="none" stroke="black" cx="96.45" cy="-43.6" rx="96.45" ry="43.6"/>
<text xml:space="preserve" text-anchor="middle" x="96.45" y="-58.1" font-family="Arial" font-size="10.00">OBJETIVO</text>
<text xml:space="preserve" text-anchor="middle" x="96.45" y="-46.1" font-family="Arial" font-size="10.00">C3</text>
<text xml:space="preserve" text-anchor="middle" x="96.45" y="-34.1" font-family="Arial" font-size="10.00">g=159,00 h=0,00 f=159,00</text>
<text xml:space="preserve" text-anchor="middle" x="96.45" y="-22.1" font-family="Arial" font-size="10.00">b=1% coletas=3</text>
</g>
<!-- S8&#45;&gt;S9 -->
<g id="edge8" class="edge">
<title>S8&#45;&gt;S9</title>
<path fill="none" stroke="#2563eb" stroke-width="2" d="M96.45,-155.91C96.45,-139.72 96.45,-119.29 96.45,-100.37"/>
<polygon fill="#2563eb" stroke="#2563eb" stroke-width="2" points="99.95,-100.61 96.45,-90.61 92.95,-100.61 99.95,-100.61"/>
<text xml:space="preserve" text-anchor="middle" x="116.33" y="-123.65" font-family="Arial" font-size="9.00">escolhido</text>
<text xml:space="preserve" text-anchor="middle" x="116.33" y="-113.15" font-family="Arial" font-size="9.00">23</text>
</g>
<!-- legend_solution -->
<g id="node24" class="node">
<title>legend_solution</title>
<polygon fill="#dbeafe" stroke="black" points="1891.33,-1157.83 1751.58,-1157.83 1751.58,-1121.83 1891.33,-1121.83 1891.33,-1157.83"/>
<text xml:space="preserve" text-anchor="middle" x="1821.45" y="-1141.78" font-family="Arial" font-size="9.00">Estado no caminho escolhido</text>
<text xml:space="preserve" text-anchor="middle" x="1821.45" y="-1131.28" font-family="Arial" font-size="9.00">arestas azuis ligam a rota final</text>
</g>
<!-- legend_recharge -->
<g id="node25" class="node">
<title>legend_recharge</title>
<polygon fill="#dcfce7" stroke="#059669" points="2056.95,-1157.83 1917.95,-1157.83 1917.95,-1121.83 2056.95,-1121.83 2056.95,-1157.83"/>
<text xml:space="preserve" text-anchor="middle" x="1987.45" y="-1141.78" font-family="Arial" font-size="9.00">Acao de recarga executada</text>
<text xml:space="preserve" text-anchor="middle" x="1987.45" y="-1131.28" font-family="Arial" font-size="9.00">recarga tambem entra em g(s)</text>
</g>
<!-- legend_goal -->
<g id="node26" class="node">
<title>legend_goal</title>
<polygon fill="#b6f2b6" stroke="black" points="2174.7,-1157.83 2088.2,-1157.83 2088.2,-1121.83 2174.7,-1121.83 2174.7,-1157.83"/>
<polygon fill="none" stroke="black" points="2178.7,-1161.83 2084.2,-1161.83 2084.2,-1117.83 2178.7,-1117.83 2178.7,-1161.83"/>
<text xml:space="preserve" text-anchor="middle" x="2131.45" y="-1136.53" font-family="Arial" font-size="9.00">Destino / objetivo</text>
</g>
<!-- legend_expanded -->
<g id="node27" class="node">
<title>legend_expanded</title>
<polygon fill="#e5e7eb" stroke="black" points="2369.33,-1157.83 2205.58,-1157.83 2205.58,-1121.83 2369.33,-1121.83 2369.33,-1157.83"/>
<text xml:space="preserve" text-anchor="middle" x="2287.45" y="-1141.78" font-family="Arial" font-size="9.00">Expandido / Closed</text>
<text xml:space="preserve" text-anchor="middle" x="2287.45" y="-1131.28" font-family="Arial" font-size="9.00">(filhos nao desenhados nesta visao)</text>
</g>
<!-- legend_open -->
<g id="node28" class="node">
<title>legend_open</title>
<polygon fill="white" stroke="black" points="2542.33,-1157.83 2396.58,-1157.83 2396.58,-1121.83 2542.33,-1121.83 2542.33,-1157.83"/>
<text xml:space="preserve" text-anchor="middle" x="2469.45" y="-1141.78" font-family="Arial" font-size="9.00">Gerado / Open</text>
<text xml:space="preserve" text-anchor="middle" x="2469.45" y="-1131.28" font-family="Arial" font-size="9.00">candidato ainda nao expandido</text>
</g>
<!-- legend_alternative -->
<g id="node29" class="node">
<title>legend_alternative</title>
<polygon fill="white" stroke="black" points="2677.58,-1157.83 2569.33,-1157.83 2569.33,-1121.83 2677.58,-1121.83 2677.58,-1157.83"/>
<text xml:space="preserve" text-anchor="middle" x="2623.45" y="-1141.78" font-family="Arial" font-size="9.00">Alternativa desenhada</text>
<text xml:space="preserve" text-anchor="middle" x="2623.45" y="-1131.28" font-family="Arial" font-size="9.00">aresta cinza</text>
</g>
<!-- legend_pruned -->
<g id="node30" class="node">
<title>legend_pruned</title>
<polygon fill="#fef3c7" stroke="black" points="2894.45,-1170.08 2704.45,-1170.08 2704.45,-1109.58 2894.45,-1109.58 2894.45,-1170.08"/>
<text xml:space="preserve" text-anchor="middle" x="2799.45" y="-1157.53" font-family="Arial" font-size="9.00">Ramos omitidos por limite visual:</text>
<text xml:space="preserve" text-anchor="middle" x="2799.45" y="-1147.03" font-family="Arial" font-size="9.00">estados gerados na execucao,</text>
<text xml:space="preserve" text-anchor="middle" x="2799.45" y="-1136.53" font-family="Arial" font-size="9.00">mas ocultados para evitar arvore ilegivel.</text>
<text xml:space="preserve" text-anchor="middle" x="2799.45" y="-1126.03" font-family="Arial" font-size="9.00">Nao e poda do algoritmo;</text>
<text xml:space="preserve" text-anchor="middle" x="2799.45" y="-1115.53" font-family="Arial" font-size="9.00">Open/Closed e metricas reais nao mudam.</text>
</g>
</g>
</svg>
