<?xml version="1.0" encoding="UTF-8" standalone="no"?>
<!DOCTYPE svg PUBLIC "-//W3C//DTD SVG 1.1//EN"
 "http://www.w3.org/Graphics/SVG/1.1/DTD/svg11.dtd">
<!-- Generated by graphviz version 15.0.0 (20260523.1842)
 -->
<!-- Title: ArvoreBuscaAStar Pages: 1 -->
<svg width="3267pt" height="1648pt"
 viewBox="0.00 0.00 3267.00 1648.00" xmlns="http://www.w3.org/2000/svg" xmlns:xlink="http://www.w3.org/1999/xlink">
<g id="graph0" class="graph" transform="scale(1 1) rotate(0) translate(4 1644.47)">
<title>ArvoreBuscaAStar</title>
<polygon fill="white" stroke="none" points="-4,4 -4,-1644.47 3262.88,-1644.47 3262.88,4 -4,4"/>
<text xml:space="preserve" text-anchor="middle" x="1629.44" y="-1625.07" font-family="Arial" font-size="12.00">Arvore focada compactada: mostra o caminho escolhido e algumas alternativas imediatas. Ramos omitidos sao limite visual, nao poda do A*.</text>
<g id="clust1" class="cluster">
<title>cluster_legend</title>
<polygon fill="none" stroke="#cccccc" points="2091.88,-1512.22 2091.88,-1610.22 3250.88,-1610.22 3250.88,-1512.22 2091.88,-1512.22"/>
<text xml:space="preserve" text-anchor="middle" x="2671.38" y="-1595.77" font-family="Arial" font-size="11.00">Legenda</text>
</g>
<!-- S1 -->
<g id="node1" class="node">
<title>S1</title>
<ellipse fill="#dbeafe" stroke="black" cx="1980.88" cy="-1550.47" rx="92.45" ry="31.11"/>
<text xml:space="preserve" text-anchor="middle" x="1980.88" y="-1558.97" font-family="Arial" font-size="10.00">C1</text>
<text xml:space="preserve" text-anchor="middle" x="1980.88" y="-1546.97" font-family="Arial" font-size="10.00">g=2,00 h=447,00 f=449,00</text>
<text xml:space="preserve" text-anchor="middle" x="1980.88" y="-1534.97" font-family="Arial" font-size="10.00">b=98% coletas=1</text>
</g>
<!-- S2 -->
<g id="node2" class="node">
<title>S2</title>
<ellipse fill="#dbeafe" stroke="black" cx="1870.88" cy="-1419.25" rx="96.17" ry="31.11"/>
<text xml:space="preserve" text-anchor="middle" x="1870.88" y="-1427.75" font-family="Arial" font-size="10.00">R1</text>
<text xml:space="preserve" text-anchor="middle" x="1870.88" y="-1415.75" font-family="Arial" font-size="10.00">g=20,00 h=409,74 f=429,74</text>
<text xml:space="preserve" text-anchor="middle" x="1870.88" y="-1403.75" font-family="Arial" font-size="10.00">b=80% coletas=1</text>
</g>
<!-- S1&#45;&gt;S2 -->
<g id="edge1" class="edge">
<title>S1&#45;&gt;S2</title>
<path fill="none" stroke="#2563eb" stroke-width="2" d="M1955.92,-1520.15C1940.59,-1502.14 1920.77,-1478.86 1904.12,-1459.3"/>
<polygon fill="#2563eb" stroke="#2563eb" stroke-width="2" points="1906.85,-1457.11 1897.7,-1451.76 1901.52,-1461.64 1906.85,-1457.11"/>
<text xml:space="preserve" text-anchor="middle" x="1952.34" y="-1486.81" font-family="Arial" font-size="9.00">escolhido</text>
<text xml:space="preserve" text-anchor="middle" x="1952.34" y="-1476.31" font-family="Arial" font-size="9.00">18</text>
</g>
<!-- A1 -->
<g id="node13" class="node">
<title>A1</title>
<ellipse fill="white" stroke="black" cx="2089.88" cy="-1419.25" rx="96.17" ry="31.11"/>
<text xml:space="preserve" text-anchor="middle" x="2089.88" y="-1427.75" font-family="Arial" font-size="10.00">C9</text>
<text xml:space="preserve" text-anchor="middle" x="2089.88" y="-1415.75" font-family="Arial" font-size="10.00">g=28,00 h=435,53 f=463,53</text>
<text xml:space="preserve" text-anchor="middle" x="2089.88" y="-1403.75" font-family="Arial" font-size="10.00">b=72% coletas=2</text>
</g>
<!-- S1&#45;&gt;A1 -->
<g id="edge12" class="edge">
<title>S1&#45;&gt;A1</title>
<path fill="none" stroke="#9ca3af" d="M2005.61,-1520.15C2021.08,-1501.81 2041.17,-1478 2057.85,-1458.22"/>
<polygon fill="#9ca3af" stroke="#9ca3af" points="2060.49,-1460.51 2064.27,-1450.61 2055.14,-1456 2060.49,-1460.51"/>
<text xml:space="preserve" text-anchor="middle" x="2064.4" y="-1486.81" font-family="Arial" font-size="9.00">opcao</text>
<text xml:space="preserve" text-anchor="middle" x="2064.4" y="-1476.31" font-family="Arial" font-size="9.00">24 + coleta</text>
</g>
<!-- S3 -->
<g id="node3" class="node">
<title>S3</title>
<ellipse fill="#dbeafe" stroke="black" cx="1432.88" cy="-1279.54" rx="96.17" ry="31.11"/>
<text xml:space="preserve" text-anchor="middle" x="1432.88" y="-1288.04" font-family="Arial" font-size="10.00">C4</text>
<text xml:space="preserve" text-anchor="middle" x="1432.88" y="-1276.04" font-family="Arial" font-size="10.00">g=44,00 h=346,13 f=390,13</text>
<text xml:space="preserve" text-anchor="middle" x="1432.88" y="-1264.04" font-family="Arial" font-size="10.00">b=56% coletas=2</text>
</g>
<!-- S2&#45;&gt;S3 -->
<g id="edge2" class="edge">
<title>S2&#45;&gt;S3</title>
<path fill="none" stroke="#2563eb" stroke-width="2" d="M1799.98,-1397.95C1733.14,-1378.57 1630.32,-1348.1 1541.88,-1319.14 1530.88,-1315.53 1519.31,-1311.6 1507.98,-1307.66"/>
<polygon fill="#2563eb" stroke="#2563eb" stroke-width="2" points="1509.27,-1304.4 1498.67,-1304.4 1506.96,-1311.01 1509.27,-1304.4"/>
<text xml:space="preserve" text-anchor="middle" x="1699.44" y="-1355.59" font-family="Arial" font-size="9.00">escolhido</text>
<text xml:space="preserve" text-anchor="middle" x="1699.44" y="-1345.09" font-family="Arial" font-size="9.00">22 + coleta</text>
</g>
<!-- A2 -->
<g id="node14" class="node">
<title>A2</title>
<ellipse fill="#dcfce7" stroke="#059669" cx="1651.88" cy="-1279.54" rx="96.17" ry="39.6"/>
<text xml:space="preserve" text-anchor="middle" x="1651.88" y="-1294.04" font-family="Arial" font-size="10.00">R1</text>
<text xml:space="preserve" text-anchor="middle" x="1651.88" y="-1282.04" font-family="Arial" font-size="10.00">g=22,00 h=407,28 f=429,28</text>
<text xml:space="preserve" text-anchor="middle" x="1651.88" y="-1270.04" font-family="Arial" font-size="10.00">b=90% coletas=1</text>
<text xml:space="preserve" text-anchor="middle" x="1651.88" y="-1258.04" font-family="Arial" font-size="10.00">recarga</text>
</g>
<!-- S2&#45;&gt;A2 -->
<g id="edge13" class="edge">
<title>S2&#45;&gt;A2</title>
<path fill="none" stroke="#9ca3af" d="M1827.61,-1391.04C1795,-1370.53 1749.83,-1342.13 1713.45,-1319.26"/>
<polygon fill="#9ca3af" stroke="#9ca3af" points="1715.54,-1316.43 1705.21,-1314.07 1711.81,-1322.36 1715.54,-1316.43"/>
<text xml:space="preserve" text-anchor="middle" x="1800.49" y="-1355.59" font-family="Arial" font-size="9.00">opcao</text>
<text xml:space="preserve" text-anchor="middle" x="1800.49" y="-1345.09" font-family="Arial" font-size="9.00">recarga 2</text>
</g>
<!-- A3 -->
<g id="node15" class="node">
<title>A3</title>
<ellipse fill="#dcfce7" stroke="#059669" cx="1870.88" cy="-1279.54" rx="96.17" ry="39.6"/>
<text xml:space="preserve" text-anchor="middle" x="1870.88" y="-1294.04" font-family="Arial" font-size="10.00">R1</text>
<text xml:space="preserve" text-anchor="middle" x="1870.88" y="-1282.04" font-family="Arial" font-size="10.00">g=22,40 h=407,28 f=429,68</text>
<text xml:space="preserve" text-anchor="middle" x="1870.88" y="-1270.04" font-family="Arial" font-size="10.00">b=92% coletas=1</text>
<text xml:space="preserve" text-anchor="middle" x="1870.88" y="-1258.04" font-family="Arial" font-size="10.00">recarga</text>
</g>
<!-- S2&#45;&gt;A3 -->
<g id="edge14" class="edge">
<title>S2&#45;&gt;A3</title>
<path fill="none" stroke="#9ca3af" d="M1870.88,-1387.69C1870.88,-1370.94 1870.88,-1349.76 1870.88,-1330.67"/>
<polygon fill="#9ca3af" stroke="#9ca3af" points="1874.38,-1330.92 1870.88,-1320.92 1867.38,-1330.92 1874.38,-1330.92"/>
<text xml:space="preserve" text-anchor="middle" x="1894.13" y="-1355.59" font-family="Arial" font-size="9.00">opcao</text>
<text xml:space="preserve" text-anchor="middle" x="1894.13" y="-1345.09" font-family="Arial" font-size="9.00">recarga 2,4</text>
</g>
<!-- A4 -->
<g id="node16" class="node">
<title>A4</title>
<ellipse fill="#dcfce7" stroke="#059669" cx="2089.88" cy="-1279.54" rx="96.17" ry="39.6"/>
<text xml:space="preserve" text-anchor="middle" x="2089.88" y="-1294.04" font-family="Arial" font-size="10.00">R1</text>
<text xml:space="preserve" text-anchor="middle" x="2089.88" y="-1282.04" font-family="Arial" font-size="10.00">g=23,20 h=407,28 f=430,48</text>
<text xml:space="preserve" text-anchor="middle" x="2089.88" y="-1270.04" font-family="Arial" font-size="10.00">b=96% coletas=1</text>
<text xml:space="preserve" text-anchor="middle" x="2089.88" y="-1258.04" font-family="Arial" font-size="10.00">recarga</text>
</g>
<!-- S2&#45;&gt;A4 -->
<g id="edge15" class="edge">
<title>S2&#45;&gt;A4</title>
<path fill="none" stroke="#9ca3af" d="M1914.15,-1391.04C1946.76,-1370.53 1991.93,-1342.13 2028.3,-1319.26"/>
<polygon fill="#9ca3af" stroke="#9ca3af" points="2029.95,-1322.36 2036.55,-1314.07 2026.22,-1316.43 2029.95,-1322.36"/>
<text xml:space="preserve" text-anchor="middle" x="2010.2" y="-1355.59" font-family="Arial" font-size="9.00">opcao</text>
<text xml:space="preserve" text-anchor="middle" x="2010.2" y="-1345.09" font-family="Arial" font-size="9.00">recarga 3,2</text>
</g>
<!-- P2 -->
<g id="node17" class="node">
<title>P2</title>
<polygon fill="#fef3c7" stroke="#f59e0b" stroke-dasharray="5,2" points="2324.88,-1307.54 2212.88,-1307.54 2212.88,-1251.54 2324.88,-1251.54 2324.88,-1307.54"/>
<text xml:space="preserve" text-anchor="middle" x="2268.88" y="-1294.04" font-family="Arial" font-size="10.00" fill="#92400e">+2 ramos omitidos</text>
<text xml:space="preserve" text-anchor="middle" x="2268.88" y="-1282.04" font-family="Arial" font-size="10.00" fill="#92400e">limite visual</text>
<text xml:space="preserve" text-anchor="middle" x="2268.88" y="-1270.04" font-family="Arial" font-size="10.00" fill="#92400e">(estados gerados,</text>
<text xml:space="preserve" text-anchor="middle" x="2268.88" y="-1258.04" font-family="Arial" font-size="10.00" fill="#92400e">mas nao desenhados)</text>
</g>
<!-- S2&#45;&gt;P2 -->
<g id="edge16" class="edge">
<title>S2&#45;&gt;P2</title>
<path fill="none" stroke="#d97706" stroke-dasharray="5,2" d="M1941.63,-1397.82C2030.93,-1371.9 2175.85,-1329.33 2199.88,-1319.14 2207.59,-1315.87 2215.54,-1311.96 2223.18,-1307.91"/>
</g>
<!-- S4 -->
<g id="node4" class="node">
<title>S4</title>
<ellipse fill="#dbeafe" stroke="black" cx="1213.88" cy="-1139.83" rx="96.17" ry="31.11"/>
<text xml:space="preserve" text-anchor="middle" x="1213.88" y="-1148.33" font-family="Arial" font-size="10.00">R2</text>
<text xml:space="preserve" text-anchor="middle" x="1213.88" y="-1136.33" font-family="Arial" font-size="10.00">g=61,00 h=270,98 f=331,98</text>
<text xml:space="preserve" text-anchor="middle" x="1213.88" y="-1124.33" font-family="Arial" font-size="10.00">b=39% coletas=2</text>
</g>
<!-- S3&#45;&gt;S4 -->
<g id="edge3" class="edge">
<title>S3&#45;&gt;S4</title>
<path fill="none" stroke="#2563eb" stroke-width="2" d="M1389.61,-1251.33C1354.67,-1229.36 1305.31,-1198.32 1267.79,-1174.73"/>
<polygon fill="#2563eb" stroke="#2563eb" stroke-width="2" points="1269.95,-1171.95 1259.62,-1169.59 1266.22,-1177.88 1269.95,-1171.95"/>
<text xml:space="preserve" text-anchor="middle" x="1349.82" y="-1207.39" font-family="Arial" font-size="9.00">escolhido</text>
<text xml:space="preserve" text-anchor="middle" x="1349.82" y="-1196.89" font-family="Arial" font-size="9.00">17</text>
</g>
<!-- A5 -->
<g id="node18" class="node">
<title>A5</title>
<ellipse fill="white" stroke="black" cx="1432.88" cy="-1139.83" rx="96.17" ry="31.11"/>
<text xml:space="preserve" text-anchor="middle" x="1432.88" y="-1148.33" font-family="Arial" font-size="10.00">C10</text>
<text xml:space="preserve" text-anchor="middle" x="1432.88" y="-1136.33" font-family="Arial" font-size="10.00">g=72,00 h=352,49 f=424,49</text>
<text xml:space="preserve" text-anchor="middle" x="1432.88" y="-1124.33" font-family="Arial" font-size="10.00">b=28% coletas=3</text>
</g>
<!-- S3&#45;&gt;A5 -->
<g id="edge17" class="edge">
<title>S3&#45;&gt;A5</title>
<path fill="none" stroke="#9ca3af" d="M1432.88,-1247.98C1432.88,-1228.72 1432.88,-1203.61 1432.88,-1182.53"/>
<polygon fill="#9ca3af" stroke="#9ca3af" points="1436.38,-1182.82 1432.88,-1172.82 1429.38,-1182.82 1436.38,-1182.82"/>
<text xml:space="preserve" text-anchor="middle" x="1455.38" y="-1207.39" font-family="Arial" font-size="9.00">opcao</text>
<text xml:space="preserve" text-anchor="middle" x="1455.38" y="-1196.89" font-family="Arial" font-size="9.00">26 + coleta</text>
</g>
<!-- A6 -->
<g id="node19" class="node">
<title>A6</title>
<ellipse fill="white" stroke="black" cx="1651.88" cy="-1139.83" rx="96.17" ry="31.11"/>
<text xml:space="preserve" text-anchor="middle" x="1651.88" y="-1148.33" font-family="Arial" font-size="10.00">R1</text>
<text xml:space="preserve" text-anchor="middle" x="1651.88" y="-1136.33" font-family="Arial" font-size="10.00">g=66,00 h=443,74 f=509,74</text>
<text xml:space="preserve" text-anchor="middle" x="1651.88" y="-1124.33" font-family="Arial" font-size="10.00">b=34% coletas=2</text>
</g>
<!-- S3&#45;&gt;A6 -->
<g id="edge18" class="edge">
<title>S3&#45;&gt;A6</title>
<path fill="none" stroke="#9ca3af" d="M1476.15,-1251.33C1511.54,-1229.07 1561.72,-1197.52 1599.41,-1173.82"/>
<polygon fill="#9ca3af" stroke="#9ca3af" points="1600.82,-1177.07 1607.42,-1168.78 1597.09,-1171.14 1600.82,-1177.07"/>
<text xml:space="preserve" text-anchor="middle" x="1574.74" y="-1207.39" font-family="Arial" font-size="9.00">opcao</text>
<text xml:space="preserve" text-anchor="middle" x="1574.74" y="-1196.89" font-family="Arial" font-size="9.00">22</text>
</g>
<!-- S5 -->
<g id="node5" class="node">
<title>S5</title>
<ellipse fill="#dcfce7" stroke="#059669" cx="775.88" cy="-1000.12" rx="96.17" ry="39.6"/>
<text xml:space="preserve" text-anchor="middle" x="775.88" y="-1014.62" font-family="Arial" font-size="10.00">R2</text>
<text xml:space="preserve" text-anchor="middle" x="775.88" y="-1002.62" font-family="Arial" font-size="10.00">g=66,80 h=257,49 f=324,29</text>
<text xml:space="preserve" text-anchor="middle" x="775.88" y="-990.62" font-family="Arial" font-size="10.00">b=68% coletas=2</text>
<text xml:space="preserve" text-anchor="middle" x="775.88" y="-978.62" font-family="Arial" font-size="10.00">recarga</text>
</g>
<!-- S4&#45;&gt;S5 -->
<g id="edge4" class="edge">
<title>S4&#45;&gt;S5</title>
<path fill="none" stroke="#2563eb" stroke-width="2" d="M1142.98,-1118.53C1076.14,-1099.15 973.32,-1068.68 884.88,-1039.71 876.58,-1037 867.95,-1034.09 859.35,-1031.13"/>
<polygon fill="#2563eb" stroke="#2563eb" stroke-width="2" points="860.7,-1027.89 850.1,-1027.93 858.41,-1034.51 860.7,-1027.89"/>
<text xml:space="preserve" text-anchor="middle" x="1043.19" y="-1076.16" font-family="Arial" font-size="9.00">escolhido</text>
<text xml:space="preserve" text-anchor="middle" x="1043.19" y="-1065.66" font-family="Arial" font-size="9.00">recarga 5,8</text>
</g>
<!-- A7 -->
<g id="node20" class="node">
<title>A7</title>
<ellipse fill="white" stroke="black" cx="994.88" cy="-1000.12" rx="96.17" ry="31.11"/>
<text xml:space="preserve" text-anchor="middle" x="994.88" y="-1008.62" font-family="Arial" font-size="10.00">C7</text>
<text xml:space="preserve" text-anchor="middle" x="994.88" y="-996.62" font-family="Arial" font-size="10.00">g=88,00 h=218,43 f=306,43</text>
<text xml:space="preserve" text-anchor="middle" x="994.88" y="-984.62" font-family="Arial" font-size="10.00">b=12% coletas=3</text>
</g>
<!-- S4&#45;&gt;A7 -->
<g id="edge19" class="edge">
<title>S4&#45;&gt;A7</title>
<path fill="none" stroke="#9ca3af" d="M1170.61,-1111.62C1135.22,-1089.36 1085.03,-1057.81 1047.35,-1034.11"/>
<polygon fill="#9ca3af" stroke="#9ca3af" points="1049.67,-1031.43 1039.34,-1029.07 1045.94,-1037.36 1049.67,-1031.43"/>
<text xml:space="preserve" text-anchor="middle" x="1146.49" y="-1076.16" font-family="Arial" font-size="9.00">opcao</text>
<text xml:space="preserve" text-anchor="middle" x="1146.49" y="-1065.66" font-family="Arial" font-size="9.00">25 + coleta</text>
</g>
<!-- S13 -->
<g id="node21" class="node">
<title>S13</title>
<ellipse fill="#dcfce7" stroke="#059669" stroke-dasharray="5,2" cx="1213.88" cy="-1000.12" rx="96.17" ry="39.6"/>
<text xml:space="preserve" text-anchor="middle" x="1213.88" y="-1014.62" font-family="Arial" font-size="10.00">R2</text>
<text xml:space="preserve" text-anchor="middle" x="1213.88" y="-1002.62" font-family="Arial" font-size="10.00">g=65,20 h=257,49 f=322,69</text>
<text xml:space="preserve" text-anchor="middle" x="1213.88" y="-990.62" font-family="Arial" font-size="10.00">b=60% coletas=2</text>
<text xml:space="preserve" text-anchor="middle" x="1213.88" y="-978.62" font-family="Arial" font-size="10.00">recarga</text>
</g>
<!-- S4&#45;&gt;S13 -->
<g id="edge20" class="edge">
<title>S4&#45;&gt;S13</title>
<path fill="none" stroke="#9ca3af" d="M1213.88,-1108.27C1213.88,-1091.52 1213.88,-1070.34 1213.88,-1051.24"/>
<polygon fill="#9ca3af" stroke="#9ca3af" points="1217.38,-1051.5 1213.88,-1041.5 1210.38,-1051.5 1217.38,-1051.5"/>
<text xml:space="preserve" text-anchor="middle" x="1237.13" y="-1076.16" font-family="Arial" font-size="9.00">opcao</text>
<text xml:space="preserve" text-anchor="middle" x="1237.13" y="-1065.66" font-family="Arial" font-size="9.00">recarga 4,2</text>
</g>
<!-- A8 -->
<g id="node22" class="node">
<title>A8</title>
<ellipse fill="#dcfce7" stroke="#059669" cx="1432.88" cy="-1000.12" rx="96.17" ry="39.6"/>
<text xml:space="preserve" text-anchor="middle" x="1432.88" y="-1014.62" font-family="Arial" font-size="10.00">R2</text>
<text xml:space="preserve" text-anchor="middle" x="1432.88" y="-1002.62" font-family="Arial" font-size="10.00">g=67,20 h=257,49 f=324,69</text>
<text xml:space="preserve" text-anchor="middle" x="1432.88" y="-990.62" font-family="Arial" font-size="10.00">b=70% coletas=2</text>
<text xml:space="preserve" text-anchor="middle" x="1432.88" y="-978.62" font-family="Arial" font-size="10.00">recarga</text>
</g>
<!-- S4&#45;&gt;A8 -->
<g id="edge21" class="edge">
<title>S4&#45;&gt;A8</title>
<path fill="none" stroke="#9ca3af" d="M1257.15,-1111.62C1289.76,-1091.11 1334.93,-1062.71 1371.3,-1039.84"/>
<polygon fill="#9ca3af" stroke="#9ca3af" points="1372.95,-1042.94 1379.55,-1034.65 1369.22,-1037.01 1372.95,-1042.94"/>
<text xml:space="preserve" text-anchor="middle" x="1353.2" y="-1076.16" font-family="Arial" font-size="9.00">opcao</text>
<text xml:space="preserve" text-anchor="middle" x="1353.2" y="-1065.66" font-family="Arial" font-size="9.00">recarga 6,2</text>
</g>
<!-- P4 -->
<g id="node23" class="node">
<title>P4</title>
<polygon fill="#fef3c7" stroke="#f59e0b" stroke-dasharray="5,2" points="1667.88,-1028.12 1555.88,-1028.12 1555.88,-972.12 1667.88,-972.12 1667.88,-1028.12"/>
<text xml:space="preserve" text-anchor="middle" x="1611.88" y="-1014.62" font-family="Arial" font-size="10.00" fill="#92400e">+8 ramos omitidos</text>
<text xml:space="preserve" text-anchor="middle" x="1611.88" y="-1002.62" font-family="Arial" font-size="10.00" fill="#92400e">limite visual</text>
<text xml:space="preserve" text-anchor="middle" x="1611.88" y="-990.62" font-family="Arial" font-size="10.00" fill="#92400e">(estados gerados,</text>
<text xml:space="preserve" text-anchor="middle" x="1611.88" y="-978.62" font-family="Arial" font-size="10.00" fill="#92400e">mas nao desenhados)</text>
</g>
<!-- S4&#45;&gt;P4 -->
<g id="edge22" class="edge">
<title>S4&#45;&gt;P4</title>
<path fill="none" stroke="#d97706" stroke-dasharray="5,2" d="M1284.63,-1118.4C1373.93,-1092.48 1518.85,-1049.91 1542.88,-1039.71 1550.59,-1036.44 1558.54,-1032.54 1566.18,-1028.49"/>
</g>
<!-- S6 -->
<g id="node6" class="node">
<title>S6</title>
<ellipse fill="#dbeafe" stroke="black" cx="666.88" cy="-860.41" rx="96.17" ry="31.11"/>
<text xml:space="preserve" text-anchor="middle" x="666.88" y="-868.91" font-family="Arial" font-size="10.00">C7</text>
<text xml:space="preserve" text-anchor="middle" x="666.88" y="-856.91" font-family="Arial" font-size="10.00">g=93,80 h=191,19 f=284,99</text>
<text xml:space="preserve" text-anchor="middle" x="666.88" y="-844.91" font-family="Arial" font-size="10.00">b=41% coletas=3</text>
</g>
<!-- S5&#45;&gt;S6 -->
<g id="edge5" class="edge">
<title>S5&#45;&gt;S6</title>
<path fill="none" stroke="#2563eb" stroke-width="2" d="M746.67,-962.21C731.7,-943.3 713.46,-920.26 698.21,-900.99"/>
<polygon fill="#2563eb" stroke="#2563eb" stroke-width="2" points="701.13,-899.04 692.18,-893.37 695.64,-903.39 701.13,-899.04"/>
<text xml:space="preserve" text-anchor="middle" x="747.15" y="-927.97" font-family="Arial" font-size="9.00">escolhido</text>
<text xml:space="preserve" text-anchor="middle" x="747.15" y="-917.47" font-family="Arial" font-size="9.00">25 + coleta</text>
</g>
<!-- A9 -->
<g id="node24" class="node">
<title>A9</title>
<ellipse fill="white" stroke="black" cx="885.88" cy="-860.41" rx="96.17" ry="31.11"/>
<text xml:space="preserve" text-anchor="middle" x="885.88" y="-868.91" font-family="Arial" font-size="10.00">C6</text>
<text xml:space="preserve" text-anchor="middle" x="885.88" y="-856.91" font-family="Arial" font-size="10.00">g=86,80 h=261,18 f=347,98</text>
<text xml:space="preserve" text-anchor="middle" x="885.88" y="-844.91" font-family="Arial" font-size="10.00">b=48% coletas=3</text>
</g>
<!-- S5&#45;&gt;A9 -->
<g id="edge23" class="edge">
<title>S5&#45;&gt;A9</title>
<path fill="none" stroke="#9ca3af" d="M805.36,-962.21C820.74,-942.95 839.54,-919.41 855.11,-899.92"/>
<polygon fill="#9ca3af" stroke="#9ca3af" points="857.79,-902.18 861.29,-892.18 852.32,-897.81 857.79,-902.18"/>
<text xml:space="preserve" text-anchor="middle" x="863.23" y="-927.97" font-family="Arial" font-size="9.00">opcao</text>
<text xml:space="preserve" text-anchor="middle" x="863.23" y="-917.47" font-family="Arial" font-size="9.00">18 + coleta</text>
</g>
<!-- S7 -->
<g id="node7" class="node">
<title>S7</title>
<ellipse fill="#dbeafe" stroke="black" cx="327.88" cy="-729.18" rx="99.35" ry="31.11"/>
<text xml:space="preserve" text-anchor="middle" x="327.88" y="-737.68" font-family="Arial" font-size="10.00">C8</text>
<text xml:space="preserve" text-anchor="middle" x="327.88" y="-725.68" font-family="Arial" font-size="10.00">g=115,80 h=138,25 f=254,05</text>
<text xml:space="preserve" text-anchor="middle" x="327.88" y="-713.68" font-family="Arial" font-size="10.00">b=19% coletas=3</text>
</g>
<!-- S6&#45;&gt;S7 -->
<g id="edge6" class="edge">
<title>S6&#45;&gt;S7</title>
<path fill="none" stroke="#2563eb" stroke-width="2" d="M605.49,-836C548.25,-814.18 462.78,-781.6 401.81,-758.36"/>
<polygon fill="#2563eb" stroke="#2563eb" stroke-width="2" points="403.38,-755.21 392.79,-754.92 400.88,-761.76 403.38,-755.21"/>
<text xml:space="preserve" text-anchor="middle" x="537.55" y="-796.74" font-family="Arial" font-size="9.00">escolhido</text>
<text xml:space="preserve" text-anchor="middle" x="537.55" y="-786.24" font-family="Arial" font-size="9.00">22</text>
</g>
<!-- A10 -->
<g id="node25" class="node">
<title>A10</title>
<ellipse fill="white" stroke="black" cx="553.88" cy="-729.18" rx="99.35" ry="31.11"/>
<text xml:space="preserve" text-anchor="middle" x="553.88" y="-737.68" font-family="Arial" font-size="10.00">C6</text>
<text xml:space="preserve" text-anchor="middle" x="553.88" y="-725.68" font-family="Arial" font-size="10.00">g=112,80 h=287,18 f=399,98</text>
<text xml:space="preserve" text-anchor="middle" x="553.88" y="-713.68" font-family="Arial" font-size="10.00">b=22% coletas=3</text>
</g>
<!-- S6&#45;&gt;A10 -->
<g id="edge24" class="edge">
<title>S6&#45;&gt;A10</title>
<path fill="none" stroke="#9ca3af" d="M641.24,-830.08C625.13,-811.66 604.19,-787.72 586.85,-767.89"/>
<polygon fill="#9ca3af" stroke="#9ca3af" points="589.63,-765.75 580.42,-760.53 584.36,-770.36 589.63,-765.75"/>
<text xml:space="preserve" text-anchor="middle" x="629.89" y="-796.74" font-family="Arial" font-size="9.00">opcao</text>
<text xml:space="preserve" text-anchor="middle" x="629.89" y="-786.24" font-family="Arial" font-size="9.00">19</text>
</g>
<!-- A11 -->
<g id="node26" class="node">
<title>A11</title>
<ellipse fill="white" stroke="black" cx="779.88" cy="-729.18" rx="99.35" ry="31.11"/>
<text xml:space="preserve" text-anchor="middle" x="779.88" y="-737.68" font-family="Arial" font-size="10.00">R2</text>
<text xml:space="preserve" text-anchor="middle" x="779.88" y="-725.68" font-family="Arial" font-size="10.00">g=118,80 h=281,98 f=400,78</text>
<text xml:space="preserve" text-anchor="middle" x="779.88" y="-713.68" font-family="Arial" font-size="10.00">b=16% coletas=3</text>
</g>
<!-- S6&#45;&gt;A11 -->
<g id="edge25" class="edge">
<title>S6&#45;&gt;A11</title>
<path fill="none" stroke="#9ca3af" d="M692.52,-830.08C708.63,-811.66 729.57,-787.72 746.91,-767.89"/>
<polygon fill="#9ca3af" stroke="#9ca3af" points="749.39,-770.36 753.34,-760.53 744.13,-765.75 749.39,-770.36"/>
<text xml:space="preserve" text-anchor="middle" x="742.89" y="-796.74" font-family="Arial" font-size="9.00">opcao</text>
<text xml:space="preserve" text-anchor="middle" x="742.89" y="-786.24" font-family="Arial" font-size="9.00">25</text>
</g>
<!-- A12 -->
<g id="node27" class="node">
<title>A12</title>
<ellipse fill="white" stroke="black" cx="1004.88" cy="-729.18" rx="98.82" ry="31.11"/>
<text xml:space="preserve" text-anchor="middle" x="1004.88" y="-737.68" font-family="Arial" font-size="10.00">C11</text>
<text xml:space="preserve" text-anchor="middle" x="1004.88" y="-725.68" font-family="Arial" font-size="10.00">g=118,80 h=292,61 f=411,41</text>
<text xml:space="preserve" text-anchor="middle" x="1004.88" y="-713.68" font-family="Arial" font-size="10.00">b=16% coletas=3</text>
</g>
<!-- S6&#45;&gt;A12 -->
<g id="edge26" class="edge">
<title>S6&#45;&gt;A12</title>
<path fill="none" stroke="#9ca3af" d="M728.09,-836C785.52,-814.05 871.45,-781.2 932.3,-757.93"/>
<polygon fill="#9ca3af" stroke="#9ca3af" points="933.48,-761.23 941.57,-754.39 930.98,-754.69 933.48,-761.23"/>
<text xml:space="preserve" text-anchor="middle" x="868.87" y="-796.74" font-family="Arial" font-size="9.00">opcao</text>
<text xml:space="preserve" text-anchor="middle" x="868.87" y="-786.24" font-family="Arial" font-size="9.00">25</text>
</g>
<!-- S8 -->
<g id="node8" class="node">
<title>S8</title>
<ellipse fill="#dbeafe" stroke="black" cx="327.88" cy="-597.96" rx="99.88" ry="31.11"/>
<text xml:space="preserve" text-anchor="middle" x="327.88" y="-606.46" font-family="Arial" font-size="10.00">R5</text>
<text xml:space="preserve" text-anchor="middle" x="327.88" y="-594.46" font-family="Arial" font-size="10.00">g=133,80 h=170,55 f=304,35</text>
<text xml:space="preserve" text-anchor="middle" x="327.88" y="-582.46" font-family="Arial" font-size="10.00">b=1% coletas=3</text>
</g>
<!-- S7&#45;&gt;S8 -->
<g id="edge7" class="edge">
<title>S7&#45;&gt;S8</title>
<path fill="none" stroke="#2563eb" stroke-width="2" d="M327.88,-697.88C327.88,-681.4 327.88,-660.71 327.88,-642.52"/>
<polygon fill="#2563eb" stroke="#2563eb" stroke-width="2" points="331.38,-642.54 327.88,-632.54 324.38,-642.54 331.38,-642.54"/>
<text xml:space="preserve" text-anchor="middle" x="347.75" y="-665.52" font-family="Arial" font-size="9.00">escolhido</text>
<text xml:space="preserve" text-anchor="middle" x="347.75" y="-655.02" font-family="Arial" font-size="9.00">18,0</text>
</g>
<!-- S9 -->
<g id="node9" class="node">
<title>S9</title>
<ellipse fill="#dcfce7" stroke="#059669" cx="213.88" cy="-458.24" rx="99.88" ry="39.6"/>
<text xml:space="preserve" text-anchor="middle" x="213.88" y="-472.74" font-family="Arial" font-size="10.00">R5</text>
<text xml:space="preserve" text-anchor="middle" x="213.88" y="-460.74" font-family="Arial" font-size="10.00">g=146,00 h=142,13 f=288,13</text>
<text xml:space="preserve" text-anchor="middle" x="213.88" y="-448.74" font-family="Arial" font-size="10.00">b=62% coletas=3</text>
<text xml:space="preserve" text-anchor="middle" x="213.88" y="-436.74" font-family="Arial" font-size="10.00">recarga</text>
</g>
<!-- S8&#45;&gt;S9 -->
<g id="edge8" class="edge">
<title>S8&#45;&gt;S9</title>
<path fill="none" stroke="#2563eb" stroke-width="2" d="M303.42,-567.41C288.7,-549.63 269.63,-526.59 252.87,-506.35"/>
<polygon fill="#2563eb" stroke="#2563eb" stroke-width="2" points="255.61,-504.17 246.54,-498.69 250.22,-508.63 255.61,-504.17"/>
<text xml:space="preserve" text-anchor="middle" x="306.96" y="-534.29" font-family="Arial" font-size="9.00">escolhido</text>
<text xml:space="preserve" text-anchor="middle" x="306.96" y="-523.79" font-family="Arial" font-size="9.00">recarga 12,2</text>
</g>
<!-- S14 -->
<g id="node28" class="node">
<title>S14</title>
<ellipse fill="#dcfce7" stroke="#059669" stroke-dasharray="5,2" cx="440.88" cy="-458.24" rx="99.88" ry="39.6"/>
<text xml:space="preserve" text-anchor="middle" x="440.88" y="-472.74" font-family="Arial" font-size="10.00">R5</text>
<text xml:space="preserve" text-anchor="middle" x="440.88" y="-460.74" font-family="Arial" font-size="10.00">g=142,40 h=142,13 f=284,53</text>
<text xml:space="preserve" text-anchor="middle" x="440.88" y="-448.74" font-family="Arial" font-size="10.00">b=44% coletas=3</text>
<text xml:space="preserve" text-anchor="middle" x="440.88" y="-436.74" font-family="Arial" font-size="10.00">recarga</text>
</g>
<!-- S8&#45;&gt;S14 -->
<g id="edge27" class="edge">
<title>S8&#45;&gt;S14</title>
<path fill="none" stroke="#9ca3af" d="M352.12,-567.41C366.98,-549.31 386.31,-525.75 403.14,-505.24"/>
<polygon fill="#9ca3af" stroke="#9ca3af" points="405.82,-507.48 409.46,-497.53 400.41,-503.04 405.82,-507.48"/>
<text xml:space="preserve" text-anchor="middle" x="411.02" y="-534.29" font-family="Arial" font-size="9.00">opcao</text>
<text xml:space="preserve" text-anchor="middle" x="411.02" y="-523.79" font-family="Arial" font-size="9.00">recarga 8,6</text>
</g>
<!-- S10 -->
<g id="node10" class="node">
<title>S10</title>
<ellipse fill="#dbeafe" stroke="black" cx="99.88" cy="-318.53" rx="99.88" ry="31.11"/>
<text xml:space="preserve" text-anchor="middle" x="99.88" y="-327.03" font-family="Arial" font-size="10.00">C8</text>
<text xml:space="preserve" text-anchor="middle" x="99.88" y="-315.03" font-family="Arial" font-size="10.00">g=164,00 h=130,21 f=294,21</text>
<text xml:space="preserve" text-anchor="middle" x="99.88" y="-303.03" font-family="Arial" font-size="10.00">b=44% coletas=3</text>
</g>
<!-- S9&#45;&gt;S10 -->
<g id="edge9" class="edge">
<title>S9&#45;&gt;S10</title>
<path fill="none" stroke="#2563eb" stroke-width="2" d="M183.33,-420.34C167.68,-401.43 148.6,-378.39 132.64,-359.11"/>
<polygon fill="#2563eb" stroke="#2563eb" stroke-width="2" points="135.38,-356.93 126.31,-351.46 129.99,-361.4 135.38,-356.93"/>
<text xml:space="preserve" text-anchor="middle" x="180.17" y="-386.1" font-family="Arial" font-size="9.00">escolhido</text>
<text xml:space="preserve" text-anchor="middle" x="180.17" y="-375.6" font-family="Arial" font-size="9.00">18</text>
</g>
<!-- A13 -->
<g id="node29" class="node">
<title>A13</title>
<ellipse fill="white" stroke="black" cx="326.88" cy="-318.53" rx="99.88" ry="31.11"/>
<text xml:space="preserve" text-anchor="middle" x="326.88" y="-327.03" font-family="Arial" font-size="10.00">C12</text>
<text xml:space="preserve" text-anchor="middle" x="326.88" y="-315.03" font-family="Arial" font-size="10.00">g=170,00 h=206,60 f=376,60</text>
<text xml:space="preserve" text-anchor="middle" x="326.88" y="-303.03" font-family="Arial" font-size="10.00">b=38% coletas=3</text>
</g>
<!-- S9&#45;&gt;A13 -->
<g id="edge28" class="edge">
<title>S9&#45;&gt;A13</title>
<path fill="none" stroke="#9ca3af" d="M244.16,-420.34C260.03,-401 279.46,-377.33 295.49,-357.79"/>
<polygon fill="#9ca3af" stroke="#9ca3af" points="298,-360.25 301.63,-350.3 292.58,-355.81 298,-360.25"/>
<text xml:space="preserve" text-anchor="middle" x="293.25" y="-386.1" font-family="Arial" font-size="9.00">opcao</text>
<text xml:space="preserve" text-anchor="middle" x="293.25" y="-375.6" font-family="Arial" font-size="9.00">24</text>
</g>
<!-- S11 -->
<g id="node11" class="node">
<title>S11</title>
<ellipse fill="#dbeafe" stroke="black" cx="99.88" cy="-187.31" rx="96.17" ry="31.11"/>
<text xml:space="preserve" text-anchor="middle" x="99.88" y="-195.81" font-family="Arial" font-size="10.00">C5</text>
<text xml:space="preserve" text-anchor="middle" x="99.88" y="-183.81" font-family="Arial" font-size="10.00">g=184,00 h=74,16 f=258,16</text>
<text xml:space="preserve" text-anchor="middle" x="99.88" y="-171.81" font-family="Arial" font-size="10.00">b=24% coletas=3</text>
</g>
<!-- S10&#45;&gt;S11 -->
<g id="edge10" class="edge">
<title>S10&#45;&gt;S11</title>
<path fill="none" stroke="#2563eb" stroke-width="2" d="M99.88,-287.24C99.88,-270.75 99.88,-250.06 99.88,-231.87"/>
<polygon fill="#2563eb" stroke="#2563eb" stroke-width="2" points="103.38,-231.89 99.88,-221.89 96.38,-231.89 103.38,-231.89"/>
<text xml:space="preserve" text-anchor="middle" x="119.75" y="-254.87" font-family="Arial" font-size="9.00">escolhido</text>
<text xml:space="preserve" text-anchor="middle" x="119.75" y="-244.37" font-family="Arial" font-size="9.00">20</text>
</g>
<!-- S12 -->
<g id="node12" class="node">
<title>S12</title>
<ellipse fill="#b6f2b6" stroke="black" cx="99.88" cy="-43.6" rx="92.45" ry="39.6"/>
<ellipse fill="none" stroke="black" cx="99.88" cy="-43.6" rx="96.45" ry="43.6"/>
<text xml:space="preserve" text-anchor="middle" x="99.88" y="-58.1" font-family="Arial" font-size="10.00">OBJETIVO</text>
<text xml:space="preserve" text-anchor="middle" x="99.88" y="-46.1" font-family="Arial" font-size="10.00">C3</text>
<text xml:space="preserve" text-anchor="middle" x="99.88" y="-34.1" font-family="Arial" font-size="10.00">g=207,00 h=0,00 f=207,00</text>
<text xml:space="preserve" text-anchor="middle" x="99.88" y="-22.1" font-family="Arial" font-size="10.00">b=1% coletas=3</text>
</g>
<!-- S11&#45;&gt;S12 -->
<g id="edge11" class="edge">
<title>S11&#45;&gt;S12</title>
<path fill="none" stroke="#2563eb" stroke-width="2" d="M99.88,-155.91C99.88,-139.72 99.88,-119.29 99.88,-100.37"/>
<polygon fill="#2563eb" stroke="#2563eb" stroke-width="2" points="103.38,-100.61 99.88,-90.61 96.38,-100.61 103.38,-100.61"/>
<text xml:space="preserve" text-anchor="middle" x="119.75" y="-123.65" font-family="Arial" font-size="9.00">escolhido</text>
<text xml:space="preserve" text-anchor="middle" x="119.75" y="-113.15" font-family="Arial" font-size="9.00">23</text>
</g>
<!-- legend_solution -->
<g id="node30" class="node">
<title>legend_solution</title>
<polygon fill="#dbeafe" stroke="black" points="2239.75,-1568.47 2100,-1568.47 2100,-1532.47 2239.75,-1532.47 2239.75,-1568.47"/>
<text xml:space="preserve" text-anchor="middle" x="2169.88" y="-1552.42" font-family="Arial" font-size="9.00">Estado no caminho escolhido</text>
<text xml:space="preserve" text-anchor="middle" x="2169.88" y="-1541.92" font-family="Arial" font-size="9.00">arestas azuis ligam a rota final</text>
</g>
<!-- legend_recharge -->
<g id="node31" class="node">
<title>legend_recharge</title>
<polygon fill="#dcfce7" stroke="#059669" points="2405.38,-1568.47 2266.38,-1568.47 2266.38,-1532.47 2405.38,-1532.47 2405.38,-1568.47"/>
<text xml:space="preserve" text-anchor="middle" x="2335.88" y="-1552.42" font-family="Arial" font-size="9.00">Acao de recarga executada</text>
<text xml:space="preserve" text-anchor="middle" x="2335.88" y="-1541.92" font-family="Arial" font-size="9.00">recarga tambem entra em g(s)</text>
</g>
<!-- legend_goal -->
<g id="node32" class="node">
<title>legend_goal</title>
<polygon fill="#b6f2b6" stroke="black" points="2523.13,-1568.47 2436.63,-1568.47 2436.63,-1532.47 2523.13,-1532.47 2523.13,-1568.47"/>
<polygon fill="none" stroke="black" points="2527.13,-1572.47 2432.63,-1572.47 2432.63,-1528.47 2527.13,-1528.47 2527.13,-1572.47"/>
<text xml:space="preserve" text-anchor="middle" x="2479.88" y="-1547.17" font-family="Arial" font-size="9.00">Destino / objetivo</text>
</g>
<!-- legend_expanded -->
<g id="node33" class="node">
<title>legend_expanded</title>
<polygon fill="#e5e7eb" stroke="black" points="2717.75,-1568.47 2554,-1568.47 2554,-1532.47 2717.75,-1532.47 2717.75,-1568.47"/>
<text xml:space="preserve" text-anchor="middle" x="2635.88" y="-1552.42" font-family="Arial" font-size="9.00">Expandido / Closed</text>
<text xml:space="preserve" text-anchor="middle" x="2635.88" y="-1541.92" font-family="Arial" font-size="9.00">(filhos nao desenhados nesta visao)</text>
</g>
<!-- legend_open -->
<g id="node34" class="node">
<title>legend_open</title>
<polygon fill="white" stroke="black" points="2890.75,-1568.47 2745,-1568.47 2745,-1532.47 2890.75,-1532.47 2890.75,-1568.47"/>
<text xml:space="preserve" text-anchor="middle" x="2817.88" y="-1552.42" font-family="Arial" font-size="9.00">Gerado / Open</text>
<text xml:space="preserve" text-anchor="middle" x="2817.88" y="-1541.92" font-family="Arial" font-size="9.00">candidato ainda nao expandido</text>
</g>
<!-- legend_alternative -->
<g id="node35" class="node">
<title>legend_alternative</title>
<polygon fill="white" stroke="black" points="3026,-1568.47 2917.75,-1568.47 2917.75,-1532.47 3026,-1532.47 3026,-1568.47"/>
<text xml:space="preserve" text-anchor="middle" x="2971.88" y="-1552.42" font-family="Arial" font-size="9.00">Alternativa desenhada</text>
<text xml:space="preserve" text-anchor="middle" x="2971.88" y="-1541.92" font-family="Arial" font-size="9.00">aresta cinza</text>
</g>
<!-- legend_pruned -->
<g id="node36" class="node">
<title>legend_pruned</title>
<polygon fill="#fef3c7" stroke="black" points="3242.88,-1580.72 3052.88,-1580.72 3052.88,-1520.22 3242.88,-1520.22 3242.88,-1580.72"/>
<text xml:space="preserve" text-anchor="middle" x="3147.88" y="-1568.17" font-family="Arial" font-size="9.00">Ramos omitidos por limite visual:</text>
<text xml:space="preserve" text-anchor="middle" x="3147.88" y="-1557.67" font-family="Arial" font-size="9.00">estados gerados na execucao,</text>
<text xml:space="preserve" text-anchor="middle" x="3147.88" y="-1547.17" font-family="Arial" font-size="9.00">mas ocultados para evitar arvore ilegivel.</text>
<text xml:space="preserve" text-anchor="middle" x="3147.88" y="-1536.67" font-family="Arial" font-size="9.00">Nao e poda do algoritmo;</text>
<text xml:space="preserve" text-anchor="middle" x="3147.88" y="-1526.17" font-family="Arial" font-size="9.00">Open/Closed e metricas reais nao mudam.</text>
</g>
</g>
</svg>
