<?xml version="1.0" encoding="UTF-8" standalone="no"?>
<!DOCTYPE svg PUBLIC "-//W3C//DTD SVG 1.1//EN"
 "http://www.w3.org/Graphics/SVG/1.1/DTD/svg11.dtd">
<!-- Generated by graphviz version 15.0.0 (20260523.1842)
 -->
<!-- Title: ArvoreBuscaCompleta Pages: 1 -->
<svg width="2510pt" height="1511pt"
 viewBox="0.00 0.00 2510.00 1511.00" xmlns="http://www.w3.org/2000/svg" xmlns:xlink="http://www.w3.org/1999/xlink">
<g id="graph0" class="graph" transform="scale(1 1) rotate(0) translate(4 1506.97)">
<title>ArvoreBuscaCompleta</title>
<polygon fill="white" stroke="none" points="-4,4 -4,-1506.97 2505.88,-1506.97 2505.88,4 -4,4"/>
<text xml:space="preserve" text-anchor="middle" x="1250.94" y="-1487.57" font-family="Arial" font-size="12.00">Arvore completa compactada por limite visual: estados omitidos existiram na execucao, mas nao foram desenhados para manter a figura legivel.</text>
<g id="clust1" class="cluster">
<title>cluster_legend</title>
<polygon fill="none" stroke="#cccccc" points="1414.88,-1374.72 1414.88,-1472.72 2493.88,-1472.72 2493.88,-1374.72 1414.88,-1374.72"/>
<text xml:space="preserve" text-anchor="middle" x="1954.38" y="-1458.27" font-family="Arial" font-size="11.00">Legenda</text>
</g>
<!-- N1 -->
<g id="node1" class="node">
<title>N1</title>
<ellipse fill="#dbeafe" stroke="black" cx="1305.88" cy="-1412.97" rx="92.45" ry="31.11"/>
<text xml:space="preserve" text-anchor="middle" x="1305.88" y="-1421.47" font-family="Arial" font-size="10.00">C1</text>
<text xml:space="preserve" text-anchor="middle" x="1305.88" y="-1409.47" font-family="Arial" font-size="10.00">g=2,00 h=447,00 f=449,00</text>
<text xml:space="preserve" text-anchor="middle" x="1305.88" y="-1397.47" font-family="Arial" font-size="10.00">b=98% coletas=1</text>
</g>
<!-- N2 -->
<g id="node2" class="node">
<title>N2</title>
<ellipse fill="#dbeafe" stroke="black" cx="1197.88" cy="-1294.25" rx="96.17" ry="31.11"/>
<text xml:space="preserve" text-anchor="middle" x="1197.88" y="-1302.75" font-family="Arial" font-size="10.00">R1</text>
<text xml:space="preserve" text-anchor="middle" x="1197.88" y="-1290.75" font-family="Arial" font-size="10.00">g=20,00 h=409,74 f=429,74</text>
<text xml:space="preserve" text-anchor="middle" x="1197.88" y="-1278.75" font-family="Arial" font-size="10.00">b=80% coletas=1</text>
</g>
<!-- N1&#45;&gt;N2 -->
<g id="edge1" class="edge">
<title>N1&#45;&gt;N2</title>
<path fill="none" stroke="#2563eb" stroke-width="2" d="M1278.9,-1382.82C1265.12,-1367.92 1248.16,-1349.59 1233.33,-1333.56"/>
<polygon fill="#2563eb" stroke="#2563eb" stroke-width="2" points="1236.3,-1331.62 1226.94,-1326.66 1231.16,-1336.37 1236.3,-1331.62"/>
<text xml:space="preserve" text-anchor="middle" x="1260.37" y="-1350.31" font-family="Arial" font-size="9.00">18</text>
</g>
<!-- N18 -->
<g id="node24" class="node">
<title>N18</title>
<ellipse fill="white" stroke="black" cx="1414.88" cy="-1294.25" rx="96.17" ry="31.11"/>
<text xml:space="preserve" text-anchor="middle" x="1414.88" y="-1302.75" font-family="Arial" font-size="10.00">C9</text>
<text xml:space="preserve" text-anchor="middle" x="1414.88" y="-1290.75" font-family="Arial" font-size="10.00">g=28,00 h=435,53 f=463,53</text>
<text xml:space="preserve" text-anchor="middle" x="1414.88" y="-1278.75" font-family="Arial" font-size="10.00">b=72% coletas=2</text>
</g>
<!-- N1&#45;&gt;N18 -->
<g id="edge23" class="edge">
<title>N1&#45;&gt;N18</title>
<path fill="none" stroke="#555555" d="M1333.1,-1382.82C1347.28,-1367.64 1364.77,-1348.91 1379.94,-1332.67"/>
<polygon fill="#555555" stroke="#555555" points="1382.32,-1335.24 1386.59,-1325.54 1377.21,-1330.46 1382.32,-1335.24"/>
<text xml:space="preserve" text-anchor="middle" x="1386.15" y="-1350.31" font-family="Arial" font-size="9.00">24 + coleta</text>
</g>
<!-- N3 -->
<g id="node3" class="node">
<title>N3</title>
<ellipse fill="#dbeafe" stroke="black" cx="763.88" cy="-1167.04" rx="96.17" ry="31.11"/>
<text xml:space="preserve" text-anchor="middle" x="763.88" y="-1175.54" font-family="Arial" font-size="10.00">C4</text>
<text xml:space="preserve" text-anchor="middle" x="763.88" y="-1163.54" font-family="Arial" font-size="10.00">g=44,00 h=346,13 f=390,13</text>
<text xml:space="preserve" text-anchor="middle" x="763.88" y="-1151.54" font-family="Arial" font-size="10.00">b=56% coletas=2</text>
</g>
<!-- N2&#45;&gt;N3 -->
<g id="edge2" class="edge">
<title>N2&#45;&gt;N3</title>
<path fill="none" stroke="#2563eb" stroke-width="2" d="M1121.61,-1274.9C1055.22,-1258.48 956.6,-1232.98 871.88,-1206.64 860.85,-1203.21 849.27,-1199.35 837.96,-1195.43"/>
<polygon fill="#2563eb" stroke="#2563eb" stroke-width="2" points="839.28,-1192.19 828.69,-1192.18 836.97,-1198.79 839.28,-1192.19"/>
<text xml:space="preserve" text-anchor="middle" x="1001.23" y="-1231.59" font-family="Arial" font-size="9.00">22 + coleta</text>
</g>
<!-- N15 -->
<g id="node20" class="node">
<title>N15</title>
<ellipse fill="#dcfce7" stroke="#059669" cx="980.88" cy="-1167.04" rx="96.17" ry="39.6"/>
<text xml:space="preserve" text-anchor="middle" x="980.88" y="-1181.54" font-family="Arial" font-size="10.00">R1</text>
<text xml:space="preserve" text-anchor="middle" x="980.88" y="-1169.54" font-family="Arial" font-size="10.00">g=22,00 h=407,28 f=429,28</text>
<text xml:space="preserve" text-anchor="middle" x="980.88" y="-1157.54" font-family="Arial" font-size="10.00">b=90% coletas=1</text>
<text xml:space="preserve" text-anchor="middle" x="980.88" y="-1145.54" font-family="Arial" font-size="10.00">recarga</text>
</g>
<!-- N2&#45;&gt;N15 -->
<g id="edge19" class="edge">
<title>N2&#45;&gt;N15</title>
<path fill="none" stroke="#555555" d="M1151.59,-1266.54C1120.78,-1248.76 1079.85,-1225.15 1045.79,-1205.5"/>
<polygon fill="#555555" stroke="#555555" points="1047.65,-1202.52 1037.24,-1200.56 1044.15,-1208.59 1047.65,-1202.52"/>
<text xml:space="preserve" text-anchor="middle" x="1121.87" y="-1231.59" font-family="Arial" font-size="9.00">recarga 2</text>
</g>
<!-- N16 -->
<g id="node21" class="node">
<title>N16</title>
<ellipse fill="#dcfce7" stroke="#059669" cx="1197.88" cy="-1167.04" rx="96.17" ry="39.6"/>
<text xml:space="preserve" text-anchor="middle" x="1197.88" y="-1181.54" font-family="Arial" font-size="10.00">R1</text>
<text xml:space="preserve" text-anchor="middle" x="1197.88" y="-1169.54" font-family="Arial" font-size="10.00">g=22,40 h=407,28 f=429,68</text>
<text xml:space="preserve" text-anchor="middle" x="1197.88" y="-1157.54" font-family="Arial" font-size="10.00">b=92% coletas=1</text>
<text xml:space="preserve" text-anchor="middle" x="1197.88" y="-1145.54" font-family="Arial" font-size="10.00">recarga</text>
</g>
<!-- N2&#45;&gt;N16 -->
<g id="edge20" class="edge">
<title>N2&#45;&gt;N16</title>
<path fill="none" stroke="#555555" d="M1197.88,-1262.94C1197.88,-1249.56 1197.88,-1233.47 1197.88,-1218.37"/>
<polygon fill="#555555" stroke="#555555" points="1201.38,-1218.59 1197.88,-1208.59 1194.38,-1218.59 1201.38,-1218.59"/>
<text xml:space="preserve" text-anchor="middle" x="1221.13" y="-1231.59" font-family="Arial" font-size="9.00">recarga 2,4</text>
</g>
<!-- N17 -->
<g id="node22" class="node">
<title>N17</title>
<ellipse fill="#dcfce7" stroke="#059669" cx="1414.88" cy="-1167.04" rx="96.17" ry="39.6"/>
<text xml:space="preserve" text-anchor="middle" x="1414.88" y="-1181.54" font-family="Arial" font-size="10.00">R1</text>
<text xml:space="preserve" text-anchor="middle" x="1414.88" y="-1169.54" font-family="Arial" font-size="10.00">g=23,20 h=407,28 f=430,48</text>
<text xml:space="preserve" text-anchor="middle" x="1414.88" y="-1157.54" font-family="Arial" font-size="10.00">b=96% coletas=1</text>
<text xml:space="preserve" text-anchor="middle" x="1414.88" y="-1145.54" font-family="Arial" font-size="10.00">recarga</text>
</g>
<!-- N2&#45;&gt;N17 -->
<g id="edge21" class="edge">
<title>N2&#45;&gt;N17</title>
<path fill="none" stroke="#555555" d="M1244.16,-1266.54C1274.98,-1248.76 1315.91,-1225.15 1349.96,-1205.5"/>
<polygon fill="#555555" stroke="#555555" points="1351.61,-1208.59 1358.52,-1200.56 1348.11,-1202.52 1351.61,-1208.59"/>
<text xml:space="preserve" text-anchor="middle" x="1329.63" y="-1231.59" font-family="Arial" font-size="9.00">recarga 3,2</text>
</g>
<!-- X6 -->
<g id="node23" class="node">
<title>X6</title>
<polygon fill="#fef3c7" stroke="#f59e0b" stroke-dasharray="5,2" points="1647.88,-1195.04 1535.88,-1195.04 1535.88,-1139.04 1647.88,-1139.04 1647.88,-1195.04"/>
<text xml:space="preserve" text-anchor="middle" x="1591.88" y="-1181.54" font-family="Arial" font-size="10.00" fill="#92400e">+2 ramos omitidos</text>
<text xml:space="preserve" text-anchor="middle" x="1591.88" y="-1169.54" font-family="Arial" font-size="10.00" fill="#92400e">limite visual</text>
<text xml:space="preserve" text-anchor="middle" x="1591.88" y="-1157.54" font-family="Arial" font-size="10.00" fill="#92400e">(estados gerados,</text>
<text xml:space="preserve" text-anchor="middle" x="1591.88" y="-1145.54" font-family="Arial" font-size="10.00" fill="#92400e">mas nao desenhados)</text>
</g>
<!-- N2&#45;&gt;X6 -->
<g id="edge22" class="edge">
<title>N2&#45;&gt;X6</title>
<path fill="none" stroke="#d97706" stroke-dasharray="5,2" d="M1269.57,-1273.06C1281.68,-1269.71 1294.13,-1266.3 1305.88,-1263.14 1402.53,-1237.14 1431.11,-1244.22 1523.88,-1206.64 1531.68,-1203.48 1539.69,-1199.58 1547.35,-1195.5"/>
</g>
<!-- N4 -->
<g id="node4" class="node">
<title>N4</title>
<ellipse fill="#dbeafe" stroke="black" cx="546.88" cy="-1039.83" rx="96.17" ry="31.11"/>
<text xml:space="preserve" text-anchor="middle" x="546.88" y="-1048.33" font-family="Arial" font-size="10.00">R2</text>
<text xml:space="preserve" text-anchor="middle" x="546.88" y="-1036.33" font-family="Arial" font-size="10.00">g=61,00 h=270,98 f=331,98</text>
<text xml:space="preserve" text-anchor="middle" x="546.88" y="-1024.33" font-family="Arial" font-size="10.00">b=39% coletas=2</text>
</g>
<!-- N3&#45;&gt;N4 -->
<g id="edge3" class="edge">
<title>N3&#45;&gt;N4</title>
<path fill="none" stroke="#2563eb" stroke-width="2" d="M717.59,-1139.33C684.46,-1120.21 639.63,-1094.35 604.23,-1073.92"/>
<polygon fill="#2563eb" stroke="#2563eb" stroke-width="2" points="606.13,-1070.97 595.72,-1069.01 602.63,-1077.04 606.13,-1070.97"/>
<text xml:space="preserve" text-anchor="middle" x="660.63" y="-1095.89" font-family="Arial" font-size="9.00">17</text>
</g>
<!-- N13 -->
<g id="node18" class="node">
<title>N13</title>
<ellipse fill="white" stroke="black" cx="763.88" cy="-1039.83" rx="96.17" ry="31.11"/>
<text xml:space="preserve" text-anchor="middle" x="763.88" y="-1048.33" font-family="Arial" font-size="10.00">C10</text>
<text xml:space="preserve" text-anchor="middle" x="763.88" y="-1036.33" font-family="Arial" font-size="10.00">g=72,00 h=352,49 f=424,49</text>
<text xml:space="preserve" text-anchor="middle" x="763.88" y="-1024.33" font-family="Arial" font-size="10.00">b=28% coletas=3</text>
</g>
<!-- N3&#45;&gt;N13 -->
<g id="edge17" class="edge">
<title>N3&#45;&gt;N13</title>
<path fill="none" stroke="#555555" d="M763.88,-1135.73C763.88,-1119.7 763.88,-1099.78 763.88,-1082.33"/>
<polygon fill="#555555" stroke="#555555" points="767.38,-1082.81 763.88,-1072.81 760.38,-1082.81 767.38,-1082.81"/>
<text xml:space="preserve" text-anchor="middle" x="786.38" y="-1095.89" font-family="Arial" font-size="9.00">26 + coleta</text>
</g>
<!-- N14 -->
<g id="node19" class="node">
<title>N14</title>
<ellipse fill="white" stroke="black" cx="980.88" cy="-1039.83" rx="96.17" ry="31.11"/>
<text xml:space="preserve" text-anchor="middle" x="980.88" y="-1048.33" font-family="Arial" font-size="10.00">R1</text>
<text xml:space="preserve" text-anchor="middle" x="980.88" y="-1036.33" font-family="Arial" font-size="10.00">g=66,00 h=443,74 f=509,74</text>
<text xml:space="preserve" text-anchor="middle" x="980.88" y="-1024.33" font-family="Arial" font-size="10.00">b=34% coletas=2</text>
</g>
<!-- N3&#45;&gt;N14 -->
<g id="edge18" class="edge">
<title>N3&#45;&gt;N14</title>
<path fill="none" stroke="#555555" d="M810.16,-1139.33C843.73,-1119.96 889.29,-1093.68 924.9,-1073.13"/>
<polygon fill="#555555" stroke="#555555" points="926.44,-1076.28 933.35,-1068.25 922.94,-1070.22 926.44,-1076.28"/>
<text xml:space="preserve" text-anchor="middle" x="890.62" y="-1095.89" font-family="Arial" font-size="9.00">22</text>
</g>
<!-- N5 -->
<g id="node5" class="node">
<title>N5</title>
<ellipse fill="#dcfce7" stroke="#059669" cx="458.88" cy="-912.62" rx="96.17" ry="39.6"/>
<text xml:space="preserve" text-anchor="middle" x="458.88" y="-927.12" font-family="Arial" font-size="10.00">R2</text>
<text xml:space="preserve" text-anchor="middle" x="458.88" y="-915.12" font-family="Arial" font-size="10.00">g=66,80 h=257,49 f=324,29</text>
<text xml:space="preserve" text-anchor="middle" x="458.88" y="-903.12" font-family="Arial" font-size="10.00">b=68% coletas=2</text>
<text xml:space="preserve" text-anchor="middle" x="458.88" y="-891.12" font-family="Arial" font-size="10.00">recarga</text>
</g>
<!-- N4&#45;&gt;N5 -->
<g id="edge4" class="edge">
<title>N4&#45;&gt;N5</title>
<path fill="none" stroke="#2563eb" stroke-width="2" d="M526.02,-1009.15C516.02,-994.92 503.78,-977.5 492.5,-961.46"/>
<polygon fill="#2563eb" stroke="#2563eb" stroke-width="2" points="495.62,-959.81 487.01,-953.64 489.89,-963.83 495.62,-959.81"/>
<text xml:space="preserve" text-anchor="middle" x="531.4" y="-977.16" font-family="Arial" font-size="9.00">recarga 5,8</text>
</g>
<!-- X5 -->
<g id="node17" class="node">
<title>X5</title>
<polygon fill="#fef3c7" stroke="#f59e0b" stroke-dasharray="5,2" points="691.88,-940.62 579.88,-940.62 579.88,-884.62 691.88,-884.62 691.88,-940.62"/>
<text xml:space="preserve" text-anchor="middle" x="635.88" y="-927.12" font-family="Arial" font-size="10.00" fill="#92400e">+11 ramos omitidos</text>
<text xml:space="preserve" text-anchor="middle" x="635.88" y="-915.12" font-family="Arial" font-size="10.00" fill="#92400e">limite visual</text>
<text xml:space="preserve" text-anchor="middle" x="635.88" y="-903.12" font-family="Arial" font-size="10.00" fill="#92400e">(estados gerados,</text>
<text xml:space="preserve" text-anchor="middle" x="635.88" y="-891.12" font-family="Arial" font-size="10.00" fill="#92400e">mas nao desenhados)</text>
</g>
<!-- N4&#45;&gt;X5 -->
<g id="edge16" class="edge">
<title>N4&#45;&gt;X5</title>
<path fill="none" stroke="#d97706" stroke-dasharray="5,2" d="M567.97,-1009.15C582.67,-988.47 602.14,-961.09 616.46,-940.94"/>
</g>
<!-- N6 -->
<g id="node6" class="node">
<title>N6</title>
<ellipse fill="#dbeafe" stroke="black" cx="370.88" cy="-785.41" rx="96.17" ry="31.11"/>
<text xml:space="preserve" text-anchor="middle" x="370.88" y="-793.91" font-family="Arial" font-size="10.00">C7</text>
<text xml:space="preserve" text-anchor="middle" x="370.88" y="-781.91" font-family="Arial" font-size="10.00">g=93,80 h=191,19 f=284,99</text>
<text xml:space="preserve" text-anchor="middle" x="370.88" y="-769.91" font-family="Arial" font-size="10.00">b=41% coletas=3</text>
</g>
<!-- N5&#45;&gt;N6 -->
<g id="edge5" class="edge">
<title>N5&#45;&gt;N6</title>
<path fill="none" stroke="#2563eb" stroke-width="2" d="M432.48,-874.05C421.97,-859.09 409.85,-841.86 399.16,-826.65"/>
<polygon fill="#2563eb" stroke="#2563eb" stroke-width="2" points="402.03,-824.64 393.41,-818.47 396.3,-828.66 402.03,-824.64"/>
<text xml:space="preserve" text-anchor="middle" x="437.38" y="-841.47" font-family="Arial" font-size="9.00">25 + coleta</text>
</g>
<!-- X4 -->
<g id="node16" class="node">
<title>X4</title>
<polygon fill="#fef3c7" stroke="#f59e0b" stroke-dasharray="5,2" points="603.88,-813.41 491.88,-813.41 491.88,-757.41 603.88,-757.41 603.88,-813.41"/>
<text xml:space="preserve" text-anchor="middle" x="547.88" y="-799.91" font-family="Arial" font-size="10.00" fill="#92400e">+1 ramos omitidos</text>
<text xml:space="preserve" text-anchor="middle" x="547.88" y="-787.91" font-family="Arial" font-size="10.00" fill="#92400e">limite visual</text>
<text xml:space="preserve" text-anchor="middle" x="547.88" y="-775.91" font-family="Arial" font-size="10.00" fill="#92400e">(estados gerados,</text>
<text xml:space="preserve" text-anchor="middle" x="547.88" y="-763.91" font-family="Arial" font-size="10.00" fill="#92400e">mas nao desenhados)</text>
</g>
<!-- N5&#45;&gt;X4 -->
<g id="edge15" class="edge">
<title>N5&#45;&gt;X4</title>
<path fill="none" stroke="#d97706" stroke-dasharray="5,2" d="M485.34,-874.39C499.18,-854.92 515.81,-831.52 528.44,-813.75"/>
</g>
<!-- N7 -->
<g id="node7" class="node">
<title>N7</title>
<ellipse fill="#dbeafe" stroke="black" cx="280.88" cy="-666.68" rx="99.35" ry="31.11"/>
<text xml:space="preserve" text-anchor="middle" x="280.88" y="-675.18" font-family="Arial" font-size="10.00">C8</text>
<text xml:space="preserve" text-anchor="middle" x="280.88" y="-663.18" font-family="Arial" font-size="10.00">g=115,80 h=138,25 f=254,05</text>
<text xml:space="preserve" text-anchor="middle" x="280.88" y="-651.18" font-family="Arial" font-size="10.00">b=19% coletas=3</text>
</g>
<!-- N6&#45;&gt;N7 -->
<g id="edge6" class="edge">
<title>N6&#45;&gt;N7</title>
<path fill="none" stroke="#2563eb" stroke-width="2" d="M348.17,-754.95C336.98,-740.44 323.32,-722.73 311.25,-707.07"/>
<polygon fill="#2563eb" stroke="#2563eb" stroke-width="2" points="314.31,-705.31 305.43,-699.52 308.77,-709.58 314.31,-705.31"/>
<text xml:space="preserve" text-anchor="middle" x="333.83" y="-722.74" font-family="Arial" font-size="9.00">22</text>
</g>
<!-- X3 -->
<g id="node15" class="node">
<title>X3</title>
<polygon fill="#fef3c7" stroke="#f59e0b" stroke-dasharray="5,2" points="516.88,-694.68 404.88,-694.68 404.88,-638.68 516.88,-638.68 516.88,-694.68"/>
<text xml:space="preserve" text-anchor="middle" x="460.88" y="-681.18" font-family="Arial" font-size="10.00" fill="#92400e">+3 ramos omitidos</text>
<text xml:space="preserve" text-anchor="middle" x="460.88" y="-669.18" font-family="Arial" font-size="10.00" fill="#92400e">limite visual</text>
<text xml:space="preserve" text-anchor="middle" x="460.88" y="-657.18" font-family="Arial" font-size="10.00" fill="#92400e">(estados gerados,</text>
<text xml:space="preserve" text-anchor="middle" x="460.88" y="-645.18" font-family="Arial" font-size="10.00" fill="#92400e">mas nao desenhados)</text>
</g>
<!-- N6&#45;&gt;X3 -->
<g id="edge14" class="edge">
<title>N6&#45;&gt;X3</title>
<path fill="none" stroke="#d97706" stroke-dasharray="5,2" d="M393.59,-754.95C407.75,-736.58 425.86,-713.1 439.72,-695.12"/>
</g>
<!-- N8 -->
<g id="node8" class="node">
<title>N8</title>
<ellipse fill="#dbeafe" stroke="black" cx="280.88" cy="-547.96" rx="99.88" ry="31.11"/>
<text xml:space="preserve" text-anchor="middle" x="280.88" y="-556.46" font-family="Arial" font-size="10.00">R5</text>
<text xml:space="preserve" text-anchor="middle" x="280.88" y="-544.46" font-family="Arial" font-size="10.00">g=133,80 h=170,55 f=304,35</text>
<text xml:space="preserve" text-anchor="middle" x="280.88" y="-532.46" font-family="Arial" font-size="10.00">b=1% coletas=3</text>
</g>
<!-- N7&#45;&gt;N8 -->
<g id="edge7" class="edge">
<title>N7&#45;&gt;N8</title>
<path fill="none" stroke="#2563eb" stroke-width="2" d="M280.88,-635.32C280.88,-622.08 280.88,-606.32 280.88,-591.91"/>
<polygon fill="#2563eb" stroke="#2563eb" stroke-width="2" points="284.38,-592.19 280.88,-582.19 277.38,-592.19 284.38,-592.19"/>
<text xml:space="preserve" text-anchor="middle" x="289.88" y="-604.02" font-family="Arial" font-size="9.00">18,0</text>
</g>
<!-- N9 -->
<g id="node9" class="node">
<title>N9</title>
<ellipse fill="#dcfce7" stroke="#059669" cx="189.88" cy="-420.74" rx="99.88" ry="39.6"/>
<text xml:space="preserve" text-anchor="middle" x="189.88" y="-435.24" font-family="Arial" font-size="10.00">R5</text>
<text xml:space="preserve" text-anchor="middle" x="189.88" y="-423.24" font-family="Arial" font-size="10.00">g=146,00 h=142,13 f=288,13</text>
<text xml:space="preserve" text-anchor="middle" x="189.88" y="-411.24" font-family="Arial" font-size="10.00">b=62% coletas=3</text>
<text xml:space="preserve" text-anchor="middle" x="189.88" y="-399.24" font-family="Arial" font-size="10.00">recarga</text>
</g>
<!-- N8&#45;&gt;N9 -->
<g id="edge8" class="edge">
<title>N8&#45;&gt;N9</title>
<path fill="none" stroke="#2563eb" stroke-width="2" d="M259.31,-517.28C248.97,-503.04 236.31,-485.63 224.65,-469.59"/>
<polygon fill="#2563eb" stroke="#2563eb" stroke-width="2" points="227.66,-467.77 218.95,-461.74 221.99,-471.89 227.66,-467.77"/>
<text xml:space="preserve" text-anchor="middle" x="266.7" y="-485.29" font-family="Arial" font-size="9.00">recarga 12,2</text>
</g>
<!-- X2 -->
<g id="node14" class="node">
<title>X2</title>
<polygon fill="#fef3c7" stroke="#f59e0b" stroke-dasharray="5,2" points="426.88,-448.74 314.88,-448.74 314.88,-392.74 426.88,-392.74 426.88,-448.74"/>
<text xml:space="preserve" text-anchor="middle" x="370.88" y="-435.24" font-family="Arial" font-size="10.00" fill="#92400e">+1 ramos omitidos</text>
<text xml:space="preserve" text-anchor="middle" x="370.88" y="-423.24" font-family="Arial" font-size="10.00" fill="#92400e">limite visual</text>
<text xml:space="preserve" text-anchor="middle" x="370.88" y="-411.24" font-family="Arial" font-size="10.00" fill="#92400e">(estados gerados,</text>
<text xml:space="preserve" text-anchor="middle" x="370.88" y="-399.24" font-family="Arial" font-size="10.00" fill="#92400e">mas nao desenhados)</text>
</g>
<!-- N8&#45;&gt;X2 -->
<g id="edge13" class="edge">
<title>N8&#45;&gt;X2</title>
<path fill="none" stroke="#d97706" stroke-dasharray="5,2" d="M302.21,-517.28C317.07,-496.6 336.76,-469.21 351.24,-449.07"/>
</g>
<!-- N10 -->
<g id="node10" class="node">
<title>N10</title>
<ellipse fill="#dbeafe" stroke="black" cx="99.88" cy="-293.53" rx="99.88" ry="31.11"/>
<text xml:space="preserve" text-anchor="middle" x="99.88" y="-302.03" font-family="Arial" font-size="10.00">C8</text>
<text xml:space="preserve" text-anchor="middle" x="99.88" y="-290.03" font-family="Arial" font-size="10.00">g=164,00 h=130,21 f=294,21</text>
<text xml:space="preserve" text-anchor="middle" x="99.88" y="-278.03" font-family="Arial" font-size="10.00">b=44% coletas=3</text>
</g>
<!-- N9&#45;&gt;N10 -->
<g id="edge9" class="edge">
<title>N9&#45;&gt;N10</title>
<path fill="none" stroke="#2563eb" stroke-width="2" d="M162.88,-382.18C152.02,-367.08 139.5,-349.65 128.49,-334.33"/>
<polygon fill="#2563eb" stroke="#2563eb" stroke-width="2" points="131.59,-332.66 122.91,-326.58 125.91,-336.74 131.59,-332.66"/>
<text xml:space="preserve" text-anchor="middle" x="150.13" y="-349.6" font-family="Arial" font-size="9.00">18</text>
</g>
<!-- X1 -->
<g id="node13" class="node">
<title>X1</title>
<polygon fill="#fef3c7" stroke="#f59e0b" stroke-dasharray="5,2" points="336.88,-321.53 224.88,-321.53 224.88,-265.53 336.88,-265.53 336.88,-321.53"/>
<text xml:space="preserve" text-anchor="middle" x="280.88" y="-308.03" font-family="Arial" font-size="10.00" fill="#92400e">+1 ramos omitidos</text>
<text xml:space="preserve" text-anchor="middle" x="280.88" y="-296.03" font-family="Arial" font-size="10.00" fill="#92400e">limite visual</text>
<text xml:space="preserve" text-anchor="middle" x="280.88" y="-284.03" font-family="Arial" font-size="10.00" fill="#92400e">(estados gerados,</text>
<text xml:space="preserve" text-anchor="middle" x="280.88" y="-272.03" font-family="Arial" font-size="10.00" fill="#92400e">mas nao desenhados)</text>
</g>
<!-- N9&#45;&gt;X1 -->
<g id="edge12" class="edge">
<title>N9&#45;&gt;X1</title>
<path fill="none" stroke="#d97706" stroke-dasharray="5,2" d="M217.18,-382.18C231.32,-362.73 248.26,-339.42 261.11,-321.73"/>
</g>
<!-- N11 -->
<g id="node11" class="node">
<title>N11</title>
<ellipse fill="#dbeafe" stroke="black" cx="99.88" cy="-174.81" rx="96.17" ry="31.11"/>
<text xml:space="preserve" text-anchor="middle" x="99.88" y="-183.31" font-family="Arial" font-size="10.00">C5</text>
<text xml:space="preserve" text-anchor="middle" x="99.88" y="-171.31" font-family="Arial" font-size="10.00">g=184,00 h=74,16 f=258,16</text>
<text xml:space="preserve" text-anchor="middle" x="99.88" y="-159.31" font-family="Arial" font-size="10.00">b=24% coletas=3</text>
</g>
<!-- N10&#45;&gt;N11 -->
<g id="edge10" class="edge">
<title>N10&#45;&gt;N11</title>
<path fill="none" stroke="#2563eb" stroke-width="2" d="M99.88,-262.17C99.88,-248.93 99.88,-233.17 99.88,-218.76"/>
<polygon fill="#2563eb" stroke="#2563eb" stroke-width="2" points="103.38,-219.05 99.88,-209.05 96.38,-219.05 103.38,-219.05"/>
<text xml:space="preserve" text-anchor="middle" x="105.13" y="-230.87" font-family="Arial" font-size="9.00">20</text>
</g>
<!-- N12 -->
<g id="node12" class="node">
<title>N12</title>
<ellipse fill="#b6f2b6" stroke="black" cx="99.88" cy="-43.6" rx="92.45" ry="39.6"/>
<ellipse fill="none" stroke="black" cx="99.88" cy="-43.6" rx="96.45" ry="43.6"/>
<text xml:space="preserve" text-anchor="middle" x="99.88" y="-58.1" font-family="Arial" font-size="10.00">OBJETIVO</text>
<text xml:space="preserve" text-anchor="middle" x="99.88" y="-46.1" font-family="Arial" font-size="10.00">C3</text>
<text xml:space="preserve" text-anchor="middle" x="99.88" y="-34.1" font-family="Arial" font-size="10.00">g=207,00 h=0,00 f=207,00</text>
<text xml:space="preserve" text-anchor="middle" x="99.88" y="-22.1" font-family="Arial" font-size="10.00">b=1% coletas=3</text>
</g>
<!-- N11&#45;&gt;N12 -->
<g id="edge11" class="edge">
<title>N11&#45;&gt;N12</title>
<path fill="none" stroke="#2563eb" stroke-width="2" d="M99.88,-143.51C99.88,-130.59 99.88,-115.09 99.88,-100.23"/>
<polygon fill="#2563eb" stroke="#2563eb" stroke-width="2" points="103.38,-100.45 99.88,-90.45 96.38,-100.45 103.38,-100.45"/>
<text xml:space="preserve" text-anchor="middle" x="105.13" y="-112.15" font-family="Arial" font-size="9.00">23</text>
</g>
<!-- legend_solution -->
<g id="node25" class="node">
<title>legend_solution</title>
<polygon fill="#dbeafe" stroke="black" points="1562.75,-1430.97 1423,-1430.97 1423,-1394.97 1562.75,-1394.97 1562.75,-1430.97"/>
<text xml:space="preserve" text-anchor="middle" x="1492.88" y="-1414.92" font-family="Arial" font-size="9.00">Estado no caminho escolhido</text>
<text xml:space="preserve" text-anchor="middle" x="1492.88" y="-1404.42" font-family="Arial" font-size="9.00">arestas azuis ligam a rota final</text>
</g>
<!-- legend_recharge -->
<g id="node26" class="node">
<title>legend_recharge</title>
<polygon fill="#dcfce7" stroke="#059669" points="1726.38,-1430.97 1587.38,-1430.97 1587.38,-1394.97 1726.38,-1394.97 1726.38,-1430.97"/>
<text xml:space="preserve" text-anchor="middle" x="1656.88" y="-1414.92" font-family="Arial" font-size="9.00">Acao de recarga executada</text>
<text xml:space="preserve" text-anchor="middle" x="1656.88" y="-1404.42" font-family="Arial" font-size="9.00">recarga tambem entra em g(s)</text>
</g>
<!-- legend_goal -->
<g id="node27" class="node">
<title>legend_goal</title>
<polygon fill="#b6f2b6" stroke="black" points="1842.13,-1430.97 1755.63,-1430.97 1755.63,-1394.97 1842.13,-1394.97 1842.13,-1430.97"/>
<polygon fill="none" stroke="black" points="1846.13,-1434.97 1751.63,-1434.97 1751.63,-1390.97 1846.13,-1390.97 1846.13,-1434.97"/>
<text xml:space="preserve" text-anchor="middle" x="1798.88" y="-1409.67" font-family="Arial" font-size="9.00">Destino / objetivo</text>
</g>
<!-- legend_expanded -->
<g id="node28" class="node">
<title>legend_expanded</title>
<polygon fill="#e5e7eb" stroke="black" points="1967,-1430.97 1870.75,-1430.97 1870.75,-1394.97 1967,-1394.97 1967,-1430.97"/>
<text xml:space="preserve" text-anchor="middle" x="1918.88" y="-1409.67" font-family="Arial" font-size="9.00">Expandido / Closed</text>
</g>
<!-- legend_open -->
<g id="node29" class="node">
<title>legend_open</title>
<polygon fill="white" stroke="black" points="2137.75,-1430.97 1992,-1430.97 1992,-1394.97 2137.75,-1394.97 2137.75,-1430.97"/>
<text xml:space="preserve" text-anchor="middle" x="2064.88" y="-1414.92" font-family="Arial" font-size="9.00">Gerado / Open</text>
<text xml:space="preserve" text-anchor="middle" x="2064.88" y="-1404.42" font-family="Arial" font-size="9.00">candidato ainda nao expandido</text>
</g>
<!-- legend_alternative -->
<g id="node30" class="node">
<title>legend_alternative</title>
<polygon fill="white" stroke="black" points="2271,-1430.97 2162.75,-1430.97 2162.75,-1394.97 2271,-1394.97 2271,-1430.97"/>
<text xml:space="preserve" text-anchor="middle" x="2216.88" y="-1414.92" font-family="Arial" font-size="9.00">Alternativa desenhada</text>
<text xml:space="preserve" text-anchor="middle" x="2216.88" y="-1404.42" font-family="Arial" font-size="9.00">aresta cinza</text>
</g>
<!-- legend_pruned -->
<g id="node31" class="node">
<title>legend_pruned</title>
<polygon fill="#fef3c7" stroke="black" points="2485.88,-1443.22 2295.88,-1443.22 2295.88,-1382.72 2485.88,-1382.72 2485.88,-1443.22"/>
<text xml:space="preserve" text-anchor="middle" x="2390.88" y="-1430.67" font-family="Arial" font-size="9.00">Ramos omitidos por limite visual:</text>
<text xml:space="preserve" text-anchor="middle" x="2390.88" y="-1420.17" font-family="Arial" font-size="9.00">estados gerados na execucao,</text>
<text xml:space="preserve" text-anchor="middle" x="2390.88" y="-1409.67" font-family="Arial" font-size="9.00">mas ocultados para evitar arvore ilegivel.</text>
<text xml:space="preserve" text-anchor="middle" x="2390.88" y="-1399.17" font-family="Arial" font-size="9.00">Nao e poda do algoritmo;</text>
<text xml:space="preserve" text-anchor="middle" x="2390.88" y="-1388.67" font-family="Arial" font-size="9.00">Open/Closed e metricas reais nao mudam.</text>
</g>
</g>
</svg>
