<?xml version="1.0" encoding="UTF-8" standalone="no"?>
<!DOCTYPE svg PUBLIC "-//W3C//DTD SVG 1.1//EN"
 "http://www.w3.org/Graphics/SVG/1.1/DTD/svg11.dtd">
<!-- Generated by graphviz version 15.0.0 (20260523.1842)
 -->
<!-- Title: ArvoreBuscaAStar Pages: 1 -->
<svg width="3080pt" height="1238pt"
 viewBox="0.00 0.00 3080.00 1238.00" xmlns="http://www.w3.org/2000/svg" xmlns:xlink="http://www.w3.org/1999/xlink">
<g id="graph0" class="graph" transform="scale(1 1) rotate(0) translate(4 1233.83)">
<title>ArvoreBuscaAStar</title>
<polygon fill="white" stroke="none" points="-4,4 -4,-1233.83 3076.45,-1233.83 3076.45,4 -4,4"/>
<text xml:space="preserve" text-anchor="middle" x="1536.23" y="-1214.43" font-family="Arial" font-size="12.00">Arvore focada compactada: mostra o caminho escolhido e algumas alternativas imediatas. Ramos omitidos sao limite visual, nao poda do A*.</text>
<g id="clust1" class="cluster">
<title>cluster_legend</title>
<polygon fill="none" stroke="#cccccc" points="1905.45,-1101.58 1905.45,-1199.58 3064.45,-1199.58 3064.45,-1101.58 1905.45,-1101.58"/>
<text xml:space="preserve" text-anchor="middle" x="2484.95" y="-1185.13" font-family="Arial" font-size="11.00">Legenda</text>
</g>
<!-- S1 -->
<g id="node1" class="node">
<title>S1</title>
<ellipse fill="#dbeafe" stroke="black" cx="1801.45" cy="-1139.83" rx="85.03" ry="31.11"/>
<text xml:space="preserve" text-anchor="middle" x="1801.45" y="-1148.33" font-family="Arial" font-size="10.00">C1</text>
<text xml:space="preserve" text-anchor="middle" x="1801.45" y="-1136.33" font-family="Arial" font-size="10.00">g=2,00 h=89,40 f=91,40</text>
<text xml:space="preserve" text-anchor="middle" x="1801.45" y="-1124.33" font-family="Arial" font-size="10.00">b=98% coletas=1</text>
</g>
<!-- S2 -->
<g id="node2" class="node">
<title>S2</title>
<ellipse fill="#dbeafe" stroke="black" cx="1696.45" cy="-1008.6" rx="92.45" ry="31.11"/>
<text xml:space="preserve" text-anchor="middle" x="1696.45" y="-1017.1" font-family="Arial" font-size="10.00">R1</text>
<text xml:space="preserve" text-anchor="middle" x="1696.45" y="-1005.1" font-family="Arial" font-size="10.00">g=20,00 h=81,95 f=101,95</text>
<text xml:space="preserve" text-anchor="middle" x="1696.45" y="-993.1" font-family="Arial" font-size="10.00">b=80% coletas=1</text>
</g>
<!-- S1&#45;&gt;S2 -->
<g id="edge1" class="edge">
<title>S1&#45;&gt;S2</title>
<path fill="none" stroke="#2563eb" stroke-width="2" d="M1777.63,-1109.5C1763.06,-1091.58 1744.25,-1068.42 1728.4,-1048.92"/>
<polygon fill="#2563eb" stroke="#2563eb" stroke-width="2" points="1731.12,-1046.71 1722.09,-1041.16 1725.68,-1051.13 1731.12,-1046.71"/>
<text xml:space="preserve" text-anchor="middle" x="1775.12" y="-1076.16" font-family="Arial" font-size="9.00">escolhido</text>
<text xml:space="preserve" text-anchor="middle" x="1775.12" y="-1065.66" font-family="Arial" font-size="9.00">18</text>
</g>
<!-- S10 -->
<g id="node10" class="node">
<title>S10</title>
<ellipse fill="#e5e7eb" stroke="black" stroke-dasharray="5,2" cx="1906.45" cy="-1008.6" rx="90.86" ry="31.11"/>
<text xml:space="preserve" text-anchor="middle" x="1906.45" y="-1017.1" font-family="Arial" font-size="10.00">C9</text>
<text xml:space="preserve" text-anchor="middle" x="1906.45" y="-1005.1" font-family="Arial" font-size="10.00">g=28,00 h=87,11 f=115,11</text>
<text xml:space="preserve" text-anchor="middle" x="1906.45" y="-993.1" font-family="Arial" font-size="10.00">b=72% coletas=2</text>
</g>
<!-- S1&#45;&gt;S10 -->
<g id="edge9" class="edge">
<title>S1&#45;&gt;S10</title>
<path fill="none" stroke="#9ca3af" d="M1825.28,-1109.5C1840.18,-1091.16 1859.53,-1067.35 1875.6,-1047.58"/>
<polygon fill="#9ca3af" stroke="#9ca3af" points="1878.18,-1049.95 1881.77,-1039.98 1872.75,-1045.54 1878.18,-1049.95"/>
<text xml:space="preserve" text-anchor="middle" x="1882.74" y="-1076.16" font-family="Arial" font-size="9.00">opcao</text>
<text xml:space="preserve" text-anchor="middle" x="1882.74" y="-1065.66" font-family="Arial" font-size="9.00">24 + coleta</text>
</g>
<!-- S3 -->
<g id="node3" class="node">
<title>S3</title>
<ellipse fill="#dbeafe" stroke="black" cx="1273.45" cy="-868.89" rx="91.92" ry="31.11"/>
<text xml:space="preserve" text-anchor="middle" x="1273.45" y="-877.39" font-family="Arial" font-size="10.00">C4</text>
<text xml:space="preserve" text-anchor="middle" x="1273.45" y="-865.39" font-family="Arial" font-size="10.00">g=44,00 h=69,23 f=113,23</text>
<text xml:space="preserve" text-anchor="middle" x="1273.45" y="-853.39" font-family="Arial" font-size="10.00">b=56% coletas=2</text>
</g>
<!-- S2&#45;&gt;S3 -->
<g id="edge2" class="edge">
<title>S2&#45;&gt;S3</title>
<path fill="none" stroke="#2563eb" stroke-width="2" d="M1627.9,-987.32C1563.28,-967.94 1463.88,-937.48 1378.45,-908.49 1367.9,-904.91 1356.8,-900.99 1345.93,-897.07"/>
<polygon fill="#2563eb" stroke="#2563eb" stroke-width="2" points="1347.23,-893.82 1336.64,-893.69 1344.84,-900.4 1347.23,-893.82"/>
<text xml:space="preserve" text-anchor="middle" x="1531.46" y="-944.94" font-family="Arial" font-size="9.00">escolhido</text>
<text xml:space="preserve" text-anchor="middle" x="1531.46" y="-934.44" font-family="Arial" font-size="9.00">22 + coleta</text>
</g>
<!-- S11 -->
<g id="node11" class="node">
<title>S11</title>
<ellipse fill="#dcfce7" stroke="#059669" stroke-dasharray="5,2" cx="1484.45" cy="-868.89" rx="92.45" ry="39.6"/>
<text xml:space="preserve" text-anchor="middle" x="1484.45" y="-883.39" font-family="Arial" font-size="10.00">R1</text>
<text xml:space="preserve" text-anchor="middle" x="1484.45" y="-871.39" font-family="Arial" font-size="10.00">g=22,00 h=81,46 f=103,46</text>
<text xml:space="preserve" text-anchor="middle" x="1484.45" y="-859.39" font-family="Arial" font-size="10.00">b=90% coletas=1</text>
<text xml:space="preserve" text-anchor="middle" x="1484.45" y="-847.39" font-family="Arial" font-size="10.00">recarga</text>
</g>
<!-- S2&#45;&gt;S11 -->
<g id="edge10" class="edge">
<title>S2&#45;&gt;S11</title>
<path fill="none" stroke="#9ca3af" d="M1654.57,-980.39C1622.89,-959.82 1578.97,-931.29 1543.69,-908.37"/>
<polygon fill="#9ca3af" stroke="#9ca3af" points="1546.02,-905.71 1535.73,-903.2 1542.2,-911.58 1546.02,-905.71"/>
<text xml:space="preserve" text-anchor="middle" x="1628.94" y="-944.94" font-family="Arial" font-size="9.00">opcao</text>
<text xml:space="preserve" text-anchor="middle" x="1628.94" y="-934.44" font-family="Arial" font-size="9.00">recarga 2</text>
</g>
<!-- S12 -->
<g id="node12" class="node">
<title>S12</title>
<ellipse fill="#dcfce7" stroke="#059669" stroke-dasharray="5,2" cx="1696.45" cy="-868.89" rx="92.45" ry="39.6"/>
<text xml:space="preserve" text-anchor="middle" x="1696.45" y="-883.39" font-family="Arial" font-size="10.00">R1</text>
<text xml:space="preserve" text-anchor="middle" x="1696.45" y="-871.39" font-family="Arial" font-size="10.00">g=22,40 h=81,46 f=103,86</text>
<text xml:space="preserve" text-anchor="middle" x="1696.45" y="-859.39" font-family="Arial" font-size="10.00">b=92% coletas=1</text>
<text xml:space="preserve" text-anchor="middle" x="1696.45" y="-847.39" font-family="Arial" font-size="10.00">recarga</text>
</g>
<!-- S2&#45;&gt;S12 -->
<g id="edge11" class="edge">
<title>S2&#45;&gt;S12</title>
<path fill="none" stroke="#9ca3af" d="M1696.45,-977.04C1696.45,-960.29 1696.45,-939.12 1696.45,-920.02"/>
<polygon fill="#9ca3af" stroke="#9ca3af" points="1699.95,-920.27 1696.45,-910.28 1692.95,-920.28 1699.95,-920.27"/>
<text xml:space="preserve" text-anchor="middle" x="1719.7" y="-944.94" font-family="Arial" font-size="9.00">opcao</text>
<text xml:space="preserve" text-anchor="middle" x="1719.7" y="-934.44" font-family="Arial" font-size="9.00">recarga 2,4</text>
</g>
<!-- S13 -->
<g id="node13" class="node">
<title>S13</title>
<ellipse fill="#dcfce7" stroke="#059669" stroke-dasharray="5,2" cx="1908.45" cy="-868.89" rx="92.45" ry="39.6"/>
<text xml:space="preserve" text-anchor="middle" x="1908.45" y="-883.39" font-family="Arial" font-size="10.00">R1</text>
<text xml:space="preserve" text-anchor="middle" x="1908.45" y="-871.39" font-family="Arial" font-size="10.00">g=23,20 h=81,46 f=104,66</text>
<text xml:space="preserve" text-anchor="middle" x="1908.45" y="-859.39" font-family="Arial" font-size="10.00">b=96% coletas=1</text>
<text xml:space="preserve" text-anchor="middle" x="1908.45" y="-847.39" font-family="Arial" font-size="10.00">recarga</text>
</g>
<!-- S2&#45;&gt;S13 -->
<g id="edge12" class="edge">
<title>S2&#45;&gt;S13</title>
<path fill="none" stroke="#9ca3af" d="M1738.34,-980.39C1770.02,-959.82 1813.94,-931.29 1849.22,-908.37"/>
<polygon fill="#9ca3af" stroke="#9ca3af" points="1850.7,-911.58 1857.18,-903.2 1846.89,-905.71 1850.7,-911.58"/>
<text xml:space="preserve" text-anchor="middle" x="1832.06" y="-944.94" font-family="Arial" font-size="9.00">opcao</text>
<text xml:space="preserve" text-anchor="middle" x="1832.06" y="-934.44" font-family="Arial" font-size="9.00">recarga 3,2</text>
</g>
<!-- P2 -->
<g id="node14" class="node">
<title>P2</title>
<polygon fill="#fef3c7" stroke="#f59e0b" stroke-dasharray="5,2" points="2139.45,-896.89 2027.45,-896.89 2027.45,-840.89 2139.45,-840.89 2139.45,-896.89"/>
<text xml:space="preserve" text-anchor="middle" x="2083.45" y="-883.39" font-family="Arial" font-size="10.00" fill="#92400e">+2 ramos omitidos</text>
<text xml:space="preserve" text-anchor="middle" x="2083.45" y="-871.39" font-family="Arial" font-size="10.00" fill="#92400e">limite visual</text>
<text xml:space="preserve" text-anchor="middle" x="2083.45" y="-859.39" font-family="Arial" font-size="10.00" fill="#92400e">(estados gerados,</text>
<text xml:space="preserve" text-anchor="middle" x="2083.45" y="-847.39" font-family="Arial" font-size="10.00" fill="#92400e">mas nao desenhados)</text>
</g>
<!-- S2&#45;&gt;P2 -->
<g id="edge13" class="edge">
<title>S2&#45;&gt;P2</title>
<path fill="none" stroke="#d97706" stroke-dasharray="5,2" d="M1766.12,-987.73C1845.36,-964.8 1969.56,-927.79 2014.45,-908.49 2022.15,-905.18 2030.09,-901.26 2037.73,-897.2"/>
</g>
<!-- S4 -->
<g id="node4" class="node">
<title>S4</title>
<ellipse fill="#dbeafe" stroke="black" cx="1062.45" cy="-729.18" rx="91.92" ry="31.11"/>
<text xml:space="preserve" text-anchor="middle" x="1062.45" y="-737.68" font-family="Arial" font-size="10.00">R2</text>
<text xml:space="preserve" text-anchor="middle" x="1062.45" y="-725.68" font-family="Arial" font-size="10.00">g=61,00 h=54,20 f=115,20</text>
<text xml:space="preserve" text-anchor="middle" x="1062.45" y="-713.68" font-family="Arial" font-size="10.00">b=39% coletas=2</text>
</g>
<!-- S3&#45;&gt;S4 -->
<g id="edge3" class="edge">
<title>S3&#45;&gt;S4</title>
<path fill="none" stroke="#2563eb" stroke-width="2" d="M1231.77,-840.68C1198.24,-818.81 1150.95,-787.94 1114.87,-764.39"/>
<polygon fill="#2563eb" stroke="#2563eb" stroke-width="2" points="1116.88,-761.52 1106.59,-758.99 1113.05,-767.38 1116.88,-761.52"/>
<text xml:space="preserve" text-anchor="middle" x="1194.16" y="-796.74" font-family="Arial" font-size="9.00">escolhido</text>
<text xml:space="preserve" text-anchor="middle" x="1194.16" y="-786.24" font-family="Arial" font-size="9.00">17</text>
</g>
<!-- S14 -->
<g id="node15" class="node">
<title>S14</title>
<ellipse fill="#e5e7eb" stroke="black" stroke-dasharray="5,2" cx="1273.45" cy="-729.18" rx="92.45" ry="31.11"/>
<text xml:space="preserve" text-anchor="middle" x="1273.45" y="-737.68" font-family="Arial" font-size="10.00">C10</text>
<text xml:space="preserve" text-anchor="middle" x="1273.45" y="-725.68" font-family="Arial" font-size="10.00">g=72,00 h=70,50 f=142,50</text>
<text xml:space="preserve" text-anchor="middle" x="1273.45" y="-713.68" font-family="Arial" font-size="10.00">b=28% coletas=3</text>
</g>
<!-- S3&#45;&gt;S14 -->
<g id="edge14" class="edge">
<title>S3&#45;&gt;S14</title>
<path fill="none" stroke="#9ca3af" d="M1273.45,-837.33C1273.45,-818.07 1273.45,-792.96 1273.45,-771.89"/>
<polygon fill="#9ca3af" stroke="#9ca3af" points="1276.95,-772.17 1273.45,-762.17 1269.95,-772.17 1276.95,-772.17"/>
<text xml:space="preserve" text-anchor="middle" x="1295.95" y="-796.74" font-family="Arial" font-size="9.00">opcao</text>
<text xml:space="preserve" text-anchor="middle" x="1295.95" y="-786.24" font-family="Arial" font-size="9.00">26 + coleta</text>
</g>
<!-- S15 -->
<g id="node16" class="node">
<title>S15</title>
<ellipse fill="#e5e7eb" stroke="black" stroke-dasharray="5,2" cx="1485.45" cy="-729.18" rx="92.45" ry="31.11"/>
<text xml:space="preserve" text-anchor="middle" x="1485.45" y="-737.68" font-family="Arial" font-size="10.00">R1</text>
<text xml:space="preserve" text-anchor="middle" x="1485.45" y="-725.68" font-family="Arial" font-size="10.00">g=66,00 h=88,75 f=154,75</text>
<text xml:space="preserve" text-anchor="middle" x="1485.45" y="-713.68" font-family="Arial" font-size="10.00">b=34% coletas=2</text>
</g>
<!-- S3&#45;&gt;S15 -->
<g id="edge15" class="edge">
<title>S3&#45;&gt;S15</title>
<path fill="none" stroke="#9ca3af" d="M1315.09,-840.85C1349.18,-818.7 1397.57,-787.27 1434.07,-763.56"/>
<polygon fill="#9ca3af" stroke="#9ca3af" points="1435.81,-766.6 1442.29,-758.22 1431.99,-760.73 1435.81,-766.6"/>
<text xml:space="preserve" text-anchor="middle" x="1411.19" y="-796.74" font-family="Arial" font-size="9.00">opcao</text>
<text xml:space="preserve" text-anchor="middle" x="1411.19" y="-786.24" font-family="Arial" font-size="9.00">22</text>
</g>
<!-- S5 -->
<g id="node5" class="node">
<title>S5</title>
<ellipse fill="#dcfce7" stroke="#059669" cx="640.45" cy="-589.47" rx="92.45" ry="39.6"/>
<text xml:space="preserve" text-anchor="middle" x="640.45" y="-603.97" font-family="Arial" font-size="10.00">R2</text>
<text xml:space="preserve" text-anchor="middle" x="640.45" y="-591.97" font-family="Arial" font-size="10.00">g=71,80 h=51,50 f=123,30</text>
<text xml:space="preserve" text-anchor="middle" x="640.45" y="-579.97" font-family="Arial" font-size="10.00">b=93% coletas=2</text>
<text xml:space="preserve" text-anchor="middle" x="640.45" y="-567.97" font-family="Arial" font-size="10.00">recarga</text>
</g>
<!-- S4&#45;&gt;S5 -->
<g id="edge4" class="edge">
<title>S4&#45;&gt;S5</title>
<path fill="none" stroke="#2563eb" stroke-width="2" d="M994.67,-707.89C930.48,-688.45 831.54,-657.89 746.45,-629.07 738.42,-626.35 730.06,-623.44 721.73,-620.49"/>
<polygon fill="#2563eb" stroke="#2563eb" stroke-width="2" points="723.02,-617.23 712.42,-617.17 720.67,-623.82 723.02,-617.23"/>
<text xml:space="preserve" text-anchor="middle" x="910.58" y="-665.52" font-family="Arial" font-size="9.00">escolhido</text>
<text xml:space="preserve" text-anchor="middle" x="910.58" y="-655.02" font-family="Arial" font-size="9.00">recarga 10,8</text>
</g>
<!-- S16 -->
<g id="node17" class="node">
<title>S16</title>
<ellipse fill="#dcfce7" stroke="#059669" stroke-dasharray="5,2" cx="851.45" cy="-589.47" rx="91.92" ry="39.6"/>
<text xml:space="preserve" text-anchor="middle" x="851.45" y="-603.97" font-family="Arial" font-size="10.00">R2</text>
<text xml:space="preserve" text-anchor="middle" x="851.45" y="-591.97" font-family="Arial" font-size="10.00">g=61,20 h=54,00 f=115,20</text>
<text xml:space="preserve" text-anchor="middle" x="851.45" y="-579.97" font-family="Arial" font-size="10.00">b=40% coletas=2</text>
<text xml:space="preserve" text-anchor="middle" x="851.45" y="-567.97" font-family="Arial" font-size="10.00">recarga</text>
</g>
<!-- S4&#45;&gt;S16 -->
<g id="edge16" class="edge">
<title>S4&#45;&gt;S16</title>
<path fill="none" stroke="#9ca3af" d="M1020.77,-700.97C989.37,-680.48 945.9,-652.11 910.86,-629.24"/>
<polygon fill="#9ca3af" stroke="#9ca3af" points="912.77,-626.31 902.49,-623.78 908.95,-632.17 912.77,-626.31"/>
<text xml:space="preserve" text-anchor="middle" x="999.1" y="-665.52" font-family="Arial" font-size="9.00">opcao</text>
<text xml:space="preserve" text-anchor="middle" x="999.1" y="-655.02" font-family="Arial" font-size="9.00">recarga 0,2</text>
</g>
<!-- S17 -->
<g id="node18" class="node">
<title>S17</title>
<ellipse fill="#dcfce7" stroke="#059669" stroke-dasharray="5,2" cx="1062.45" cy="-589.47" rx="91.92" ry="39.6"/>
<text xml:space="preserve" text-anchor="middle" x="1062.45" y="-603.97" font-family="Arial" font-size="10.00">R2</text>
<text xml:space="preserve" text-anchor="middle" x="1062.45" y="-591.97" font-family="Arial" font-size="10.00">g=65,20 h=51,50 f=116,70</text>
<text xml:space="preserve" text-anchor="middle" x="1062.45" y="-579.97" font-family="Arial" font-size="10.00">b=60% coletas=2</text>
<text xml:space="preserve" text-anchor="middle" x="1062.45" y="-567.97" font-family="Arial" font-size="10.00">recarga</text>
</g>
<!-- S4&#45;&gt;S17 -->
<g id="edge17" class="edge">
<title>S4&#45;&gt;S17</title>
<path fill="none" stroke="#9ca3af" d="M1062.45,-697.62C1062.45,-680.87 1062.45,-659.7 1062.45,-640.6"/>
<polygon fill="#9ca3af" stroke="#9ca3af" points="1065.95,-640.85 1062.45,-630.85 1058.95,-640.85 1065.95,-640.85"/>
<text xml:space="preserve" text-anchor="middle" x="1085.7" y="-665.52" font-family="Arial" font-size="9.00">opcao</text>
<text xml:space="preserve" text-anchor="middle" x="1085.7" y="-655.02" font-family="Arial" font-size="9.00">recarga 4,2</text>
</g>
<!-- S18 -->
<g id="node19" class="node">
<title>S18</title>
<ellipse fill="#dcfce7" stroke="#059669" stroke-dasharray="5,2" cx="1273.45" cy="-589.47" rx="91.92" ry="39.6"/>
<text xml:space="preserve" text-anchor="middle" x="1273.45" y="-603.97" font-family="Arial" font-size="10.00">R2</text>
<text xml:space="preserve" text-anchor="middle" x="1273.45" y="-591.97" font-family="Arial" font-size="10.00">g=66,80 h=51,50 f=118,30</text>
<text xml:space="preserve" text-anchor="middle" x="1273.45" y="-579.97" font-family="Arial" font-size="10.00">b=68% coletas=2</text>
<text xml:space="preserve" text-anchor="middle" x="1273.45" y="-567.97" font-family="Arial" font-size="10.00">recarga</text>
</g>
<!-- S4&#45;&gt;S18 -->
<g id="edge18" class="edge">
<title>S4&#45;&gt;S18</title>
<path fill="none" stroke="#9ca3af" d="M1104.14,-700.97C1135.54,-680.48 1179.01,-652.11 1214.05,-629.24"/>
<polygon fill="#9ca3af" stroke="#9ca3af" points="1215.96,-632.17 1222.42,-623.78 1212.13,-626.31 1215.96,-632.17"/>
<text xml:space="preserve" text-anchor="middle" x="1197.53" y="-665.52" font-family="Arial" font-size="9.00">opcao</text>
<text xml:space="preserve" text-anchor="middle" x="1197.53" y="-655.02" font-family="Arial" font-size="9.00">recarga 5,8</text>
</g>
<!-- P4 -->
<g id="node20" class="node">
<title>P4</title>
<polygon fill="#fef3c7" stroke="#f59e0b" stroke-dasharray="5,2" points="1504.45,-617.47 1392.45,-617.47 1392.45,-561.47 1504.45,-561.47 1504.45,-617.47"/>
<text xml:space="preserve" text-anchor="middle" x="1448.45" y="-603.97" font-family="Arial" font-size="10.00" fill="#92400e">+8 ramos omitidos</text>
<text xml:space="preserve" text-anchor="middle" x="1448.45" y="-591.97" font-family="Arial" font-size="10.00" fill="#92400e">limite visual</text>
<text xml:space="preserve" text-anchor="middle" x="1448.45" y="-579.97" font-family="Arial" font-size="10.00" fill="#92400e">(estados gerados,</text>
<text xml:space="preserve" text-anchor="middle" x="1448.45" y="-567.97" font-family="Arial" font-size="10.00" fill="#92400e">mas nao desenhados)</text>
</g>
<!-- S4&#45;&gt;P4 -->
<g id="edge19" class="edge">
<title>S4&#45;&gt;P4</title>
<path fill="none" stroke="#d97706" stroke-dasharray="5,2" d="M1131.66,-708.24C1210.37,-685.24 1333.78,-648.16 1378.45,-629.07 1386.11,-625.8 1394.02,-621.94 1401.65,-617.95"/>
</g>
<!-- S6 -->
<g id="node6" class="node">
<title>S6</title>
<ellipse fill="#dbeafe" stroke="black" cx="534.45" cy="-449.76" rx="92.45" ry="31.11"/>
<text xml:space="preserve" text-anchor="middle" x="534.45" y="-458.26" font-family="Arial" font-size="10.00">C7</text>
<text xml:space="preserve" text-anchor="middle" x="534.45" y="-446.26" font-family="Arial" font-size="10.00">g=98,80 h=38,24 f=137,04</text>
<text xml:space="preserve" text-anchor="middle" x="534.45" y="-434.26" font-family="Arial" font-size="10.00">b=66% coletas=3</text>
</g>
<!-- S5&#45;&gt;S6 -->
<g id="edge5" class="edge">
<title>S5&#45;&gt;S6</title>
<path fill="none" stroke="#2563eb" stroke-width="2" d="M612.05,-551.57C597.56,-532.74 579.92,-509.83 565.12,-490.61"/>
<polygon fill="#2563eb" stroke="#2563eb" stroke-width="2" points="567.95,-488.54 559.08,-482.75 562.41,-492.81 567.95,-488.54"/>
<text xml:space="preserve" text-anchor="middle" x="613.13" y="-517.32" font-family="Arial" font-size="9.00">escolhido</text>
<text xml:space="preserve" text-anchor="middle" x="613.13" y="-506.82" font-family="Arial" font-size="9.00">25 + coleta</text>
</g>
<!-- S19 -->
<g id="node21" class="node">
<title>S19</title>
<ellipse fill="#e5e7eb" stroke="black" stroke-dasharray="5,2" cx="746.45" cy="-449.76" rx="92.45" ry="31.11"/>
<text xml:space="preserve" text-anchor="middle" x="746.45" y="-458.26" font-family="Arial" font-size="10.00">C6</text>
<text xml:space="preserve" text-anchor="middle" x="746.45" y="-446.26" font-family="Arial" font-size="10.00">g=91,80 h=51,36 f=143,16</text>
<text xml:space="preserve" text-anchor="middle" x="746.45" y="-434.26" font-family="Arial" font-size="10.00">b=73% coletas=3</text>
</g>
<!-- S5&#45;&gt;S19 -->
<g id="edge20" class="edge">
<title>S5&#45;&gt;S19</title>
<path fill="none" stroke="#9ca3af" d="M668.86,-551.57C683.68,-532.31 701.81,-508.77 716.81,-489.28"/>
<polygon fill="#9ca3af" stroke="#9ca3af" points="719.42,-491.61 722.75,-481.55 713.88,-487.34 719.42,-491.61"/>
<text xml:space="preserve" text-anchor="middle" x="725.45" y="-517.32" font-family="Arial" font-size="9.00">opcao</text>
<text xml:space="preserve" text-anchor="middle" x="725.45" y="-506.82" font-family="Arial" font-size="9.00">18 + coleta</text>
</g>
<!-- S7 -->
<g id="node7" class="node">
<title>S7</title>
<ellipse fill="#dbeafe" stroke="black" cx="206.45" cy="-318.53" rx="96.17" ry="31.11"/>
<text xml:space="preserve" text-anchor="middle" x="206.45" y="-327.03" font-family="Arial" font-size="10.00">C8</text>
<text xml:space="preserve" text-anchor="middle" x="206.45" y="-315.03" font-family="Arial" font-size="10.00">g=120,80 h=26,04 f=146,84</text>
<text xml:space="preserve" text-anchor="middle" x="206.45" y="-303.03" font-family="Arial" font-size="10.00">b=44% coletas=3</text>
</g>
<!-- S6&#45;&gt;S7 -->
<g id="edge6" class="edge">
<title>S6&#45;&gt;S7</title>
<path fill="none" stroke="#2563eb" stroke-width="2" d="M475.44,-425.51C420.22,-403.75 337.61,-371.21 278.52,-347.93"/>
<polygon fill="#2563eb" stroke="#2563eb" stroke-width="2" points="280.07,-344.77 269.48,-344.36 277.5,-351.29 280.07,-344.77"/>
<text xml:space="preserve" text-anchor="middle" x="409.97" y="-386.1" font-family="Arial" font-size="9.00">escolhido</text>
<text xml:space="preserve" text-anchor="middle" x="409.97" y="-375.6" font-family="Arial" font-size="9.00">22</text>
</g>
<!-- A1 -->
<g id="node22" class="node">
<title>A1</title>
<ellipse fill="white" stroke="black" cx="425.45" cy="-318.53" rx="95.64" ry="31.11"/>
<text xml:space="preserve" text-anchor="middle" x="425.45" y="-327.03" font-family="Arial" font-size="10.00">C6</text>
<text xml:space="preserve" text-anchor="middle" x="425.45" y="-315.03" font-family="Arial" font-size="10.00">g=117,80 h=52,44 f=170,24</text>
<text xml:space="preserve" text-anchor="middle" x="425.45" y="-303.03" font-family="Arial" font-size="10.00">b=47% coletas=3</text>
</g>
<!-- S6&#45;&gt;A1 -->
<g id="edge21" class="edge">
<title>S6&#45;&gt;A1</title>
<path fill="none" stroke="#9ca3af" d="M509.72,-419.44C494.25,-401.1 474.17,-377.29 457.49,-357.51"/>
<polygon fill="#9ca3af" stroke="#9ca3af" points="460.19,-355.29 451.07,-349.9 454.84,-359.8 460.19,-355.29"/>
<text xml:space="preserve" text-anchor="middle" x="499.23" y="-386.1" font-family="Arial" font-size="9.00">opcao</text>
<text xml:space="preserve" text-anchor="middle" x="499.23" y="-375.6" font-family="Arial" font-size="9.00">19</text>
</g>
<!-- A2 -->
<g id="node23" class="node">
<title>A2</title>
<ellipse fill="white" stroke="black" cx="644.45" cy="-318.53" rx="96.17" ry="31.11"/>
<text xml:space="preserve" text-anchor="middle" x="644.45" y="-327.03" font-family="Arial" font-size="10.00">R2</text>
<text xml:space="preserve" text-anchor="middle" x="644.45" y="-315.03" font-family="Arial" font-size="10.00">g=123,80 h=51,40 f=175,20</text>
<text xml:space="preserve" text-anchor="middle" x="644.45" y="-303.03" font-family="Arial" font-size="10.00">b=41% coletas=3</text>
</g>
<!-- S6&#45;&gt;A2 -->
<g id="edge22" class="edge">
<title>S6&#45;&gt;A2</title>
<path fill="none" stroke="#9ca3af" d="M559.41,-419.44C575.1,-401.01 595.48,-377.07 612.36,-357.24"/>
<polygon fill="#9ca3af" stroke="#9ca3af" points="614.79,-359.78 618.61,-349.89 609.46,-355.24 614.79,-359.78"/>
<text xml:space="preserve" text-anchor="middle" x="608.79" y="-386.1" font-family="Arial" font-size="9.00">opcao</text>
<text xml:space="preserve" text-anchor="middle" x="608.79" y="-375.6" font-family="Arial" font-size="9.00">25</text>
</g>
<!-- A3 -->
<g id="node24" class="node">
<title>A3</title>
<ellipse fill="white" stroke="black" cx="863.45" cy="-318.53" rx="96.17" ry="31.11"/>
<text xml:space="preserve" text-anchor="middle" x="863.45" y="-327.03" font-family="Arial" font-size="10.00">C11</text>
<text xml:space="preserve" text-anchor="middle" x="863.45" y="-315.03" font-family="Arial" font-size="10.00">g=123,80 h=53,52 f=177,32</text>
<text xml:space="preserve" text-anchor="middle" x="863.45" y="-303.03" font-family="Arial" font-size="10.00">b=41% coletas=3</text>
</g>
<!-- S6&#45;&gt;A3 -->
<g id="edge23" class="edge">
<title>S6&#45;&gt;A3</title>
<path fill="none" stroke="#9ca3af" d="M593.65,-425.51C649.59,-403.54 733.54,-370.56 792.92,-347.24"/>
<polygon fill="#9ca3af" stroke="#9ca3af" points="793.9,-350.61 801.93,-343.7 791.35,-344.1 793.9,-350.61"/>
<text xml:space="preserve" text-anchor="middle" x="731.4" y="-386.1" font-family="Arial" font-size="9.00">opcao</text>
<text xml:space="preserve" text-anchor="middle" x="731.4" y="-375.6" font-family="Arial" font-size="9.00">25</text>
</g>
<!-- S8 -->
<g id="node8" class="node">
<title>S8</title>
<ellipse fill="#dbeafe" stroke="black" cx="96.45" cy="-187.31" rx="96.17" ry="31.11"/>
<text xml:space="preserve" text-anchor="middle" x="96.45" y="-195.81" font-family="Arial" font-size="10.00">C5</text>
<text xml:space="preserve" text-anchor="middle" x="96.45" y="-183.81" font-family="Arial" font-size="10.00">g=140,80 h=14,83 f=155,63</text>
<text xml:space="preserve" text-anchor="middle" x="96.45" y="-171.81" font-family="Arial" font-size="10.00">b=24% coletas=3</text>
</g>
<!-- S7&#45;&gt;S8 -->
<g id="edge7" class="edge">
<title>S7&#45;&gt;S8</title>
<path fill="none" stroke="#2563eb" stroke-width="2" d="M181.49,-288.21C166.16,-270.2 146.34,-246.92 129.69,-227.36"/>
<polygon fill="#2563eb" stroke="#2563eb" stroke-width="2" points="132.43,-225.17 123.28,-219.82 127.1,-229.7 132.43,-225.17"/>
<text xml:space="preserve" text-anchor="middle" x="177.92" y="-254.87" font-family="Arial" font-size="9.00">escolhido</text>
<text xml:space="preserve" text-anchor="middle" x="177.92" y="-244.37" font-family="Arial" font-size="9.00">20,0</text>
</g>
<!-- A4 -->
<g id="node25" class="node">
<title>A4</title>
<ellipse fill="white" stroke="black" cx="315.45" cy="-187.31" rx="95.64" ry="31.11"/>
<text xml:space="preserve" text-anchor="middle" x="315.45" y="-195.81" font-family="Arial" font-size="10.00">R5</text>
<text xml:space="preserve" text-anchor="middle" x="315.45" y="-183.81" font-family="Arial" font-size="10.00">g=138,80 h=29,11 f=167,91</text>
<text xml:space="preserve" text-anchor="middle" x="315.45" y="-171.81" font-family="Arial" font-size="10.00">b=26% coletas=3</text>
</g>
<!-- S7&#45;&gt;A4 -->
<g id="edge24" class="edge">
<title>S7&#45;&gt;A4</title>
<path fill="none" stroke="#9ca3af" d="M231.19,-288.21C246.66,-269.87 266.74,-246.06 283.42,-226.28"/>
<polygon fill="#9ca3af" stroke="#9ca3af" points="286.07,-228.57 289.84,-218.67 280.72,-224.06 286.07,-228.57"/>
<text xml:space="preserve" text-anchor="middle" x="280.23" y="-254.87" font-family="Arial" font-size="9.00">opcao</text>
<text xml:space="preserve" text-anchor="middle" x="280.23" y="-244.37" font-family="Arial" font-size="9.00">18,0</text>
</g>
<!-- S9 -->
<g id="node9" class="node">
<title>S9</title>
<ellipse fill="#b6f2b6" stroke="black" cx="96.45" cy="-43.6" rx="92.45" ry="39.6"/>
<ellipse fill="none" stroke="black" cx="96.45" cy="-43.6" rx="96.45" ry="43.6"/>
<text xml:space="preserve" text-anchor="middle" x="96.45" y="-58.1" font-family="Arial" font-size="10.00">OBJETIVO</text>
<text xml:space="preserve" text-anchor="middle" x="96.45" y="-46.1" font-family="Arial" font-size="10.00">C3</text>
<text xml:space="preserve" text-anchor="middle" x="96.45" y="-34.1" font-family="Arial" font-size="10.00">g=163,80 h=0,00 f=163,80</text>
<text xml:space="preserve" text-anchor="middle" x="96.45" y="-22.1" font-family="Arial" font-size="10.00">b=1% coletas=3</text>
</g>
<!-- S8&#45;&gt;S9 -->
<g id="edge8" class="edge">
<title>S8&#45;&gt;S9</title>
<path fill="none" stroke="#2563eb" stroke-width="2" d="M96.45,-155.91C96.45,-139.72 96.45,-119.29 96.45,-100.37"/>
<polygon fill="#2563eb" stroke="#2563eb" stroke-width="2" points="99.95,-100.61 96.45,-90.61 92.95,-100.61 99.95,-100.61"/>
<text xml:space="preserve" text-anchor="middle" x="116.33" y="-123.65" font-family="Arial" font-size="9.00">escolhido</text>
<text xml:space="preserve" text-anchor="middle" x="116.33" y="-113.15" font-family="Arial" font-size="9.00">23</text>
</g>
<!-- legend_solution -->
<g id="node26" class="node">
<title>legend_solution</title>
<polygon fill="#dbeafe" stroke="black" points="2053.33,-1157.83 1913.58,-1157.83 1913.58,-1121.83 2053.33,-1121.83 2053.33,-1157.83"/>
<text xml:space="preserve" text-anchor="middle" x="1983.45" y="-1141.78" font-family="Arial" font-size="9.00">Estado no caminho escolhido</text>
<text xml:space="preserve" text-anchor="middle" x="1983.45" y="-1131.28" font-family="Arial" font-size="9.00">arestas azuis ligam a rota final</text>
</g>
<!-- legend_recharge -->
<g id="node27" class="node">
<title>legend_recharge</title>
<polygon fill="#dcfce7" stroke="#059669" points="2218.95,-1157.83 2079.95,-1157.83 2079.95,-1121.83 2218.95,-1121.83 2218.95,-1157.83"/>
<text xml:space="preserve" text-anchor="middle" x="2149.45" y="-1141.78" font-family="Arial" font-size="9.00">Acao de recarga executada</text>
<text xml:space="preserve" text-anchor="middle" x="2149.45" y="-1131.28" font-family="Arial" font-size="9.00">recarga tambem entra em g(s)</text>
</g>
<!-- legend_goal -->
<g id="node28" class="node">
<title>legend_goal</title>
<polygon fill="#b6f2b6" stroke="black" points="2336.7,-1157.83 2250.2,-1157.83 2250.2,-1121.83 2336.7,-1121.83 2336.7,-1157.83"/>
<polygon fill="none" stroke="black" points="2340.7,-1161.83 2246.2,-1161.83 2246.2,-1117.83 2340.7,-1117.83 2340.7,-1161.83"/>
<text xml:space="preserve" text-anchor="middle" x="2293.45" y="-1136.53" font-family="Arial" font-size="9.00">Destino / objetivo</text>
</g>
<!-- legend_expanded -->
<g id="node29" class="node">
<title>legend_expanded</title>
<polygon fill="#e5e7eb" stroke="black" points="2531.33,-1157.83 2367.58,-1157.83 2367.58,-1121.83 2531.33,-1121.83 2531.33,-1157.83"/>
<text xml:space="preserve" text-anchor="middle" x="2449.45" y="-1141.78" font-family="Arial" font-size="9.00">Expandido / Closed</text>
<text xml:space="preserve" text-anchor="middle" x="2449.45" y="-1131.28" font-family="Arial" font-size="9.00">(filhos nao desenhados nesta visao)</text>
</g>
<!-- legend_open -->
<g id="node30" class="node">
<title>legend_open</title>
<polygon fill="white" stroke="black" points="2704.33,-1157.83 2558.58,-1157.83 2558.58,-1121.83 2704.33,-1121.83 2704.33,-1157.83"/>
<text xml:space="preserve" text-anchor="middle" x="2631.45" y="-1141.78" font-family="Arial" font-size="9.00">Gerado / Open</text>
<text xml:space="preserve" text-anchor="middle" x="2631.45" y="-1131.28" font-family="Arial" font-size="9.00">candidato ainda nao expandido</text>
</g>
<!-- legend_alternative -->
<g id="node31" class="node">
<title>legend_alternative</title>
<polygon fill="white" stroke="black" points="2839.58,-1157.83 2731.33,-1157.83 2731.33,-1121.83 2839.58,-1121.83 2839.58,-1157.83"/>
<text xml:space="preserve" text-anchor="middle" x="2785.45" y="-1141.78" font-family="Arial" font-size="9.00">Alternativa desenhada</text>
<text xml:space="preserve" text-anchor="middle" x="2785.45" y="-1131.28" font-family="Arial" font-size="9.00">aresta cinza</text>
</g>
<!-- legend_pruned -->
<g id="node32" class="node">
<title>legend_pruned</title>
<polygon fill="#fef3c7" stroke="black" points="3056.45,-1170.08 2866.45,-1170.08 2866.45,-1109.58 3056.45,-1109.58 3056.45,-1170.08"/>
<text xml:space="preserve" text-anchor="middle" x="2961.45" y="-1157.53" font-family="Arial" font-size="9.00">Ramos omitidos por limite visual:</text>
<text xml:space="preserve" text-anchor="middle" x="2961.45" y="-1147.03" font-family="Arial" font-size="9.00">estados gerados na execucao,</text>
<text xml:space="preserve" text-anchor="middle" x="2961.45" y="-1136.53" font-family="Arial" font-size="9.00">mas ocultados para evitar arvore ilegivel.</text>
<text xml:space="preserve" text-anchor="middle" x="2961.45" y="-1126.03" font-family="Arial" font-size="9.00">Nao e poda do algoritmo;</text>
<text xml:space="preserve" text-anchor="middle" x="2961.45" y="-1115.53" font-family="Arial" font-size="9.00">Open/Closed e metricas reais nao mudam.</text>
</g>
</g>
</svg>
